%
M48
M72
T01C0.01181
T02C0.01378
T03C0.01969
T04C0.04000
T05C0.09055
T06C0.11811
%
T01
X59100Y71300
X58000Y76400
X59500Y86400
X60400Y91400
X130000Y106100
X147300Y101300
X161400Y98200
X181300Y91300
X141300Y91300
X131300Y121300
X129700Y124800
X143000Y128100
X191300Y46300
T02
X156300Y61300
X151300Y61300
X146300Y61300
X156300Y66300
X151300Y86300
X146300Y86300
X193100Y94100
X193100Y99900
T03
X221300Y116300
X226300Y116300
X226300Y111300
X231300Y111300
X221300Y121300
X159200Y104600
X142900Y116600
X131300Y96300
X126300Y96300
X126300Y91300
X131300Y91300
X131300Y86300
X136300Y71300
X136300Y66300
X136300Y61300
X131300Y61300
X126300Y61300
X126300Y56300
X106300Y36300
X101300Y31300
X96300Y36300
X191300Y56300
X196300Y61300
X196300Y66300
X201300Y66300
X196300Y71300
X191300Y76300
X216300Y61300
X216300Y56300
X221300Y56300
X221300Y51300
X206300Y46300
X203400Y50700
X66300Y116300
X61300Y116300
X61300Y111300
X56300Y111300
X56300Y106300
T04
X91300Y101300
X91300Y91300
X91300Y71300
X91300Y61300
X136300Y51300
X146300Y51300
X156300Y51300
X161300Y30237
X171300Y30237
X181300Y30237
X191300Y30237
X201300Y30237
X211300Y30237
X131300Y30237
X121300Y30237
X81300Y30237
X71300Y30237
X212274Y84555
X216500Y93618
X220726Y102681
X211300Y130631
X201300Y130631
X191300Y130631
X181300Y130631
X171300Y130631
X81300Y130631
X71300Y130631
T05
X31300Y35355
X264056Y35355
T06
X56143Y34174
X56143Y126694
X239213Y126694
X239213Y34174
M30
