G75*
%MOIN*%
%OFA0B0*%
%FSLAX25Y25*%
%IPPOS*%
%LPD*%
%AMOC8*
5,1,8,0,0,1.08239X$1,22.5*
%
%ADD10C,0.12611*%
%ADD11R,0.04934X0.05052*%
%ADD12R,0.05052X0.04934*%
%ADD13R,0.08800X0.03400*%
%ADD14C,0.06800*%
%ADD15R,0.04737X0.05131*%
%ADD16R,0.05131X0.04737*%
%ADD17R,0.03950X0.06706*%
%ADD18R,0.07887X0.06312*%
%ADD19R,0.06312X0.08280*%
%ADD20OC8,0.06800*%
%ADD21R,0.14580X0.07099*%
%ADD22C,0.03581*%
%ADD23C,0.13855*%
%ADD24C,0.04369*%
%ADD25C,0.03778*%
D10*
X0056143Y0034174D03*
X0056143Y0126694D03*
X0239213Y0126694D03*
X0239213Y0034174D03*
D11*
G36*
X0204875Y0094646D02*
X0202790Y0090175D01*
X0198213Y0092310D01*
X0200298Y0096781D01*
X0204875Y0094646D01*
G37*
G36*
X0207787Y0100890D02*
X0205702Y0096419D01*
X0201125Y0098554D01*
X0203210Y0103025D01*
X0207787Y0100890D01*
G37*
D12*
X0091200Y0115455D03*
X0091200Y0122345D03*
D13*
X0078400Y0096418D03*
X0078400Y0091418D03*
X0078400Y0086418D03*
X0078400Y0081418D03*
X0078400Y0076418D03*
X0078400Y0071418D03*
X0078400Y0066418D03*
X0054200Y0066418D03*
X0054200Y0071418D03*
X0054200Y0076418D03*
X0054200Y0081418D03*
X0054200Y0086418D03*
X0054200Y0091418D03*
X0054200Y0096418D03*
D14*
X0088300Y0101300D02*
X0094300Y0101300D01*
X0094300Y0091300D02*
X0088300Y0091300D01*
X0088300Y0071300D02*
X0094300Y0071300D01*
X0094300Y0061300D02*
X0088300Y0061300D01*
X0209555Y0085823D02*
X0214993Y0083287D01*
X0219219Y0092350D02*
X0213781Y0094886D01*
X0218007Y0103949D02*
X0223445Y0101413D01*
D15*
X0199646Y0086300D03*
X0192954Y0086300D03*
D16*
X0164200Y0070846D03*
X0164200Y0064154D03*
D17*
X0125631Y0109725D03*
X0129961Y0111300D03*
X0134292Y0112087D03*
X0138623Y0111300D03*
X0142954Y0112087D03*
X0147284Y0111300D03*
X0151615Y0111300D03*
X0121300Y0111300D03*
D18*
X0126024Y0070749D03*
X0148426Y0070749D03*
D19*
X0154725Y0121930D03*
X0102954Y0126457D03*
D20*
X0081300Y0130631D03*
X0071300Y0130631D03*
X0171300Y0130631D03*
X0181300Y0130631D03*
X0191300Y0130631D03*
X0201300Y0130631D03*
X0211300Y0130631D03*
X0156300Y0051300D03*
X0146300Y0051300D03*
X0136300Y0051300D03*
X0131300Y0030237D03*
X0121300Y0030237D03*
X0081300Y0030237D03*
X0071300Y0030237D03*
X0161300Y0030237D03*
X0171300Y0030237D03*
X0181300Y0030237D03*
X0191300Y0030237D03*
X0201300Y0030237D03*
X0211300Y0030237D03*
D21*
G36*
X0208801Y0059100D02*
X0219110Y0048791D01*
X0214091Y0043772D01*
X0203782Y0054081D01*
X0208801Y0059100D01*
G37*
G36*
X0193768Y0074133D02*
X0204077Y0063824D01*
X0199058Y0058805D01*
X0188749Y0069114D01*
X0193768Y0074133D01*
G37*
D22*
X0181300Y0091300D03*
X0161400Y0098200D03*
X0147300Y0101300D03*
X0141300Y0091300D03*
X0130000Y0106100D03*
X0131300Y0121300D03*
X0129700Y0124800D03*
X0143000Y0128100D03*
X0060400Y0091400D03*
X0059500Y0086400D03*
X0058000Y0076400D03*
X0059100Y0071300D03*
X0191300Y0046300D03*
D23*
X0264056Y0035355D03*
X0031300Y0035355D03*
D24*
X0096300Y0036300D03*
X0101300Y0031300D03*
X0106300Y0036300D03*
X0126300Y0056300D03*
X0126300Y0061300D03*
X0131300Y0061300D03*
X0136300Y0061300D03*
X0136300Y0066300D03*
X0136300Y0071300D03*
X0131300Y0086300D03*
X0131300Y0091300D03*
X0126300Y0091300D03*
X0126300Y0096300D03*
X0131300Y0096300D03*
X0159200Y0104600D03*
X0142900Y0116600D03*
X0191300Y0076300D03*
X0196300Y0071300D03*
X0196300Y0066300D03*
X0201300Y0066300D03*
X0196300Y0061300D03*
X0191300Y0056300D03*
X0203400Y0050700D03*
X0206300Y0046300D03*
X0221300Y0051300D03*
X0221300Y0056300D03*
X0216300Y0056300D03*
X0216300Y0061300D03*
X0226300Y0111300D03*
X0231300Y0111300D03*
X0226300Y0116300D03*
X0221300Y0116300D03*
X0221300Y0121300D03*
X0066300Y0116300D03*
X0061300Y0116300D03*
X0061300Y0111300D03*
X0056300Y0111300D03*
X0056300Y0106300D03*
D25*
X0146300Y0086300D03*
X0151300Y0086300D03*
X0156300Y0066300D03*
X0156300Y0061300D03*
X0151300Y0061300D03*
X0146300Y0061300D03*
X0193100Y0094100D03*
X0193100Y0099900D03*
M02*
