G75*
%MOIN*%
%OFA0B0*%
%FSLAX25Y25*%
%IPPOS*%
%LPD*%
%AMOC8*
5,1,8,0,0,1.08239X$1,22.5*
%
%ADD10R,0.04134X0.04252*%
%ADD11R,0.04252X0.04134*%
%ADD12R,0.08000X0.02600*%
%ADD13C,0.06000*%
%ADD14R,0.03937X0.04331*%
%ADD15R,0.04331X0.03937*%
%ADD16R,0.03150X0.05906*%
%ADD17R,0.07087X0.05512*%
%ADD18R,0.05512X0.07480*%
%ADD19OC8,0.06000*%
%ADD20R,0.13780X0.06299*%
%ADD21C,0.02000*%
%ADD22C,0.03200*%
%ADD23C,0.02400*%
%ADD24C,0.02781*%
%ADD25C,0.13055*%
%ADD26C,0.00600*%
%ADD27C,0.03569*%
%ADD28C,0.02978*%
%ADD29C,0.01600*%
%ADD30C,0.03000*%
D10*
G36*
X0204344Y0094452D02*
X0202597Y0090707D01*
X0198744Y0092504D01*
X0200491Y0096249D01*
X0204344Y0094452D01*
G37*
G36*
X0207256Y0100696D02*
X0205509Y0096951D01*
X0201656Y0098748D01*
X0203403Y0102493D01*
X0207256Y0100696D01*
G37*
D11*
X0091200Y0115455D03*
X0091200Y0122345D03*
D12*
X0078400Y0096418D03*
X0078400Y0091418D03*
X0078400Y0086418D03*
X0078400Y0081418D03*
X0078400Y0076418D03*
X0078400Y0071418D03*
X0078400Y0066418D03*
X0054200Y0066418D03*
X0054200Y0071418D03*
X0054200Y0076418D03*
X0054200Y0081418D03*
X0054200Y0086418D03*
X0054200Y0091418D03*
X0054200Y0096418D03*
D13*
X0088300Y0101300D02*
X0094300Y0101300D01*
X0094300Y0091300D02*
X0088300Y0091300D01*
X0088300Y0071300D02*
X0094300Y0071300D01*
X0094300Y0061300D02*
X0088300Y0061300D01*
X0209555Y0085823D02*
X0214993Y0083287D01*
X0219219Y0092350D02*
X0213781Y0094886D01*
X0218007Y0103949D02*
X0223445Y0101413D01*
D14*
X0199646Y0086300D03*
X0192954Y0086300D03*
D15*
X0164200Y0070846D03*
X0164200Y0064154D03*
D16*
X0125631Y0109725D03*
X0129961Y0111300D03*
X0134292Y0112087D03*
X0138623Y0111300D03*
X0142954Y0112087D03*
X0147284Y0111300D03*
X0151615Y0111300D03*
X0121300Y0111300D03*
D17*
X0126024Y0070749D03*
X0148426Y0070749D03*
D18*
X0154725Y0121930D03*
X0102954Y0126457D03*
D19*
X0081300Y0130631D03*
X0071300Y0130631D03*
X0171300Y0130631D03*
X0181300Y0130631D03*
X0191300Y0130631D03*
X0201300Y0130631D03*
X0211300Y0130631D03*
X0156300Y0051300D03*
X0146300Y0051300D03*
X0136300Y0051300D03*
X0131300Y0030237D03*
X0121300Y0030237D03*
X0081300Y0030237D03*
X0071300Y0030237D03*
X0161300Y0030237D03*
X0171300Y0030237D03*
X0181300Y0030237D03*
X0191300Y0030237D03*
X0201300Y0030237D03*
X0211300Y0030237D03*
D20*
G36*
X0208801Y0058534D02*
X0218544Y0048791D01*
X0214091Y0044338D01*
X0204348Y0054081D01*
X0208801Y0058534D01*
G37*
G36*
X0193768Y0073567D02*
X0203511Y0063824D01*
X0199058Y0059371D01*
X0189315Y0069114D01*
X0193768Y0073567D01*
G37*
D21*
X0211300Y0066300D02*
X0191300Y0046300D01*
X0211300Y0066300D02*
X0212274Y0084555D01*
X0210158Y0086300D01*
X0199646Y0086300D01*
X0199600Y0089200D01*
X0201544Y0093478D01*
X0211300Y0107000D02*
X0220726Y0102681D01*
X0211300Y0107000D02*
X0211300Y0130631D01*
X0141300Y0091300D02*
X0141300Y0056300D01*
X0146300Y0051300D01*
X0131300Y0036300D02*
X0126300Y0041300D01*
X0081300Y0041300D01*
X0066300Y0056300D01*
X0066300Y0091300D01*
X0061182Y0096418D01*
X0054200Y0096418D01*
X0054200Y0086418D02*
X0056182Y0086418D01*
X0056300Y0086300D01*
X0056400Y0086400D01*
X0059500Y0086400D01*
X0059582Y0081418D02*
X0054200Y0081418D01*
X0059582Y0081418D02*
X0062500Y0078500D01*
X0062500Y0050100D01*
X0071300Y0041300D01*
X0071300Y0030237D01*
X0131300Y0030237D02*
X0131300Y0036300D01*
X0059100Y0071300D02*
X0058982Y0071418D01*
X0054200Y0071418D01*
D22*
X0091300Y0101300D02*
X0091200Y0115455D01*
D23*
X0091300Y0101300D02*
X0083282Y0101300D01*
X0078400Y0096418D01*
D24*
X0060400Y0091400D03*
X0059500Y0086400D03*
X0058000Y0076400D03*
X0059100Y0071300D03*
X0130000Y0106100D03*
X0147300Y0101300D03*
X0161400Y0098200D03*
X0181300Y0091300D03*
X0141300Y0091300D03*
X0131300Y0121300D03*
X0129700Y0124800D03*
X0143000Y0128100D03*
X0191300Y0046300D03*
D25*
X0264056Y0035355D03*
X0031300Y0035355D03*
D26*
X0026138Y0029170D02*
X0027986Y0027827D01*
X0030158Y0027121D01*
X0031300Y0027031D01*
X0051115Y0027031D01*
X0048847Y0029299D01*
X0047537Y0032462D01*
X0047537Y0035886D01*
X0048847Y0039049D01*
X0051268Y0041469D01*
X0054431Y0042780D01*
X0057854Y0042780D01*
X0061017Y0041469D01*
X0063438Y0039049D01*
X0064748Y0035886D01*
X0064748Y0032462D01*
X0063438Y0029299D01*
X0061170Y0027031D01*
X0066445Y0027031D01*
X0065600Y0027876D01*
X0065600Y0032598D01*
X0067600Y0034598D01*
X0067600Y0039767D01*
X0060404Y0046963D01*
X0060404Y0046963D01*
X0059363Y0048004D01*
X0058800Y0049364D01*
X0058800Y0063963D01*
X0058702Y0063907D01*
X0058371Y0063818D01*
X0054500Y0063818D01*
X0054500Y0066118D01*
X0053900Y0066118D01*
X0053900Y0063818D01*
X0050029Y0063818D01*
X0049698Y0063907D01*
X0049402Y0064078D01*
X0049160Y0064320D01*
X0049000Y0064597D01*
X0049000Y0058970D01*
X0047794Y0054468D01*
X0047794Y0054468D01*
X0045464Y0050432D01*
X0045464Y0050432D01*
X0042168Y0047136D01*
X0042168Y0047136D01*
X0038132Y0044806D01*
X0038132Y0044806D01*
X0033630Y0043600D01*
X0031300Y0043600D01*
X0030158Y0043510D01*
X0027986Y0042804D01*
X0026138Y0041462D01*
X0024796Y0039614D01*
X0024090Y0037442D01*
X0024000Y0036300D01*
X0024000Y0034331D01*
X0024090Y0033190D01*
X0024796Y0031017D01*
X0026138Y0029170D01*
X0026049Y0029293D02*
X0048854Y0029293D01*
X0048602Y0029891D02*
X0025614Y0029891D01*
X0025179Y0030490D02*
X0048354Y0030490D01*
X0048106Y0031088D02*
X0024773Y0031088D01*
X0024578Y0031687D02*
X0047858Y0031687D01*
X0047610Y0032285D02*
X0024384Y0032285D01*
X0024189Y0032884D02*
X0047537Y0032884D01*
X0047537Y0033482D02*
X0024067Y0033482D01*
X0024020Y0034081D02*
X0047537Y0034081D01*
X0047537Y0034679D02*
X0024000Y0034679D01*
X0024000Y0035278D02*
X0047537Y0035278D01*
X0047537Y0035876D02*
X0024000Y0035876D01*
X0024014Y0036475D02*
X0047781Y0036475D01*
X0048029Y0037073D02*
X0024061Y0037073D01*
X0024165Y0037672D02*
X0048277Y0037672D01*
X0048525Y0038270D02*
X0024359Y0038270D01*
X0024553Y0038869D02*
X0048773Y0038869D01*
X0049266Y0039467D02*
X0024748Y0039467D01*
X0025124Y0040066D02*
X0049864Y0040066D01*
X0050463Y0040664D02*
X0025559Y0040664D01*
X0025993Y0041263D02*
X0051061Y0041263D01*
X0052214Y0041861D02*
X0026688Y0041861D01*
X0027512Y0042460D02*
X0053659Y0042460D01*
X0058626Y0042460D02*
X0064908Y0042460D01*
X0065506Y0041861D02*
X0060071Y0041861D01*
X0061224Y0041263D02*
X0066105Y0041263D01*
X0066703Y0040664D02*
X0061822Y0040664D01*
X0062421Y0040066D02*
X0067302Y0040066D01*
X0067600Y0039467D02*
X0063019Y0039467D01*
X0063512Y0038869D02*
X0067600Y0038869D01*
X0067600Y0038270D02*
X0063760Y0038270D01*
X0064008Y0037672D02*
X0067600Y0037672D01*
X0067600Y0037073D02*
X0064256Y0037073D01*
X0064504Y0036475D02*
X0067600Y0036475D01*
X0067600Y0035876D02*
X0064748Y0035876D01*
X0064748Y0035278D02*
X0067600Y0035278D01*
X0067600Y0034679D02*
X0064748Y0034679D01*
X0064748Y0034081D02*
X0067083Y0034081D01*
X0066484Y0033482D02*
X0064748Y0033482D01*
X0064748Y0032884D02*
X0065886Y0032884D01*
X0065600Y0032285D02*
X0064675Y0032285D01*
X0064427Y0031687D02*
X0065600Y0031687D01*
X0065600Y0031088D02*
X0064179Y0031088D01*
X0063931Y0030490D02*
X0065600Y0030490D01*
X0065600Y0029891D02*
X0063683Y0029891D01*
X0063431Y0029293D02*
X0065600Y0029293D01*
X0065600Y0028694D02*
X0062833Y0028694D01*
X0062234Y0028096D02*
X0065600Y0028096D01*
X0065979Y0027497D02*
X0061636Y0027497D01*
X0050649Y0027497D02*
X0029002Y0027497D01*
X0027616Y0028096D02*
X0050051Y0028096D01*
X0049452Y0028694D02*
X0026793Y0028694D01*
X0028768Y0043058D02*
X0064309Y0043058D01*
X0063711Y0043657D02*
X0033842Y0043657D01*
X0036076Y0044255D02*
X0063112Y0044255D01*
X0062514Y0044854D02*
X0038214Y0044854D01*
X0039251Y0045452D02*
X0061915Y0045452D01*
X0061317Y0046051D02*
X0040288Y0046051D01*
X0041324Y0046649D02*
X0060718Y0046649D01*
X0060120Y0047248D02*
X0042279Y0047248D01*
X0042878Y0047846D02*
X0059521Y0047846D01*
X0059181Y0048445D02*
X0043477Y0048445D01*
X0044075Y0049043D02*
X0058933Y0049043D01*
X0058800Y0049642D02*
X0044674Y0049642D01*
X0045272Y0050240D02*
X0058800Y0050240D01*
X0058800Y0050839D02*
X0045698Y0050839D01*
X0046044Y0051437D02*
X0058800Y0051437D01*
X0058800Y0052036D02*
X0046390Y0052036D01*
X0046735Y0052634D02*
X0058800Y0052634D01*
X0058800Y0053233D02*
X0047081Y0053233D01*
X0047426Y0053832D02*
X0058800Y0053832D01*
X0058800Y0054430D02*
X0047772Y0054430D01*
X0047944Y0055029D02*
X0058800Y0055029D01*
X0058800Y0055627D02*
X0048104Y0055627D01*
X0048265Y0056226D02*
X0058800Y0056226D01*
X0058800Y0056824D02*
X0048425Y0056824D01*
X0048585Y0057423D02*
X0058800Y0057423D01*
X0058800Y0058021D02*
X0048746Y0058021D01*
X0048906Y0058620D02*
X0058800Y0058620D01*
X0058800Y0059218D02*
X0049000Y0059218D01*
X0049000Y0059817D02*
X0058800Y0059817D01*
X0058800Y0060415D02*
X0049000Y0060415D01*
X0049000Y0061014D02*
X0058800Y0061014D01*
X0058800Y0061612D02*
X0049000Y0061612D01*
X0049000Y0062211D02*
X0058800Y0062211D01*
X0058800Y0062809D02*
X0049000Y0062809D01*
X0049000Y0063408D02*
X0058800Y0063408D01*
X0054500Y0064006D02*
X0053900Y0064006D01*
X0053900Y0064605D02*
X0054500Y0064605D01*
X0054500Y0065203D02*
X0053900Y0065203D01*
X0053900Y0065802D02*
X0054500Y0065802D01*
X0049526Y0064006D02*
X0049000Y0064006D01*
X0054500Y0076118D02*
X0058800Y0076118D01*
X0058800Y0076718D01*
X0054500Y0076718D01*
X0054500Y0076118D01*
X0054500Y0076575D02*
X0058800Y0076575D01*
X0070000Y0076575D02*
X0078100Y0076575D01*
X0078100Y0076718D02*
X0078100Y0076118D01*
X0078700Y0076118D01*
X0078700Y0071718D01*
X0078100Y0071718D01*
X0078100Y0071118D01*
X0073100Y0071118D01*
X0073100Y0070102D01*
X0072871Y0070007D01*
X0072111Y0069248D01*
X0071700Y0068255D01*
X0071700Y0064581D01*
X0072111Y0063589D01*
X0072871Y0062829D01*
X0073863Y0062418D01*
X0082937Y0062418D01*
X0083929Y0062829D01*
X0084589Y0063489D01*
X0084315Y0062951D01*
X0084106Y0062307D01*
X0084000Y0061638D01*
X0084000Y0061600D01*
X0091000Y0061600D01*
X0091000Y0065600D01*
X0087962Y0065600D01*
X0087293Y0065494D01*
X0086649Y0065285D01*
X0086046Y0064978D01*
X0085499Y0064580D01*
X0085020Y0064101D01*
X0084744Y0063721D01*
X0085100Y0064581D01*
X0085100Y0066456D01*
X0087166Y0065600D01*
X0095434Y0065600D01*
X0097529Y0066468D01*
X0099132Y0068071D01*
X0100000Y0070166D01*
X0100000Y0072434D01*
X0099132Y0074529D01*
X0097529Y0076132D01*
X0095434Y0077000D01*
X0087166Y0077000D01*
X0085071Y0076132D01*
X0083632Y0074693D01*
X0083700Y0074947D01*
X0083700Y0076118D01*
X0078700Y0076118D01*
X0078700Y0076718D01*
X0083700Y0076718D01*
X0083700Y0077734D01*
X0083929Y0077829D01*
X0084689Y0078589D01*
X0085100Y0079581D01*
X0085100Y0083255D01*
X0084689Y0084248D01*
X0083929Y0085007D01*
X0083700Y0085102D01*
X0083700Y0086118D01*
X0078700Y0086118D01*
X0078700Y0086718D01*
X0083700Y0086718D01*
X0083700Y0087839D01*
X0085071Y0086468D01*
X0087166Y0085600D01*
X0095434Y0085600D01*
X0097529Y0086468D01*
X0099132Y0088071D01*
X0100000Y0090166D01*
X0100000Y0092434D01*
X0099132Y0094529D01*
X0097529Y0096132D01*
X0097124Y0096300D01*
X0097529Y0096468D01*
X0099132Y0098071D01*
X0100000Y0100166D01*
X0100000Y0102434D01*
X0099132Y0104529D01*
X0097529Y0106132D01*
X0095560Y0106948D01*
X0095526Y0111770D01*
X0095615Y0111859D01*
X0096026Y0112851D01*
X0096026Y0118059D01*
X0095615Y0119051D01*
X0094855Y0119811D01*
X0094578Y0119926D01*
X0094626Y0120107D01*
X0094626Y0122045D01*
X0091500Y0122045D01*
X0091500Y0122645D01*
X0090900Y0122645D01*
X0090900Y0125712D01*
X0088903Y0125712D01*
X0088572Y0125623D01*
X0088276Y0125452D01*
X0088034Y0125210D01*
X0087863Y0124914D01*
X0087774Y0124583D01*
X0087774Y0122645D01*
X0090900Y0122645D01*
X0090900Y0122045D01*
X0087774Y0122045D01*
X0087774Y0120107D01*
X0087822Y0119926D01*
X0087545Y0119811D01*
X0086785Y0119051D01*
X0086374Y0118059D01*
X0086374Y0112851D01*
X0086785Y0111859D01*
X0086926Y0111718D01*
X0086960Y0106915D01*
X0085071Y0106132D01*
X0084139Y0105200D01*
X0082506Y0105200D01*
X0081073Y0104606D01*
X0079976Y0103509D01*
X0076885Y0100418D01*
X0073863Y0100418D01*
X0072871Y0100007D01*
X0072111Y0099248D01*
X0071700Y0098255D01*
X0071700Y0094581D01*
X0072111Y0093589D01*
X0072871Y0092829D01*
X0073100Y0092734D01*
X0073100Y0091718D01*
X0078100Y0091718D01*
X0078100Y0091118D01*
X0078700Y0091118D01*
X0078700Y0086718D01*
X0078100Y0086718D01*
X0078100Y0086118D01*
X0073100Y0086118D01*
X0073100Y0085102D01*
X0072871Y0085007D01*
X0072111Y0084248D01*
X0071700Y0083255D01*
X0071700Y0079581D01*
X0072111Y0078589D01*
X0072871Y0077829D01*
X0073100Y0077734D01*
X0073100Y0076718D01*
X0078100Y0076718D01*
X0078100Y0076118D02*
X0073100Y0076118D01*
X0073100Y0074947D01*
X0073189Y0074616D01*
X0073360Y0074320D01*
X0073602Y0074078D01*
X0073878Y0073918D01*
X0073602Y0073758D01*
X0073360Y0073516D01*
X0073189Y0073220D01*
X0073100Y0072889D01*
X0073100Y0071718D01*
X0078100Y0071718D01*
X0078100Y0074018D01*
X0078100Y0076118D01*
X0078100Y0075976D02*
X0078700Y0075976D01*
X0078700Y0075378D02*
X0078100Y0075378D01*
X0078100Y0074779D02*
X0078700Y0074779D01*
X0078700Y0074181D02*
X0078100Y0074181D01*
X0078100Y0073582D02*
X0078700Y0073582D01*
X0078700Y0072984D02*
X0078100Y0072984D01*
X0078100Y0072385D02*
X0078700Y0072385D01*
X0078700Y0071787D02*
X0078100Y0071787D01*
X0078100Y0071188D02*
X0070000Y0071188D01*
X0070000Y0070590D02*
X0073100Y0070590D01*
X0072855Y0069991D02*
X0070000Y0069991D01*
X0070000Y0069393D02*
X0072256Y0069393D01*
X0071923Y0068794D02*
X0070000Y0068794D01*
X0070000Y0068196D02*
X0071700Y0068196D01*
X0071700Y0067597D02*
X0070000Y0067597D01*
X0070000Y0066999D02*
X0071700Y0066999D01*
X0071700Y0066400D02*
X0070000Y0066400D01*
X0070000Y0065802D02*
X0071700Y0065802D01*
X0071700Y0065203D02*
X0070000Y0065203D01*
X0070000Y0064605D02*
X0071700Y0064605D01*
X0071938Y0064006D02*
X0070000Y0064006D01*
X0070000Y0063408D02*
X0072292Y0063408D01*
X0072919Y0062809D02*
X0070000Y0062809D01*
X0070000Y0062211D02*
X0084091Y0062211D01*
X0084000Y0061612D02*
X0070000Y0061612D01*
X0070000Y0061014D02*
X0091000Y0061014D01*
X0091000Y0061000D02*
X0084000Y0061000D01*
X0084000Y0060962D01*
X0084106Y0060293D01*
X0084315Y0059649D01*
X0084622Y0059046D01*
X0085020Y0058499D01*
X0085499Y0058020D01*
X0086046Y0057622D01*
X0086649Y0057315D01*
X0087293Y0057106D01*
X0087962Y0057000D01*
X0091000Y0057000D01*
X0091000Y0061000D01*
X0091600Y0061000D01*
X0091600Y0061600D01*
X0091000Y0061600D01*
X0091000Y0061000D01*
X0091000Y0060415D02*
X0091600Y0060415D01*
X0091600Y0061000D02*
X0091600Y0057000D01*
X0094638Y0057000D01*
X0095307Y0057106D01*
X0095951Y0057315D01*
X0096554Y0057622D01*
X0097101Y0058020D01*
X0097580Y0058499D01*
X0097978Y0059046D01*
X0098285Y0059649D01*
X0098494Y0060293D01*
X0098600Y0060962D01*
X0098600Y0061000D01*
X0091600Y0061000D01*
X0091600Y0061014D02*
X0137600Y0061014D01*
X0137600Y0061612D02*
X0098600Y0061612D01*
X0098600Y0061600D02*
X0098600Y0061638D01*
X0098494Y0062307D01*
X0098285Y0062951D01*
X0097978Y0063554D01*
X0097580Y0064101D01*
X0097101Y0064580D01*
X0096554Y0064978D01*
X0095951Y0065285D01*
X0095307Y0065494D01*
X0094638Y0065600D01*
X0091600Y0065600D01*
X0091600Y0061600D01*
X0098600Y0061600D01*
X0098509Y0062211D02*
X0137600Y0062211D01*
X0137600Y0062809D02*
X0098331Y0062809D01*
X0098052Y0063408D02*
X0137600Y0063408D01*
X0137600Y0064006D02*
X0097649Y0064006D01*
X0097067Y0064605D02*
X0137600Y0064605D01*
X0137600Y0065203D02*
X0096111Y0065203D01*
X0095921Y0065802D02*
X0120854Y0065802D01*
X0120952Y0065704D02*
X0121944Y0065293D01*
X0130105Y0065293D01*
X0131097Y0065704D01*
X0131857Y0066463D01*
X0132268Y0067456D01*
X0132268Y0074042D01*
X0131857Y0075034D01*
X0131097Y0075794D01*
X0130105Y0076205D01*
X0121944Y0076205D01*
X0120952Y0075794D01*
X0120192Y0075034D01*
X0119781Y0074042D01*
X0119781Y0067456D01*
X0120192Y0066463D01*
X0120952Y0065704D01*
X0120255Y0066400D02*
X0097366Y0066400D01*
X0098060Y0066999D02*
X0119970Y0066999D01*
X0119781Y0067597D02*
X0098658Y0067597D01*
X0099184Y0068196D02*
X0119781Y0068196D01*
X0119781Y0068794D02*
X0099432Y0068794D01*
X0099680Y0069393D02*
X0119781Y0069393D01*
X0119781Y0069991D02*
X0099928Y0069991D01*
X0100000Y0070590D02*
X0119781Y0070590D01*
X0119781Y0071188D02*
X0100000Y0071188D01*
X0100000Y0071787D02*
X0119781Y0071787D01*
X0119781Y0072385D02*
X0100000Y0072385D01*
X0099772Y0072984D02*
X0119781Y0072984D01*
X0119781Y0073582D02*
X0099524Y0073582D01*
X0099276Y0074181D02*
X0119839Y0074181D01*
X0120087Y0074779D02*
X0098882Y0074779D01*
X0098283Y0075378D02*
X0120536Y0075378D01*
X0121393Y0075976D02*
X0097685Y0075976D01*
X0096460Y0076575D02*
X0137600Y0076575D01*
X0137600Y0077173D02*
X0083700Y0077173D01*
X0083791Y0077772D02*
X0137600Y0077772D01*
X0137600Y0078370D02*
X0084471Y0078370D01*
X0084846Y0078969D02*
X0137600Y0078969D01*
X0137600Y0079568D02*
X0085094Y0079568D01*
X0085100Y0080166D02*
X0137600Y0080166D01*
X0137600Y0080765D02*
X0085100Y0080765D01*
X0085100Y0081363D02*
X0137600Y0081363D01*
X0137600Y0081962D02*
X0085100Y0081962D01*
X0085100Y0082560D02*
X0137600Y0082560D01*
X0137600Y0083159D02*
X0085100Y0083159D01*
X0084892Y0083757D02*
X0137600Y0083757D01*
X0137600Y0084356D02*
X0084581Y0084356D01*
X0083982Y0084954D02*
X0137600Y0084954D01*
X0137600Y0085553D02*
X0083700Y0085553D01*
X0083700Y0086750D02*
X0084789Y0086750D01*
X0084191Y0087348D02*
X0083700Y0087348D01*
X0085836Y0086151D02*
X0078700Y0086151D01*
X0078700Y0086750D02*
X0078100Y0086750D01*
X0078100Y0086718D02*
X0078100Y0089018D01*
X0078100Y0091118D01*
X0073100Y0091118D01*
X0073100Y0089947D01*
X0073189Y0089616D01*
X0073360Y0089320D01*
X0073602Y0089078D01*
X0073878Y0088918D01*
X0073602Y0088758D01*
X0073360Y0088516D01*
X0073189Y0088220D01*
X0073100Y0087889D01*
X0073100Y0086718D01*
X0078100Y0086718D01*
X0078100Y0086151D02*
X0070000Y0086151D01*
X0070000Y0085553D02*
X0073100Y0085553D01*
X0072818Y0084954D02*
X0070000Y0084954D01*
X0070000Y0084356D02*
X0072219Y0084356D01*
X0071908Y0083757D02*
X0070000Y0083757D01*
X0070000Y0083159D02*
X0071700Y0083159D01*
X0071700Y0082560D02*
X0070000Y0082560D01*
X0070000Y0081962D02*
X0071700Y0081962D01*
X0071700Y0081363D02*
X0070000Y0081363D01*
X0070000Y0080765D02*
X0071700Y0080765D01*
X0071700Y0080166D02*
X0070000Y0080166D01*
X0070000Y0079568D02*
X0071706Y0079568D01*
X0071954Y0078969D02*
X0070000Y0078969D01*
X0070000Y0078370D02*
X0072329Y0078370D01*
X0073009Y0077772D02*
X0070000Y0077772D01*
X0070000Y0077173D02*
X0073100Y0077173D01*
X0073100Y0075976D02*
X0070000Y0075976D01*
X0070000Y0075378D02*
X0073100Y0075378D01*
X0073145Y0074779D02*
X0070000Y0074779D01*
X0070000Y0074181D02*
X0073499Y0074181D01*
X0073426Y0073582D02*
X0070000Y0073582D01*
X0070000Y0072984D02*
X0073125Y0072984D01*
X0073100Y0072385D02*
X0070000Y0072385D01*
X0070000Y0071787D02*
X0073100Y0071787D01*
X0078700Y0076575D02*
X0086140Y0076575D01*
X0084915Y0075976D02*
X0083700Y0075976D01*
X0083700Y0075378D02*
X0084317Y0075378D01*
X0083718Y0074779D02*
X0083655Y0074779D01*
X0085100Y0066400D02*
X0085234Y0066400D01*
X0085100Y0065802D02*
X0086679Y0065802D01*
X0086489Y0065203D02*
X0085100Y0065203D01*
X0085100Y0064605D02*
X0085533Y0064605D01*
X0084951Y0064006D02*
X0084862Y0064006D01*
X0084548Y0063408D02*
X0084508Y0063408D01*
X0084269Y0062809D02*
X0083881Y0062809D01*
X0084087Y0060415D02*
X0070000Y0060415D01*
X0070000Y0059817D02*
X0084261Y0059817D01*
X0084535Y0059218D02*
X0070000Y0059218D01*
X0070000Y0058620D02*
X0084932Y0058620D01*
X0085498Y0058021D02*
X0070000Y0058021D01*
X0070000Y0057833D02*
X0070000Y0092036D01*
X0069437Y0093396D01*
X0068396Y0094437D01*
X0063278Y0099555D01*
X0061918Y0100118D01*
X0059461Y0100118D01*
X0058737Y0100418D01*
X0049663Y0100418D01*
X0049000Y0100143D01*
X0049000Y0121666D01*
X0051268Y0119398D01*
X0054431Y0118088D01*
X0057854Y0118088D01*
X0061017Y0119398D01*
X0063438Y0121819D01*
X0064748Y0124982D01*
X0064748Y0128405D01*
X0063438Y0131568D01*
X0061170Y0133836D01*
X0066445Y0133836D01*
X0065600Y0132992D01*
X0065600Y0128270D01*
X0068939Y0124931D01*
X0073661Y0124931D01*
X0076300Y0127570D01*
X0078939Y0124931D01*
X0083661Y0124931D01*
X0087000Y0128270D01*
X0087000Y0132992D01*
X0086155Y0133836D01*
X0166445Y0133836D01*
X0165600Y0132992D01*
X0165600Y0128270D01*
X0168939Y0124931D01*
X0173661Y0124931D01*
X0176300Y0127570D01*
X0178939Y0124931D01*
X0183661Y0124931D01*
X0186300Y0127570D01*
X0188939Y0124931D01*
X0193661Y0124931D01*
X0197000Y0128270D01*
X0197000Y0132992D01*
X0196155Y0133836D01*
X0198424Y0133836D01*
X0197000Y0132412D01*
X0197000Y0130931D01*
X0201000Y0130931D01*
X0201000Y0130331D01*
X0197000Y0130331D01*
X0197000Y0128850D01*
X0199519Y0126331D01*
X0201000Y0126331D01*
X0201000Y0130331D01*
X0201600Y0130331D01*
X0201600Y0130931D01*
X0205600Y0130931D01*
X0205600Y0132412D01*
X0204176Y0133836D01*
X0206445Y0133836D01*
X0205600Y0132992D01*
X0205600Y0128270D01*
X0207600Y0126270D01*
X0207600Y0107068D01*
X0207575Y0106401D01*
X0207600Y0106335D01*
X0207600Y0106264D01*
X0207855Y0105647D01*
X0208088Y0105021D01*
X0208136Y0104970D01*
X0208163Y0104904D01*
X0208635Y0104432D01*
X0209090Y0103943D01*
X0209154Y0103913D01*
X0209204Y0103863D01*
X0209821Y0103608D01*
X0212515Y0102373D01*
X0213039Y0100934D01*
X0214571Y0099262D01*
X0222064Y0095768D01*
X0224329Y0095669D01*
X0226460Y0096445D01*
X0228132Y0097977D01*
X0229090Y0100032D01*
X0229189Y0102297D01*
X0228414Y0104428D01*
X0226882Y0106100D01*
X0219389Y0109594D01*
X0217123Y0109693D01*
X0215553Y0109121D01*
X0215000Y0109375D01*
X0215000Y0126270D01*
X0217000Y0128270D01*
X0217000Y0132992D01*
X0216155Y0133836D01*
X0234186Y0133836D01*
X0231918Y0131568D01*
X0230608Y0128405D01*
X0230608Y0124982D01*
X0231918Y0121819D01*
X0234339Y0119398D01*
X0237502Y0118088D01*
X0240925Y0118088D01*
X0244088Y0119398D01*
X0246356Y0121666D01*
X0246356Y0061406D01*
X0246348Y0059072D01*
X0247543Y0054554D01*
X0247543Y0054554D01*
X0249866Y0050498D01*
X0253160Y0047183D01*
X0257200Y0044832D01*
X0260597Y0043910D01*
X0258829Y0043178D01*
X0256233Y0040582D01*
X0254828Y0037191D01*
X0254828Y0033520D01*
X0256233Y0030128D01*
X0258829Y0027532D01*
X0260038Y0027031D01*
X0244241Y0027031D01*
X0246509Y0029299D01*
X0247819Y0032462D01*
X0247819Y0035886D01*
X0246509Y0039049D01*
X0244088Y0041469D01*
X0240925Y0042780D01*
X0237502Y0042780D01*
X0234339Y0041469D01*
X0231918Y0039049D01*
X0230608Y0035886D01*
X0230608Y0032462D01*
X0231918Y0029299D01*
X0234186Y0027031D01*
X0216155Y0027031D01*
X0217000Y0027876D01*
X0217000Y0032598D01*
X0214800Y0034798D01*
X0214800Y0036996D01*
X0214267Y0038283D01*
X0213283Y0039267D01*
X0209267Y0043283D01*
X0208283Y0044267D01*
X0206996Y0044800D01*
X0195106Y0044800D01*
X0195158Y0044926D01*
X0203411Y0053178D01*
X0208087Y0048502D01*
X0211022Y0051436D01*
X0211446Y0051012D01*
X0211870Y0051436D01*
X0211446Y0051860D01*
X0214380Y0054794D01*
X0209703Y0059471D01*
X0213847Y0063614D01*
X0214321Y0064040D01*
X0214365Y0064132D01*
X0214437Y0064204D01*
X0214681Y0064793D01*
X0214956Y0065368D01*
X0214961Y0065470D01*
X0215000Y0065564D01*
X0215000Y0066201D01*
X0215606Y0077555D01*
X0215877Y0077543D01*
X0218008Y0078319D01*
X0219680Y0079851D01*
X0220638Y0081906D01*
X0220737Y0084171D01*
X0219961Y0086302D01*
X0218429Y0087974D01*
X0210936Y0091468D01*
X0208671Y0091567D01*
X0206540Y0090791D01*
X0205676Y0090000D01*
X0205247Y0090000D01*
X0207018Y0093798D01*
X0207065Y0094871D01*
X0206698Y0095881D01*
X0206495Y0096103D01*
X0206615Y0096246D01*
X0207434Y0098002D01*
X0204601Y0099323D01*
X0204855Y0099867D01*
X0207688Y0098546D01*
X0208507Y0100303D01*
X0208566Y0100640D01*
X0208536Y0100981D01*
X0208419Y0101302D01*
X0208223Y0101583D01*
X0207961Y0101803D01*
X0206151Y0102647D01*
X0204855Y0099867D01*
X0204311Y0100121D01*
X0205607Y0102900D01*
X0203797Y0103744D01*
X0203460Y0103804D01*
X0203119Y0103774D01*
X0202797Y0103657D01*
X0202517Y0103461D01*
X0202297Y0103198D01*
X0201478Y0101442D01*
X0204311Y0100121D01*
X0204057Y0099577D01*
X0201224Y0100898D01*
X0200405Y0099142D01*
X0200373Y0098957D01*
X0200072Y0098970D01*
X0199063Y0098603D01*
X0198271Y0097877D01*
X0196070Y0093157D01*
X0196023Y0092084D01*
X0196377Y0091111D01*
X0196266Y0090831D01*
X0195459Y0091165D01*
X0190448Y0091165D01*
X0189456Y0090754D01*
X0188696Y0089995D01*
X0188615Y0089800D01*
X0187750Y0089800D01*
X0185358Y0092191D01*
X0184768Y0093617D01*
X0183617Y0094768D01*
X0182114Y0095391D01*
X0180486Y0095391D01*
X0178983Y0094768D01*
X0177932Y0093717D01*
X0165067Y0106583D01*
X0164083Y0107567D01*
X0162796Y0108100D01*
X0162042Y0108100D01*
X0161740Y0108402D01*
X0160092Y0109084D01*
X0158308Y0109084D01*
X0156660Y0108402D01*
X0155763Y0107505D01*
X0155890Y0107810D01*
X0155890Y0114790D01*
X0155600Y0115490D01*
X0158018Y0115490D01*
X0159011Y0115901D01*
X0159770Y0116660D01*
X0160181Y0117653D01*
X0160181Y0126207D01*
X0159770Y0127199D01*
X0159011Y0127959D01*
X0158018Y0128370D01*
X0151432Y0128370D01*
X0150440Y0127959D01*
X0149680Y0127199D01*
X0149269Y0126207D01*
X0149269Y0117653D01*
X0149559Y0116953D01*
X0149503Y0116953D01*
X0149450Y0116931D01*
X0149396Y0116953D01*
X0145172Y0116953D01*
X0144180Y0116542D01*
X0143978Y0116340D01*
X0143254Y0116340D01*
X0143254Y0115379D01*
X0143009Y0114790D01*
X0143009Y0112387D01*
X0142898Y0112387D01*
X0142898Y0114790D01*
X0142654Y0115379D01*
X0142654Y0116340D01*
X0142123Y0116340D01*
X0142123Y0122173D01*
X0144062Y0124112D01*
X0145317Y0124632D01*
X0146468Y0125783D01*
X0147091Y0127286D01*
X0147091Y0128914D01*
X0146468Y0130417D01*
X0145317Y0131568D01*
X0143814Y0132191D01*
X0142186Y0132191D01*
X0140683Y0131568D01*
X0139532Y0130417D01*
X0138909Y0128914D01*
X0138909Y0128859D01*
X0135656Y0125605D01*
X0135123Y0124319D01*
X0135123Y0122760D01*
X0134768Y0123617D01*
X0133791Y0124594D01*
X0133791Y0125614D01*
X0133168Y0127117D01*
X0132017Y0128268D01*
X0130514Y0128891D01*
X0128886Y0128891D01*
X0127383Y0128268D01*
X0126232Y0127117D01*
X0125642Y0125691D01*
X0118333Y0118383D01*
X0117800Y0117096D01*
X0117800Y0116146D01*
X0117436Y0115782D01*
X0117025Y0114790D01*
X0117025Y0107810D01*
X0117436Y0106818D01*
X0118196Y0106058D01*
X0119188Y0105647D01*
X0121600Y0105647D01*
X0121767Y0105243D01*
X0122526Y0104483D01*
X0123519Y0104072D01*
X0126412Y0104072D01*
X0126532Y0103783D01*
X0127683Y0102632D01*
X0129186Y0102009D01*
X0130814Y0102009D01*
X0130962Y0102071D01*
X0131149Y0101749D01*
X0131325Y0101325D01*
X0131497Y0101153D01*
X0137209Y0091365D01*
X0137209Y0090486D01*
X0137600Y0089543D01*
X0137600Y0057000D01*
X0133939Y0057000D01*
X0130600Y0053661D01*
X0130600Y0048939D01*
X0133939Y0045600D01*
X0138661Y0045600D01*
X0141300Y0048239D01*
X0143939Y0045600D01*
X0148661Y0045600D01*
X0151300Y0048239D01*
X0153939Y0045600D01*
X0158661Y0045600D01*
X0162000Y0048939D01*
X0162000Y0052050D01*
X0166183Y0056233D01*
X0167167Y0057217D01*
X0167700Y0058504D01*
X0167700Y0059815D01*
X0167800Y0059857D01*
X0167800Y0034798D01*
X0166300Y0033298D01*
X0163661Y0035937D01*
X0158939Y0035937D01*
X0155600Y0032598D01*
X0155600Y0027876D01*
X0156445Y0027031D01*
X0136155Y0027031D01*
X0137000Y0027876D01*
X0137000Y0032598D01*
X0135000Y0034598D01*
X0135000Y0037036D01*
X0134437Y0038396D01*
X0128396Y0044437D01*
X0127036Y0045000D01*
X0082833Y0045000D01*
X0070000Y0057833D01*
X0070410Y0057423D02*
X0086438Y0057423D01*
X0091000Y0057423D02*
X0091600Y0057423D01*
X0091600Y0058021D02*
X0091000Y0058021D01*
X0091000Y0058620D02*
X0091600Y0058620D01*
X0091600Y0059218D02*
X0091000Y0059218D01*
X0091000Y0059817D02*
X0091600Y0059817D01*
X0091600Y0061612D02*
X0091000Y0061612D01*
X0091000Y0062211D02*
X0091600Y0062211D01*
X0091600Y0062809D02*
X0091000Y0062809D01*
X0091000Y0063408D02*
X0091600Y0063408D01*
X0091600Y0064006D02*
X0091000Y0064006D01*
X0091000Y0064605D02*
X0091600Y0064605D01*
X0091600Y0065203D02*
X0091000Y0065203D01*
X0098513Y0060415D02*
X0137600Y0060415D01*
X0137600Y0059817D02*
X0098339Y0059817D01*
X0098065Y0059218D02*
X0137600Y0059218D01*
X0137600Y0058620D02*
X0097668Y0058620D01*
X0097102Y0058021D02*
X0137600Y0058021D01*
X0137600Y0057423D02*
X0096162Y0057423D01*
X0080585Y0047248D02*
X0132291Y0047248D01*
X0131693Y0047846D02*
X0079986Y0047846D01*
X0079388Y0048445D02*
X0131094Y0048445D01*
X0130600Y0049043D02*
X0078789Y0049043D01*
X0078191Y0049642D02*
X0130600Y0049642D01*
X0130600Y0050240D02*
X0077592Y0050240D01*
X0076994Y0050839D02*
X0130600Y0050839D01*
X0130600Y0051437D02*
X0076395Y0051437D01*
X0075797Y0052036D02*
X0130600Y0052036D01*
X0130600Y0052634D02*
X0075198Y0052634D01*
X0074600Y0053233D02*
X0130600Y0053233D01*
X0130771Y0053832D02*
X0074001Y0053832D01*
X0073403Y0054430D02*
X0131369Y0054430D01*
X0131968Y0055029D02*
X0072804Y0055029D01*
X0072206Y0055627D02*
X0132566Y0055627D01*
X0133165Y0056226D02*
X0071607Y0056226D01*
X0071009Y0056824D02*
X0133763Y0056824D01*
X0145000Y0057833D02*
X0145000Y0065293D01*
X0152506Y0065293D01*
X0153499Y0065704D01*
X0154258Y0066463D01*
X0154669Y0067456D01*
X0154669Y0074042D01*
X0154258Y0075034D01*
X0153499Y0075794D01*
X0152506Y0076205D01*
X0145000Y0076205D01*
X0145000Y0089543D01*
X0145391Y0090486D01*
X0145391Y0092114D01*
X0144768Y0093617D01*
X0143617Y0094768D01*
X0143237Y0094925D01*
X0137792Y0104254D01*
X0137792Y0105647D01*
X0140735Y0105647D01*
X0141727Y0106058D01*
X0142487Y0106818D01*
X0142898Y0107810D01*
X0142898Y0111787D01*
X0143009Y0111787D01*
X0143009Y0107810D01*
X0143420Y0106818D01*
X0143800Y0106438D01*
X0143800Y0103539D01*
X0143209Y0102114D01*
X0143209Y0100486D01*
X0143800Y0099061D01*
X0143800Y0097804D01*
X0144333Y0096517D01*
X0160700Y0080150D01*
X0160700Y0075185D01*
X0160505Y0075104D01*
X0159746Y0074344D01*
X0159335Y0073352D01*
X0159335Y0068341D01*
X0159683Y0067500D01*
X0159335Y0066659D01*
X0159335Y0061648D01*
X0159746Y0060656D01*
X0160226Y0060176D01*
X0157050Y0057000D01*
X0153939Y0057000D01*
X0151300Y0054361D01*
X0148661Y0057000D01*
X0145833Y0057000D01*
X0145000Y0057833D01*
X0145000Y0058021D02*
X0158071Y0058021D01*
X0157473Y0057423D02*
X0145410Y0057423D01*
X0145000Y0058620D02*
X0158670Y0058620D01*
X0159268Y0059218D02*
X0145000Y0059218D01*
X0145000Y0059817D02*
X0159867Y0059817D01*
X0159986Y0060415D02*
X0145000Y0060415D01*
X0145000Y0061014D02*
X0159597Y0061014D01*
X0159349Y0061612D02*
X0145000Y0061612D01*
X0145000Y0062211D02*
X0159335Y0062211D01*
X0159335Y0062809D02*
X0145000Y0062809D01*
X0145000Y0063408D02*
X0159335Y0063408D01*
X0159335Y0064006D02*
X0145000Y0064006D01*
X0145000Y0064605D02*
X0159335Y0064605D01*
X0159335Y0065203D02*
X0145000Y0065203D01*
X0137600Y0065802D02*
X0131195Y0065802D01*
X0131793Y0066400D02*
X0137600Y0066400D01*
X0137600Y0066999D02*
X0132078Y0066999D01*
X0132268Y0067597D02*
X0137600Y0067597D01*
X0137600Y0068196D02*
X0132268Y0068196D01*
X0132268Y0068794D02*
X0137600Y0068794D01*
X0137600Y0069393D02*
X0132268Y0069393D01*
X0132268Y0069991D02*
X0137600Y0069991D01*
X0137600Y0070590D02*
X0132268Y0070590D01*
X0132268Y0071188D02*
X0137600Y0071188D01*
X0137600Y0071787D02*
X0132268Y0071787D01*
X0132268Y0072385D02*
X0137600Y0072385D01*
X0137600Y0072984D02*
X0132268Y0072984D01*
X0132268Y0073582D02*
X0137600Y0073582D01*
X0137600Y0074181D02*
X0132210Y0074181D01*
X0131962Y0074779D02*
X0137600Y0074779D01*
X0137600Y0075378D02*
X0131513Y0075378D01*
X0130656Y0075976D02*
X0137600Y0075976D01*
X0145000Y0076575D02*
X0160700Y0076575D01*
X0160700Y0077173D02*
X0145000Y0077173D01*
X0145000Y0077772D02*
X0160700Y0077772D01*
X0160700Y0078370D02*
X0145000Y0078370D01*
X0145000Y0078969D02*
X0160700Y0078969D01*
X0160700Y0079568D02*
X0145000Y0079568D01*
X0145000Y0080166D02*
X0160684Y0080166D01*
X0160086Y0080765D02*
X0145000Y0080765D01*
X0145000Y0081363D02*
X0159487Y0081363D01*
X0158889Y0081962D02*
X0145000Y0081962D01*
X0145000Y0082560D02*
X0158290Y0082560D01*
X0157692Y0083159D02*
X0145000Y0083159D01*
X0145000Y0083757D02*
X0157093Y0083757D01*
X0156495Y0084356D02*
X0145000Y0084356D01*
X0145000Y0084954D02*
X0155896Y0084954D01*
X0155298Y0085553D02*
X0145000Y0085553D01*
X0145000Y0086151D02*
X0154699Y0086151D01*
X0154101Y0086750D02*
X0145000Y0086750D01*
X0145000Y0087348D02*
X0153502Y0087348D01*
X0152904Y0087947D02*
X0145000Y0087947D01*
X0145000Y0088545D02*
X0152305Y0088545D01*
X0151707Y0089144D02*
X0145000Y0089144D01*
X0145082Y0089742D02*
X0151108Y0089742D01*
X0150510Y0090341D02*
X0145330Y0090341D01*
X0145391Y0090939D02*
X0149911Y0090939D01*
X0149313Y0091538D02*
X0145391Y0091538D01*
X0145381Y0092136D02*
X0148714Y0092136D01*
X0148115Y0092735D02*
X0145133Y0092735D01*
X0144885Y0093333D02*
X0147517Y0093333D01*
X0146918Y0093932D02*
X0144453Y0093932D01*
X0143855Y0094530D02*
X0146320Y0094530D01*
X0145721Y0095129D02*
X0143118Y0095129D01*
X0142769Y0095727D02*
X0145123Y0095727D01*
X0144524Y0096326D02*
X0142419Y0096326D01*
X0142070Y0096924D02*
X0144164Y0096924D01*
X0143916Y0097523D02*
X0141721Y0097523D01*
X0141371Y0098121D02*
X0143800Y0098121D01*
X0143800Y0098720D02*
X0141022Y0098720D01*
X0140673Y0099318D02*
X0143693Y0099318D01*
X0143445Y0099917D02*
X0140324Y0099917D01*
X0139974Y0100515D02*
X0143209Y0100515D01*
X0143209Y0101114D02*
X0139625Y0101114D01*
X0139276Y0101712D02*
X0143209Y0101712D01*
X0143291Y0102311D02*
X0138926Y0102311D01*
X0138577Y0102909D02*
X0143539Y0102909D01*
X0143787Y0103508D02*
X0138228Y0103508D01*
X0137878Y0104106D02*
X0143800Y0104106D01*
X0143800Y0104705D02*
X0137792Y0104705D01*
X0137792Y0105303D02*
X0143800Y0105303D01*
X0143800Y0105902D02*
X0141350Y0105902D01*
X0142169Y0106501D02*
X0143738Y0106501D01*
X0143304Y0107099D02*
X0142603Y0107099D01*
X0142851Y0107698D02*
X0143056Y0107698D01*
X0143009Y0108296D02*
X0142898Y0108296D01*
X0142898Y0108895D02*
X0143009Y0108895D01*
X0143009Y0109493D02*
X0142898Y0109493D01*
X0142898Y0110092D02*
X0143009Y0110092D01*
X0143009Y0110690D02*
X0142898Y0110690D01*
X0142898Y0111289D02*
X0143009Y0111289D01*
X0143009Y0112486D02*
X0142898Y0112486D01*
X0142898Y0113084D02*
X0143009Y0113084D01*
X0143009Y0113683D02*
X0142898Y0113683D01*
X0142898Y0114281D02*
X0143009Y0114281D01*
X0143047Y0114880D02*
X0142860Y0114880D01*
X0142654Y0115478D02*
X0143254Y0115478D01*
X0143254Y0116077D02*
X0142654Y0116077D01*
X0142123Y0116675D02*
X0144502Y0116675D01*
X0142123Y0117274D02*
X0149426Y0117274D01*
X0149269Y0117872D02*
X0142123Y0117872D01*
X0142123Y0118471D02*
X0149269Y0118471D01*
X0149269Y0119069D02*
X0142123Y0119069D01*
X0142123Y0119668D02*
X0149269Y0119668D01*
X0149269Y0120266D02*
X0142123Y0120266D01*
X0142123Y0120865D02*
X0149269Y0120865D01*
X0149269Y0121463D02*
X0142123Y0121463D01*
X0142123Y0122062D02*
X0149269Y0122062D01*
X0149269Y0122660D02*
X0142610Y0122660D01*
X0143209Y0123259D02*
X0149269Y0123259D01*
X0149269Y0123857D02*
X0143807Y0123857D01*
X0144891Y0124456D02*
X0149269Y0124456D01*
X0149269Y0125054D02*
X0145739Y0125054D01*
X0146338Y0125653D02*
X0149269Y0125653D01*
X0149288Y0126251D02*
X0146662Y0126251D01*
X0146910Y0126850D02*
X0149536Y0126850D01*
X0149929Y0127448D02*
X0147091Y0127448D01*
X0147091Y0128047D02*
X0150652Y0128047D01*
X0147091Y0128645D02*
X0165600Y0128645D01*
X0165600Y0129244D02*
X0146954Y0129244D01*
X0146706Y0129842D02*
X0165600Y0129842D01*
X0165600Y0130441D02*
X0146444Y0130441D01*
X0145845Y0131039D02*
X0165600Y0131039D01*
X0165600Y0131638D02*
X0145148Y0131638D01*
X0140852Y0131638D02*
X0108035Y0131638D01*
X0107998Y0131727D02*
X0107239Y0132487D01*
X0106247Y0132898D01*
X0099661Y0132898D01*
X0098668Y0132487D01*
X0097909Y0131727D01*
X0097498Y0130735D01*
X0097498Y0122180D01*
X0097909Y0121188D01*
X0098668Y0120428D01*
X0099661Y0120017D01*
X0106247Y0120017D01*
X0107239Y0120428D01*
X0107998Y0121188D01*
X0108409Y0122180D01*
X0108409Y0130735D01*
X0107998Y0131727D01*
X0107489Y0132237D02*
X0165600Y0132237D01*
X0165600Y0132835D02*
X0106398Y0132835D01*
X0108283Y0131039D02*
X0140155Y0131039D01*
X0139556Y0130441D02*
X0108409Y0130441D01*
X0108409Y0129842D02*
X0139294Y0129842D01*
X0139046Y0129244D02*
X0108409Y0129244D01*
X0108409Y0128645D02*
X0128295Y0128645D01*
X0127162Y0128047D02*
X0108409Y0128047D01*
X0108409Y0127448D02*
X0126564Y0127448D01*
X0126122Y0126850D02*
X0108409Y0126850D01*
X0108409Y0126251D02*
X0125874Y0126251D01*
X0125603Y0125653D02*
X0108409Y0125653D01*
X0108409Y0125054D02*
X0125005Y0125054D01*
X0124406Y0124456D02*
X0108409Y0124456D01*
X0108409Y0123857D02*
X0123808Y0123857D01*
X0123209Y0123259D02*
X0108409Y0123259D01*
X0108409Y0122660D02*
X0122611Y0122660D01*
X0122012Y0122062D02*
X0108360Y0122062D01*
X0108112Y0121463D02*
X0121414Y0121463D01*
X0120815Y0120865D02*
X0107675Y0120865D01*
X0106848Y0120266D02*
X0120217Y0120266D01*
X0119618Y0119668D02*
X0094999Y0119668D01*
X0094626Y0120266D02*
X0099060Y0120266D01*
X0098232Y0120865D02*
X0094626Y0120865D01*
X0094626Y0121463D02*
X0097795Y0121463D01*
X0097547Y0122062D02*
X0091500Y0122062D01*
X0091500Y0122645D02*
X0094626Y0122645D01*
X0094626Y0124583D01*
X0094537Y0124914D01*
X0094366Y0125210D01*
X0094124Y0125452D01*
X0093828Y0125623D01*
X0093497Y0125712D01*
X0091500Y0125712D01*
X0091500Y0122645D01*
X0091500Y0122660D02*
X0090900Y0122660D01*
X0090900Y0122062D02*
X0063538Y0122062D01*
X0063786Y0122660D02*
X0087774Y0122660D01*
X0087774Y0123259D02*
X0064034Y0123259D01*
X0064282Y0123857D02*
X0087774Y0123857D01*
X0087774Y0124456D02*
X0064530Y0124456D01*
X0064748Y0125054D02*
X0068815Y0125054D01*
X0068217Y0125653D02*
X0064748Y0125653D01*
X0064748Y0126251D02*
X0067618Y0126251D01*
X0067020Y0126850D02*
X0064748Y0126850D01*
X0064748Y0127448D02*
X0066421Y0127448D01*
X0065823Y0128047D02*
X0064748Y0128047D01*
X0064649Y0128645D02*
X0065600Y0128645D01*
X0065600Y0129244D02*
X0064401Y0129244D01*
X0064153Y0129842D02*
X0065600Y0129842D01*
X0065600Y0130441D02*
X0063905Y0130441D01*
X0063657Y0131039D02*
X0065600Y0131039D01*
X0065600Y0131638D02*
X0063368Y0131638D01*
X0062770Y0132237D02*
X0065600Y0132237D01*
X0065600Y0132835D02*
X0062171Y0132835D01*
X0061573Y0133434D02*
X0066042Y0133434D01*
X0076179Y0127448D02*
X0076421Y0127448D01*
X0077020Y0126850D02*
X0075580Y0126850D01*
X0074982Y0126251D02*
X0077618Y0126251D01*
X0078217Y0125653D02*
X0074383Y0125653D01*
X0073785Y0125054D02*
X0078815Y0125054D01*
X0083785Y0125054D02*
X0087944Y0125054D01*
X0088683Y0125653D02*
X0084383Y0125653D01*
X0084982Y0126251D02*
X0097498Y0126251D01*
X0097498Y0125653D02*
X0093717Y0125653D01*
X0094456Y0125054D02*
X0097498Y0125054D01*
X0097498Y0124456D02*
X0094626Y0124456D01*
X0094626Y0123857D02*
X0097498Y0123857D01*
X0097498Y0123259D02*
X0094626Y0123259D01*
X0094626Y0122660D02*
X0097498Y0122660D01*
X0095597Y0119069D02*
X0119020Y0119069D01*
X0118421Y0118471D02*
X0095855Y0118471D01*
X0096026Y0117872D02*
X0118121Y0117872D01*
X0117874Y0117274D02*
X0096026Y0117274D01*
X0096026Y0116675D02*
X0117800Y0116675D01*
X0117731Y0116077D02*
X0096026Y0116077D01*
X0096026Y0115478D02*
X0117310Y0115478D01*
X0117062Y0114880D02*
X0096026Y0114880D01*
X0096026Y0114281D02*
X0117025Y0114281D01*
X0117025Y0113683D02*
X0096026Y0113683D01*
X0096026Y0113084D02*
X0117025Y0113084D01*
X0117025Y0112486D02*
X0095875Y0112486D01*
X0095627Y0111887D02*
X0117025Y0111887D01*
X0117025Y0111289D02*
X0095530Y0111289D01*
X0095534Y0110690D02*
X0117025Y0110690D01*
X0117025Y0110092D02*
X0095538Y0110092D01*
X0095542Y0109493D02*
X0117025Y0109493D01*
X0117025Y0108895D02*
X0095546Y0108895D01*
X0095551Y0108296D02*
X0117025Y0108296D01*
X0117072Y0107698D02*
X0095555Y0107698D01*
X0095559Y0107099D02*
X0117320Y0107099D01*
X0117754Y0106501D02*
X0096640Y0106501D01*
X0097759Y0105902D02*
X0118573Y0105902D01*
X0121742Y0105303D02*
X0098358Y0105303D01*
X0098956Y0104705D02*
X0122305Y0104705D01*
X0123437Y0104106D02*
X0099307Y0104106D01*
X0099555Y0103508D02*
X0126807Y0103508D01*
X0127406Y0102909D02*
X0099803Y0102909D01*
X0100000Y0102311D02*
X0128458Y0102311D01*
X0131165Y0101712D02*
X0100000Y0101712D01*
X0100000Y0101114D02*
X0131520Y0101114D01*
X0131869Y0100515D02*
X0100000Y0100515D01*
X0099897Y0099917D02*
X0132219Y0099917D01*
X0132568Y0099318D02*
X0099649Y0099318D01*
X0099401Y0098720D02*
X0132917Y0098720D01*
X0133267Y0098121D02*
X0099153Y0098121D01*
X0098584Y0097523D02*
X0133616Y0097523D01*
X0133965Y0096924D02*
X0097985Y0096924D01*
X0097186Y0096326D02*
X0134314Y0096326D01*
X0134664Y0095727D02*
X0097934Y0095727D01*
X0098532Y0095129D02*
X0135013Y0095129D01*
X0135362Y0094530D02*
X0099131Y0094530D01*
X0099380Y0093932D02*
X0135712Y0093932D01*
X0136061Y0093333D02*
X0099627Y0093333D01*
X0099875Y0092735D02*
X0136410Y0092735D01*
X0136759Y0092136D02*
X0100000Y0092136D01*
X0100000Y0091538D02*
X0137109Y0091538D01*
X0137209Y0090939D02*
X0100000Y0090939D01*
X0100000Y0090341D02*
X0137270Y0090341D01*
X0137518Y0089742D02*
X0099824Y0089742D01*
X0099576Y0089144D02*
X0137600Y0089144D01*
X0137600Y0088545D02*
X0099329Y0088545D01*
X0099008Y0087947D02*
X0137600Y0087947D01*
X0137600Y0087348D02*
X0098409Y0087348D01*
X0097811Y0086750D02*
X0137600Y0086750D01*
X0137600Y0086151D02*
X0096764Y0086151D01*
X0078700Y0087348D02*
X0078100Y0087348D01*
X0078100Y0087947D02*
X0078700Y0087947D01*
X0078700Y0088545D02*
X0078100Y0088545D01*
X0078100Y0089144D02*
X0078700Y0089144D01*
X0078700Y0089742D02*
X0078100Y0089742D01*
X0078100Y0090341D02*
X0078700Y0090341D01*
X0078700Y0090939D02*
X0078100Y0090939D01*
X0078100Y0091538D02*
X0070000Y0091538D01*
X0070000Y0090939D02*
X0073100Y0090939D01*
X0073100Y0090341D02*
X0070000Y0090341D01*
X0070000Y0089742D02*
X0073155Y0089742D01*
X0073536Y0089144D02*
X0070000Y0089144D01*
X0070000Y0088545D02*
X0073389Y0088545D01*
X0073115Y0087947D02*
X0070000Y0087947D01*
X0070000Y0087348D02*
X0073100Y0087348D01*
X0073100Y0086750D02*
X0070000Y0086750D01*
X0062600Y0089085D02*
X0061817Y0089868D01*
X0060314Y0090491D01*
X0059500Y0090491D01*
X0059500Y0091118D01*
X0054500Y0091118D01*
X0054500Y0091718D01*
X0059500Y0091718D01*
X0059500Y0092718D01*
X0059649Y0092718D01*
X0062600Y0089767D01*
X0062600Y0089085D01*
X0062600Y0089144D02*
X0062541Y0089144D01*
X0062600Y0089742D02*
X0061943Y0089742D01*
X0062027Y0090341D02*
X0060675Y0090341D01*
X0061428Y0090939D02*
X0059500Y0090939D01*
X0059500Y0092136D02*
X0060231Y0092136D01*
X0060830Y0091538D02*
X0054500Y0091538D01*
X0064113Y0098720D02*
X0071892Y0098720D01*
X0071700Y0098121D02*
X0064711Y0098121D01*
X0065310Y0097523D02*
X0071700Y0097523D01*
X0071700Y0096924D02*
X0065908Y0096924D01*
X0066507Y0096326D02*
X0071700Y0096326D01*
X0071700Y0095727D02*
X0067105Y0095727D01*
X0067704Y0095129D02*
X0071700Y0095129D01*
X0071721Y0094530D02*
X0068302Y0094530D01*
X0068901Y0093932D02*
X0071969Y0093932D01*
X0072366Y0093333D02*
X0069463Y0093333D01*
X0069711Y0092735D02*
X0073098Y0092735D01*
X0073100Y0092136D02*
X0069958Y0092136D01*
X0072182Y0099318D02*
X0063514Y0099318D01*
X0062404Y0099917D02*
X0072780Y0099917D01*
X0076982Y0100515D02*
X0049000Y0100515D01*
X0049000Y0101114D02*
X0077580Y0101114D01*
X0078179Y0101712D02*
X0049000Y0101712D01*
X0049000Y0102311D02*
X0078777Y0102311D01*
X0079376Y0102909D02*
X0049000Y0102909D01*
X0049000Y0103508D02*
X0079974Y0103508D01*
X0080573Y0104106D02*
X0049000Y0104106D01*
X0049000Y0104705D02*
X0081311Y0104705D01*
X0084242Y0105303D02*
X0049000Y0105303D01*
X0049000Y0105902D02*
X0084841Y0105902D01*
X0085960Y0106501D02*
X0049000Y0106501D01*
X0049000Y0107099D02*
X0086959Y0107099D01*
X0086955Y0107698D02*
X0049000Y0107698D01*
X0049000Y0108296D02*
X0086950Y0108296D01*
X0086946Y0108895D02*
X0049000Y0108895D01*
X0049000Y0109493D02*
X0086942Y0109493D01*
X0086938Y0110092D02*
X0049000Y0110092D01*
X0049000Y0110690D02*
X0086934Y0110690D01*
X0086929Y0111289D02*
X0049000Y0111289D01*
X0049000Y0111887D02*
X0086773Y0111887D01*
X0086525Y0112486D02*
X0049000Y0112486D01*
X0049000Y0113084D02*
X0086374Y0113084D01*
X0086374Y0113683D02*
X0049000Y0113683D01*
X0049000Y0114281D02*
X0086374Y0114281D01*
X0086374Y0114880D02*
X0049000Y0114880D01*
X0049000Y0115478D02*
X0086374Y0115478D01*
X0086374Y0116077D02*
X0049000Y0116077D01*
X0049000Y0116675D02*
X0086374Y0116675D01*
X0086374Y0117274D02*
X0049000Y0117274D01*
X0049000Y0117872D02*
X0086374Y0117872D01*
X0086545Y0118471D02*
X0058778Y0118471D01*
X0060223Y0119069D02*
X0086803Y0119069D01*
X0087401Y0119668D02*
X0061287Y0119668D01*
X0061885Y0120266D02*
X0087774Y0120266D01*
X0087774Y0120865D02*
X0062484Y0120865D01*
X0063082Y0121463D02*
X0087774Y0121463D01*
X0090900Y0123259D02*
X0091500Y0123259D01*
X0091500Y0123857D02*
X0090900Y0123857D01*
X0090900Y0124456D02*
X0091500Y0124456D01*
X0091500Y0125054D02*
X0090900Y0125054D01*
X0090900Y0125653D02*
X0091500Y0125653D01*
X0086777Y0128047D02*
X0097498Y0128047D01*
X0097498Y0128645D02*
X0087000Y0128645D01*
X0087000Y0129244D02*
X0097498Y0129244D01*
X0097498Y0129842D02*
X0087000Y0129842D01*
X0087000Y0130441D02*
X0097498Y0130441D01*
X0097624Y0131039D02*
X0087000Y0131039D01*
X0087000Y0131638D02*
X0097872Y0131638D01*
X0098418Y0132237D02*
X0087000Y0132237D01*
X0087000Y0132835D02*
X0099509Y0132835D01*
X0097498Y0127448D02*
X0086179Y0127448D01*
X0085580Y0126850D02*
X0097498Y0126850D01*
X0086558Y0133434D02*
X0166042Y0133434D01*
X0165823Y0128047D02*
X0158798Y0128047D01*
X0159521Y0127448D02*
X0166421Y0127448D01*
X0167020Y0126850D02*
X0159915Y0126850D01*
X0160163Y0126251D02*
X0167618Y0126251D01*
X0168217Y0125653D02*
X0160181Y0125653D01*
X0160181Y0125054D02*
X0168815Y0125054D01*
X0173785Y0125054D02*
X0178815Y0125054D01*
X0178217Y0125653D02*
X0174383Y0125653D01*
X0174982Y0126251D02*
X0177618Y0126251D01*
X0177020Y0126850D02*
X0175580Y0126850D01*
X0176179Y0127448D02*
X0176421Y0127448D01*
X0183785Y0125054D02*
X0188815Y0125054D01*
X0188217Y0125653D02*
X0184383Y0125653D01*
X0184982Y0126251D02*
X0187618Y0126251D01*
X0187020Y0126850D02*
X0185580Y0126850D01*
X0186179Y0127448D02*
X0186421Y0127448D01*
X0193785Y0125054D02*
X0207600Y0125054D01*
X0207600Y0124456D02*
X0160181Y0124456D01*
X0160181Y0123857D02*
X0207600Y0123857D01*
X0207600Y0123259D02*
X0160181Y0123259D01*
X0160181Y0122660D02*
X0207600Y0122660D01*
X0207600Y0122062D02*
X0160181Y0122062D01*
X0160181Y0121463D02*
X0207600Y0121463D01*
X0207600Y0120865D02*
X0160181Y0120865D01*
X0160181Y0120266D02*
X0207600Y0120266D01*
X0207600Y0119668D02*
X0160181Y0119668D01*
X0160181Y0119069D02*
X0207600Y0119069D01*
X0207600Y0118471D02*
X0160181Y0118471D01*
X0160181Y0117872D02*
X0207600Y0117872D01*
X0207600Y0117274D02*
X0160024Y0117274D01*
X0159776Y0116675D02*
X0207600Y0116675D01*
X0207600Y0116077D02*
X0159186Y0116077D01*
X0155853Y0114880D02*
X0207600Y0114880D01*
X0207600Y0115478D02*
X0155605Y0115478D01*
X0155890Y0114281D02*
X0207600Y0114281D01*
X0207600Y0113683D02*
X0155890Y0113683D01*
X0155890Y0113084D02*
X0207600Y0113084D01*
X0207600Y0112486D02*
X0155890Y0112486D01*
X0155890Y0111887D02*
X0207600Y0111887D01*
X0207600Y0111289D02*
X0155890Y0111289D01*
X0155890Y0110690D02*
X0207600Y0110690D01*
X0207600Y0110092D02*
X0155890Y0110092D01*
X0155890Y0109493D02*
X0207600Y0109493D01*
X0207600Y0108895D02*
X0160550Y0108895D01*
X0161846Y0108296D02*
X0207600Y0108296D01*
X0207600Y0107698D02*
X0163768Y0107698D01*
X0164551Y0107099D02*
X0207600Y0107099D01*
X0207579Y0106501D02*
X0165149Y0106501D01*
X0165067Y0106583D02*
X0165067Y0106583D01*
X0165748Y0105902D02*
X0207750Y0105902D01*
X0207983Y0105303D02*
X0166346Y0105303D01*
X0166945Y0104705D02*
X0208362Y0104705D01*
X0208938Y0104106D02*
X0167543Y0104106D01*
X0168142Y0103508D02*
X0202584Y0103508D01*
X0202162Y0102909D02*
X0168740Y0102909D01*
X0169339Y0102311D02*
X0201883Y0102311D01*
X0201604Y0101712D02*
X0169937Y0101712D01*
X0170536Y0101114D02*
X0202181Y0101114D01*
X0202045Y0100515D02*
X0203464Y0100515D01*
X0203328Y0099917D02*
X0204216Y0099917D01*
X0204748Y0099917D02*
X0204878Y0099917D01*
X0204612Y0099318D02*
X0206031Y0099318D01*
X0205895Y0098720D02*
X0207315Y0098720D01*
X0207769Y0098720D02*
X0211828Y0098720D01*
X0211992Y0098811D02*
X0211400Y0098483D01*
X0210867Y0098066D01*
X0210405Y0097571D01*
X0210027Y0097010D01*
X0210011Y0096975D01*
X0216355Y0094017D01*
X0218045Y0097642D01*
X0215292Y0098926D01*
X0214641Y0099113D01*
X0213969Y0099195D01*
X0213293Y0099172D01*
X0212628Y0099042D01*
X0211992Y0098811D01*
X0210938Y0098121D02*
X0207179Y0098121D01*
X0207210Y0097523D02*
X0210373Y0097523D01*
X0210120Y0096924D02*
X0206931Y0096924D01*
X0206652Y0096326D02*
X0209721Y0096326D01*
X0209741Y0096397D02*
X0209554Y0095746D01*
X0209472Y0095074D01*
X0209496Y0094398D01*
X0209625Y0093733D01*
X0209856Y0093097D01*
X0210184Y0092505D01*
X0210601Y0091972D01*
X0211096Y0091510D01*
X0211657Y0091132D01*
X0214411Y0089848D01*
X0216101Y0093473D01*
X0209757Y0096431D01*
X0209741Y0096397D01*
X0209983Y0096326D02*
X0211403Y0096326D01*
X0211267Y0095727D02*
X0212687Y0095727D01*
X0212550Y0095129D02*
X0213970Y0095129D01*
X0213834Y0094530D02*
X0215254Y0094530D01*
X0215117Y0093932D02*
X0216315Y0093932D01*
X0216355Y0094017D02*
X0216101Y0093473D01*
X0216645Y0093219D01*
X0214955Y0089594D01*
X0217708Y0088310D01*
X0218359Y0088124D01*
X0219031Y0088041D01*
X0219707Y0088065D01*
X0220372Y0088194D01*
X0221008Y0088425D01*
X0221600Y0088753D01*
X0222133Y0089170D01*
X0222595Y0089665D01*
X0222973Y0090226D01*
X0222989Y0090261D01*
X0216645Y0093219D01*
X0216899Y0093763D01*
X0223243Y0090805D01*
X0223259Y0090840D01*
X0223446Y0091490D01*
X0223528Y0092162D01*
X0223504Y0092839D01*
X0223375Y0093503D01*
X0223144Y0094139D01*
X0222816Y0094731D01*
X0222399Y0095264D01*
X0221904Y0095726D01*
X0221343Y0096104D01*
X0218589Y0097388D01*
X0216899Y0093763D01*
X0216355Y0094017D01*
X0216537Y0093932D02*
X0216977Y0093932D01*
X0217256Y0094530D02*
X0216594Y0094530D01*
X0216873Y0095129D02*
X0217535Y0095129D01*
X0217815Y0095727D02*
X0217153Y0095727D01*
X0217432Y0096326D02*
X0218094Y0096326D01*
X0218373Y0096924D02*
X0217711Y0096924D01*
X0217990Y0097523D02*
X0218301Y0097523D01*
X0220868Y0096326D02*
X0220868Y0096326D01*
X0221902Y0095727D02*
X0223000Y0095727D01*
X0222505Y0095129D02*
X0246356Y0095129D01*
X0246356Y0095727D02*
X0224489Y0095727D01*
X0226133Y0096326D02*
X0246356Y0096326D01*
X0246356Y0096924D02*
X0226983Y0096924D01*
X0227636Y0097523D02*
X0246356Y0097523D01*
X0246356Y0098121D02*
X0228199Y0098121D01*
X0228478Y0098720D02*
X0246356Y0098720D01*
X0246356Y0099318D02*
X0228757Y0099318D01*
X0229037Y0099917D02*
X0246356Y0099917D01*
X0246356Y0100515D02*
X0229111Y0100515D01*
X0229137Y0101114D02*
X0246356Y0101114D01*
X0246356Y0101712D02*
X0229164Y0101712D01*
X0229184Y0102311D02*
X0246356Y0102311D01*
X0246356Y0102909D02*
X0228966Y0102909D01*
X0228749Y0103508D02*
X0246356Y0103508D01*
X0246356Y0104106D02*
X0228531Y0104106D01*
X0228160Y0104705D02*
X0246356Y0104705D01*
X0246356Y0105303D02*
X0227612Y0105303D01*
X0227063Y0105902D02*
X0246356Y0105902D01*
X0246356Y0106501D02*
X0226023Y0106501D01*
X0224739Y0107099D02*
X0246356Y0107099D01*
X0246356Y0107698D02*
X0223456Y0107698D01*
X0222172Y0108296D02*
X0246356Y0108296D01*
X0246356Y0108895D02*
X0220889Y0108895D01*
X0219605Y0109493D02*
X0246356Y0109493D01*
X0246356Y0110092D02*
X0215000Y0110092D01*
X0215000Y0110690D02*
X0246356Y0110690D01*
X0246356Y0111289D02*
X0215000Y0111289D01*
X0215000Y0111887D02*
X0246356Y0111887D01*
X0246356Y0112486D02*
X0215000Y0112486D01*
X0215000Y0113084D02*
X0246356Y0113084D01*
X0246356Y0113683D02*
X0215000Y0113683D01*
X0215000Y0114281D02*
X0246356Y0114281D01*
X0246356Y0114880D02*
X0215000Y0114880D01*
X0215000Y0115478D02*
X0246356Y0115478D01*
X0246356Y0116077D02*
X0215000Y0116077D01*
X0215000Y0116675D02*
X0246356Y0116675D01*
X0246356Y0117274D02*
X0215000Y0117274D01*
X0215000Y0117872D02*
X0246356Y0117872D01*
X0246356Y0118471D02*
X0241849Y0118471D01*
X0243294Y0119069D02*
X0246356Y0119069D01*
X0246356Y0119668D02*
X0244357Y0119668D01*
X0244956Y0120266D02*
X0246356Y0120266D01*
X0246356Y0120865D02*
X0245554Y0120865D01*
X0246153Y0121463D02*
X0246356Y0121463D01*
X0236578Y0118471D02*
X0215000Y0118471D01*
X0215000Y0119069D02*
X0235133Y0119069D01*
X0234069Y0119668D02*
X0215000Y0119668D01*
X0215000Y0120266D02*
X0233471Y0120266D01*
X0232872Y0120865D02*
X0215000Y0120865D01*
X0215000Y0121463D02*
X0232274Y0121463D01*
X0231817Y0122062D02*
X0215000Y0122062D01*
X0215000Y0122660D02*
X0231570Y0122660D01*
X0231322Y0123259D02*
X0215000Y0123259D01*
X0215000Y0123857D02*
X0231074Y0123857D01*
X0230826Y0124456D02*
X0215000Y0124456D01*
X0215000Y0125054D02*
X0230608Y0125054D01*
X0230608Y0125653D02*
X0215000Y0125653D01*
X0215000Y0126251D02*
X0230608Y0126251D01*
X0230608Y0126850D02*
X0215580Y0126850D01*
X0216179Y0127448D02*
X0230608Y0127448D01*
X0230608Y0128047D02*
X0216777Y0128047D01*
X0217000Y0128645D02*
X0230707Y0128645D01*
X0230955Y0129244D02*
X0217000Y0129244D01*
X0217000Y0129842D02*
X0231203Y0129842D01*
X0231451Y0130441D02*
X0217000Y0130441D01*
X0217000Y0131039D02*
X0231699Y0131039D01*
X0231988Y0131638D02*
X0217000Y0131638D01*
X0217000Y0132237D02*
X0232586Y0132237D01*
X0233185Y0132835D02*
X0217000Y0132835D01*
X0216558Y0133434D02*
X0233783Y0133434D01*
X0207600Y0126251D02*
X0194982Y0126251D01*
X0194383Y0125653D02*
X0207600Y0125653D01*
X0207020Y0126850D02*
X0203600Y0126850D01*
X0203081Y0126331D02*
X0205600Y0128850D01*
X0205600Y0130331D01*
X0201600Y0130331D01*
X0201600Y0126331D01*
X0203081Y0126331D01*
X0201600Y0126850D02*
X0201000Y0126850D01*
X0201000Y0127448D02*
X0201600Y0127448D01*
X0201600Y0128047D02*
X0201000Y0128047D01*
X0201000Y0128645D02*
X0201600Y0128645D01*
X0201600Y0129244D02*
X0201000Y0129244D01*
X0201000Y0129842D02*
X0201600Y0129842D01*
X0201600Y0130441D02*
X0205600Y0130441D01*
X0205600Y0131039D02*
X0205600Y0131039D01*
X0205600Y0131638D02*
X0205600Y0131638D01*
X0205600Y0132237D02*
X0205600Y0132237D01*
X0205600Y0132835D02*
X0205177Y0132835D01*
X0204578Y0133434D02*
X0206042Y0133434D01*
X0205600Y0129842D02*
X0205600Y0129842D01*
X0205600Y0129244D02*
X0205600Y0129244D01*
X0205600Y0128645D02*
X0205396Y0128645D01*
X0205823Y0128047D02*
X0204797Y0128047D01*
X0204199Y0127448D02*
X0206421Y0127448D01*
X0201000Y0130441D02*
X0197000Y0130441D01*
X0197000Y0131039D02*
X0197000Y0131039D01*
X0197000Y0131638D02*
X0197000Y0131638D01*
X0197000Y0132237D02*
X0197000Y0132237D01*
X0197000Y0132835D02*
X0197423Y0132835D01*
X0198022Y0133434D02*
X0196558Y0133434D01*
X0197000Y0129842D02*
X0197000Y0129842D01*
X0197000Y0129244D02*
X0197000Y0129244D01*
X0197000Y0128645D02*
X0197204Y0128645D01*
X0196777Y0128047D02*
X0197803Y0128047D01*
X0198401Y0127448D02*
X0196179Y0127448D01*
X0195580Y0126850D02*
X0199000Y0126850D01*
X0215000Y0109493D02*
X0216574Y0109493D01*
X0212538Y0102311D02*
X0206871Y0102311D01*
X0205994Y0102311D02*
X0205332Y0102311D01*
X0205587Y0102909D02*
X0211345Y0102909D01*
X0210039Y0103508D02*
X0204304Y0103508D01*
X0205053Y0101712D02*
X0205715Y0101712D01*
X0205436Y0101114D02*
X0204774Y0101114D01*
X0204495Y0100515D02*
X0205157Y0100515D01*
X0208048Y0099318D02*
X0214519Y0099318D01*
X0213971Y0099917D02*
X0208327Y0099917D01*
X0208544Y0100515D02*
X0213422Y0100515D01*
X0212973Y0101114D02*
X0208488Y0101114D01*
X0208068Y0101712D02*
X0212755Y0101712D01*
X0215734Y0098720D02*
X0215734Y0098720D01*
X0209552Y0095727D02*
X0206754Y0095727D01*
X0206972Y0095129D02*
X0209479Y0095129D01*
X0209491Y0094530D02*
X0207050Y0094530D01*
X0207024Y0093932D02*
X0209586Y0093932D01*
X0209770Y0093333D02*
X0206802Y0093333D01*
X0206522Y0092735D02*
X0210057Y0092735D01*
X0210473Y0092136D02*
X0206243Y0092136D01*
X0205964Y0091538D02*
X0208591Y0091538D01*
X0209339Y0091538D02*
X0211067Y0091538D01*
X0212070Y0090939D02*
X0212070Y0090939D01*
X0213354Y0090341D02*
X0213354Y0090341D01*
X0214641Y0090341D02*
X0215303Y0090341D01*
X0215582Y0090939D02*
X0214920Y0090939D01*
X0215199Y0091538D02*
X0215861Y0091538D01*
X0216140Y0092136D02*
X0215478Y0092136D01*
X0215757Y0092735D02*
X0216419Y0092735D01*
X0216401Y0093333D02*
X0216036Y0093333D01*
X0216698Y0093333D02*
X0217821Y0093333D01*
X0217684Y0092735D02*
X0219104Y0092735D01*
X0218968Y0092136D02*
X0220388Y0092136D01*
X0220252Y0091538D02*
X0221671Y0091538D01*
X0221535Y0090939D02*
X0222955Y0090939D01*
X0223288Y0090939D02*
X0246356Y0090939D01*
X0246356Y0090341D02*
X0222819Y0090341D01*
X0222646Y0089742D02*
X0246356Y0089742D01*
X0246356Y0089144D02*
X0222099Y0089144D01*
X0221224Y0088545D02*
X0246356Y0088545D01*
X0246356Y0087947D02*
X0218454Y0087947D01*
X0219003Y0087348D02*
X0246356Y0087348D01*
X0246356Y0086750D02*
X0219551Y0086750D01*
X0220016Y0086151D02*
X0246356Y0086151D01*
X0246356Y0085553D02*
X0220234Y0085553D01*
X0220452Y0084954D02*
X0246356Y0084954D01*
X0246356Y0084356D02*
X0220670Y0084356D01*
X0220719Y0083757D02*
X0246356Y0083757D01*
X0246356Y0083159D02*
X0220693Y0083159D01*
X0220666Y0082560D02*
X0246356Y0082560D01*
X0246356Y0081962D02*
X0220640Y0081962D01*
X0220385Y0081363D02*
X0246356Y0081363D01*
X0246356Y0080765D02*
X0220106Y0080765D01*
X0219827Y0080166D02*
X0246356Y0080166D01*
X0246356Y0079568D02*
X0219370Y0079568D01*
X0218717Y0078969D02*
X0246356Y0078969D01*
X0246356Y0078370D02*
X0218064Y0078370D01*
X0216506Y0077772D02*
X0246356Y0077772D01*
X0246356Y0077173D02*
X0215585Y0077173D01*
X0215553Y0076575D02*
X0246356Y0076575D01*
X0246356Y0075976D02*
X0215521Y0075976D01*
X0215489Y0075378D02*
X0246356Y0075378D01*
X0246356Y0074779D02*
X0215458Y0074779D01*
X0215426Y0074181D02*
X0246356Y0074181D01*
X0246356Y0073582D02*
X0215394Y0073582D01*
X0215362Y0072984D02*
X0246356Y0072984D01*
X0246356Y0072385D02*
X0215330Y0072385D01*
X0215298Y0071787D02*
X0246356Y0071787D01*
X0246356Y0071188D02*
X0215266Y0071188D01*
X0215234Y0070590D02*
X0246356Y0070590D01*
X0246356Y0069991D02*
X0215202Y0069991D01*
X0215170Y0069393D02*
X0246356Y0069393D01*
X0246356Y0068794D02*
X0215138Y0068794D01*
X0215106Y0068196D02*
X0246356Y0068196D01*
X0246356Y0067597D02*
X0215074Y0067597D01*
X0215043Y0066999D02*
X0246356Y0066999D01*
X0246356Y0066400D02*
X0215011Y0066400D01*
X0215000Y0065802D02*
X0246356Y0065802D01*
X0246356Y0065203D02*
X0214877Y0065203D01*
X0214603Y0064605D02*
X0246356Y0064605D01*
X0246356Y0064006D02*
X0214283Y0064006D01*
X0213640Y0063408D02*
X0246356Y0063408D01*
X0246356Y0062809D02*
X0213042Y0062809D01*
X0212443Y0062211D02*
X0246356Y0062211D01*
X0246356Y0061612D02*
X0211845Y0061612D01*
X0211246Y0061014D02*
X0246355Y0061014D01*
X0246353Y0060415D02*
X0210648Y0060415D01*
X0210049Y0059817D02*
X0246351Y0059817D01*
X0246349Y0059218D02*
X0209956Y0059218D01*
X0210555Y0058620D02*
X0246468Y0058620D01*
X0246348Y0059072D02*
X0246348Y0059072D01*
X0246626Y0058021D02*
X0211153Y0058021D01*
X0211752Y0057423D02*
X0246784Y0057423D01*
X0246943Y0056824D02*
X0212350Y0056824D01*
X0212949Y0056226D02*
X0247101Y0056226D01*
X0247259Y0055627D02*
X0213547Y0055627D01*
X0214146Y0055029D02*
X0247417Y0055029D01*
X0247614Y0054430D02*
X0214016Y0054430D01*
X0214266Y0053832D02*
X0213417Y0053832D01*
X0213667Y0053233D02*
X0212819Y0053233D01*
X0213069Y0052634D02*
X0212220Y0052634D01*
X0212470Y0052036D02*
X0211622Y0052036D01*
X0211868Y0051437D02*
X0211872Y0051437D01*
X0211870Y0051436D02*
X0214804Y0054370D01*
X0219585Y0049589D01*
X0219756Y0049293D01*
X0219845Y0048962D01*
X0219845Y0048620D01*
X0219756Y0048289D01*
X0219585Y0047993D01*
X0217449Y0045857D01*
X0211870Y0051436D01*
X0211446Y0051012D02*
X0217025Y0045433D01*
X0214889Y0043297D01*
X0214592Y0043126D01*
X0214262Y0043037D01*
X0213919Y0043037D01*
X0213589Y0043126D01*
X0213292Y0043297D01*
X0208512Y0048077D01*
X0211446Y0051012D01*
X0211618Y0050839D02*
X0212467Y0050839D01*
X0212217Y0050240D02*
X0213065Y0050240D01*
X0212815Y0049642D02*
X0213664Y0049642D01*
X0213414Y0049043D02*
X0214262Y0049043D01*
X0214012Y0048445D02*
X0214861Y0048445D01*
X0214611Y0047846D02*
X0215459Y0047846D01*
X0215209Y0047248D02*
X0216058Y0047248D01*
X0215808Y0046649D02*
X0216656Y0046649D01*
X0216406Y0046051D02*
X0217255Y0046051D01*
X0217643Y0046051D02*
X0255105Y0046051D01*
X0254077Y0046649D02*
X0218241Y0046649D01*
X0218840Y0047248D02*
X0253095Y0047248D01*
X0253160Y0047183D02*
X0253160Y0047183D01*
X0252501Y0047846D02*
X0219438Y0047846D01*
X0219798Y0048445D02*
X0251906Y0048445D01*
X0251312Y0049043D02*
X0219823Y0049043D01*
X0219532Y0049642D02*
X0250717Y0049642D01*
X0250122Y0050240D02*
X0218934Y0050240D01*
X0218335Y0050839D02*
X0249671Y0050839D01*
X0249866Y0050498D02*
X0249866Y0050498D01*
X0249328Y0051437D02*
X0217737Y0051437D01*
X0217138Y0052036D02*
X0248985Y0052036D01*
X0248642Y0052634D02*
X0216540Y0052634D01*
X0215941Y0053233D02*
X0248299Y0053233D01*
X0247957Y0053832D02*
X0215343Y0053832D01*
X0211273Y0050839D02*
X0210425Y0050839D01*
X0210675Y0050240D02*
X0209826Y0050240D01*
X0210076Y0049642D02*
X0209228Y0049642D01*
X0209478Y0049043D02*
X0208629Y0049043D01*
X0208879Y0048445D02*
X0198677Y0048445D01*
X0198079Y0047846D02*
X0208742Y0047846D01*
X0209341Y0047248D02*
X0197480Y0047248D01*
X0196882Y0046649D02*
X0209940Y0046649D01*
X0210538Y0046051D02*
X0196283Y0046051D01*
X0195685Y0045452D02*
X0211137Y0045452D01*
X0211735Y0044854D02*
X0195129Y0044854D01*
X0199276Y0049043D02*
X0207545Y0049043D01*
X0206947Y0049642D02*
X0199875Y0049642D01*
X0200473Y0050240D02*
X0206348Y0050240D01*
X0205750Y0050839D02*
X0201072Y0050839D01*
X0201670Y0051437D02*
X0205151Y0051437D01*
X0204553Y0052036D02*
X0202269Y0052036D01*
X0202867Y0052634D02*
X0203954Y0052634D01*
X0196583Y0056816D02*
X0189926Y0050158D01*
X0189800Y0050106D01*
X0189800Y0064809D01*
X0191992Y0062617D01*
X0191816Y0062192D01*
X0191816Y0060408D01*
X0192498Y0058760D01*
X0193760Y0057498D01*
X0195408Y0056816D01*
X0196583Y0056816D01*
X0195993Y0056226D02*
X0189800Y0056226D01*
X0189800Y0056824D02*
X0195388Y0056824D01*
X0195394Y0055627D02*
X0189800Y0055627D01*
X0189800Y0055029D02*
X0194796Y0055029D01*
X0194197Y0054430D02*
X0189800Y0054430D01*
X0189800Y0053832D02*
X0193599Y0053832D01*
X0193000Y0053233D02*
X0189800Y0053233D01*
X0189800Y0052634D02*
X0192402Y0052634D01*
X0191803Y0052036D02*
X0189800Y0052036D01*
X0189800Y0051437D02*
X0191205Y0051437D01*
X0190606Y0050839D02*
X0189800Y0050839D01*
X0189800Y0050240D02*
X0190008Y0050240D01*
X0184800Y0042850D02*
X0188333Y0039317D01*
X0189317Y0038333D01*
X0190604Y0037800D01*
X0204850Y0037800D01*
X0207800Y0034850D01*
X0207800Y0034798D01*
X0205600Y0032598D01*
X0205600Y0027876D01*
X0206445Y0027031D01*
X0204176Y0027031D01*
X0205600Y0028456D01*
X0205600Y0029937D01*
X0201600Y0029937D01*
X0201600Y0030537D01*
X0205600Y0030537D01*
X0205600Y0032018D01*
X0203081Y0034537D01*
X0201600Y0034537D01*
X0201600Y0030537D01*
X0201000Y0030537D01*
X0201000Y0029937D01*
X0197000Y0029937D01*
X0197000Y0028456D01*
X0198424Y0027031D01*
X0196155Y0027031D01*
X0197000Y0027876D01*
X0197000Y0032598D01*
X0193661Y0035937D01*
X0190550Y0035937D01*
X0184800Y0041687D01*
X0184800Y0042850D01*
X0184800Y0042460D02*
X0185190Y0042460D01*
X0184800Y0041861D02*
X0185789Y0041861D01*
X0185224Y0041263D02*
X0186387Y0041263D01*
X0185822Y0040664D02*
X0186986Y0040664D01*
X0186421Y0040066D02*
X0187584Y0040066D01*
X0187019Y0039467D02*
X0188183Y0039467D01*
X0187618Y0038869D02*
X0188782Y0038869D01*
X0188217Y0038270D02*
X0189469Y0038270D01*
X0188815Y0037672D02*
X0204979Y0037672D01*
X0205577Y0037073D02*
X0189414Y0037073D01*
X0190012Y0036475D02*
X0206176Y0036475D01*
X0206774Y0035876D02*
X0193722Y0035876D01*
X0194320Y0035278D02*
X0207373Y0035278D01*
X0207681Y0034679D02*
X0194919Y0034679D01*
X0195517Y0034081D02*
X0199063Y0034081D01*
X0199519Y0034537D02*
X0197000Y0032018D01*
X0197000Y0030537D01*
X0201000Y0030537D01*
X0201000Y0034537D01*
X0199519Y0034537D01*
X0198464Y0033482D02*
X0196116Y0033482D01*
X0196714Y0032884D02*
X0197866Y0032884D01*
X0197267Y0032285D02*
X0197000Y0032285D01*
X0197000Y0031687D02*
X0197000Y0031687D01*
X0197000Y0031088D02*
X0197000Y0031088D01*
X0197000Y0030490D02*
X0201000Y0030490D01*
X0201000Y0031088D02*
X0201600Y0031088D01*
X0201600Y0030490D02*
X0205600Y0030490D01*
X0205600Y0031088D02*
X0205600Y0031088D01*
X0205600Y0031687D02*
X0205600Y0031687D01*
X0205600Y0032285D02*
X0205333Y0032285D01*
X0205886Y0032884D02*
X0204734Y0032884D01*
X0204136Y0033482D02*
X0206484Y0033482D01*
X0207083Y0034081D02*
X0203537Y0034081D01*
X0201600Y0034081D02*
X0201000Y0034081D01*
X0201000Y0033482D02*
X0201600Y0033482D01*
X0201600Y0032884D02*
X0201000Y0032884D01*
X0201000Y0032285D02*
X0201600Y0032285D01*
X0201600Y0031687D02*
X0201000Y0031687D01*
X0197000Y0029891D02*
X0197000Y0029891D01*
X0197000Y0029293D02*
X0197000Y0029293D01*
X0197000Y0028694D02*
X0197000Y0028694D01*
X0197000Y0028096D02*
X0197360Y0028096D01*
X0197959Y0027497D02*
X0196621Y0027497D01*
X0204641Y0027497D02*
X0205979Y0027497D01*
X0205600Y0028096D02*
X0205240Y0028096D01*
X0205600Y0028694D02*
X0205600Y0028694D01*
X0205600Y0029293D02*
X0205600Y0029293D01*
X0205600Y0029891D02*
X0205600Y0029891D01*
X0214919Y0034679D02*
X0230608Y0034679D01*
X0230608Y0034081D02*
X0215517Y0034081D01*
X0216116Y0033482D02*
X0230608Y0033482D01*
X0230608Y0032884D02*
X0216714Y0032884D01*
X0217000Y0032285D02*
X0230681Y0032285D01*
X0230929Y0031687D02*
X0217000Y0031687D01*
X0217000Y0031088D02*
X0231177Y0031088D01*
X0231425Y0030490D02*
X0217000Y0030490D01*
X0217000Y0029891D02*
X0231673Y0029891D01*
X0231925Y0029293D02*
X0217000Y0029293D01*
X0217000Y0028694D02*
X0232523Y0028694D01*
X0233122Y0028096D02*
X0217000Y0028096D01*
X0216621Y0027497D02*
X0233720Y0027497D01*
X0244706Y0027497D02*
X0258914Y0027497D01*
X0258266Y0028096D02*
X0245305Y0028096D01*
X0245903Y0028694D02*
X0257667Y0028694D01*
X0257069Y0029293D02*
X0246502Y0029293D01*
X0246754Y0029891D02*
X0256470Y0029891D01*
X0256083Y0030490D02*
X0247002Y0030490D01*
X0247250Y0031088D02*
X0255836Y0031088D01*
X0255588Y0031687D02*
X0247498Y0031687D01*
X0247745Y0032285D02*
X0255340Y0032285D01*
X0255092Y0032884D02*
X0247819Y0032884D01*
X0247819Y0033482D02*
X0254844Y0033482D01*
X0254828Y0034081D02*
X0247819Y0034081D01*
X0247819Y0034679D02*
X0254828Y0034679D01*
X0254828Y0035278D02*
X0247819Y0035278D01*
X0247819Y0035876D02*
X0254828Y0035876D01*
X0254828Y0036475D02*
X0247575Y0036475D01*
X0247327Y0037073D02*
X0254828Y0037073D01*
X0255028Y0037672D02*
X0247079Y0037672D01*
X0246831Y0038270D02*
X0255276Y0038270D01*
X0255523Y0038869D02*
X0246583Y0038869D01*
X0246090Y0039467D02*
X0255771Y0039467D01*
X0256019Y0040066D02*
X0245492Y0040066D01*
X0244893Y0040664D02*
X0256315Y0040664D01*
X0256914Y0041263D02*
X0244295Y0041263D01*
X0243142Y0041861D02*
X0257512Y0041861D01*
X0258111Y0042460D02*
X0241697Y0042460D01*
X0236730Y0042460D02*
X0210090Y0042460D01*
X0209491Y0043058D02*
X0213840Y0043058D01*
X0214341Y0043058D02*
X0258709Y0043058D01*
X0259325Y0044255D02*
X0215847Y0044255D01*
X0215249Y0043657D02*
X0259985Y0043657D01*
X0257200Y0044832D02*
X0257200Y0044832D01*
X0257163Y0044854D02*
X0216446Y0044854D01*
X0217005Y0045452D02*
X0256134Y0045452D01*
X0235285Y0041861D02*
X0210688Y0041861D01*
X0211287Y0041263D02*
X0234132Y0041263D01*
X0233534Y0040664D02*
X0211885Y0040664D01*
X0212484Y0040066D02*
X0232935Y0040066D01*
X0232337Y0039467D02*
X0213082Y0039467D01*
X0213681Y0038869D02*
X0231843Y0038869D01*
X0231596Y0038270D02*
X0214272Y0038270D01*
X0214520Y0037672D02*
X0231348Y0037672D01*
X0231100Y0037073D02*
X0214768Y0037073D01*
X0214800Y0036475D02*
X0230852Y0036475D01*
X0230608Y0035876D02*
X0214800Y0035876D01*
X0214800Y0035278D02*
X0230608Y0035278D01*
X0212932Y0043657D02*
X0208893Y0043657D01*
X0209267Y0043283D02*
X0209267Y0043283D01*
X0208294Y0044255D02*
X0212334Y0044255D01*
X0193943Y0057423D02*
X0189800Y0057423D01*
X0189800Y0058021D02*
X0193237Y0058021D01*
X0192639Y0058620D02*
X0189800Y0058620D01*
X0189800Y0059218D02*
X0192309Y0059218D01*
X0192061Y0059817D02*
X0189800Y0059817D01*
X0189800Y0060415D02*
X0191816Y0060415D01*
X0191816Y0061014D02*
X0189800Y0061014D01*
X0189800Y0061612D02*
X0191816Y0061612D01*
X0191824Y0062211D02*
X0189800Y0062211D01*
X0189800Y0062809D02*
X0191800Y0062809D01*
X0191201Y0063408D02*
X0189800Y0063408D01*
X0189800Y0064006D02*
X0190603Y0064006D01*
X0190004Y0064605D02*
X0189800Y0064605D01*
X0200784Y0070784D02*
X0200784Y0072192D01*
X0200102Y0073840D01*
X0198840Y0075102D01*
X0197192Y0075784D01*
X0195408Y0075784D01*
X0195381Y0075773D01*
X0195298Y0075857D01*
X0194305Y0076268D01*
X0193231Y0076268D01*
X0192239Y0075857D01*
X0189800Y0073418D01*
X0189800Y0081703D01*
X0190448Y0081435D01*
X0195459Y0081435D01*
X0196300Y0081783D01*
X0197141Y0081435D01*
X0202152Y0081435D01*
X0203144Y0081846D01*
X0203899Y0082600D01*
X0204777Y0082600D01*
X0206118Y0081136D01*
X0208331Y0080104D01*
X0207681Y0067913D01*
X0205784Y0066017D01*
X0205784Y0067192D01*
X0205102Y0068840D01*
X0203840Y0070102D01*
X0202192Y0070784D01*
X0200784Y0070784D01*
X0200784Y0071188D02*
X0207856Y0071188D01*
X0207824Y0070590D02*
X0202661Y0070590D01*
X0203950Y0069991D02*
X0207792Y0069991D01*
X0207760Y0069393D02*
X0204549Y0069393D01*
X0205121Y0068794D02*
X0207728Y0068794D01*
X0207696Y0068196D02*
X0205368Y0068196D01*
X0205616Y0067597D02*
X0207365Y0067597D01*
X0206766Y0066999D02*
X0205784Y0066999D01*
X0205784Y0066400D02*
X0206168Y0066400D01*
X0207887Y0071787D02*
X0200784Y0071787D01*
X0200704Y0072385D02*
X0207919Y0072385D01*
X0207951Y0072984D02*
X0200456Y0072984D01*
X0200208Y0073582D02*
X0207983Y0073582D01*
X0208015Y0074181D02*
X0199761Y0074181D01*
X0199162Y0074779D02*
X0208047Y0074779D01*
X0208079Y0075378D02*
X0198173Y0075378D01*
X0195008Y0075976D02*
X0208111Y0075976D01*
X0208143Y0076575D02*
X0189800Y0076575D01*
X0189800Y0077173D02*
X0208175Y0077173D01*
X0208207Y0077772D02*
X0189800Y0077772D01*
X0189800Y0078370D02*
X0208239Y0078370D01*
X0208271Y0078969D02*
X0189800Y0078969D01*
X0189800Y0079568D02*
X0208302Y0079568D01*
X0208199Y0080166D02*
X0189800Y0080166D01*
X0189800Y0080765D02*
X0206915Y0080765D01*
X0205910Y0081363D02*
X0189800Y0081363D01*
X0189800Y0075976D02*
X0192528Y0075976D01*
X0191760Y0075378D02*
X0189800Y0075378D01*
X0189800Y0074779D02*
X0191161Y0074779D01*
X0190563Y0074181D02*
X0189800Y0074181D01*
X0189800Y0073582D02*
X0189964Y0073582D01*
X0203260Y0081962D02*
X0205362Y0081962D01*
X0204814Y0082560D02*
X0203859Y0082560D01*
X0205406Y0090341D02*
X0206048Y0090341D01*
X0205685Y0090939D02*
X0206946Y0090939D01*
X0214637Y0089742D02*
X0215024Y0089742D01*
X0223451Y0091538D02*
X0246356Y0091538D01*
X0246356Y0092136D02*
X0223525Y0092136D01*
X0223508Y0092735D02*
X0246356Y0092735D01*
X0246356Y0093333D02*
X0223408Y0093333D01*
X0223219Y0093932D02*
X0246356Y0093932D01*
X0246356Y0094530D02*
X0222927Y0094530D01*
X0201046Y0100515D02*
X0171134Y0100515D01*
X0171733Y0099917D02*
X0200767Y0099917D01*
X0200487Y0099318D02*
X0172331Y0099318D01*
X0172930Y0098720D02*
X0199384Y0098720D01*
X0198537Y0098121D02*
X0173528Y0098121D01*
X0174127Y0097523D02*
X0198105Y0097523D01*
X0197826Y0096924D02*
X0174725Y0096924D01*
X0175324Y0096326D02*
X0197547Y0096326D01*
X0197268Y0095727D02*
X0175922Y0095727D01*
X0176521Y0095129D02*
X0179854Y0095129D01*
X0178745Y0094530D02*
X0177119Y0094530D01*
X0177718Y0093932D02*
X0178147Y0093932D01*
X0182746Y0095129D02*
X0196989Y0095129D01*
X0196710Y0094530D02*
X0183855Y0094530D01*
X0184453Y0093932D02*
X0196431Y0093932D01*
X0196152Y0093333D02*
X0184885Y0093333D01*
X0185133Y0092735D02*
X0196051Y0092735D01*
X0196025Y0092136D02*
X0185413Y0092136D01*
X0186012Y0091538D02*
X0196222Y0091538D01*
X0196309Y0090939D02*
X0196005Y0090939D01*
X0189902Y0090939D02*
X0186611Y0090939D01*
X0187209Y0090341D02*
X0189042Y0090341D01*
X0160700Y0075976D02*
X0153057Y0075976D01*
X0153914Y0075378D02*
X0160700Y0075378D01*
X0160181Y0074779D02*
X0154364Y0074779D01*
X0154612Y0074181D02*
X0159678Y0074181D01*
X0159430Y0073582D02*
X0154669Y0073582D01*
X0154669Y0072984D02*
X0159335Y0072984D01*
X0159335Y0072385D02*
X0154669Y0072385D01*
X0154669Y0071787D02*
X0159335Y0071787D01*
X0159335Y0071188D02*
X0154669Y0071188D01*
X0154669Y0070590D02*
X0159335Y0070590D01*
X0159335Y0069991D02*
X0154669Y0069991D01*
X0154669Y0069393D02*
X0159335Y0069393D01*
X0159335Y0068794D02*
X0154669Y0068794D01*
X0154669Y0068196D02*
X0159395Y0068196D01*
X0159643Y0067597D02*
X0154669Y0067597D01*
X0154480Y0066999D02*
X0159475Y0066999D01*
X0159335Y0066400D02*
X0154195Y0066400D01*
X0153596Y0065802D02*
X0159335Y0065802D01*
X0167703Y0059817D02*
X0167800Y0059817D01*
X0167800Y0059218D02*
X0167700Y0059218D01*
X0167700Y0058620D02*
X0167800Y0058620D01*
X0167800Y0058021D02*
X0167500Y0058021D01*
X0167252Y0057423D02*
X0167800Y0057423D01*
X0167800Y0056824D02*
X0166774Y0056824D01*
X0166175Y0056226D02*
X0167800Y0056226D01*
X0167800Y0055627D02*
X0165577Y0055627D01*
X0164978Y0055029D02*
X0167800Y0055029D01*
X0167800Y0054430D02*
X0164380Y0054430D01*
X0163781Y0053832D02*
X0167800Y0053832D01*
X0167800Y0053233D02*
X0163183Y0053233D01*
X0162584Y0052634D02*
X0167800Y0052634D01*
X0167800Y0052036D02*
X0162000Y0052036D01*
X0162000Y0051437D02*
X0167800Y0051437D01*
X0167800Y0050839D02*
X0162000Y0050839D01*
X0162000Y0050240D02*
X0167800Y0050240D01*
X0167800Y0049642D02*
X0162000Y0049642D01*
X0162000Y0049043D02*
X0167800Y0049043D01*
X0167800Y0048445D02*
X0161506Y0048445D01*
X0160907Y0047846D02*
X0167800Y0047846D01*
X0167800Y0047248D02*
X0160309Y0047248D01*
X0159710Y0046649D02*
X0167800Y0046649D01*
X0167800Y0046051D02*
X0159112Y0046051D01*
X0153488Y0046051D02*
X0149112Y0046051D01*
X0149710Y0046649D02*
X0152890Y0046649D01*
X0152291Y0047248D02*
X0150309Y0047248D01*
X0150907Y0047846D02*
X0151693Y0047846D01*
X0143488Y0046051D02*
X0139112Y0046051D01*
X0139710Y0046649D02*
X0142890Y0046649D01*
X0142291Y0047248D02*
X0140309Y0047248D01*
X0140907Y0047846D02*
X0141693Y0047846D01*
X0133488Y0046051D02*
X0081782Y0046051D01*
X0082380Y0045452D02*
X0167800Y0045452D01*
X0167800Y0044854D02*
X0127389Y0044854D01*
X0128577Y0044255D02*
X0167800Y0044255D01*
X0167800Y0043657D02*
X0129176Y0043657D01*
X0129774Y0043058D02*
X0167800Y0043058D01*
X0167800Y0042460D02*
X0130373Y0042460D01*
X0130971Y0041861D02*
X0167800Y0041861D01*
X0167800Y0041263D02*
X0131570Y0041263D01*
X0132168Y0040664D02*
X0167800Y0040664D01*
X0167800Y0040066D02*
X0132767Y0040066D01*
X0133365Y0039467D02*
X0167800Y0039467D01*
X0167800Y0038869D02*
X0133964Y0038869D01*
X0134489Y0038270D02*
X0167800Y0038270D01*
X0167800Y0037672D02*
X0134737Y0037672D01*
X0134985Y0037073D02*
X0167800Y0037073D01*
X0167800Y0036475D02*
X0135000Y0036475D01*
X0135000Y0035876D02*
X0158878Y0035876D01*
X0158280Y0035278D02*
X0135000Y0035278D01*
X0135000Y0034679D02*
X0157681Y0034679D01*
X0157083Y0034081D02*
X0135517Y0034081D01*
X0136116Y0033482D02*
X0156484Y0033482D01*
X0155886Y0032884D02*
X0136714Y0032884D01*
X0137000Y0032285D02*
X0155600Y0032285D01*
X0155600Y0031687D02*
X0137000Y0031687D01*
X0137000Y0031088D02*
X0155600Y0031088D01*
X0155600Y0030490D02*
X0137000Y0030490D01*
X0137000Y0029891D02*
X0155600Y0029891D01*
X0155600Y0029293D02*
X0137000Y0029293D01*
X0137000Y0028694D02*
X0155600Y0028694D01*
X0155600Y0028096D02*
X0137000Y0028096D01*
X0136621Y0027497D02*
X0155979Y0027497D01*
X0166116Y0033482D02*
X0166484Y0033482D01*
X0167083Y0034081D02*
X0165517Y0034081D01*
X0164919Y0034679D02*
X0167681Y0034679D01*
X0167800Y0035278D02*
X0164320Y0035278D01*
X0163722Y0035876D02*
X0167800Y0035876D01*
X0151369Y0054430D02*
X0151231Y0054430D01*
X0150632Y0055029D02*
X0151968Y0055029D01*
X0152566Y0055627D02*
X0150034Y0055627D01*
X0149435Y0056226D02*
X0153165Y0056226D01*
X0153763Y0056824D02*
X0148837Y0056824D01*
X0132890Y0046649D02*
X0081183Y0046649D01*
X0074908Y0042460D02*
X0074824Y0042460D01*
X0074766Y0042602D02*
X0079204Y0038163D01*
X0080564Y0037600D01*
X0124767Y0037600D01*
X0127600Y0034767D01*
X0127600Y0034598D01*
X0126300Y0033298D01*
X0123661Y0035937D01*
X0118939Y0035937D01*
X0115600Y0032598D01*
X0115600Y0027876D01*
X0116445Y0027031D01*
X0086155Y0027031D01*
X0087000Y0027876D01*
X0087000Y0032598D01*
X0083661Y0035937D01*
X0078939Y0035937D01*
X0076300Y0033298D01*
X0075000Y0034598D01*
X0075000Y0042036D01*
X0074766Y0042602D01*
X0075000Y0041861D02*
X0075506Y0041861D01*
X0075000Y0041263D02*
X0076105Y0041263D01*
X0076703Y0040664D02*
X0075000Y0040664D01*
X0075000Y0040066D02*
X0077302Y0040066D01*
X0077900Y0039467D02*
X0075000Y0039467D01*
X0075000Y0038869D02*
X0078499Y0038869D01*
X0079097Y0038270D02*
X0075000Y0038270D01*
X0075000Y0037672D02*
X0080391Y0037672D01*
X0078878Y0035876D02*
X0075000Y0035876D01*
X0075000Y0035278D02*
X0078280Y0035278D01*
X0077681Y0034679D02*
X0075000Y0034679D01*
X0075517Y0034081D02*
X0077083Y0034081D01*
X0076484Y0033482D02*
X0076116Y0033482D01*
X0075000Y0036475D02*
X0125893Y0036475D01*
X0125294Y0037073D02*
X0075000Y0037073D01*
X0083722Y0035876D02*
X0118878Y0035876D01*
X0118280Y0035278D02*
X0084320Y0035278D01*
X0084919Y0034679D02*
X0117681Y0034679D01*
X0117083Y0034081D02*
X0085517Y0034081D01*
X0086116Y0033482D02*
X0116484Y0033482D01*
X0115886Y0032884D02*
X0086714Y0032884D01*
X0087000Y0032285D02*
X0115600Y0032285D01*
X0115600Y0031687D02*
X0087000Y0031687D01*
X0087000Y0031088D02*
X0115600Y0031088D01*
X0115600Y0030490D02*
X0087000Y0030490D01*
X0087000Y0029891D02*
X0115600Y0029891D01*
X0115600Y0029293D02*
X0087000Y0029293D01*
X0087000Y0028694D02*
X0115600Y0028694D01*
X0115600Y0028096D02*
X0087000Y0028096D01*
X0086621Y0027497D02*
X0115979Y0027497D01*
X0124919Y0034679D02*
X0127600Y0034679D01*
X0127090Y0035278D02*
X0124320Y0035278D01*
X0123722Y0035876D02*
X0126491Y0035876D01*
X0127083Y0034081D02*
X0125517Y0034081D01*
X0126116Y0033482D02*
X0126484Y0033482D01*
X0155843Y0107698D02*
X0155956Y0107698D01*
X0155890Y0108296D02*
X0156554Y0108296D01*
X0155890Y0108895D02*
X0157850Y0108895D01*
X0135123Y0123259D02*
X0134916Y0123259D01*
X0135123Y0123857D02*
X0134528Y0123857D01*
X0133929Y0124456D02*
X0135180Y0124456D01*
X0135427Y0125054D02*
X0133791Y0125054D01*
X0133774Y0125653D02*
X0135703Y0125653D01*
X0136302Y0126251D02*
X0133526Y0126251D01*
X0133278Y0126850D02*
X0136900Y0126850D01*
X0137499Y0127448D02*
X0132836Y0127448D01*
X0132238Y0128047D02*
X0138097Y0128047D01*
X0138696Y0128645D02*
X0131105Y0128645D01*
X0053507Y0118471D02*
X0049000Y0118471D01*
X0049000Y0119069D02*
X0052062Y0119069D01*
X0050998Y0119668D02*
X0049000Y0119668D01*
X0049000Y0120266D02*
X0050400Y0120266D01*
X0049801Y0120865D02*
X0049000Y0120865D01*
X0049000Y0121463D02*
X0049203Y0121463D01*
D27*
X0061300Y0116300D03*
X0066300Y0116300D03*
X0061300Y0111300D03*
X0056300Y0111300D03*
X0056300Y0106300D03*
X0126300Y0096300D03*
X0131300Y0096300D03*
X0131300Y0091300D03*
X0126300Y0091300D03*
X0131300Y0086300D03*
X0136300Y0071300D03*
X0136300Y0066300D03*
X0136300Y0061300D03*
X0131300Y0061300D03*
X0126300Y0061300D03*
X0126300Y0056300D03*
X0106300Y0036300D03*
X0101300Y0031300D03*
X0096300Y0036300D03*
X0191300Y0056300D03*
X0196300Y0061300D03*
X0196300Y0066300D03*
X0201300Y0066300D03*
X0196300Y0071300D03*
X0191300Y0076300D03*
X0216300Y0061300D03*
X0216300Y0056300D03*
X0221300Y0056300D03*
X0221300Y0051300D03*
X0206300Y0046300D03*
X0203400Y0050700D03*
X0159200Y0104600D03*
X0142900Y0116600D03*
X0221300Y0116300D03*
X0226300Y0116300D03*
X0226300Y0111300D03*
X0231300Y0111300D03*
X0221300Y0121300D03*
D28*
X0193100Y0099900D03*
X0193100Y0094100D03*
X0151300Y0086300D03*
X0146300Y0086300D03*
X0156300Y0066300D03*
X0156300Y0061300D03*
X0151300Y0061300D03*
X0146300Y0061300D03*
D29*
X0156300Y0051300D02*
X0164200Y0059200D01*
X0164200Y0064154D01*
X0164200Y0070846D02*
X0164200Y0081600D01*
X0147300Y0098500D01*
X0147300Y0101300D01*
X0147300Y0111284D01*
X0147284Y0111300D01*
X0151615Y0111300D02*
X0151615Y0100985D01*
X0171300Y0081300D01*
X0171300Y0030237D01*
X0176300Y0035237D02*
X0176300Y0083300D01*
X0161400Y0098200D01*
X0162100Y0104600D02*
X0159200Y0104600D01*
X0162100Y0104600D02*
X0181300Y0085400D01*
X0181300Y0040237D01*
X0191300Y0030237D01*
X0181300Y0030237D02*
X0176300Y0035237D01*
X0186300Y0046300D02*
X0191300Y0041300D01*
X0206300Y0041300D01*
X0211300Y0036300D01*
X0211300Y0030237D01*
X0186300Y0046300D02*
X0186300Y0086300D01*
X0192954Y0086300D01*
X0186300Y0086300D02*
X0181300Y0091300D01*
X0141300Y0091300D02*
X0134292Y0103308D01*
X0134292Y0112087D01*
X0138623Y0111300D02*
X0138623Y0123623D01*
X0143000Y0128000D01*
X0143000Y0128100D01*
X0131300Y0121300D02*
X0125631Y0115631D01*
X0125631Y0109725D01*
X0129961Y0111300D02*
X0130000Y0111261D01*
X0130000Y0106100D01*
X0121300Y0111300D02*
X0121300Y0116400D01*
X0129700Y0124800D01*
D30*
X0196300Y0071300D02*
X0196413Y0071187D01*
X0196413Y0066469D01*
X0201131Y0066469D01*
X0201300Y0066300D01*
X0196413Y0066469D02*
X0196300Y0066356D01*
X0196300Y0061300D01*
M02*
