G75*
%MOIN*%
%OFA0B0*%
%FSLAX25Y25*%
%IPPOS*%
%LPD*%
%AMOC8*
5,1,8,0,0,1.08239X$1,22.5*
%
%ADD10C,0.12611*%
%ADD11R,0.10643X0.10839*%
%ADD12C,0.06800*%
%ADD13OC8,0.06800*%
%ADD14R,0.10800X0.20800*%
%ADD15C,0.03581*%
%ADD16C,0.13855*%
%ADD17C,0.04369*%
%ADD18C,0.03778*%
D10*
X0056143Y0034174D03*
X0056143Y0126694D03*
X0239213Y0126694D03*
X0239213Y0034174D03*
D11*
X0079000Y0096359D03*
X0079000Y0116241D03*
D12*
X0088300Y0101300D02*
X0094300Y0101300D01*
X0094300Y0091300D02*
X0088300Y0091300D01*
X0088300Y0071300D02*
X0094300Y0071300D01*
X0094300Y0061300D02*
X0088300Y0061300D01*
X0209555Y0085823D02*
X0214993Y0083287D01*
X0219219Y0092350D02*
X0213781Y0094886D01*
X0218007Y0103949D02*
X0223445Y0101413D01*
D13*
X0211300Y0130631D03*
X0201300Y0130631D03*
X0191300Y0130631D03*
X0181300Y0130631D03*
X0171300Y0130631D03*
X0081300Y0130631D03*
X0071300Y0130631D03*
X0136300Y0051300D03*
X0146300Y0051300D03*
X0156300Y0051300D03*
X0161300Y0030237D03*
X0171300Y0030237D03*
X0181300Y0030237D03*
X0191300Y0030237D03*
X0201300Y0030237D03*
X0211300Y0030237D03*
X0131300Y0030237D03*
X0121300Y0030237D03*
X0081300Y0030237D03*
X0071300Y0030237D03*
D14*
X0115591Y0070394D03*
X0115591Y0107009D03*
X0202206Y0107009D03*
X0202206Y0070394D03*
D15*
X0181300Y0091300D03*
X0161400Y0098200D03*
X0147300Y0101300D03*
X0141300Y0091300D03*
X0130000Y0106100D03*
X0131300Y0121300D03*
X0129700Y0124800D03*
X0143000Y0128100D03*
X0060400Y0091400D03*
X0059500Y0086400D03*
X0058000Y0076400D03*
X0059100Y0071300D03*
X0191300Y0046300D03*
D16*
X0264056Y0035355D03*
X0031300Y0035355D03*
D17*
X0096300Y0036300D03*
X0101300Y0031300D03*
X0106300Y0036300D03*
X0126300Y0056300D03*
X0126300Y0061300D03*
X0131300Y0061300D03*
X0136300Y0061300D03*
X0136300Y0066300D03*
X0136300Y0071300D03*
X0131300Y0086300D03*
X0131300Y0091300D03*
X0126300Y0091300D03*
X0126300Y0096300D03*
X0131300Y0096300D03*
X0159200Y0104600D03*
X0142900Y0116600D03*
X0191300Y0076300D03*
X0196300Y0071300D03*
X0196300Y0066300D03*
X0201300Y0066300D03*
X0196300Y0061300D03*
X0191300Y0056300D03*
X0203400Y0050700D03*
X0206300Y0046300D03*
X0221300Y0051300D03*
X0221300Y0056300D03*
X0216300Y0056300D03*
X0216300Y0061300D03*
X0226300Y0111300D03*
X0231300Y0111300D03*
X0226300Y0116300D03*
X0221300Y0116300D03*
X0221300Y0121300D03*
X0066300Y0116300D03*
X0061300Y0116300D03*
X0061300Y0111300D03*
X0056300Y0111300D03*
X0056300Y0106300D03*
D18*
X0146300Y0086300D03*
X0151300Y0086300D03*
X0156300Y0066300D03*
X0156300Y0061300D03*
X0151300Y0061300D03*
X0146300Y0061300D03*
X0193100Y0094100D03*
X0193100Y0099900D03*
M02*
