G75*
%MOIN*%
%OFA0B0*%
%FSLAX25Y25*%
%IPPOS*%
%LPD*%
%AMOC8*
5,1,8,0,0,1.08239X$1,22.5*
%
%ADD10C,0.00000*%
%ADD11C,0.00400*%
%ADD12C,0.00300*%
%ADD13C,0.00600*%
%ADD14R,0.01378X0.03150*%
%ADD15R,0.03150X0.01378*%
%ADD16C,0.00200*%
%ADD17R,0.04500X0.02000*%
%ADD18R,0.02000X0.02000*%
%ADD19R,0.01600X0.03400*%
%ADD20R,0.03400X0.01600*%
%ADD21C,0.00500*%
%ADD22R,0.02000X0.02000*%
%ADD23C,0.00800*%
D10*
X0031300Y0024331D02*
X0264056Y0024331D01*
X0264298Y0024334D01*
X0264539Y0024343D01*
X0264780Y0024357D01*
X0265021Y0024378D01*
X0265261Y0024404D01*
X0265501Y0024436D01*
X0265740Y0024474D01*
X0265977Y0024517D01*
X0266214Y0024567D01*
X0266449Y0024622D01*
X0266683Y0024682D01*
X0266915Y0024749D01*
X0267146Y0024820D01*
X0267375Y0024898D01*
X0267602Y0024981D01*
X0267827Y0025069D01*
X0268050Y0025163D01*
X0268270Y0025262D01*
X0268488Y0025367D01*
X0268703Y0025476D01*
X0268916Y0025591D01*
X0269126Y0025711D01*
X0269332Y0025836D01*
X0269536Y0025966D01*
X0269737Y0026101D01*
X0269934Y0026241D01*
X0270128Y0026385D01*
X0270318Y0026534D01*
X0270504Y0026688D01*
X0270687Y0026846D01*
X0270866Y0027008D01*
X0271041Y0027175D01*
X0271212Y0027346D01*
X0271379Y0027521D01*
X0271541Y0027700D01*
X0271699Y0027883D01*
X0271853Y0028069D01*
X0272002Y0028259D01*
X0272146Y0028453D01*
X0272286Y0028650D01*
X0272421Y0028851D01*
X0272551Y0029055D01*
X0272676Y0029261D01*
X0272796Y0029471D01*
X0272911Y0029684D01*
X0273020Y0029899D01*
X0273125Y0030117D01*
X0273224Y0030337D01*
X0273318Y0030560D01*
X0273406Y0030785D01*
X0273489Y0031012D01*
X0273567Y0031241D01*
X0273638Y0031472D01*
X0273705Y0031704D01*
X0273765Y0031938D01*
X0273820Y0032173D01*
X0273870Y0032410D01*
X0273913Y0032647D01*
X0273951Y0032886D01*
X0273983Y0033126D01*
X0274009Y0033366D01*
X0274030Y0033607D01*
X0274044Y0033848D01*
X0274053Y0034089D01*
X0274056Y0034331D01*
X0274056Y0036300D01*
X0274053Y0036542D01*
X0274044Y0036783D01*
X0274030Y0037024D01*
X0274009Y0037265D01*
X0273983Y0037505D01*
X0273951Y0037745D01*
X0273913Y0037984D01*
X0273870Y0038221D01*
X0273820Y0038458D01*
X0273765Y0038693D01*
X0273705Y0038927D01*
X0273638Y0039159D01*
X0273567Y0039390D01*
X0273489Y0039619D01*
X0273406Y0039846D01*
X0273318Y0040071D01*
X0273224Y0040294D01*
X0273125Y0040514D01*
X0273020Y0040732D01*
X0272911Y0040947D01*
X0272796Y0041160D01*
X0272676Y0041370D01*
X0272551Y0041576D01*
X0272421Y0041780D01*
X0272286Y0041981D01*
X0272146Y0042178D01*
X0272002Y0042372D01*
X0271853Y0042562D01*
X0271699Y0042748D01*
X0271541Y0042931D01*
X0271379Y0043110D01*
X0271212Y0043285D01*
X0271041Y0043456D01*
X0270866Y0043623D01*
X0270687Y0043785D01*
X0270504Y0043943D01*
X0270318Y0044097D01*
X0270128Y0044246D01*
X0269934Y0044390D01*
X0269737Y0044530D01*
X0269536Y0044665D01*
X0269332Y0044795D01*
X0269126Y0044920D01*
X0268916Y0045040D01*
X0268703Y0045155D01*
X0268488Y0045264D01*
X0268270Y0045369D01*
X0268050Y0045468D01*
X0267827Y0045562D01*
X0267602Y0045650D01*
X0267375Y0045733D01*
X0267146Y0045811D01*
X0266915Y0045882D01*
X0266683Y0045949D01*
X0266449Y0046009D01*
X0266214Y0046064D01*
X0265977Y0046114D01*
X0265740Y0046157D01*
X0265501Y0046195D01*
X0265261Y0046227D01*
X0265021Y0046253D01*
X0264780Y0046274D01*
X0264539Y0046288D01*
X0264298Y0046297D01*
X0264056Y0046300D01*
X0233307Y0034174D02*
X0233309Y0034327D01*
X0233315Y0034481D01*
X0233325Y0034634D01*
X0233339Y0034786D01*
X0233357Y0034939D01*
X0233379Y0035090D01*
X0233404Y0035241D01*
X0233434Y0035392D01*
X0233468Y0035542D01*
X0233505Y0035690D01*
X0233546Y0035838D01*
X0233591Y0035984D01*
X0233640Y0036130D01*
X0233693Y0036274D01*
X0233749Y0036416D01*
X0233809Y0036557D01*
X0233873Y0036697D01*
X0233940Y0036835D01*
X0234011Y0036971D01*
X0234086Y0037105D01*
X0234163Y0037237D01*
X0234245Y0037367D01*
X0234329Y0037495D01*
X0234417Y0037621D01*
X0234508Y0037744D01*
X0234602Y0037865D01*
X0234700Y0037983D01*
X0234800Y0038099D01*
X0234904Y0038212D01*
X0235010Y0038323D01*
X0235119Y0038431D01*
X0235231Y0038536D01*
X0235345Y0038637D01*
X0235463Y0038736D01*
X0235582Y0038832D01*
X0235704Y0038925D01*
X0235829Y0039014D01*
X0235956Y0039101D01*
X0236085Y0039183D01*
X0236216Y0039263D01*
X0236349Y0039339D01*
X0236484Y0039412D01*
X0236621Y0039481D01*
X0236760Y0039546D01*
X0236900Y0039608D01*
X0237042Y0039666D01*
X0237185Y0039721D01*
X0237330Y0039772D01*
X0237476Y0039819D01*
X0237623Y0039862D01*
X0237771Y0039901D01*
X0237920Y0039937D01*
X0238070Y0039968D01*
X0238221Y0039996D01*
X0238372Y0040020D01*
X0238525Y0040040D01*
X0238677Y0040056D01*
X0238830Y0040068D01*
X0238983Y0040076D01*
X0239136Y0040080D01*
X0239290Y0040080D01*
X0239443Y0040076D01*
X0239596Y0040068D01*
X0239749Y0040056D01*
X0239901Y0040040D01*
X0240054Y0040020D01*
X0240205Y0039996D01*
X0240356Y0039968D01*
X0240506Y0039937D01*
X0240655Y0039901D01*
X0240803Y0039862D01*
X0240950Y0039819D01*
X0241096Y0039772D01*
X0241241Y0039721D01*
X0241384Y0039666D01*
X0241526Y0039608D01*
X0241666Y0039546D01*
X0241805Y0039481D01*
X0241942Y0039412D01*
X0242077Y0039339D01*
X0242210Y0039263D01*
X0242341Y0039183D01*
X0242470Y0039101D01*
X0242597Y0039014D01*
X0242722Y0038925D01*
X0242844Y0038832D01*
X0242963Y0038736D01*
X0243081Y0038637D01*
X0243195Y0038536D01*
X0243307Y0038431D01*
X0243416Y0038323D01*
X0243522Y0038212D01*
X0243626Y0038099D01*
X0243726Y0037983D01*
X0243824Y0037865D01*
X0243918Y0037744D01*
X0244009Y0037621D01*
X0244097Y0037495D01*
X0244181Y0037367D01*
X0244263Y0037237D01*
X0244340Y0037105D01*
X0244415Y0036971D01*
X0244486Y0036835D01*
X0244553Y0036697D01*
X0244617Y0036557D01*
X0244677Y0036416D01*
X0244733Y0036274D01*
X0244786Y0036130D01*
X0244835Y0035984D01*
X0244880Y0035838D01*
X0244921Y0035690D01*
X0244958Y0035542D01*
X0244992Y0035392D01*
X0245022Y0035241D01*
X0245047Y0035090D01*
X0245069Y0034939D01*
X0245087Y0034786D01*
X0245101Y0034634D01*
X0245111Y0034481D01*
X0245117Y0034327D01*
X0245119Y0034174D01*
X0245117Y0034021D01*
X0245111Y0033867D01*
X0245101Y0033714D01*
X0245087Y0033562D01*
X0245069Y0033409D01*
X0245047Y0033258D01*
X0245022Y0033107D01*
X0244992Y0032956D01*
X0244958Y0032806D01*
X0244921Y0032658D01*
X0244880Y0032510D01*
X0244835Y0032364D01*
X0244786Y0032218D01*
X0244733Y0032074D01*
X0244677Y0031932D01*
X0244617Y0031791D01*
X0244553Y0031651D01*
X0244486Y0031513D01*
X0244415Y0031377D01*
X0244340Y0031243D01*
X0244263Y0031111D01*
X0244181Y0030981D01*
X0244097Y0030853D01*
X0244009Y0030727D01*
X0243918Y0030604D01*
X0243824Y0030483D01*
X0243726Y0030365D01*
X0243626Y0030249D01*
X0243522Y0030136D01*
X0243416Y0030025D01*
X0243307Y0029917D01*
X0243195Y0029812D01*
X0243081Y0029711D01*
X0242963Y0029612D01*
X0242844Y0029516D01*
X0242722Y0029423D01*
X0242597Y0029334D01*
X0242470Y0029247D01*
X0242341Y0029165D01*
X0242210Y0029085D01*
X0242077Y0029009D01*
X0241942Y0028936D01*
X0241805Y0028867D01*
X0241666Y0028802D01*
X0241526Y0028740D01*
X0241384Y0028682D01*
X0241241Y0028627D01*
X0241096Y0028576D01*
X0240950Y0028529D01*
X0240803Y0028486D01*
X0240655Y0028447D01*
X0240506Y0028411D01*
X0240356Y0028380D01*
X0240205Y0028352D01*
X0240054Y0028328D01*
X0239901Y0028308D01*
X0239749Y0028292D01*
X0239596Y0028280D01*
X0239443Y0028272D01*
X0239290Y0028268D01*
X0239136Y0028268D01*
X0238983Y0028272D01*
X0238830Y0028280D01*
X0238677Y0028292D01*
X0238525Y0028308D01*
X0238372Y0028328D01*
X0238221Y0028352D01*
X0238070Y0028380D01*
X0237920Y0028411D01*
X0237771Y0028447D01*
X0237623Y0028486D01*
X0237476Y0028529D01*
X0237330Y0028576D01*
X0237185Y0028627D01*
X0237042Y0028682D01*
X0236900Y0028740D01*
X0236760Y0028802D01*
X0236621Y0028867D01*
X0236484Y0028936D01*
X0236349Y0029009D01*
X0236216Y0029085D01*
X0236085Y0029165D01*
X0235956Y0029247D01*
X0235829Y0029334D01*
X0235704Y0029423D01*
X0235582Y0029516D01*
X0235463Y0029612D01*
X0235345Y0029711D01*
X0235231Y0029812D01*
X0235119Y0029917D01*
X0235010Y0030025D01*
X0234904Y0030136D01*
X0234800Y0030249D01*
X0234700Y0030365D01*
X0234602Y0030483D01*
X0234508Y0030604D01*
X0234417Y0030727D01*
X0234329Y0030853D01*
X0234245Y0030981D01*
X0234163Y0031111D01*
X0234086Y0031243D01*
X0234011Y0031377D01*
X0233940Y0031513D01*
X0233873Y0031651D01*
X0233809Y0031791D01*
X0233749Y0031932D01*
X0233693Y0032074D01*
X0233640Y0032218D01*
X0233591Y0032364D01*
X0233546Y0032510D01*
X0233505Y0032658D01*
X0233468Y0032806D01*
X0233434Y0032956D01*
X0233404Y0033107D01*
X0233379Y0033258D01*
X0233357Y0033409D01*
X0233339Y0033562D01*
X0233325Y0033714D01*
X0233315Y0033867D01*
X0233309Y0034021D01*
X0233307Y0034174D01*
X0249056Y0061400D02*
X0249056Y0126300D01*
X0233307Y0126694D02*
X0233309Y0126847D01*
X0233315Y0127001D01*
X0233325Y0127154D01*
X0233339Y0127306D01*
X0233357Y0127459D01*
X0233379Y0127610D01*
X0233404Y0127761D01*
X0233434Y0127912D01*
X0233468Y0128062D01*
X0233505Y0128210D01*
X0233546Y0128358D01*
X0233591Y0128504D01*
X0233640Y0128650D01*
X0233693Y0128794D01*
X0233749Y0128936D01*
X0233809Y0129077D01*
X0233873Y0129217D01*
X0233940Y0129355D01*
X0234011Y0129491D01*
X0234086Y0129625D01*
X0234163Y0129757D01*
X0234245Y0129887D01*
X0234329Y0130015D01*
X0234417Y0130141D01*
X0234508Y0130264D01*
X0234602Y0130385D01*
X0234700Y0130503D01*
X0234800Y0130619D01*
X0234904Y0130732D01*
X0235010Y0130843D01*
X0235119Y0130951D01*
X0235231Y0131056D01*
X0235345Y0131157D01*
X0235463Y0131256D01*
X0235582Y0131352D01*
X0235704Y0131445D01*
X0235829Y0131534D01*
X0235956Y0131621D01*
X0236085Y0131703D01*
X0236216Y0131783D01*
X0236349Y0131859D01*
X0236484Y0131932D01*
X0236621Y0132001D01*
X0236760Y0132066D01*
X0236900Y0132128D01*
X0237042Y0132186D01*
X0237185Y0132241D01*
X0237330Y0132292D01*
X0237476Y0132339D01*
X0237623Y0132382D01*
X0237771Y0132421D01*
X0237920Y0132457D01*
X0238070Y0132488D01*
X0238221Y0132516D01*
X0238372Y0132540D01*
X0238525Y0132560D01*
X0238677Y0132576D01*
X0238830Y0132588D01*
X0238983Y0132596D01*
X0239136Y0132600D01*
X0239290Y0132600D01*
X0239443Y0132596D01*
X0239596Y0132588D01*
X0239749Y0132576D01*
X0239901Y0132560D01*
X0240054Y0132540D01*
X0240205Y0132516D01*
X0240356Y0132488D01*
X0240506Y0132457D01*
X0240655Y0132421D01*
X0240803Y0132382D01*
X0240950Y0132339D01*
X0241096Y0132292D01*
X0241241Y0132241D01*
X0241384Y0132186D01*
X0241526Y0132128D01*
X0241666Y0132066D01*
X0241805Y0132001D01*
X0241942Y0131932D01*
X0242077Y0131859D01*
X0242210Y0131783D01*
X0242341Y0131703D01*
X0242470Y0131621D01*
X0242597Y0131534D01*
X0242722Y0131445D01*
X0242844Y0131352D01*
X0242963Y0131256D01*
X0243081Y0131157D01*
X0243195Y0131056D01*
X0243307Y0130951D01*
X0243416Y0130843D01*
X0243522Y0130732D01*
X0243626Y0130619D01*
X0243726Y0130503D01*
X0243824Y0130385D01*
X0243918Y0130264D01*
X0244009Y0130141D01*
X0244097Y0130015D01*
X0244181Y0129887D01*
X0244263Y0129757D01*
X0244340Y0129625D01*
X0244415Y0129491D01*
X0244486Y0129355D01*
X0244553Y0129217D01*
X0244617Y0129077D01*
X0244677Y0128936D01*
X0244733Y0128794D01*
X0244786Y0128650D01*
X0244835Y0128504D01*
X0244880Y0128358D01*
X0244921Y0128210D01*
X0244958Y0128062D01*
X0244992Y0127912D01*
X0245022Y0127761D01*
X0245047Y0127610D01*
X0245069Y0127459D01*
X0245087Y0127306D01*
X0245101Y0127154D01*
X0245111Y0127001D01*
X0245117Y0126847D01*
X0245119Y0126694D01*
X0245117Y0126541D01*
X0245111Y0126387D01*
X0245101Y0126234D01*
X0245087Y0126082D01*
X0245069Y0125929D01*
X0245047Y0125778D01*
X0245022Y0125627D01*
X0244992Y0125476D01*
X0244958Y0125326D01*
X0244921Y0125178D01*
X0244880Y0125030D01*
X0244835Y0124884D01*
X0244786Y0124738D01*
X0244733Y0124594D01*
X0244677Y0124452D01*
X0244617Y0124311D01*
X0244553Y0124171D01*
X0244486Y0124033D01*
X0244415Y0123897D01*
X0244340Y0123763D01*
X0244263Y0123631D01*
X0244181Y0123501D01*
X0244097Y0123373D01*
X0244009Y0123247D01*
X0243918Y0123124D01*
X0243824Y0123003D01*
X0243726Y0122885D01*
X0243626Y0122769D01*
X0243522Y0122656D01*
X0243416Y0122545D01*
X0243307Y0122437D01*
X0243195Y0122332D01*
X0243081Y0122231D01*
X0242963Y0122132D01*
X0242844Y0122036D01*
X0242722Y0121943D01*
X0242597Y0121854D01*
X0242470Y0121767D01*
X0242341Y0121685D01*
X0242210Y0121605D01*
X0242077Y0121529D01*
X0241942Y0121456D01*
X0241805Y0121387D01*
X0241666Y0121322D01*
X0241526Y0121260D01*
X0241384Y0121202D01*
X0241241Y0121147D01*
X0241096Y0121096D01*
X0240950Y0121049D01*
X0240803Y0121006D01*
X0240655Y0120967D01*
X0240506Y0120931D01*
X0240356Y0120900D01*
X0240205Y0120872D01*
X0240054Y0120848D01*
X0239901Y0120828D01*
X0239749Y0120812D01*
X0239596Y0120800D01*
X0239443Y0120792D01*
X0239290Y0120788D01*
X0239136Y0120788D01*
X0238983Y0120792D01*
X0238830Y0120800D01*
X0238677Y0120812D01*
X0238525Y0120828D01*
X0238372Y0120848D01*
X0238221Y0120872D01*
X0238070Y0120900D01*
X0237920Y0120931D01*
X0237771Y0120967D01*
X0237623Y0121006D01*
X0237476Y0121049D01*
X0237330Y0121096D01*
X0237185Y0121147D01*
X0237042Y0121202D01*
X0236900Y0121260D01*
X0236760Y0121322D01*
X0236621Y0121387D01*
X0236484Y0121456D01*
X0236349Y0121529D01*
X0236216Y0121605D01*
X0236085Y0121685D01*
X0235956Y0121767D01*
X0235829Y0121854D01*
X0235704Y0121943D01*
X0235582Y0122036D01*
X0235463Y0122132D01*
X0235345Y0122231D01*
X0235231Y0122332D01*
X0235119Y0122437D01*
X0235010Y0122545D01*
X0234904Y0122656D01*
X0234800Y0122769D01*
X0234700Y0122885D01*
X0234602Y0123003D01*
X0234508Y0123124D01*
X0234417Y0123247D01*
X0234329Y0123373D01*
X0234245Y0123501D01*
X0234163Y0123631D01*
X0234086Y0123763D01*
X0234011Y0123897D01*
X0233940Y0124033D01*
X0233873Y0124171D01*
X0233809Y0124311D01*
X0233749Y0124452D01*
X0233693Y0124594D01*
X0233640Y0124738D01*
X0233591Y0124884D01*
X0233546Y0125030D01*
X0233505Y0125178D01*
X0233468Y0125326D01*
X0233434Y0125476D01*
X0233404Y0125627D01*
X0233379Y0125778D01*
X0233357Y0125929D01*
X0233339Y0126082D01*
X0233325Y0126234D01*
X0233315Y0126387D01*
X0233309Y0126541D01*
X0233307Y0126694D01*
X0239056Y0136536D02*
X0239301Y0136531D01*
X0239545Y0136519D01*
X0239789Y0136501D01*
X0240032Y0136478D01*
X0240275Y0136448D01*
X0240517Y0136413D01*
X0240758Y0136372D01*
X0240998Y0136325D01*
X0241237Y0136272D01*
X0241474Y0136214D01*
X0241710Y0136150D01*
X0241944Y0136080D01*
X0242177Y0136005D01*
X0242408Y0135924D01*
X0242636Y0135837D01*
X0242863Y0135745D01*
X0243087Y0135647D01*
X0243309Y0135544D01*
X0243528Y0135436D01*
X0243745Y0135322D01*
X0243959Y0135204D01*
X0244169Y0135080D01*
X0244377Y0134951D01*
X0244582Y0134817D01*
X0244783Y0134678D01*
X0244981Y0134534D01*
X0245175Y0134386D01*
X0245366Y0134233D01*
X0245553Y0134075D01*
X0245736Y0133913D01*
X0245915Y0133747D01*
X0246090Y0133576D01*
X0246261Y0133401D01*
X0246428Y0133222D01*
X0246590Y0133039D01*
X0246748Y0132852D01*
X0246901Y0132662D01*
X0247049Y0132468D01*
X0247193Y0132270D01*
X0247332Y0132069D01*
X0247466Y0131864D01*
X0247596Y0131656D01*
X0247720Y0131446D01*
X0247838Y0131232D01*
X0247952Y0131016D01*
X0248061Y0130796D01*
X0248164Y0130575D01*
X0248262Y0130351D01*
X0248354Y0130124D01*
X0248441Y0129896D01*
X0248522Y0129665D01*
X0248598Y0129432D01*
X0248668Y0129198D01*
X0248732Y0128962D01*
X0248791Y0128725D01*
X0248843Y0128486D01*
X0248891Y0128246D01*
X0248932Y0128005D01*
X0248967Y0127763D01*
X0248997Y0127520D01*
X0249020Y0127277D01*
X0249038Y0127033D01*
X0249050Y0126789D01*
X0249056Y0126544D01*
X0249056Y0126300D01*
X0239056Y0136536D02*
X0056300Y0136536D01*
X0050237Y0126694D02*
X0050239Y0126847D01*
X0050245Y0127001D01*
X0050255Y0127154D01*
X0050269Y0127306D01*
X0050287Y0127459D01*
X0050309Y0127610D01*
X0050334Y0127761D01*
X0050364Y0127912D01*
X0050398Y0128062D01*
X0050435Y0128210D01*
X0050476Y0128358D01*
X0050521Y0128504D01*
X0050570Y0128650D01*
X0050623Y0128794D01*
X0050679Y0128936D01*
X0050739Y0129077D01*
X0050803Y0129217D01*
X0050870Y0129355D01*
X0050941Y0129491D01*
X0051016Y0129625D01*
X0051093Y0129757D01*
X0051175Y0129887D01*
X0051259Y0130015D01*
X0051347Y0130141D01*
X0051438Y0130264D01*
X0051532Y0130385D01*
X0051630Y0130503D01*
X0051730Y0130619D01*
X0051834Y0130732D01*
X0051940Y0130843D01*
X0052049Y0130951D01*
X0052161Y0131056D01*
X0052275Y0131157D01*
X0052393Y0131256D01*
X0052512Y0131352D01*
X0052634Y0131445D01*
X0052759Y0131534D01*
X0052886Y0131621D01*
X0053015Y0131703D01*
X0053146Y0131783D01*
X0053279Y0131859D01*
X0053414Y0131932D01*
X0053551Y0132001D01*
X0053690Y0132066D01*
X0053830Y0132128D01*
X0053972Y0132186D01*
X0054115Y0132241D01*
X0054260Y0132292D01*
X0054406Y0132339D01*
X0054553Y0132382D01*
X0054701Y0132421D01*
X0054850Y0132457D01*
X0055000Y0132488D01*
X0055151Y0132516D01*
X0055302Y0132540D01*
X0055455Y0132560D01*
X0055607Y0132576D01*
X0055760Y0132588D01*
X0055913Y0132596D01*
X0056066Y0132600D01*
X0056220Y0132600D01*
X0056373Y0132596D01*
X0056526Y0132588D01*
X0056679Y0132576D01*
X0056831Y0132560D01*
X0056984Y0132540D01*
X0057135Y0132516D01*
X0057286Y0132488D01*
X0057436Y0132457D01*
X0057585Y0132421D01*
X0057733Y0132382D01*
X0057880Y0132339D01*
X0058026Y0132292D01*
X0058171Y0132241D01*
X0058314Y0132186D01*
X0058456Y0132128D01*
X0058596Y0132066D01*
X0058735Y0132001D01*
X0058872Y0131932D01*
X0059007Y0131859D01*
X0059140Y0131783D01*
X0059271Y0131703D01*
X0059400Y0131621D01*
X0059527Y0131534D01*
X0059652Y0131445D01*
X0059774Y0131352D01*
X0059893Y0131256D01*
X0060011Y0131157D01*
X0060125Y0131056D01*
X0060237Y0130951D01*
X0060346Y0130843D01*
X0060452Y0130732D01*
X0060556Y0130619D01*
X0060656Y0130503D01*
X0060754Y0130385D01*
X0060848Y0130264D01*
X0060939Y0130141D01*
X0061027Y0130015D01*
X0061111Y0129887D01*
X0061193Y0129757D01*
X0061270Y0129625D01*
X0061345Y0129491D01*
X0061416Y0129355D01*
X0061483Y0129217D01*
X0061547Y0129077D01*
X0061607Y0128936D01*
X0061663Y0128794D01*
X0061716Y0128650D01*
X0061765Y0128504D01*
X0061810Y0128358D01*
X0061851Y0128210D01*
X0061888Y0128062D01*
X0061922Y0127912D01*
X0061952Y0127761D01*
X0061977Y0127610D01*
X0061999Y0127459D01*
X0062017Y0127306D01*
X0062031Y0127154D01*
X0062041Y0127001D01*
X0062047Y0126847D01*
X0062049Y0126694D01*
X0062047Y0126541D01*
X0062041Y0126387D01*
X0062031Y0126234D01*
X0062017Y0126082D01*
X0061999Y0125929D01*
X0061977Y0125778D01*
X0061952Y0125627D01*
X0061922Y0125476D01*
X0061888Y0125326D01*
X0061851Y0125178D01*
X0061810Y0125030D01*
X0061765Y0124884D01*
X0061716Y0124738D01*
X0061663Y0124594D01*
X0061607Y0124452D01*
X0061547Y0124311D01*
X0061483Y0124171D01*
X0061416Y0124033D01*
X0061345Y0123897D01*
X0061270Y0123763D01*
X0061193Y0123631D01*
X0061111Y0123501D01*
X0061027Y0123373D01*
X0060939Y0123247D01*
X0060848Y0123124D01*
X0060754Y0123003D01*
X0060656Y0122885D01*
X0060556Y0122769D01*
X0060452Y0122656D01*
X0060346Y0122545D01*
X0060237Y0122437D01*
X0060125Y0122332D01*
X0060011Y0122231D01*
X0059893Y0122132D01*
X0059774Y0122036D01*
X0059652Y0121943D01*
X0059527Y0121854D01*
X0059400Y0121767D01*
X0059271Y0121685D01*
X0059140Y0121605D01*
X0059007Y0121529D01*
X0058872Y0121456D01*
X0058735Y0121387D01*
X0058596Y0121322D01*
X0058456Y0121260D01*
X0058314Y0121202D01*
X0058171Y0121147D01*
X0058026Y0121096D01*
X0057880Y0121049D01*
X0057733Y0121006D01*
X0057585Y0120967D01*
X0057436Y0120931D01*
X0057286Y0120900D01*
X0057135Y0120872D01*
X0056984Y0120848D01*
X0056831Y0120828D01*
X0056679Y0120812D01*
X0056526Y0120800D01*
X0056373Y0120792D01*
X0056220Y0120788D01*
X0056066Y0120788D01*
X0055913Y0120792D01*
X0055760Y0120800D01*
X0055607Y0120812D01*
X0055455Y0120828D01*
X0055302Y0120848D01*
X0055151Y0120872D01*
X0055000Y0120900D01*
X0054850Y0120931D01*
X0054701Y0120967D01*
X0054553Y0121006D01*
X0054406Y0121049D01*
X0054260Y0121096D01*
X0054115Y0121147D01*
X0053972Y0121202D01*
X0053830Y0121260D01*
X0053690Y0121322D01*
X0053551Y0121387D01*
X0053414Y0121456D01*
X0053279Y0121529D01*
X0053146Y0121605D01*
X0053015Y0121685D01*
X0052886Y0121767D01*
X0052759Y0121854D01*
X0052634Y0121943D01*
X0052512Y0122036D01*
X0052393Y0122132D01*
X0052275Y0122231D01*
X0052161Y0122332D01*
X0052049Y0122437D01*
X0051940Y0122545D01*
X0051834Y0122656D01*
X0051730Y0122769D01*
X0051630Y0122885D01*
X0051532Y0123003D01*
X0051438Y0123124D01*
X0051347Y0123247D01*
X0051259Y0123373D01*
X0051175Y0123501D01*
X0051093Y0123631D01*
X0051016Y0123763D01*
X0050941Y0123897D01*
X0050870Y0124033D01*
X0050803Y0124171D01*
X0050739Y0124311D01*
X0050679Y0124452D01*
X0050623Y0124594D01*
X0050570Y0124738D01*
X0050521Y0124884D01*
X0050476Y0125030D01*
X0050435Y0125178D01*
X0050398Y0125326D01*
X0050364Y0125476D01*
X0050334Y0125627D01*
X0050309Y0125778D01*
X0050287Y0125929D01*
X0050269Y0126082D01*
X0050255Y0126234D01*
X0050245Y0126387D01*
X0050239Y0126541D01*
X0050237Y0126694D01*
X0046300Y0126300D02*
X0046300Y0061300D01*
X0046296Y0060938D01*
X0046282Y0060575D01*
X0046261Y0060213D01*
X0046230Y0059852D01*
X0046191Y0059492D01*
X0046143Y0059133D01*
X0046086Y0058775D01*
X0046021Y0058418D01*
X0045947Y0058063D01*
X0045864Y0057710D01*
X0045773Y0057359D01*
X0045674Y0057011D01*
X0045566Y0056665D01*
X0045450Y0056321D01*
X0045325Y0055981D01*
X0045193Y0055644D01*
X0045052Y0055310D01*
X0044903Y0054979D01*
X0044746Y0054652D01*
X0044582Y0054329D01*
X0044410Y0054010D01*
X0044230Y0053696D01*
X0044042Y0053385D01*
X0043847Y0053080D01*
X0043645Y0052779D01*
X0043435Y0052483D01*
X0043219Y0052193D01*
X0042995Y0051907D01*
X0042765Y0051627D01*
X0042528Y0051353D01*
X0042284Y0051085D01*
X0042034Y0050822D01*
X0041778Y0050566D01*
X0041515Y0050316D01*
X0041247Y0050072D01*
X0040973Y0049835D01*
X0040693Y0049605D01*
X0040407Y0049381D01*
X0040117Y0049165D01*
X0039821Y0048955D01*
X0039520Y0048753D01*
X0039215Y0048558D01*
X0038904Y0048370D01*
X0038590Y0048190D01*
X0038271Y0048018D01*
X0037948Y0047854D01*
X0037621Y0047697D01*
X0037290Y0047548D01*
X0036956Y0047407D01*
X0036619Y0047275D01*
X0036279Y0047150D01*
X0035935Y0047034D01*
X0035589Y0046926D01*
X0035241Y0046827D01*
X0034890Y0046736D01*
X0034537Y0046653D01*
X0034182Y0046579D01*
X0033825Y0046514D01*
X0033467Y0046457D01*
X0033108Y0046409D01*
X0032748Y0046370D01*
X0032387Y0046339D01*
X0032025Y0046318D01*
X0031662Y0046304D01*
X0031300Y0046300D01*
X0031058Y0046297D01*
X0030817Y0046288D01*
X0030576Y0046274D01*
X0030335Y0046253D01*
X0030095Y0046227D01*
X0029855Y0046195D01*
X0029616Y0046157D01*
X0029379Y0046114D01*
X0029142Y0046064D01*
X0028907Y0046009D01*
X0028673Y0045949D01*
X0028441Y0045882D01*
X0028210Y0045811D01*
X0027981Y0045733D01*
X0027754Y0045650D01*
X0027529Y0045562D01*
X0027306Y0045468D01*
X0027086Y0045369D01*
X0026868Y0045264D01*
X0026653Y0045155D01*
X0026440Y0045040D01*
X0026230Y0044920D01*
X0026024Y0044795D01*
X0025820Y0044665D01*
X0025619Y0044530D01*
X0025422Y0044390D01*
X0025228Y0044246D01*
X0025038Y0044097D01*
X0024852Y0043943D01*
X0024669Y0043785D01*
X0024490Y0043623D01*
X0024315Y0043456D01*
X0024144Y0043285D01*
X0023977Y0043110D01*
X0023815Y0042931D01*
X0023657Y0042748D01*
X0023503Y0042562D01*
X0023354Y0042372D01*
X0023210Y0042178D01*
X0023070Y0041981D01*
X0022935Y0041780D01*
X0022805Y0041576D01*
X0022680Y0041370D01*
X0022560Y0041160D01*
X0022445Y0040947D01*
X0022336Y0040732D01*
X0022231Y0040514D01*
X0022132Y0040294D01*
X0022038Y0040071D01*
X0021950Y0039846D01*
X0021867Y0039619D01*
X0021789Y0039390D01*
X0021718Y0039159D01*
X0021651Y0038927D01*
X0021591Y0038693D01*
X0021536Y0038458D01*
X0021486Y0038221D01*
X0021443Y0037984D01*
X0021405Y0037745D01*
X0021373Y0037505D01*
X0021347Y0037265D01*
X0021326Y0037024D01*
X0021312Y0036783D01*
X0021303Y0036542D01*
X0021300Y0036300D01*
X0021300Y0034331D01*
X0021303Y0034089D01*
X0021312Y0033848D01*
X0021326Y0033607D01*
X0021347Y0033366D01*
X0021373Y0033126D01*
X0021405Y0032886D01*
X0021443Y0032647D01*
X0021486Y0032410D01*
X0021536Y0032173D01*
X0021591Y0031938D01*
X0021651Y0031704D01*
X0021718Y0031472D01*
X0021789Y0031241D01*
X0021867Y0031012D01*
X0021950Y0030785D01*
X0022038Y0030560D01*
X0022132Y0030337D01*
X0022231Y0030117D01*
X0022336Y0029899D01*
X0022445Y0029684D01*
X0022560Y0029471D01*
X0022680Y0029261D01*
X0022805Y0029055D01*
X0022935Y0028851D01*
X0023070Y0028650D01*
X0023210Y0028453D01*
X0023354Y0028259D01*
X0023503Y0028069D01*
X0023657Y0027883D01*
X0023815Y0027700D01*
X0023977Y0027521D01*
X0024144Y0027346D01*
X0024315Y0027175D01*
X0024490Y0027008D01*
X0024669Y0026846D01*
X0024852Y0026688D01*
X0025038Y0026534D01*
X0025228Y0026385D01*
X0025422Y0026241D01*
X0025619Y0026101D01*
X0025820Y0025966D01*
X0026024Y0025836D01*
X0026230Y0025711D01*
X0026440Y0025591D01*
X0026653Y0025476D01*
X0026868Y0025367D01*
X0027086Y0025262D01*
X0027306Y0025163D01*
X0027529Y0025069D01*
X0027754Y0024981D01*
X0027981Y0024898D01*
X0028210Y0024820D01*
X0028441Y0024749D01*
X0028673Y0024682D01*
X0028907Y0024622D01*
X0029142Y0024567D01*
X0029379Y0024517D01*
X0029616Y0024474D01*
X0029855Y0024436D01*
X0030095Y0024404D01*
X0030335Y0024378D01*
X0030576Y0024357D01*
X0030817Y0024343D01*
X0031058Y0024334D01*
X0031300Y0024331D01*
X0050237Y0034174D02*
X0050239Y0034327D01*
X0050245Y0034481D01*
X0050255Y0034634D01*
X0050269Y0034786D01*
X0050287Y0034939D01*
X0050309Y0035090D01*
X0050334Y0035241D01*
X0050364Y0035392D01*
X0050398Y0035542D01*
X0050435Y0035690D01*
X0050476Y0035838D01*
X0050521Y0035984D01*
X0050570Y0036130D01*
X0050623Y0036274D01*
X0050679Y0036416D01*
X0050739Y0036557D01*
X0050803Y0036697D01*
X0050870Y0036835D01*
X0050941Y0036971D01*
X0051016Y0037105D01*
X0051093Y0037237D01*
X0051175Y0037367D01*
X0051259Y0037495D01*
X0051347Y0037621D01*
X0051438Y0037744D01*
X0051532Y0037865D01*
X0051630Y0037983D01*
X0051730Y0038099D01*
X0051834Y0038212D01*
X0051940Y0038323D01*
X0052049Y0038431D01*
X0052161Y0038536D01*
X0052275Y0038637D01*
X0052393Y0038736D01*
X0052512Y0038832D01*
X0052634Y0038925D01*
X0052759Y0039014D01*
X0052886Y0039101D01*
X0053015Y0039183D01*
X0053146Y0039263D01*
X0053279Y0039339D01*
X0053414Y0039412D01*
X0053551Y0039481D01*
X0053690Y0039546D01*
X0053830Y0039608D01*
X0053972Y0039666D01*
X0054115Y0039721D01*
X0054260Y0039772D01*
X0054406Y0039819D01*
X0054553Y0039862D01*
X0054701Y0039901D01*
X0054850Y0039937D01*
X0055000Y0039968D01*
X0055151Y0039996D01*
X0055302Y0040020D01*
X0055455Y0040040D01*
X0055607Y0040056D01*
X0055760Y0040068D01*
X0055913Y0040076D01*
X0056066Y0040080D01*
X0056220Y0040080D01*
X0056373Y0040076D01*
X0056526Y0040068D01*
X0056679Y0040056D01*
X0056831Y0040040D01*
X0056984Y0040020D01*
X0057135Y0039996D01*
X0057286Y0039968D01*
X0057436Y0039937D01*
X0057585Y0039901D01*
X0057733Y0039862D01*
X0057880Y0039819D01*
X0058026Y0039772D01*
X0058171Y0039721D01*
X0058314Y0039666D01*
X0058456Y0039608D01*
X0058596Y0039546D01*
X0058735Y0039481D01*
X0058872Y0039412D01*
X0059007Y0039339D01*
X0059140Y0039263D01*
X0059271Y0039183D01*
X0059400Y0039101D01*
X0059527Y0039014D01*
X0059652Y0038925D01*
X0059774Y0038832D01*
X0059893Y0038736D01*
X0060011Y0038637D01*
X0060125Y0038536D01*
X0060237Y0038431D01*
X0060346Y0038323D01*
X0060452Y0038212D01*
X0060556Y0038099D01*
X0060656Y0037983D01*
X0060754Y0037865D01*
X0060848Y0037744D01*
X0060939Y0037621D01*
X0061027Y0037495D01*
X0061111Y0037367D01*
X0061193Y0037237D01*
X0061270Y0037105D01*
X0061345Y0036971D01*
X0061416Y0036835D01*
X0061483Y0036697D01*
X0061547Y0036557D01*
X0061607Y0036416D01*
X0061663Y0036274D01*
X0061716Y0036130D01*
X0061765Y0035984D01*
X0061810Y0035838D01*
X0061851Y0035690D01*
X0061888Y0035542D01*
X0061922Y0035392D01*
X0061952Y0035241D01*
X0061977Y0035090D01*
X0061999Y0034939D01*
X0062017Y0034786D01*
X0062031Y0034634D01*
X0062041Y0034481D01*
X0062047Y0034327D01*
X0062049Y0034174D01*
X0062047Y0034021D01*
X0062041Y0033867D01*
X0062031Y0033714D01*
X0062017Y0033562D01*
X0061999Y0033409D01*
X0061977Y0033258D01*
X0061952Y0033107D01*
X0061922Y0032956D01*
X0061888Y0032806D01*
X0061851Y0032658D01*
X0061810Y0032510D01*
X0061765Y0032364D01*
X0061716Y0032218D01*
X0061663Y0032074D01*
X0061607Y0031932D01*
X0061547Y0031791D01*
X0061483Y0031651D01*
X0061416Y0031513D01*
X0061345Y0031377D01*
X0061270Y0031243D01*
X0061193Y0031111D01*
X0061111Y0030981D01*
X0061027Y0030853D01*
X0060939Y0030727D01*
X0060848Y0030604D01*
X0060754Y0030483D01*
X0060656Y0030365D01*
X0060556Y0030249D01*
X0060452Y0030136D01*
X0060346Y0030025D01*
X0060237Y0029917D01*
X0060125Y0029812D01*
X0060011Y0029711D01*
X0059893Y0029612D01*
X0059774Y0029516D01*
X0059652Y0029423D01*
X0059527Y0029334D01*
X0059400Y0029247D01*
X0059271Y0029165D01*
X0059140Y0029085D01*
X0059007Y0029009D01*
X0058872Y0028936D01*
X0058735Y0028867D01*
X0058596Y0028802D01*
X0058456Y0028740D01*
X0058314Y0028682D01*
X0058171Y0028627D01*
X0058026Y0028576D01*
X0057880Y0028529D01*
X0057733Y0028486D01*
X0057585Y0028447D01*
X0057436Y0028411D01*
X0057286Y0028380D01*
X0057135Y0028352D01*
X0056984Y0028328D01*
X0056831Y0028308D01*
X0056679Y0028292D01*
X0056526Y0028280D01*
X0056373Y0028272D01*
X0056220Y0028268D01*
X0056066Y0028268D01*
X0055913Y0028272D01*
X0055760Y0028280D01*
X0055607Y0028292D01*
X0055455Y0028308D01*
X0055302Y0028328D01*
X0055151Y0028352D01*
X0055000Y0028380D01*
X0054850Y0028411D01*
X0054701Y0028447D01*
X0054553Y0028486D01*
X0054406Y0028529D01*
X0054260Y0028576D01*
X0054115Y0028627D01*
X0053972Y0028682D01*
X0053830Y0028740D01*
X0053690Y0028802D01*
X0053551Y0028867D01*
X0053414Y0028936D01*
X0053279Y0029009D01*
X0053146Y0029085D01*
X0053015Y0029165D01*
X0052886Y0029247D01*
X0052759Y0029334D01*
X0052634Y0029423D01*
X0052512Y0029516D01*
X0052393Y0029612D01*
X0052275Y0029711D01*
X0052161Y0029812D01*
X0052049Y0029917D01*
X0051940Y0030025D01*
X0051834Y0030136D01*
X0051730Y0030249D01*
X0051630Y0030365D01*
X0051532Y0030483D01*
X0051438Y0030604D01*
X0051347Y0030727D01*
X0051259Y0030853D01*
X0051175Y0030981D01*
X0051093Y0031111D01*
X0051016Y0031243D01*
X0050941Y0031377D01*
X0050870Y0031513D01*
X0050803Y0031651D01*
X0050739Y0031791D01*
X0050679Y0031932D01*
X0050623Y0032074D01*
X0050570Y0032218D01*
X0050521Y0032364D01*
X0050476Y0032510D01*
X0050435Y0032658D01*
X0050398Y0032806D01*
X0050364Y0032956D01*
X0050334Y0033107D01*
X0050309Y0033258D01*
X0050287Y0033409D01*
X0050269Y0033562D01*
X0050255Y0033714D01*
X0050245Y0033867D01*
X0050239Y0034021D01*
X0050237Y0034174D01*
X0046300Y0126300D02*
X0046300Y0126544D01*
X0046306Y0126789D01*
X0046318Y0127033D01*
X0046336Y0127277D01*
X0046359Y0127520D01*
X0046389Y0127763D01*
X0046424Y0128005D01*
X0046465Y0128246D01*
X0046513Y0128486D01*
X0046565Y0128725D01*
X0046624Y0128962D01*
X0046688Y0129198D01*
X0046758Y0129432D01*
X0046834Y0129665D01*
X0046915Y0129896D01*
X0047002Y0130124D01*
X0047094Y0130351D01*
X0047192Y0130575D01*
X0047295Y0130796D01*
X0047404Y0131016D01*
X0047518Y0131232D01*
X0047636Y0131446D01*
X0047760Y0131656D01*
X0047890Y0131864D01*
X0048024Y0132069D01*
X0048163Y0132270D01*
X0048307Y0132468D01*
X0048455Y0132662D01*
X0048608Y0132852D01*
X0048766Y0133039D01*
X0048928Y0133222D01*
X0049095Y0133401D01*
X0049266Y0133576D01*
X0049441Y0133747D01*
X0049620Y0133913D01*
X0049803Y0134075D01*
X0049990Y0134233D01*
X0050181Y0134386D01*
X0050375Y0134534D01*
X0050573Y0134678D01*
X0050774Y0134817D01*
X0050979Y0134951D01*
X0051187Y0135080D01*
X0051397Y0135204D01*
X0051611Y0135322D01*
X0051828Y0135436D01*
X0052047Y0135544D01*
X0052269Y0135647D01*
X0052493Y0135745D01*
X0052720Y0135837D01*
X0052948Y0135924D01*
X0053179Y0136005D01*
X0053412Y0136080D01*
X0053646Y0136150D01*
X0053882Y0136214D01*
X0054119Y0136272D01*
X0054358Y0136325D01*
X0054598Y0136372D01*
X0054839Y0136413D01*
X0055081Y0136448D01*
X0055324Y0136478D01*
X0055567Y0136501D01*
X0055811Y0136519D01*
X0056055Y0136531D01*
X0056300Y0136536D01*
X0249056Y0061400D02*
X0249059Y0061031D01*
X0249072Y0060661D01*
X0249093Y0060293D01*
X0249124Y0059925D01*
X0249163Y0059557D01*
X0249212Y0059191D01*
X0249269Y0058826D01*
X0249336Y0058463D01*
X0249411Y0058101D01*
X0249495Y0057742D01*
X0249588Y0057384D01*
X0249690Y0057029D01*
X0249800Y0056677D01*
X0249919Y0056327D01*
X0250047Y0055980D01*
X0250183Y0055637D01*
X0250327Y0055297D01*
X0250480Y0054961D01*
X0250641Y0054628D01*
X0250810Y0054300D01*
X0250987Y0053975D01*
X0251172Y0053656D01*
X0251364Y0053341D01*
X0251565Y0053030D01*
X0251773Y0052725D01*
X0251988Y0052425D01*
X0252211Y0052130D01*
X0252441Y0051841D01*
X0252677Y0051558D01*
X0252921Y0051280D01*
X0253172Y0051009D01*
X0253429Y0050743D01*
X0253692Y0050485D01*
X0253962Y0050232D01*
X0254238Y0049987D01*
X0254520Y0049748D01*
X0254807Y0049516D01*
X0255101Y0049292D01*
X0255399Y0049074D01*
X0255703Y0048864D01*
X0256012Y0048662D01*
X0256326Y0048467D01*
X0256644Y0048280D01*
X0256967Y0048101D01*
X0257295Y0047930D01*
X0257626Y0047766D01*
X0257961Y0047611D01*
X0258300Y0047465D01*
X0258643Y0047327D01*
X0258989Y0047197D01*
X0259338Y0047075D01*
X0259689Y0046963D01*
X0260044Y0046859D01*
X0260401Y0046763D01*
X0260760Y0046677D01*
X0261121Y0046599D01*
X0261484Y0046530D01*
X0261848Y0046470D01*
X0262214Y0046419D01*
X0262581Y0046377D01*
X0262949Y0046345D01*
X0263318Y0046321D01*
X0263687Y0046306D01*
X0264056Y0046300D01*
D11*
X0202165Y0040222D02*
X0202211Y0040174D01*
X0202254Y0040122D01*
X0202294Y0040069D01*
X0202331Y0040013D01*
X0202364Y0039955D01*
X0202394Y0039895D01*
X0202421Y0039834D01*
X0202444Y0039771D01*
X0202463Y0039707D01*
X0202478Y0039642D01*
X0202490Y0039576D01*
X0202498Y0039509D01*
X0202502Y0039442D01*
X0202502Y0039376D01*
X0202498Y0039309D01*
X0202490Y0039242D01*
X0202478Y0039176D01*
X0202463Y0039111D01*
X0202444Y0039047D01*
X0202421Y0038984D01*
X0202394Y0038923D01*
X0202364Y0038863D01*
X0202331Y0038805D01*
X0202294Y0038749D01*
X0202254Y0038696D01*
X0202211Y0038644D01*
X0202165Y0038596D01*
X0201262Y0038235D02*
X0197919Y0037964D01*
X0199726Y0036157D01*
X0200448Y0040493D02*
X0200515Y0040525D01*
X0200584Y0040554D01*
X0200654Y0040579D01*
X0200725Y0040601D01*
X0200797Y0040619D01*
X0200870Y0040634D01*
X0200943Y0040644D01*
X0201017Y0040651D01*
X0201091Y0040655D01*
X0201166Y0040654D01*
X0201240Y0040650D01*
X0201314Y0040642D01*
X0201387Y0040631D01*
X0201460Y0040615D01*
X0201532Y0040597D01*
X0201602Y0040574D01*
X0201672Y0040548D01*
X0201740Y0040519D01*
X0201807Y0040486D01*
X0201872Y0040449D01*
X0201935Y0040410D01*
X0201996Y0040368D01*
X0202054Y0040322D01*
X0202111Y0040274D01*
X0202164Y0040222D01*
X0202165Y0038597D02*
X0202117Y0038551D01*
X0202066Y0038508D01*
X0202013Y0038467D01*
X0201958Y0038430D01*
X0201901Y0038395D01*
X0201842Y0038364D01*
X0201781Y0038336D01*
X0201720Y0038311D01*
X0201656Y0038290D01*
X0201592Y0038272D01*
X0201527Y0038258D01*
X0201461Y0038247D01*
X0201395Y0038239D01*
X0201329Y0038236D01*
X0201262Y0038235D01*
X0196703Y0039179D02*
X0195980Y0039902D01*
X0195938Y0039947D01*
X0195898Y0039995D01*
X0195862Y0040044D01*
X0195828Y0040096D01*
X0195798Y0040150D01*
X0195771Y0040206D01*
X0195747Y0040263D01*
X0195727Y0040321D01*
X0195711Y0040380D01*
X0195698Y0040441D01*
X0195688Y0040502D01*
X0195683Y0040563D01*
X0195681Y0040625D01*
X0195683Y0040687D01*
X0195688Y0040748D01*
X0195698Y0040809D01*
X0195711Y0040870D01*
X0195727Y0040929D01*
X0195747Y0040987D01*
X0195771Y0041044D01*
X0195798Y0041100D01*
X0195828Y0041154D01*
X0195862Y0041206D01*
X0195899Y0041255D01*
X0195938Y0041303D01*
X0195980Y0041348D01*
X0197788Y0043155D01*
X0197787Y0043155D02*
X0197832Y0043197D01*
X0197880Y0043237D01*
X0197929Y0043273D01*
X0197981Y0043307D01*
X0198035Y0043337D01*
X0198091Y0043364D01*
X0198148Y0043388D01*
X0198206Y0043408D01*
X0198265Y0043424D01*
X0198326Y0043437D01*
X0198387Y0043447D01*
X0198448Y0043452D01*
X0198510Y0043454D01*
X0198572Y0043452D01*
X0198633Y0043447D01*
X0198694Y0043437D01*
X0198755Y0043424D01*
X0198814Y0043408D01*
X0198872Y0043388D01*
X0198929Y0043364D01*
X0198985Y0043337D01*
X0199039Y0043307D01*
X0199091Y0043273D01*
X0199140Y0043237D01*
X0199188Y0043197D01*
X0199233Y0043155D01*
X0199956Y0042432D01*
X0184742Y0046000D02*
X0184742Y0051200D01*
X0181853Y0051200D02*
X0184742Y0046000D01*
X0181853Y0046000D02*
X0181853Y0051200D01*
X0179366Y0051200D02*
X0179366Y0047444D01*
X0179364Y0047368D01*
X0179358Y0047293D01*
X0179348Y0047218D01*
X0179334Y0047144D01*
X0179317Y0047070D01*
X0179295Y0046998D01*
X0179270Y0046927D01*
X0179241Y0046857D01*
X0179209Y0046788D01*
X0179173Y0046722D01*
X0179133Y0046658D01*
X0179090Y0046595D01*
X0179044Y0046535D01*
X0178995Y0046478D01*
X0178943Y0046423D01*
X0178888Y0046371D01*
X0178831Y0046322D01*
X0178771Y0046276D01*
X0178708Y0046233D01*
X0178644Y0046193D01*
X0178578Y0046157D01*
X0178509Y0046125D01*
X0178439Y0046096D01*
X0178368Y0046071D01*
X0178296Y0046049D01*
X0178222Y0046032D01*
X0178148Y0046018D01*
X0178073Y0046008D01*
X0177998Y0046002D01*
X0177922Y0046000D01*
X0177846Y0046002D01*
X0177771Y0046008D01*
X0177696Y0046018D01*
X0177622Y0046032D01*
X0177548Y0046049D01*
X0177476Y0046071D01*
X0177405Y0046096D01*
X0177335Y0046125D01*
X0177266Y0046157D01*
X0177200Y0046193D01*
X0177136Y0046233D01*
X0177073Y0046276D01*
X0177013Y0046322D01*
X0176956Y0046371D01*
X0176901Y0046423D01*
X0176849Y0046478D01*
X0176800Y0046535D01*
X0176754Y0046595D01*
X0176711Y0046658D01*
X0176671Y0046722D01*
X0176635Y0046788D01*
X0176603Y0046857D01*
X0176574Y0046927D01*
X0176549Y0046998D01*
X0176527Y0047070D01*
X0176510Y0047144D01*
X0176496Y0047218D01*
X0176486Y0047293D01*
X0176480Y0047368D01*
X0176478Y0047444D01*
X0176477Y0047444D02*
X0176477Y0051200D01*
X0172744Y0051200D02*
X0171300Y0051200D01*
X0171300Y0046000D01*
X0171300Y0048311D02*
X0172744Y0048311D01*
X0173033Y0048311D02*
X0174189Y0046000D01*
X0172744Y0048312D02*
X0172820Y0048314D01*
X0172895Y0048320D01*
X0172970Y0048330D01*
X0173044Y0048344D01*
X0173118Y0048361D01*
X0173190Y0048383D01*
X0173261Y0048408D01*
X0173331Y0048437D01*
X0173400Y0048469D01*
X0173466Y0048505D01*
X0173530Y0048545D01*
X0173593Y0048588D01*
X0173653Y0048634D01*
X0173710Y0048683D01*
X0173765Y0048735D01*
X0173817Y0048790D01*
X0173866Y0048847D01*
X0173912Y0048907D01*
X0173955Y0048970D01*
X0173995Y0049034D01*
X0174031Y0049100D01*
X0174063Y0049169D01*
X0174092Y0049239D01*
X0174117Y0049310D01*
X0174139Y0049382D01*
X0174156Y0049456D01*
X0174170Y0049530D01*
X0174180Y0049605D01*
X0174186Y0049680D01*
X0174188Y0049756D01*
X0174186Y0049832D01*
X0174180Y0049907D01*
X0174170Y0049982D01*
X0174156Y0050056D01*
X0174139Y0050130D01*
X0174117Y0050202D01*
X0174092Y0050273D01*
X0174063Y0050343D01*
X0174031Y0050412D01*
X0173995Y0050478D01*
X0173955Y0050542D01*
X0173912Y0050605D01*
X0173866Y0050665D01*
X0173817Y0050722D01*
X0173765Y0050777D01*
X0173710Y0050829D01*
X0173653Y0050878D01*
X0173593Y0050924D01*
X0173530Y0050967D01*
X0173466Y0051007D01*
X0173400Y0051043D01*
X0173331Y0051075D01*
X0173261Y0051104D01*
X0173190Y0051129D01*
X0173118Y0051151D01*
X0173044Y0051168D01*
X0172970Y0051182D01*
X0172895Y0051192D01*
X0172820Y0051198D01*
X0172744Y0051200D01*
X0121100Y0051100D02*
X0119367Y0051100D01*
X0119300Y0051098D01*
X0119233Y0051092D01*
X0119166Y0051082D01*
X0119100Y0051069D01*
X0119035Y0051051D01*
X0118972Y0051030D01*
X0118909Y0051005D01*
X0118848Y0050977D01*
X0118789Y0050945D01*
X0118732Y0050910D01*
X0118677Y0050871D01*
X0118624Y0050830D01*
X0118574Y0050785D01*
X0118526Y0050737D01*
X0118481Y0050687D01*
X0118440Y0050634D01*
X0118401Y0050579D01*
X0118366Y0050522D01*
X0118334Y0050463D01*
X0118306Y0050402D01*
X0118281Y0050339D01*
X0118260Y0050276D01*
X0118242Y0050211D01*
X0118229Y0050145D01*
X0118219Y0050078D01*
X0118213Y0050011D01*
X0118211Y0049944D01*
X0118211Y0047056D01*
X0118213Y0046989D01*
X0118219Y0046922D01*
X0118229Y0046855D01*
X0118242Y0046789D01*
X0118260Y0046724D01*
X0118281Y0046661D01*
X0118306Y0046598D01*
X0118334Y0046537D01*
X0118366Y0046478D01*
X0118401Y0046421D01*
X0118440Y0046366D01*
X0118481Y0046313D01*
X0118526Y0046263D01*
X0118574Y0046215D01*
X0118624Y0046170D01*
X0118677Y0046129D01*
X0118732Y0046090D01*
X0118789Y0046055D01*
X0118848Y0046023D01*
X0118909Y0045995D01*
X0118972Y0045970D01*
X0119035Y0045949D01*
X0119100Y0045931D01*
X0119166Y0045918D01*
X0119233Y0045908D01*
X0119300Y0045902D01*
X0119367Y0045900D01*
X0121100Y0045900D01*
X0121100Y0048789D01*
X0120233Y0048789D01*
X0115892Y0049656D02*
X0115892Y0047344D01*
X0115890Y0047268D01*
X0115884Y0047193D01*
X0115874Y0047118D01*
X0115860Y0047044D01*
X0115843Y0046970D01*
X0115821Y0046898D01*
X0115796Y0046827D01*
X0115767Y0046757D01*
X0115735Y0046688D01*
X0115699Y0046622D01*
X0115659Y0046558D01*
X0115616Y0046495D01*
X0115570Y0046435D01*
X0115521Y0046378D01*
X0115469Y0046323D01*
X0115414Y0046271D01*
X0115357Y0046222D01*
X0115297Y0046176D01*
X0115234Y0046133D01*
X0115170Y0046093D01*
X0115104Y0046057D01*
X0115035Y0046025D01*
X0114965Y0045996D01*
X0114894Y0045971D01*
X0114822Y0045949D01*
X0114748Y0045932D01*
X0114674Y0045918D01*
X0114599Y0045908D01*
X0114524Y0045902D01*
X0114448Y0045900D01*
X0114372Y0045902D01*
X0114297Y0045908D01*
X0114222Y0045918D01*
X0114148Y0045932D01*
X0114074Y0045949D01*
X0114002Y0045971D01*
X0113931Y0045996D01*
X0113861Y0046025D01*
X0113792Y0046057D01*
X0113726Y0046093D01*
X0113662Y0046133D01*
X0113599Y0046176D01*
X0113539Y0046222D01*
X0113482Y0046271D01*
X0113427Y0046323D01*
X0113375Y0046378D01*
X0113326Y0046435D01*
X0113280Y0046495D01*
X0113237Y0046558D01*
X0113197Y0046622D01*
X0113161Y0046688D01*
X0113129Y0046757D01*
X0113100Y0046827D01*
X0113075Y0046898D01*
X0113053Y0046970D01*
X0113036Y0047044D01*
X0113022Y0047118D01*
X0113012Y0047193D01*
X0113006Y0047268D01*
X0113004Y0047344D01*
X0113003Y0047344D02*
X0113003Y0049656D01*
X0113004Y0049656D02*
X0113006Y0049732D01*
X0113012Y0049807D01*
X0113022Y0049882D01*
X0113036Y0049956D01*
X0113053Y0050030D01*
X0113075Y0050102D01*
X0113100Y0050173D01*
X0113129Y0050243D01*
X0113161Y0050312D01*
X0113197Y0050378D01*
X0113237Y0050442D01*
X0113280Y0050505D01*
X0113326Y0050565D01*
X0113375Y0050622D01*
X0113427Y0050677D01*
X0113482Y0050729D01*
X0113539Y0050778D01*
X0113599Y0050824D01*
X0113662Y0050867D01*
X0113726Y0050907D01*
X0113792Y0050943D01*
X0113861Y0050975D01*
X0113931Y0051004D01*
X0114002Y0051029D01*
X0114074Y0051051D01*
X0114148Y0051068D01*
X0114222Y0051082D01*
X0114297Y0051092D01*
X0114372Y0051098D01*
X0114448Y0051100D01*
X0114524Y0051098D01*
X0114599Y0051092D01*
X0114674Y0051082D01*
X0114748Y0051068D01*
X0114822Y0051051D01*
X0114894Y0051029D01*
X0114965Y0051004D01*
X0115035Y0050975D01*
X0115104Y0050943D01*
X0115170Y0050907D01*
X0115234Y0050867D01*
X0115297Y0050824D01*
X0115357Y0050778D01*
X0115414Y0050729D01*
X0115469Y0050677D01*
X0115521Y0050622D01*
X0115570Y0050565D01*
X0115616Y0050505D01*
X0115659Y0050442D01*
X0115699Y0050378D01*
X0115735Y0050312D01*
X0115767Y0050243D01*
X0115796Y0050173D01*
X0115821Y0050102D01*
X0115843Y0050030D01*
X0115860Y0049956D01*
X0115874Y0049882D01*
X0115884Y0049807D01*
X0115890Y0049732D01*
X0115892Y0049656D01*
X0110883Y0045900D02*
X0109727Y0048211D01*
X0109438Y0048211D02*
X0107994Y0048211D01*
X0109438Y0048212D02*
X0109514Y0048214D01*
X0109589Y0048220D01*
X0109664Y0048230D01*
X0109738Y0048244D01*
X0109812Y0048261D01*
X0109884Y0048283D01*
X0109955Y0048308D01*
X0110025Y0048337D01*
X0110094Y0048369D01*
X0110160Y0048405D01*
X0110224Y0048445D01*
X0110287Y0048488D01*
X0110347Y0048534D01*
X0110404Y0048583D01*
X0110459Y0048635D01*
X0110511Y0048690D01*
X0110560Y0048747D01*
X0110606Y0048807D01*
X0110649Y0048870D01*
X0110689Y0048934D01*
X0110725Y0049000D01*
X0110757Y0049069D01*
X0110786Y0049139D01*
X0110811Y0049210D01*
X0110833Y0049282D01*
X0110850Y0049356D01*
X0110864Y0049430D01*
X0110874Y0049505D01*
X0110880Y0049580D01*
X0110882Y0049656D01*
X0110880Y0049732D01*
X0110874Y0049807D01*
X0110864Y0049882D01*
X0110850Y0049956D01*
X0110833Y0050030D01*
X0110811Y0050102D01*
X0110786Y0050173D01*
X0110757Y0050243D01*
X0110725Y0050312D01*
X0110689Y0050378D01*
X0110649Y0050442D01*
X0110606Y0050505D01*
X0110560Y0050565D01*
X0110511Y0050622D01*
X0110459Y0050677D01*
X0110404Y0050729D01*
X0110347Y0050778D01*
X0110287Y0050824D01*
X0110224Y0050867D01*
X0110160Y0050907D01*
X0110094Y0050943D01*
X0110025Y0050975D01*
X0109955Y0051004D01*
X0109884Y0051029D01*
X0109812Y0051051D01*
X0109738Y0051068D01*
X0109664Y0051082D01*
X0109589Y0051092D01*
X0109514Y0051098D01*
X0109438Y0051100D01*
X0107994Y0051100D01*
X0107994Y0045900D01*
X0104438Y0048211D02*
X0102994Y0048211D01*
X0104438Y0048212D02*
X0104514Y0048214D01*
X0104589Y0048220D01*
X0104664Y0048230D01*
X0104738Y0048244D01*
X0104812Y0048261D01*
X0104884Y0048283D01*
X0104955Y0048308D01*
X0105025Y0048337D01*
X0105094Y0048369D01*
X0105160Y0048405D01*
X0105224Y0048445D01*
X0105287Y0048488D01*
X0105347Y0048534D01*
X0105404Y0048583D01*
X0105459Y0048635D01*
X0105511Y0048690D01*
X0105560Y0048747D01*
X0105606Y0048807D01*
X0105649Y0048870D01*
X0105689Y0048934D01*
X0105725Y0049000D01*
X0105757Y0049069D01*
X0105786Y0049139D01*
X0105811Y0049210D01*
X0105833Y0049282D01*
X0105850Y0049356D01*
X0105864Y0049430D01*
X0105874Y0049505D01*
X0105880Y0049580D01*
X0105882Y0049656D01*
X0105880Y0049732D01*
X0105874Y0049807D01*
X0105864Y0049882D01*
X0105850Y0049956D01*
X0105833Y0050030D01*
X0105811Y0050102D01*
X0105786Y0050173D01*
X0105757Y0050243D01*
X0105725Y0050312D01*
X0105689Y0050378D01*
X0105649Y0050442D01*
X0105606Y0050505D01*
X0105560Y0050565D01*
X0105511Y0050622D01*
X0105459Y0050677D01*
X0105404Y0050729D01*
X0105347Y0050778D01*
X0105287Y0050824D01*
X0105224Y0050867D01*
X0105160Y0050907D01*
X0105094Y0050943D01*
X0105025Y0050975D01*
X0104955Y0051004D01*
X0104884Y0051029D01*
X0104812Y0051051D01*
X0104738Y0051068D01*
X0104664Y0051082D01*
X0104589Y0051092D01*
X0104514Y0051098D01*
X0104438Y0051100D01*
X0102994Y0051100D01*
X0102994Y0045900D01*
X0200545Y0094595D02*
X0202957Y0099769D01*
X0205455Y0098605D02*
X0203043Y0093431D01*
X0205114Y0110600D02*
X0205114Y0115200D01*
X0207159Y0113667D02*
X0205114Y0112133D01*
X0206009Y0112772D02*
X0207159Y0110600D01*
X0208783Y0110600D02*
X0208783Y0113667D01*
X0208911Y0114944D02*
X0208656Y0114944D01*
X0208656Y0115200D01*
X0208911Y0115200D01*
X0208911Y0114944D01*
X0208744Y0118500D02*
X0209511Y0120544D01*
X0210278Y0118500D01*
X0211044Y0121567D01*
X0213071Y0121567D02*
X0214093Y0121567D01*
X0214148Y0121565D01*
X0214202Y0121559D01*
X0214256Y0121549D01*
X0214309Y0121536D01*
X0214361Y0121519D01*
X0214412Y0121498D01*
X0214461Y0121473D01*
X0214508Y0121445D01*
X0214553Y0121414D01*
X0214595Y0121380D01*
X0214635Y0121342D01*
X0214673Y0121302D01*
X0214707Y0121260D01*
X0214738Y0121215D01*
X0214766Y0121168D01*
X0214791Y0121119D01*
X0214812Y0121068D01*
X0214829Y0121016D01*
X0214842Y0120963D01*
X0214852Y0120909D01*
X0214858Y0120855D01*
X0214860Y0120800D01*
X0214860Y0118500D01*
X0213710Y0118500D01*
X0213652Y0118502D01*
X0213593Y0118508D01*
X0213536Y0118517D01*
X0213479Y0118530D01*
X0213423Y0118547D01*
X0213368Y0118568D01*
X0213315Y0118592D01*
X0213263Y0118620D01*
X0213213Y0118651D01*
X0213166Y0118685D01*
X0213121Y0118722D01*
X0213078Y0118762D01*
X0213038Y0118805D01*
X0213001Y0118850D01*
X0212967Y0118897D01*
X0212936Y0118947D01*
X0212908Y0118999D01*
X0212884Y0119052D01*
X0212863Y0119107D01*
X0212846Y0119163D01*
X0212833Y0119220D01*
X0212824Y0119277D01*
X0212818Y0119336D01*
X0212816Y0119394D01*
X0212818Y0119452D01*
X0212824Y0119511D01*
X0212833Y0119568D01*
X0212846Y0119625D01*
X0212863Y0119681D01*
X0212884Y0119736D01*
X0212908Y0119789D01*
X0212936Y0119841D01*
X0212967Y0119891D01*
X0213001Y0119938D01*
X0213038Y0119983D01*
X0213078Y0120026D01*
X0213121Y0120066D01*
X0213166Y0120103D01*
X0213213Y0120137D01*
X0213263Y0120168D01*
X0213315Y0120196D01*
X0213368Y0120220D01*
X0213423Y0120241D01*
X0213479Y0120258D01*
X0213536Y0120271D01*
X0213593Y0120280D01*
X0213652Y0120286D01*
X0213710Y0120288D01*
X0213710Y0120289D02*
X0214860Y0120289D01*
X0208744Y0118500D02*
X0207978Y0121567D01*
X0206183Y0120544D02*
X0206183Y0119522D01*
X0206181Y0119459D01*
X0206175Y0119396D01*
X0206166Y0119334D01*
X0206152Y0119273D01*
X0206135Y0119212D01*
X0206114Y0119153D01*
X0206089Y0119095D01*
X0206061Y0119038D01*
X0206030Y0118984D01*
X0205995Y0118932D01*
X0205957Y0118881D01*
X0205916Y0118833D01*
X0205872Y0118788D01*
X0205826Y0118746D01*
X0205777Y0118706D01*
X0205726Y0118670D01*
X0205672Y0118637D01*
X0205617Y0118607D01*
X0205559Y0118581D01*
X0205501Y0118558D01*
X0205441Y0118539D01*
X0205380Y0118524D01*
X0205318Y0118512D01*
X0205255Y0118504D01*
X0205192Y0118500D01*
X0205130Y0118500D01*
X0205067Y0118504D01*
X0205004Y0118512D01*
X0204942Y0118524D01*
X0204881Y0118539D01*
X0204821Y0118558D01*
X0204763Y0118581D01*
X0204705Y0118607D01*
X0204650Y0118637D01*
X0204596Y0118670D01*
X0204545Y0118706D01*
X0204496Y0118746D01*
X0204450Y0118788D01*
X0204406Y0118833D01*
X0204365Y0118881D01*
X0204327Y0118932D01*
X0204292Y0118984D01*
X0204261Y0119038D01*
X0204233Y0119095D01*
X0204208Y0119153D01*
X0204187Y0119212D01*
X0204170Y0119273D01*
X0204156Y0119334D01*
X0204147Y0119396D01*
X0204141Y0119459D01*
X0204139Y0119522D01*
X0204139Y0120544D01*
X0204141Y0120607D01*
X0204147Y0120670D01*
X0204156Y0120732D01*
X0204170Y0120793D01*
X0204187Y0120854D01*
X0204208Y0120913D01*
X0204233Y0120971D01*
X0204261Y0121028D01*
X0204292Y0121082D01*
X0204327Y0121134D01*
X0204365Y0121185D01*
X0204406Y0121233D01*
X0204450Y0121278D01*
X0204496Y0121320D01*
X0204545Y0121360D01*
X0204596Y0121396D01*
X0204650Y0121429D01*
X0204705Y0121459D01*
X0204763Y0121485D01*
X0204821Y0121508D01*
X0204881Y0121527D01*
X0204942Y0121542D01*
X0205004Y0121554D01*
X0205067Y0121562D01*
X0205130Y0121566D01*
X0205192Y0121566D01*
X0205255Y0121562D01*
X0205318Y0121554D01*
X0205380Y0121542D01*
X0205441Y0121527D01*
X0205501Y0121508D01*
X0205559Y0121485D01*
X0205617Y0121459D01*
X0205672Y0121429D01*
X0205726Y0121396D01*
X0205777Y0121360D01*
X0205826Y0121320D01*
X0205872Y0121278D01*
X0205916Y0121233D01*
X0205957Y0121185D01*
X0205995Y0121134D01*
X0206030Y0121082D01*
X0206061Y0121028D01*
X0206089Y0120971D01*
X0206114Y0120913D01*
X0206135Y0120854D01*
X0206152Y0120793D01*
X0206166Y0120732D01*
X0206175Y0120670D01*
X0206181Y0120607D01*
X0206183Y0120544D01*
X0202044Y0120800D02*
X0202044Y0118500D01*
X0200511Y0118500D02*
X0200511Y0121567D01*
X0201278Y0121567D02*
X0198978Y0121567D01*
X0198978Y0118500D01*
X0196883Y0119522D02*
X0196883Y0120544D01*
X0196881Y0120607D01*
X0196875Y0120670D01*
X0196866Y0120732D01*
X0196852Y0120793D01*
X0196835Y0120854D01*
X0196814Y0120913D01*
X0196789Y0120971D01*
X0196761Y0121028D01*
X0196730Y0121082D01*
X0196695Y0121134D01*
X0196657Y0121185D01*
X0196616Y0121233D01*
X0196572Y0121278D01*
X0196526Y0121320D01*
X0196477Y0121360D01*
X0196426Y0121396D01*
X0196372Y0121429D01*
X0196317Y0121459D01*
X0196259Y0121485D01*
X0196201Y0121508D01*
X0196141Y0121527D01*
X0196080Y0121542D01*
X0196018Y0121554D01*
X0195955Y0121562D01*
X0195892Y0121566D01*
X0195830Y0121566D01*
X0195767Y0121562D01*
X0195704Y0121554D01*
X0195642Y0121542D01*
X0195581Y0121527D01*
X0195521Y0121508D01*
X0195463Y0121485D01*
X0195405Y0121459D01*
X0195350Y0121429D01*
X0195296Y0121396D01*
X0195245Y0121360D01*
X0195196Y0121320D01*
X0195150Y0121278D01*
X0195106Y0121233D01*
X0195065Y0121185D01*
X0195027Y0121134D01*
X0194992Y0121082D01*
X0194961Y0121028D01*
X0194933Y0120971D01*
X0194908Y0120913D01*
X0194887Y0120854D01*
X0194870Y0120793D01*
X0194856Y0120732D01*
X0194847Y0120670D01*
X0194841Y0120607D01*
X0194839Y0120544D01*
X0194839Y0119522D01*
X0194841Y0119459D01*
X0194847Y0119396D01*
X0194856Y0119334D01*
X0194870Y0119273D01*
X0194887Y0119212D01*
X0194908Y0119153D01*
X0194933Y0119095D01*
X0194961Y0119038D01*
X0194992Y0118984D01*
X0195027Y0118932D01*
X0195065Y0118881D01*
X0195106Y0118833D01*
X0195150Y0118788D01*
X0195196Y0118746D01*
X0195245Y0118706D01*
X0195296Y0118670D01*
X0195350Y0118637D01*
X0195405Y0118607D01*
X0195463Y0118581D01*
X0195521Y0118558D01*
X0195581Y0118539D01*
X0195642Y0118524D01*
X0195704Y0118512D01*
X0195767Y0118504D01*
X0195830Y0118500D01*
X0195892Y0118500D01*
X0195955Y0118504D01*
X0196018Y0118512D01*
X0196080Y0118524D01*
X0196141Y0118539D01*
X0196201Y0118558D01*
X0196259Y0118581D01*
X0196317Y0118607D01*
X0196372Y0118637D01*
X0196426Y0118670D01*
X0196477Y0118706D01*
X0196526Y0118746D01*
X0196572Y0118788D01*
X0196616Y0118833D01*
X0196657Y0118881D01*
X0196695Y0118932D01*
X0196730Y0118984D01*
X0196761Y0119038D01*
X0196789Y0119095D01*
X0196814Y0119153D01*
X0196835Y0119212D01*
X0196852Y0119273D01*
X0196866Y0119334D01*
X0196875Y0119396D01*
X0196881Y0119459D01*
X0196883Y0119522D01*
X0201278Y0121567D02*
X0201333Y0121565D01*
X0201387Y0121559D01*
X0201441Y0121549D01*
X0201494Y0121536D01*
X0201546Y0121519D01*
X0201597Y0121498D01*
X0201646Y0121473D01*
X0201693Y0121445D01*
X0201738Y0121414D01*
X0201780Y0121380D01*
X0201820Y0121342D01*
X0201858Y0121302D01*
X0201892Y0121260D01*
X0201923Y0121215D01*
X0201951Y0121168D01*
X0201976Y0121119D01*
X0201997Y0121068D01*
X0202014Y0121016D01*
X0202027Y0120963D01*
X0202037Y0120909D01*
X0202043Y0120855D01*
X0202045Y0120800D01*
X0193264Y0118500D02*
X0193209Y0118502D01*
X0193155Y0118508D01*
X0193101Y0118518D01*
X0193048Y0118531D01*
X0192996Y0118548D01*
X0192945Y0118569D01*
X0192896Y0118594D01*
X0192849Y0118622D01*
X0192804Y0118653D01*
X0192762Y0118687D01*
X0192722Y0118725D01*
X0192684Y0118765D01*
X0192650Y0118807D01*
X0192619Y0118852D01*
X0192591Y0118899D01*
X0192566Y0118948D01*
X0192545Y0118999D01*
X0192528Y0119051D01*
X0192515Y0119104D01*
X0192505Y0119158D01*
X0192499Y0119212D01*
X0192497Y0119267D01*
X0192498Y0119267D02*
X0192498Y0123100D01*
X0190606Y0120800D02*
X0190606Y0119267D01*
X0190607Y0119267D02*
X0190605Y0119212D01*
X0190599Y0119158D01*
X0190589Y0119104D01*
X0190576Y0119051D01*
X0190559Y0118999D01*
X0190538Y0118948D01*
X0190513Y0118899D01*
X0190485Y0118852D01*
X0190454Y0118807D01*
X0190420Y0118765D01*
X0190382Y0118725D01*
X0190342Y0118687D01*
X0190300Y0118653D01*
X0190255Y0118622D01*
X0190208Y0118594D01*
X0190159Y0118569D01*
X0190108Y0118548D01*
X0190056Y0118531D01*
X0190003Y0118518D01*
X0189949Y0118508D01*
X0189895Y0118502D01*
X0189840Y0118500D01*
X0188562Y0118500D01*
X0188562Y0116967D02*
X0188562Y0121567D01*
X0189840Y0121567D01*
X0189895Y0121565D01*
X0189949Y0121559D01*
X0190003Y0121549D01*
X0190056Y0121536D01*
X0190108Y0121519D01*
X0190159Y0121498D01*
X0190208Y0121473D01*
X0190255Y0121445D01*
X0190300Y0121414D01*
X0190342Y0121380D01*
X0190382Y0121342D01*
X0190420Y0121302D01*
X0190454Y0121260D01*
X0190485Y0121215D01*
X0190513Y0121168D01*
X0190538Y0121119D01*
X0190559Y0121068D01*
X0190576Y0121016D01*
X0190589Y0120963D01*
X0190599Y0120909D01*
X0190605Y0120855D01*
X0190607Y0120800D01*
X0186683Y0121567D02*
X0185150Y0116967D01*
X0184639Y0116967D01*
X0185661Y0118500D02*
X0184639Y0121567D01*
X0182760Y0121567D02*
X0181482Y0121567D01*
X0181427Y0121565D01*
X0181373Y0121559D01*
X0181319Y0121549D01*
X0181266Y0121536D01*
X0181214Y0121519D01*
X0181163Y0121498D01*
X0181114Y0121473D01*
X0181067Y0121445D01*
X0181022Y0121414D01*
X0180980Y0121380D01*
X0180940Y0121342D01*
X0180902Y0121302D01*
X0180868Y0121260D01*
X0180837Y0121215D01*
X0180809Y0121168D01*
X0180784Y0121119D01*
X0180763Y0121068D01*
X0180746Y0121016D01*
X0180733Y0120963D01*
X0180723Y0120909D01*
X0180717Y0120855D01*
X0180715Y0120800D01*
X0180716Y0120800D02*
X0180716Y0119267D01*
X0180715Y0119267D02*
X0180717Y0119212D01*
X0180723Y0119158D01*
X0180733Y0119104D01*
X0180746Y0119051D01*
X0180763Y0118999D01*
X0180784Y0118948D01*
X0180809Y0118899D01*
X0180837Y0118852D01*
X0180868Y0118807D01*
X0180902Y0118765D01*
X0180940Y0118725D01*
X0180980Y0118687D01*
X0181022Y0118653D01*
X0181067Y0118622D01*
X0181114Y0118594D01*
X0181163Y0118569D01*
X0181214Y0118548D01*
X0181266Y0118531D01*
X0181319Y0118518D01*
X0181373Y0118508D01*
X0181427Y0118502D01*
X0181482Y0118500D01*
X0182760Y0118500D01*
X0182760Y0123100D01*
X0176310Y0120800D02*
X0176310Y0118500D01*
X0175160Y0118500D01*
X0175102Y0118502D01*
X0175043Y0118508D01*
X0174986Y0118517D01*
X0174929Y0118530D01*
X0174873Y0118547D01*
X0174818Y0118568D01*
X0174765Y0118592D01*
X0174713Y0118620D01*
X0174663Y0118651D01*
X0174616Y0118685D01*
X0174571Y0118722D01*
X0174528Y0118762D01*
X0174488Y0118805D01*
X0174451Y0118850D01*
X0174417Y0118897D01*
X0174386Y0118947D01*
X0174358Y0118999D01*
X0174334Y0119052D01*
X0174313Y0119107D01*
X0174296Y0119163D01*
X0174283Y0119220D01*
X0174274Y0119277D01*
X0174268Y0119336D01*
X0174266Y0119394D01*
X0174268Y0119452D01*
X0174274Y0119511D01*
X0174283Y0119568D01*
X0174296Y0119625D01*
X0174313Y0119681D01*
X0174334Y0119736D01*
X0174358Y0119789D01*
X0174386Y0119841D01*
X0174417Y0119891D01*
X0174451Y0119938D01*
X0174488Y0119983D01*
X0174528Y0120026D01*
X0174571Y0120066D01*
X0174616Y0120103D01*
X0174663Y0120137D01*
X0174713Y0120168D01*
X0174765Y0120196D01*
X0174818Y0120220D01*
X0174873Y0120241D01*
X0174929Y0120258D01*
X0174986Y0120271D01*
X0175043Y0120280D01*
X0175102Y0120286D01*
X0175160Y0120288D01*
X0175160Y0120289D02*
X0176310Y0120289D01*
X0176310Y0120800D02*
X0176308Y0120855D01*
X0176302Y0120909D01*
X0176292Y0120963D01*
X0176279Y0121016D01*
X0176262Y0121068D01*
X0176241Y0121119D01*
X0176216Y0121168D01*
X0176188Y0121215D01*
X0176157Y0121260D01*
X0176123Y0121302D01*
X0176085Y0121342D01*
X0176045Y0121380D01*
X0176003Y0121414D01*
X0175958Y0121445D01*
X0175911Y0121473D01*
X0175862Y0121498D01*
X0175811Y0121519D01*
X0175759Y0121536D01*
X0175706Y0121549D01*
X0175652Y0121559D01*
X0175598Y0121565D01*
X0175543Y0121567D01*
X0174521Y0121567D01*
X0172633Y0121567D02*
X0171611Y0121567D01*
X0171556Y0121565D01*
X0171502Y0121559D01*
X0171448Y0121549D01*
X0171395Y0121536D01*
X0171343Y0121519D01*
X0171292Y0121498D01*
X0171243Y0121473D01*
X0171196Y0121445D01*
X0171151Y0121414D01*
X0171109Y0121380D01*
X0171069Y0121342D01*
X0171031Y0121302D01*
X0170997Y0121260D01*
X0170966Y0121215D01*
X0170938Y0121168D01*
X0170913Y0121119D01*
X0170892Y0121068D01*
X0170875Y0121016D01*
X0170862Y0120963D01*
X0170852Y0120909D01*
X0170846Y0120855D01*
X0170844Y0120800D01*
X0170844Y0119267D01*
X0170846Y0119212D01*
X0170852Y0119158D01*
X0170862Y0119104D01*
X0170875Y0119051D01*
X0170892Y0118999D01*
X0170913Y0118948D01*
X0170938Y0118899D01*
X0170966Y0118852D01*
X0170997Y0118807D01*
X0171031Y0118765D01*
X0171069Y0118725D01*
X0171109Y0118687D01*
X0171151Y0118653D01*
X0171196Y0118622D01*
X0171243Y0118594D01*
X0171292Y0118569D01*
X0171343Y0118548D01*
X0171395Y0118531D01*
X0171448Y0118518D01*
X0171502Y0118508D01*
X0171556Y0118502D01*
X0171611Y0118500D01*
X0172633Y0118500D01*
X0174079Y0115200D02*
X0174079Y0111622D01*
X0174077Y0111560D01*
X0174072Y0111499D01*
X0174062Y0111438D01*
X0174049Y0111377D01*
X0174033Y0111318D01*
X0174013Y0111260D01*
X0173989Y0111203D01*
X0173962Y0111147D01*
X0173932Y0111093D01*
X0173898Y0111041D01*
X0173862Y0110992D01*
X0173822Y0110944D01*
X0173780Y0110899D01*
X0173735Y0110857D01*
X0173687Y0110817D01*
X0173638Y0110781D01*
X0173586Y0110747D01*
X0173532Y0110717D01*
X0173476Y0110690D01*
X0173419Y0110666D01*
X0173361Y0110646D01*
X0173302Y0110630D01*
X0173241Y0110617D01*
X0173180Y0110607D01*
X0173119Y0110602D01*
X0173057Y0110600D01*
X0172546Y0110600D01*
X0168861Y0110600D02*
X0168861Y0110856D01*
X0168606Y0110856D01*
X0168606Y0110600D01*
X0168861Y0110600D01*
X0166667Y0110600D02*
X0166667Y0115200D01*
X0165133Y0112644D01*
X0163600Y0115200D01*
X0163600Y0110600D01*
X0153800Y0105078D02*
X0153798Y0105015D01*
X0153792Y0104952D01*
X0153783Y0104890D01*
X0153769Y0104829D01*
X0153752Y0104768D01*
X0153731Y0104709D01*
X0153706Y0104651D01*
X0153678Y0104594D01*
X0153647Y0104540D01*
X0153612Y0104488D01*
X0153574Y0104437D01*
X0153533Y0104389D01*
X0153489Y0104344D01*
X0153443Y0104302D01*
X0153394Y0104262D01*
X0153343Y0104226D01*
X0153289Y0104193D01*
X0153234Y0104163D01*
X0153176Y0104137D01*
X0153118Y0104114D01*
X0153058Y0104095D01*
X0152997Y0104080D01*
X0152935Y0104068D01*
X0152872Y0104060D01*
X0152809Y0104056D01*
X0152747Y0104056D01*
X0152684Y0104060D01*
X0152621Y0104068D01*
X0152559Y0104080D01*
X0152498Y0104095D01*
X0152438Y0104114D01*
X0152380Y0104137D01*
X0152322Y0104163D01*
X0152267Y0104193D01*
X0152213Y0104226D01*
X0152162Y0104262D01*
X0152113Y0104302D01*
X0152067Y0104344D01*
X0152023Y0104389D01*
X0151982Y0104437D01*
X0151944Y0104488D01*
X0151909Y0104540D01*
X0151878Y0104594D01*
X0151850Y0104651D01*
X0151825Y0104709D01*
X0151804Y0104768D01*
X0151787Y0104829D01*
X0151773Y0104890D01*
X0151764Y0104952D01*
X0151758Y0105015D01*
X0151756Y0105078D01*
X0151758Y0105141D01*
X0151764Y0105204D01*
X0151773Y0105266D01*
X0151787Y0105327D01*
X0151804Y0105388D01*
X0151825Y0105447D01*
X0151850Y0105505D01*
X0151878Y0105562D01*
X0151909Y0105616D01*
X0151944Y0105668D01*
X0151982Y0105719D01*
X0152023Y0105767D01*
X0152067Y0105812D01*
X0152113Y0105854D01*
X0152162Y0105894D01*
X0152213Y0105930D01*
X0152267Y0105963D01*
X0152322Y0105993D01*
X0152380Y0106019D01*
X0152438Y0106042D01*
X0152498Y0106061D01*
X0152559Y0106076D01*
X0152621Y0106088D01*
X0152684Y0106096D01*
X0152747Y0106100D01*
X0152809Y0106100D01*
X0152872Y0106096D01*
X0152935Y0106088D01*
X0152997Y0106076D01*
X0153058Y0106061D01*
X0153118Y0106042D01*
X0153176Y0106019D01*
X0153234Y0105993D01*
X0153289Y0105963D01*
X0153343Y0105930D01*
X0153394Y0105894D01*
X0153443Y0105854D01*
X0153489Y0105812D01*
X0153533Y0105767D01*
X0153574Y0105719D01*
X0153612Y0105668D01*
X0153647Y0105616D01*
X0153678Y0105562D01*
X0153706Y0105505D01*
X0153731Y0105447D01*
X0153752Y0105388D01*
X0153769Y0105327D01*
X0153783Y0105266D01*
X0153792Y0105204D01*
X0153798Y0105141D01*
X0153800Y0105078D01*
X0154056Y0102778D02*
X0154054Y0102708D01*
X0154048Y0102637D01*
X0154039Y0102568D01*
X0154025Y0102499D01*
X0154008Y0102430D01*
X0153987Y0102363D01*
X0153962Y0102297D01*
X0153934Y0102233D01*
X0153902Y0102170D01*
X0153867Y0102109D01*
X0153828Y0102050D01*
X0153787Y0101993D01*
X0153742Y0101939D01*
X0153694Y0101887D01*
X0153644Y0101838D01*
X0153590Y0101791D01*
X0153535Y0101748D01*
X0153477Y0101708D01*
X0153417Y0101671D01*
X0153355Y0101638D01*
X0153291Y0101608D01*
X0153226Y0101581D01*
X0153160Y0101558D01*
X0153092Y0101539D01*
X0153023Y0101524D01*
X0152954Y0101512D01*
X0152884Y0101504D01*
X0152813Y0101500D01*
X0152743Y0101500D01*
X0152672Y0101504D01*
X0152602Y0101512D01*
X0152533Y0101524D01*
X0152464Y0101539D01*
X0152396Y0101558D01*
X0152330Y0101581D01*
X0152265Y0101608D01*
X0152201Y0101638D01*
X0152139Y0101671D01*
X0152079Y0101708D01*
X0152021Y0101748D01*
X0151966Y0101791D01*
X0151912Y0101838D01*
X0151862Y0101887D01*
X0151814Y0101939D01*
X0151769Y0101993D01*
X0151728Y0102050D01*
X0151689Y0102109D01*
X0151654Y0102170D01*
X0151622Y0102233D01*
X0151594Y0102297D01*
X0151569Y0102363D01*
X0151548Y0102430D01*
X0151531Y0102499D01*
X0151517Y0102568D01*
X0151508Y0102637D01*
X0151502Y0102708D01*
X0151500Y0102778D01*
X0151502Y0102848D01*
X0151508Y0102919D01*
X0151517Y0102988D01*
X0151531Y0103057D01*
X0151548Y0103126D01*
X0151569Y0103193D01*
X0151594Y0103259D01*
X0151622Y0103323D01*
X0151654Y0103386D01*
X0151689Y0103447D01*
X0151728Y0103506D01*
X0151769Y0103563D01*
X0151814Y0103617D01*
X0151862Y0103669D01*
X0151912Y0103718D01*
X0151966Y0103765D01*
X0152021Y0103808D01*
X0152079Y0103848D01*
X0152139Y0103885D01*
X0152201Y0103918D01*
X0152265Y0103948D01*
X0152330Y0103975D01*
X0152396Y0103998D01*
X0152464Y0104017D01*
X0152533Y0104032D01*
X0152602Y0104044D01*
X0152672Y0104052D01*
X0152743Y0104056D01*
X0152813Y0104056D01*
X0152884Y0104052D01*
X0152954Y0104044D01*
X0153023Y0104032D01*
X0153092Y0104017D01*
X0153160Y0103998D01*
X0153226Y0103975D01*
X0153291Y0103948D01*
X0153355Y0103918D01*
X0153417Y0103885D01*
X0153477Y0103848D01*
X0153535Y0103808D01*
X0153590Y0103765D01*
X0153644Y0103718D01*
X0153694Y0103669D01*
X0153742Y0103617D01*
X0153787Y0103563D01*
X0153828Y0103506D01*
X0153867Y0103447D01*
X0153902Y0103386D01*
X0153934Y0103323D01*
X0153962Y0103259D01*
X0153987Y0103193D01*
X0154008Y0103126D01*
X0154025Y0103057D01*
X0154039Y0102988D01*
X0154048Y0102919D01*
X0154054Y0102848D01*
X0154056Y0102778D01*
X0138289Y0116500D02*
X0138289Y0118544D01*
X0139056Y0117522D02*
X0136500Y0117522D01*
X0137522Y0121100D01*
X0128672Y0119056D02*
X0126500Y0116500D01*
X0129056Y0116500D01*
X0126501Y0120078D02*
X0126526Y0120148D01*
X0126554Y0120217D01*
X0126585Y0120284D01*
X0126620Y0120350D01*
X0126658Y0120413D01*
X0126700Y0120475D01*
X0126744Y0120535D01*
X0126791Y0120592D01*
X0126841Y0120647D01*
X0126894Y0120699D01*
X0126950Y0120749D01*
X0127008Y0120795D01*
X0127068Y0120839D01*
X0127130Y0120880D01*
X0127194Y0120917D01*
X0127260Y0120951D01*
X0127328Y0120982D01*
X0127397Y0121009D01*
X0127467Y0121033D01*
X0127538Y0121054D01*
X0127611Y0121070D01*
X0127684Y0121083D01*
X0127758Y0121093D01*
X0127832Y0121098D01*
X0127906Y0121100D01*
X0127973Y0121098D01*
X0128040Y0121092D01*
X0128106Y0121083D01*
X0128171Y0121069D01*
X0128236Y0121052D01*
X0128299Y0121031D01*
X0128361Y0121006D01*
X0128422Y0120978D01*
X0128481Y0120946D01*
X0128538Y0120911D01*
X0128593Y0120872D01*
X0128645Y0120831D01*
X0128695Y0120786D01*
X0128742Y0120739D01*
X0128787Y0120689D01*
X0128828Y0120637D01*
X0128867Y0120582D01*
X0128902Y0120525D01*
X0128934Y0120466D01*
X0128962Y0120405D01*
X0128987Y0120343D01*
X0129008Y0120280D01*
X0129025Y0120215D01*
X0129039Y0120150D01*
X0129048Y0120084D01*
X0129054Y0120017D01*
X0129056Y0119950D01*
X0129055Y0119950D02*
X0129053Y0119883D01*
X0129048Y0119817D01*
X0129039Y0119751D01*
X0129026Y0119685D01*
X0129010Y0119621D01*
X0128991Y0119557D01*
X0128968Y0119494D01*
X0128942Y0119433D01*
X0128912Y0119373D01*
X0128879Y0119315D01*
X0128844Y0119259D01*
X0128805Y0119205D01*
X0128763Y0119153D01*
X0128719Y0119103D01*
X0128672Y0119056D01*
X0146500Y0119056D02*
X0146500Y0117778D01*
X0146500Y0119056D02*
X0148033Y0119056D01*
X0146500Y0119056D02*
X0146502Y0119145D01*
X0146508Y0119234D01*
X0146517Y0119323D01*
X0146531Y0119411D01*
X0146548Y0119498D01*
X0146570Y0119585D01*
X0146595Y0119671D01*
X0146623Y0119755D01*
X0146656Y0119838D01*
X0146692Y0119920D01*
X0146731Y0120000D01*
X0146774Y0120078D01*
X0146820Y0120154D01*
X0146870Y0120228D01*
X0146922Y0120300D01*
X0146978Y0120370D01*
X0147037Y0120437D01*
X0147099Y0120501D01*
X0147163Y0120563D01*
X0147230Y0120622D01*
X0147300Y0120678D01*
X0147372Y0120730D01*
X0147446Y0120780D01*
X0147522Y0120826D01*
X0147600Y0120869D01*
X0147680Y0120908D01*
X0147762Y0120944D01*
X0147845Y0120977D01*
X0147929Y0121005D01*
X0148015Y0121030D01*
X0148102Y0121052D01*
X0148189Y0121069D01*
X0148277Y0121083D01*
X0148366Y0121092D01*
X0148455Y0121098D01*
X0148544Y0121100D01*
X0148033Y0119055D02*
X0148095Y0119053D01*
X0148156Y0119048D01*
X0148217Y0119038D01*
X0148278Y0119025D01*
X0148337Y0119009D01*
X0148395Y0118989D01*
X0148452Y0118965D01*
X0148508Y0118938D01*
X0148562Y0118908D01*
X0148614Y0118874D01*
X0148663Y0118838D01*
X0148711Y0118798D01*
X0148756Y0118756D01*
X0148798Y0118711D01*
X0148838Y0118663D01*
X0148874Y0118614D01*
X0148908Y0118562D01*
X0148938Y0118508D01*
X0148965Y0118452D01*
X0148989Y0118395D01*
X0149009Y0118337D01*
X0149025Y0118278D01*
X0149038Y0118217D01*
X0149048Y0118156D01*
X0149053Y0118095D01*
X0149055Y0118033D01*
X0149056Y0118033D02*
X0149056Y0117778D01*
X0149054Y0117708D01*
X0149048Y0117637D01*
X0149039Y0117568D01*
X0149025Y0117499D01*
X0149008Y0117430D01*
X0148987Y0117363D01*
X0148962Y0117297D01*
X0148934Y0117233D01*
X0148902Y0117170D01*
X0148867Y0117109D01*
X0148828Y0117050D01*
X0148787Y0116993D01*
X0148742Y0116939D01*
X0148694Y0116887D01*
X0148644Y0116838D01*
X0148590Y0116791D01*
X0148535Y0116748D01*
X0148477Y0116708D01*
X0148417Y0116671D01*
X0148355Y0116638D01*
X0148291Y0116608D01*
X0148226Y0116581D01*
X0148160Y0116558D01*
X0148092Y0116539D01*
X0148023Y0116524D01*
X0147954Y0116512D01*
X0147884Y0116504D01*
X0147813Y0116500D01*
X0147743Y0116500D01*
X0147672Y0116504D01*
X0147602Y0116512D01*
X0147533Y0116524D01*
X0147464Y0116539D01*
X0147396Y0116558D01*
X0147330Y0116581D01*
X0147265Y0116608D01*
X0147201Y0116638D01*
X0147139Y0116671D01*
X0147079Y0116708D01*
X0147021Y0116748D01*
X0146966Y0116791D01*
X0146912Y0116838D01*
X0146862Y0116887D01*
X0146814Y0116939D01*
X0146769Y0116993D01*
X0146728Y0117050D01*
X0146689Y0117109D01*
X0146654Y0117170D01*
X0146622Y0117233D01*
X0146594Y0117297D01*
X0146569Y0117363D01*
X0146548Y0117430D01*
X0146531Y0117499D01*
X0146517Y0117568D01*
X0146508Y0117637D01*
X0146502Y0117708D01*
X0146500Y0117778D01*
X0159400Y0118500D02*
X0159400Y0123100D01*
X0160678Y0123100D01*
X0160748Y0123098D01*
X0160819Y0123092D01*
X0160888Y0123083D01*
X0160957Y0123069D01*
X0161026Y0123052D01*
X0161093Y0123031D01*
X0161159Y0123006D01*
X0161223Y0122978D01*
X0161286Y0122946D01*
X0161347Y0122911D01*
X0161406Y0122872D01*
X0161463Y0122831D01*
X0161517Y0122786D01*
X0161569Y0122738D01*
X0161618Y0122688D01*
X0161665Y0122634D01*
X0161708Y0122579D01*
X0161748Y0122521D01*
X0161785Y0122461D01*
X0161818Y0122399D01*
X0161848Y0122335D01*
X0161875Y0122270D01*
X0161898Y0122204D01*
X0161917Y0122136D01*
X0161932Y0122067D01*
X0161944Y0121998D01*
X0161952Y0121928D01*
X0161956Y0121857D01*
X0161956Y0121787D01*
X0161952Y0121716D01*
X0161944Y0121646D01*
X0161932Y0121577D01*
X0161917Y0121508D01*
X0161898Y0121440D01*
X0161875Y0121374D01*
X0161848Y0121309D01*
X0161818Y0121245D01*
X0161785Y0121183D01*
X0161748Y0121123D01*
X0161708Y0121065D01*
X0161665Y0121010D01*
X0161618Y0120956D01*
X0161569Y0120906D01*
X0161517Y0120858D01*
X0161463Y0120813D01*
X0161406Y0120772D01*
X0161347Y0120733D01*
X0161286Y0120698D01*
X0161223Y0120666D01*
X0161159Y0120638D01*
X0161093Y0120613D01*
X0161026Y0120592D01*
X0160957Y0120575D01*
X0160888Y0120561D01*
X0160819Y0120552D01*
X0160748Y0120546D01*
X0160678Y0120544D01*
X0159400Y0120544D01*
X0163815Y0121567D02*
X0163815Y0118500D01*
X0167660Y0118500D02*
X0168810Y0118500D01*
X0168810Y0120800D01*
X0168810Y0120289D02*
X0167660Y0120289D01*
X0168810Y0120800D02*
X0168808Y0120855D01*
X0168802Y0120909D01*
X0168792Y0120963D01*
X0168779Y0121016D01*
X0168762Y0121068D01*
X0168741Y0121119D01*
X0168716Y0121168D01*
X0168688Y0121215D01*
X0168657Y0121260D01*
X0168623Y0121302D01*
X0168585Y0121342D01*
X0168545Y0121380D01*
X0168503Y0121414D01*
X0168458Y0121445D01*
X0168411Y0121473D01*
X0168362Y0121498D01*
X0168311Y0121519D01*
X0168259Y0121536D01*
X0168206Y0121549D01*
X0168152Y0121559D01*
X0168098Y0121565D01*
X0168043Y0121567D01*
X0167021Y0121567D01*
X0165348Y0121567D02*
X0165348Y0121056D01*
X0165348Y0121567D02*
X0163815Y0121567D01*
X0167660Y0120288D02*
X0167602Y0120286D01*
X0167543Y0120280D01*
X0167486Y0120271D01*
X0167429Y0120258D01*
X0167373Y0120241D01*
X0167318Y0120220D01*
X0167265Y0120196D01*
X0167213Y0120168D01*
X0167163Y0120137D01*
X0167116Y0120103D01*
X0167071Y0120066D01*
X0167028Y0120026D01*
X0166988Y0119983D01*
X0166951Y0119938D01*
X0166917Y0119891D01*
X0166886Y0119841D01*
X0166858Y0119789D01*
X0166834Y0119736D01*
X0166813Y0119681D01*
X0166796Y0119625D01*
X0166783Y0119568D01*
X0166774Y0119511D01*
X0166768Y0119452D01*
X0166766Y0119394D01*
X0166768Y0119336D01*
X0166774Y0119277D01*
X0166783Y0119220D01*
X0166796Y0119163D01*
X0166813Y0119107D01*
X0166834Y0119052D01*
X0166858Y0118999D01*
X0166886Y0118947D01*
X0166917Y0118897D01*
X0166951Y0118850D01*
X0166988Y0118805D01*
X0167028Y0118762D01*
X0167071Y0118722D01*
X0167116Y0118685D01*
X0167163Y0118651D01*
X0167213Y0118620D01*
X0167265Y0118592D01*
X0167318Y0118568D01*
X0167373Y0118547D01*
X0167429Y0118530D01*
X0167486Y0118517D01*
X0167543Y0118508D01*
X0167602Y0118502D01*
X0167660Y0118500D01*
X0176343Y0113667D02*
X0177366Y0113667D01*
X0177421Y0113665D01*
X0177475Y0113659D01*
X0177529Y0113649D01*
X0177582Y0113636D01*
X0177634Y0113619D01*
X0177685Y0113598D01*
X0177734Y0113573D01*
X0177781Y0113545D01*
X0177826Y0113514D01*
X0177868Y0113480D01*
X0177908Y0113442D01*
X0177946Y0113402D01*
X0177980Y0113360D01*
X0178011Y0113315D01*
X0178039Y0113268D01*
X0178064Y0113219D01*
X0178085Y0113168D01*
X0178102Y0113116D01*
X0178115Y0113063D01*
X0178125Y0113009D01*
X0178131Y0112955D01*
X0178133Y0112900D01*
X0178132Y0112900D02*
X0178132Y0110600D01*
X0176982Y0110600D01*
X0176924Y0110602D01*
X0176865Y0110608D01*
X0176808Y0110617D01*
X0176751Y0110630D01*
X0176695Y0110647D01*
X0176640Y0110668D01*
X0176587Y0110692D01*
X0176535Y0110720D01*
X0176485Y0110751D01*
X0176438Y0110785D01*
X0176393Y0110822D01*
X0176350Y0110862D01*
X0176310Y0110905D01*
X0176273Y0110950D01*
X0176239Y0110997D01*
X0176208Y0111047D01*
X0176180Y0111099D01*
X0176156Y0111152D01*
X0176135Y0111207D01*
X0176118Y0111263D01*
X0176105Y0111320D01*
X0176096Y0111377D01*
X0176090Y0111436D01*
X0176088Y0111494D01*
X0176090Y0111552D01*
X0176096Y0111611D01*
X0176105Y0111668D01*
X0176118Y0111725D01*
X0176135Y0111781D01*
X0176156Y0111836D01*
X0176180Y0111889D01*
X0176208Y0111941D01*
X0176239Y0111991D01*
X0176273Y0112038D01*
X0176310Y0112083D01*
X0176350Y0112126D01*
X0176393Y0112166D01*
X0176438Y0112203D01*
X0176485Y0112237D01*
X0176535Y0112268D01*
X0176587Y0112296D01*
X0176640Y0112320D01*
X0176695Y0112341D01*
X0176751Y0112358D01*
X0176808Y0112371D01*
X0176865Y0112380D01*
X0176924Y0112386D01*
X0176982Y0112388D01*
X0176982Y0112389D02*
X0178132Y0112389D01*
X0180364Y0112133D02*
X0182409Y0113667D01*
X0181259Y0112772D02*
X0182409Y0110600D01*
X0184211Y0111367D02*
X0184211Y0113667D01*
X0186256Y0113667D02*
X0186256Y0110600D01*
X0184978Y0110600D01*
X0184923Y0110602D01*
X0184869Y0110608D01*
X0184815Y0110618D01*
X0184762Y0110631D01*
X0184710Y0110648D01*
X0184659Y0110669D01*
X0184610Y0110694D01*
X0184563Y0110722D01*
X0184518Y0110753D01*
X0184476Y0110787D01*
X0184436Y0110825D01*
X0184398Y0110865D01*
X0184364Y0110907D01*
X0184333Y0110952D01*
X0184305Y0110999D01*
X0184280Y0111048D01*
X0184259Y0111099D01*
X0184242Y0111151D01*
X0184229Y0111204D01*
X0184219Y0111258D01*
X0184213Y0111312D01*
X0184211Y0111367D01*
X0180364Y0110600D02*
X0180364Y0115200D01*
X0188434Y0115200D02*
X0188434Y0110600D01*
X0189712Y0110600D01*
X0189767Y0110602D01*
X0189821Y0110608D01*
X0189875Y0110618D01*
X0189928Y0110631D01*
X0189980Y0110648D01*
X0190031Y0110669D01*
X0190080Y0110694D01*
X0190127Y0110722D01*
X0190172Y0110753D01*
X0190214Y0110787D01*
X0190254Y0110825D01*
X0190292Y0110865D01*
X0190326Y0110907D01*
X0190357Y0110952D01*
X0190385Y0110999D01*
X0190410Y0111048D01*
X0190431Y0111099D01*
X0190448Y0111151D01*
X0190461Y0111204D01*
X0190471Y0111258D01*
X0190477Y0111312D01*
X0190479Y0111367D01*
X0190479Y0112900D01*
X0190477Y0112955D01*
X0190471Y0113009D01*
X0190461Y0113063D01*
X0190448Y0113116D01*
X0190431Y0113168D01*
X0190410Y0113219D01*
X0190385Y0113268D01*
X0190357Y0113315D01*
X0190326Y0113360D01*
X0190292Y0113402D01*
X0190254Y0113442D01*
X0190214Y0113480D01*
X0190172Y0113514D01*
X0190127Y0113545D01*
X0190080Y0113573D01*
X0190031Y0113598D01*
X0189980Y0113619D01*
X0189928Y0113636D01*
X0189875Y0113649D01*
X0189821Y0113659D01*
X0189767Y0113665D01*
X0189712Y0113667D01*
X0188434Y0113667D01*
X0192311Y0112644D02*
X0192311Y0111622D01*
X0192313Y0111559D01*
X0192319Y0111496D01*
X0192328Y0111434D01*
X0192342Y0111373D01*
X0192359Y0111312D01*
X0192380Y0111253D01*
X0192405Y0111195D01*
X0192433Y0111138D01*
X0192464Y0111084D01*
X0192499Y0111032D01*
X0192537Y0110981D01*
X0192578Y0110933D01*
X0192622Y0110888D01*
X0192668Y0110846D01*
X0192717Y0110806D01*
X0192768Y0110770D01*
X0192822Y0110737D01*
X0192877Y0110707D01*
X0192935Y0110681D01*
X0192993Y0110658D01*
X0193053Y0110639D01*
X0193114Y0110624D01*
X0193176Y0110612D01*
X0193239Y0110604D01*
X0193302Y0110600D01*
X0193364Y0110600D01*
X0193427Y0110604D01*
X0193490Y0110612D01*
X0193552Y0110624D01*
X0193613Y0110639D01*
X0193673Y0110658D01*
X0193731Y0110681D01*
X0193789Y0110707D01*
X0193844Y0110737D01*
X0193898Y0110770D01*
X0193949Y0110806D01*
X0193998Y0110846D01*
X0194044Y0110888D01*
X0194088Y0110933D01*
X0194129Y0110981D01*
X0194167Y0111032D01*
X0194202Y0111084D01*
X0194233Y0111138D01*
X0194261Y0111195D01*
X0194286Y0111253D01*
X0194307Y0111312D01*
X0194324Y0111373D01*
X0194338Y0111434D01*
X0194347Y0111496D01*
X0194353Y0111559D01*
X0194355Y0111622D01*
X0194356Y0111622D02*
X0194356Y0112644D01*
X0194355Y0112644D02*
X0194353Y0112707D01*
X0194347Y0112770D01*
X0194338Y0112832D01*
X0194324Y0112893D01*
X0194307Y0112954D01*
X0194286Y0113013D01*
X0194261Y0113071D01*
X0194233Y0113128D01*
X0194202Y0113182D01*
X0194167Y0113234D01*
X0194129Y0113285D01*
X0194088Y0113333D01*
X0194044Y0113378D01*
X0193998Y0113420D01*
X0193949Y0113460D01*
X0193898Y0113496D01*
X0193844Y0113529D01*
X0193789Y0113559D01*
X0193731Y0113585D01*
X0193673Y0113608D01*
X0193613Y0113627D01*
X0193552Y0113642D01*
X0193490Y0113654D01*
X0193427Y0113662D01*
X0193364Y0113666D01*
X0193302Y0113666D01*
X0193239Y0113662D01*
X0193176Y0113654D01*
X0193114Y0113642D01*
X0193053Y0113627D01*
X0192993Y0113608D01*
X0192935Y0113585D01*
X0192877Y0113559D01*
X0192822Y0113529D01*
X0192768Y0113496D01*
X0192717Y0113460D01*
X0192668Y0113420D01*
X0192622Y0113378D01*
X0192578Y0113333D01*
X0192537Y0113285D01*
X0192499Y0113234D01*
X0192464Y0113182D01*
X0192433Y0113128D01*
X0192405Y0113071D01*
X0192380Y0113013D01*
X0192359Y0112954D01*
X0192342Y0112893D01*
X0192328Y0112832D01*
X0192319Y0112770D01*
X0192313Y0112707D01*
X0192311Y0112644D01*
X0196150Y0113667D02*
X0196917Y0110600D01*
X0197683Y0112644D01*
X0198450Y0110600D01*
X0199217Y0113667D01*
X0201649Y0113667D02*
X0201598Y0113666D01*
X0201548Y0113661D01*
X0201497Y0113651D01*
X0201448Y0113639D01*
X0201400Y0113622D01*
X0201353Y0113601D01*
X0201307Y0113578D01*
X0201264Y0113550D01*
X0201223Y0113520D01*
X0201185Y0113486D01*
X0201149Y0113450D01*
X0201116Y0113410D01*
X0201086Y0113369D01*
X0201060Y0113325D01*
X0201037Y0113280D01*
X0201018Y0113232D01*
X0201002Y0113184D01*
X0200990Y0113134D01*
X0200982Y0113084D01*
X0200978Y0113033D01*
X0200977Y0112982D01*
X0200981Y0112931D01*
X0200989Y0112880D01*
X0201000Y0112830D01*
X0201015Y0112781D01*
X0201034Y0112734D01*
X0201057Y0112688D01*
X0201083Y0112644D01*
X0201112Y0112602D01*
X0201145Y0112563D01*
X0201180Y0112526D01*
X0201219Y0112492D01*
X0201259Y0112461D01*
X0201302Y0112434D01*
X0201347Y0112409D01*
X0201394Y0112388D01*
X0201394Y0112389D02*
X0202672Y0111878D01*
X0202672Y0111879D02*
X0202719Y0111858D01*
X0202764Y0111833D01*
X0202807Y0111806D01*
X0202847Y0111775D01*
X0202886Y0111741D01*
X0202921Y0111704D01*
X0202954Y0111665D01*
X0202983Y0111623D01*
X0203009Y0111579D01*
X0203032Y0111533D01*
X0203051Y0111486D01*
X0203066Y0111437D01*
X0203077Y0111387D01*
X0203085Y0111336D01*
X0203089Y0111285D01*
X0203088Y0111234D01*
X0203084Y0111183D01*
X0203076Y0111133D01*
X0203064Y0111083D01*
X0203048Y0111035D01*
X0203029Y0110987D01*
X0203006Y0110942D01*
X0202980Y0110898D01*
X0202950Y0110857D01*
X0202917Y0110817D01*
X0202881Y0110781D01*
X0202843Y0110747D01*
X0202802Y0110717D01*
X0202759Y0110689D01*
X0202713Y0110666D01*
X0202666Y0110645D01*
X0202618Y0110628D01*
X0202569Y0110616D01*
X0202518Y0110606D01*
X0202468Y0110601D01*
X0202417Y0110600D01*
X0202800Y0113411D02*
X0202710Y0113450D01*
X0202617Y0113486D01*
X0202524Y0113519D01*
X0202430Y0113548D01*
X0202335Y0113575D01*
X0202239Y0113598D01*
X0202142Y0113618D01*
X0202044Y0113634D01*
X0201946Y0113647D01*
X0201848Y0113657D01*
X0201749Y0113664D01*
X0201650Y0113667D01*
X0201012Y0110856D02*
X0201135Y0110814D01*
X0201260Y0110775D01*
X0201385Y0110740D01*
X0201512Y0110709D01*
X0201640Y0110682D01*
X0201768Y0110659D01*
X0201897Y0110639D01*
X0202027Y0110624D01*
X0202156Y0110612D01*
X0202287Y0110604D01*
X0202417Y0110600D01*
X0097665Y0126500D02*
X0095109Y0126500D01*
X0096387Y0126500D02*
X0096387Y0131100D01*
X0095109Y0130078D01*
X0093033Y0131100D02*
X0093033Y0127522D01*
X0093031Y0127460D01*
X0093026Y0127399D01*
X0093016Y0127338D01*
X0093003Y0127277D01*
X0092987Y0127218D01*
X0092967Y0127160D01*
X0092943Y0127103D01*
X0092916Y0127047D01*
X0092886Y0126993D01*
X0092852Y0126941D01*
X0092816Y0126892D01*
X0092776Y0126844D01*
X0092734Y0126799D01*
X0092689Y0126757D01*
X0092641Y0126717D01*
X0092592Y0126681D01*
X0092540Y0126647D01*
X0092486Y0126617D01*
X0092430Y0126590D01*
X0092373Y0126566D01*
X0092315Y0126546D01*
X0092256Y0126530D01*
X0092195Y0126517D01*
X0092134Y0126507D01*
X0092073Y0126502D01*
X0092011Y0126500D01*
X0091500Y0126500D01*
X0092578Y0121754D02*
X0092578Y0116046D01*
X0089822Y0116046D02*
X0089822Y0121754D01*
D12*
X0088491Y0119437D02*
X0087202Y0119437D01*
X0087847Y0119921D02*
X0087847Y0118309D01*
X0085591Y0118954D01*
X0085591Y0117189D02*
X0085591Y0116545D01*
X0085593Y0116494D01*
X0085599Y0116444D01*
X0085609Y0116395D01*
X0085623Y0116346D01*
X0085640Y0116299D01*
X0085661Y0116253D01*
X0085686Y0116208D01*
X0085714Y0116166D01*
X0085745Y0116127D01*
X0085780Y0116090D01*
X0085817Y0116055D01*
X0085856Y0116024D01*
X0085899Y0115996D01*
X0085943Y0115971D01*
X0085989Y0115950D01*
X0086036Y0115933D01*
X0086085Y0115919D01*
X0086134Y0115909D01*
X0086184Y0115903D01*
X0086235Y0115901D01*
X0086235Y0115900D02*
X0087847Y0115900D01*
X0087847Y0115901D02*
X0087895Y0115903D01*
X0087943Y0115908D01*
X0087990Y0115917D01*
X0088037Y0115930D01*
X0088082Y0115946D01*
X0088126Y0115965D01*
X0088169Y0115987D01*
X0088210Y0116013D01*
X0088249Y0116042D01*
X0088285Y0116073D01*
X0088319Y0116107D01*
X0088350Y0116143D01*
X0088379Y0116182D01*
X0088405Y0116223D01*
X0088427Y0116266D01*
X0088446Y0116310D01*
X0088462Y0116355D01*
X0088475Y0116402D01*
X0088484Y0116449D01*
X0088489Y0116497D01*
X0088491Y0116545D01*
X0088491Y0117189D01*
X0063976Y0103468D02*
X0063976Y0100568D01*
X0063171Y0100568D02*
X0064782Y0100568D01*
X0062050Y0100568D02*
X0061406Y0100568D01*
X0061406Y0100569D02*
X0061358Y0100571D01*
X0061310Y0100576D01*
X0061263Y0100585D01*
X0061216Y0100598D01*
X0061171Y0100614D01*
X0061127Y0100633D01*
X0061084Y0100655D01*
X0061043Y0100681D01*
X0061004Y0100710D01*
X0060968Y0100741D01*
X0060934Y0100775D01*
X0060903Y0100811D01*
X0060874Y0100850D01*
X0060848Y0100891D01*
X0060826Y0100934D01*
X0060807Y0100978D01*
X0060791Y0101023D01*
X0060778Y0101070D01*
X0060769Y0101117D01*
X0060764Y0101165D01*
X0060762Y0101213D01*
X0060762Y0102824D01*
X0060764Y0102875D01*
X0060770Y0102925D01*
X0060780Y0102974D01*
X0060794Y0103023D01*
X0060811Y0103070D01*
X0060832Y0103116D01*
X0060857Y0103160D01*
X0060885Y0103203D01*
X0060916Y0103242D01*
X0060951Y0103279D01*
X0060988Y0103314D01*
X0061027Y0103345D01*
X0061070Y0103373D01*
X0061114Y0103398D01*
X0061160Y0103419D01*
X0061207Y0103436D01*
X0061256Y0103450D01*
X0061305Y0103460D01*
X0061355Y0103466D01*
X0061406Y0103468D01*
X0062050Y0103468D01*
X0063171Y0102824D02*
X0063976Y0103468D01*
X0059594Y0103468D02*
X0058950Y0103468D01*
X0059272Y0103468D02*
X0059272Y0100568D01*
X0058950Y0100568D02*
X0059594Y0100568D01*
X0158650Y0068896D02*
X0158652Y0068948D01*
X0158657Y0068999D01*
X0158667Y0069050D01*
X0158679Y0069100D01*
X0158696Y0069149D01*
X0158716Y0069197D01*
X0158739Y0069243D01*
X0158765Y0069288D01*
X0158795Y0069330D01*
X0158827Y0069371D01*
X0158862Y0069409D01*
X0158900Y0069444D01*
X0158941Y0069476D01*
X0158983Y0069506D01*
X0159028Y0069532D01*
X0159074Y0069555D01*
X0159122Y0069575D01*
X0159171Y0069592D01*
X0159221Y0069604D01*
X0159272Y0069614D01*
X0159323Y0069619D01*
X0159375Y0069621D01*
X0159939Y0069379D02*
X0161550Y0068010D01*
X0161550Y0069621D01*
X0159294Y0068010D02*
X0159239Y0068030D01*
X0159185Y0068053D01*
X0159133Y0068080D01*
X0159083Y0068110D01*
X0159034Y0068142D01*
X0158988Y0068178D01*
X0158944Y0068217D01*
X0158903Y0068258D01*
X0158864Y0068302D01*
X0158828Y0068348D01*
X0158795Y0068397D01*
X0158765Y0068447D01*
X0158739Y0068499D01*
X0158715Y0068553D01*
X0158696Y0068608D01*
X0158679Y0068664D01*
X0158667Y0068721D01*
X0158657Y0068779D01*
X0158652Y0068837D01*
X0158650Y0068896D01*
X0159375Y0069621D02*
X0159428Y0069619D01*
X0159480Y0069614D01*
X0159532Y0069605D01*
X0159583Y0069593D01*
X0159633Y0069577D01*
X0159682Y0069558D01*
X0159729Y0069536D01*
X0159775Y0069510D01*
X0159820Y0069482D01*
X0159862Y0069450D01*
X0159902Y0069416D01*
X0159939Y0069379D01*
X0161550Y0066761D02*
X0160261Y0066117D01*
X0160261Y0065956D02*
X0160261Y0065150D01*
X0160262Y0065956D02*
X0160260Y0066011D01*
X0160254Y0066066D01*
X0160245Y0066120D01*
X0160232Y0066173D01*
X0160215Y0066226D01*
X0160195Y0066277D01*
X0160172Y0066327D01*
X0160145Y0066375D01*
X0160114Y0066421D01*
X0160081Y0066465D01*
X0160045Y0066506D01*
X0160006Y0066545D01*
X0159965Y0066581D01*
X0159921Y0066614D01*
X0159875Y0066645D01*
X0159827Y0066672D01*
X0159777Y0066695D01*
X0159726Y0066715D01*
X0159673Y0066732D01*
X0159620Y0066745D01*
X0159566Y0066754D01*
X0159511Y0066760D01*
X0159456Y0066762D01*
X0159401Y0066760D01*
X0159346Y0066754D01*
X0159292Y0066745D01*
X0159239Y0066732D01*
X0159186Y0066715D01*
X0159135Y0066695D01*
X0159085Y0066672D01*
X0159037Y0066645D01*
X0158991Y0066614D01*
X0158947Y0066581D01*
X0158906Y0066545D01*
X0158867Y0066506D01*
X0158831Y0066465D01*
X0158798Y0066421D01*
X0158767Y0066375D01*
X0158740Y0066327D01*
X0158717Y0066277D01*
X0158697Y0066226D01*
X0158680Y0066173D01*
X0158667Y0066120D01*
X0158658Y0066066D01*
X0158652Y0066011D01*
X0158650Y0065956D01*
X0158650Y0065150D01*
X0161550Y0065150D01*
X0162101Y0041150D02*
X0162101Y0038250D01*
X0163390Y0038250D02*
X0163390Y0039700D01*
X0163388Y0039742D01*
X0163383Y0039784D01*
X0163374Y0039825D01*
X0163361Y0039865D01*
X0163345Y0039904D01*
X0163325Y0039942D01*
X0163303Y0039977D01*
X0163277Y0040010D01*
X0163249Y0040042D01*
X0163217Y0040070D01*
X0163184Y0040096D01*
X0163149Y0040118D01*
X0163111Y0040138D01*
X0163072Y0040154D01*
X0163032Y0040167D01*
X0162991Y0040176D01*
X0162949Y0040181D01*
X0162907Y0040183D01*
X0162101Y0040183D01*
X0160541Y0039458D02*
X0159655Y0039942D01*
X0159977Y0041150D02*
X0160042Y0041148D01*
X0160106Y0041143D01*
X0160171Y0041134D01*
X0160234Y0041122D01*
X0160297Y0041107D01*
X0160359Y0041088D01*
X0160420Y0041066D01*
X0160479Y0041041D01*
X0160538Y0041012D01*
X0160594Y0040980D01*
X0160649Y0040946D01*
X0160702Y0040908D01*
X0159654Y0039942D02*
X0159614Y0039968D01*
X0159575Y0039997D01*
X0159538Y0040029D01*
X0159504Y0040064D01*
X0159473Y0040101D01*
X0159444Y0040140D01*
X0159418Y0040181D01*
X0159396Y0040224D01*
X0159377Y0040269D01*
X0159361Y0040315D01*
X0159348Y0040361D01*
X0159339Y0040409D01*
X0159334Y0040457D01*
X0159332Y0040506D01*
X0159333Y0040506D02*
X0159335Y0040554D01*
X0159340Y0040602D01*
X0159349Y0040649D01*
X0159362Y0040696D01*
X0159378Y0040741D01*
X0159397Y0040785D01*
X0159419Y0040828D01*
X0159445Y0040869D01*
X0159474Y0040908D01*
X0159505Y0040944D01*
X0159539Y0040978D01*
X0159575Y0041010D01*
X0159614Y0041038D01*
X0159655Y0041064D01*
X0159698Y0041086D01*
X0159742Y0041105D01*
X0159787Y0041121D01*
X0159834Y0041134D01*
X0159881Y0041143D01*
X0159929Y0041148D01*
X0159977Y0041150D01*
X0159253Y0038653D02*
X0159304Y0038603D01*
X0159359Y0038556D01*
X0159415Y0038513D01*
X0159474Y0038472D01*
X0159535Y0038434D01*
X0159598Y0038400D01*
X0159663Y0038369D01*
X0159729Y0038341D01*
X0159796Y0038317D01*
X0159865Y0038297D01*
X0159935Y0038280D01*
X0160005Y0038267D01*
X0160076Y0038258D01*
X0160147Y0038252D01*
X0160219Y0038250D01*
X0160267Y0038252D01*
X0160315Y0038257D01*
X0160362Y0038266D01*
X0160409Y0038279D01*
X0160454Y0038295D01*
X0160498Y0038314D01*
X0160541Y0038336D01*
X0160582Y0038362D01*
X0160621Y0038391D01*
X0160657Y0038422D01*
X0160691Y0038456D01*
X0160722Y0038492D01*
X0160751Y0038531D01*
X0160777Y0038572D01*
X0160799Y0038615D01*
X0160818Y0038659D01*
X0160834Y0038704D01*
X0160847Y0038751D01*
X0160856Y0038798D01*
X0160861Y0038846D01*
X0160863Y0038894D01*
X0160864Y0038894D02*
X0160862Y0038943D01*
X0160857Y0038991D01*
X0160848Y0039039D01*
X0160835Y0039085D01*
X0160819Y0039131D01*
X0160800Y0039176D01*
X0160778Y0039219D01*
X0160752Y0039260D01*
X0160723Y0039299D01*
X0160692Y0039336D01*
X0160658Y0039371D01*
X0160621Y0039403D01*
X0160582Y0039432D01*
X0160542Y0039458D01*
X0156574Y0039539D02*
X0156574Y0039217D01*
X0155285Y0039217D01*
X0155285Y0039539D02*
X0155285Y0038733D01*
X0155286Y0038733D02*
X0155288Y0038691D01*
X0155293Y0038649D01*
X0155302Y0038608D01*
X0155315Y0038568D01*
X0155331Y0038529D01*
X0155351Y0038492D01*
X0155373Y0038456D01*
X0155399Y0038423D01*
X0155427Y0038391D01*
X0155459Y0038363D01*
X0155492Y0038337D01*
X0155528Y0038315D01*
X0155565Y0038295D01*
X0155604Y0038279D01*
X0155644Y0038266D01*
X0155685Y0038257D01*
X0155727Y0038252D01*
X0155769Y0038250D01*
X0156574Y0038250D01*
X0156574Y0039539D02*
X0156572Y0039588D01*
X0156566Y0039637D01*
X0156557Y0039686D01*
X0156544Y0039733D01*
X0156527Y0039780D01*
X0156507Y0039825D01*
X0156484Y0039868D01*
X0156457Y0039910D01*
X0156427Y0039949D01*
X0156394Y0039986D01*
X0156358Y0040020D01*
X0156320Y0040051D01*
X0156280Y0040080D01*
X0156238Y0040105D01*
X0156193Y0040127D01*
X0156148Y0040145D01*
X0156101Y0040160D01*
X0156053Y0040171D01*
X0156004Y0040179D01*
X0155955Y0040183D01*
X0155905Y0040183D01*
X0155856Y0040179D01*
X0155807Y0040171D01*
X0155759Y0040160D01*
X0155712Y0040145D01*
X0155667Y0040127D01*
X0155622Y0040105D01*
X0155580Y0040080D01*
X0155540Y0040051D01*
X0155502Y0040020D01*
X0155466Y0039986D01*
X0155433Y0039949D01*
X0155403Y0039910D01*
X0155376Y0039868D01*
X0155353Y0039825D01*
X0155333Y0039780D01*
X0155316Y0039733D01*
X0155303Y0039686D01*
X0155294Y0039637D01*
X0155288Y0039588D01*
X0155286Y0039539D01*
X0154094Y0039700D02*
X0154094Y0038733D01*
X0154092Y0038691D01*
X0154087Y0038649D01*
X0154078Y0038608D01*
X0154065Y0038568D01*
X0154049Y0038529D01*
X0154029Y0038492D01*
X0154007Y0038456D01*
X0153981Y0038423D01*
X0153953Y0038391D01*
X0153921Y0038363D01*
X0153888Y0038337D01*
X0153853Y0038315D01*
X0153815Y0038295D01*
X0153776Y0038279D01*
X0153736Y0038266D01*
X0153695Y0038257D01*
X0153653Y0038252D01*
X0153611Y0038250D01*
X0152805Y0038250D01*
X0152805Y0041150D01*
X0152805Y0040183D02*
X0153611Y0040183D01*
X0153653Y0040181D01*
X0153695Y0040176D01*
X0153736Y0040167D01*
X0153776Y0040154D01*
X0153815Y0040138D01*
X0153853Y0040118D01*
X0153888Y0040096D01*
X0153921Y0040070D01*
X0153953Y0040042D01*
X0153981Y0040010D01*
X0154007Y0039977D01*
X0154029Y0039942D01*
X0154049Y0039904D01*
X0154065Y0039865D01*
X0154078Y0039825D01*
X0154087Y0039784D01*
X0154092Y0039742D01*
X0154094Y0039700D01*
X0151486Y0039539D02*
X0151486Y0038894D01*
X0151484Y0038845D01*
X0151478Y0038796D01*
X0151469Y0038747D01*
X0151456Y0038700D01*
X0151439Y0038653D01*
X0151419Y0038608D01*
X0151396Y0038565D01*
X0151369Y0038523D01*
X0151339Y0038484D01*
X0151306Y0038447D01*
X0151270Y0038413D01*
X0151232Y0038382D01*
X0151192Y0038353D01*
X0151150Y0038328D01*
X0151105Y0038306D01*
X0151060Y0038288D01*
X0151013Y0038273D01*
X0150965Y0038262D01*
X0150916Y0038254D01*
X0150867Y0038250D01*
X0150817Y0038250D01*
X0150768Y0038254D01*
X0150719Y0038262D01*
X0150671Y0038273D01*
X0150624Y0038288D01*
X0150579Y0038306D01*
X0150534Y0038328D01*
X0150492Y0038353D01*
X0150452Y0038382D01*
X0150414Y0038413D01*
X0150378Y0038447D01*
X0150345Y0038484D01*
X0150315Y0038523D01*
X0150288Y0038565D01*
X0150265Y0038608D01*
X0150245Y0038653D01*
X0150228Y0038700D01*
X0150215Y0038747D01*
X0150206Y0038796D01*
X0150200Y0038845D01*
X0150198Y0038894D01*
X0150197Y0038894D02*
X0150197Y0039539D01*
X0150198Y0039539D02*
X0150200Y0039588D01*
X0150206Y0039637D01*
X0150215Y0039686D01*
X0150228Y0039733D01*
X0150245Y0039780D01*
X0150265Y0039825D01*
X0150288Y0039868D01*
X0150315Y0039910D01*
X0150345Y0039949D01*
X0150378Y0039986D01*
X0150414Y0040020D01*
X0150452Y0040051D01*
X0150492Y0040080D01*
X0150534Y0040105D01*
X0150579Y0040127D01*
X0150624Y0040145D01*
X0150671Y0040160D01*
X0150719Y0040171D01*
X0150768Y0040179D01*
X0150817Y0040183D01*
X0150867Y0040183D01*
X0150916Y0040179D01*
X0150965Y0040171D01*
X0151013Y0040160D01*
X0151060Y0040145D01*
X0151105Y0040127D01*
X0151150Y0040105D01*
X0151192Y0040080D01*
X0151232Y0040051D01*
X0151270Y0040020D01*
X0151306Y0039986D01*
X0151339Y0039949D01*
X0151369Y0039910D01*
X0151396Y0039868D01*
X0151419Y0039825D01*
X0151439Y0039780D01*
X0151456Y0039733D01*
X0151469Y0039686D01*
X0151478Y0039637D01*
X0151484Y0039588D01*
X0151486Y0039539D01*
X0149177Y0038250D02*
X0149135Y0038252D01*
X0149093Y0038257D01*
X0149052Y0038266D01*
X0149012Y0038279D01*
X0148973Y0038295D01*
X0148936Y0038315D01*
X0148900Y0038337D01*
X0148867Y0038363D01*
X0148835Y0038391D01*
X0148807Y0038423D01*
X0148781Y0038456D01*
X0148759Y0038492D01*
X0148739Y0038529D01*
X0148723Y0038568D01*
X0148710Y0038608D01*
X0148701Y0038649D01*
X0148696Y0038691D01*
X0148694Y0038733D01*
X0148694Y0041150D01*
X0147327Y0041150D02*
X0146361Y0041150D01*
X0146310Y0041148D01*
X0146260Y0041142D01*
X0146211Y0041132D01*
X0146162Y0041118D01*
X0146115Y0041101D01*
X0146069Y0041080D01*
X0146025Y0041055D01*
X0145982Y0041027D01*
X0145943Y0040996D01*
X0145906Y0040961D01*
X0145871Y0040924D01*
X0145840Y0040885D01*
X0145812Y0040842D01*
X0145787Y0040798D01*
X0145766Y0040752D01*
X0145749Y0040705D01*
X0145735Y0040656D01*
X0145725Y0040607D01*
X0145719Y0040557D01*
X0145717Y0040506D01*
X0145716Y0040506D02*
X0145716Y0038894D01*
X0145717Y0038894D02*
X0145719Y0038846D01*
X0145724Y0038798D01*
X0145733Y0038751D01*
X0145746Y0038704D01*
X0145762Y0038659D01*
X0145781Y0038615D01*
X0145803Y0038572D01*
X0145829Y0038531D01*
X0145858Y0038492D01*
X0145889Y0038456D01*
X0145923Y0038422D01*
X0145959Y0038391D01*
X0145998Y0038362D01*
X0146039Y0038336D01*
X0146082Y0038314D01*
X0146126Y0038295D01*
X0146171Y0038279D01*
X0146218Y0038266D01*
X0146265Y0038257D01*
X0146313Y0038252D01*
X0146361Y0038250D01*
X0147327Y0038250D01*
X0147327Y0039861D01*
X0146844Y0039861D01*
X0144512Y0041150D02*
X0143546Y0038250D01*
X0142579Y0041150D01*
X0141471Y0040344D02*
X0141471Y0039056D01*
X0141472Y0039056D02*
X0141470Y0039001D01*
X0141464Y0038946D01*
X0141455Y0038892D01*
X0141442Y0038839D01*
X0141425Y0038786D01*
X0141405Y0038735D01*
X0141382Y0038685D01*
X0141355Y0038637D01*
X0141324Y0038591D01*
X0141291Y0038547D01*
X0141255Y0038506D01*
X0141216Y0038467D01*
X0141175Y0038431D01*
X0141131Y0038398D01*
X0141085Y0038367D01*
X0141037Y0038340D01*
X0140987Y0038317D01*
X0140936Y0038297D01*
X0140883Y0038280D01*
X0140830Y0038267D01*
X0140776Y0038258D01*
X0140721Y0038252D01*
X0140666Y0038250D01*
X0140611Y0038252D01*
X0140556Y0038258D01*
X0140502Y0038267D01*
X0140449Y0038280D01*
X0140396Y0038297D01*
X0140345Y0038317D01*
X0140295Y0038340D01*
X0140247Y0038367D01*
X0140201Y0038398D01*
X0140157Y0038431D01*
X0140116Y0038467D01*
X0140077Y0038506D01*
X0140041Y0038547D01*
X0140008Y0038591D01*
X0139977Y0038637D01*
X0139950Y0038685D01*
X0139927Y0038735D01*
X0139907Y0038786D01*
X0139890Y0038839D01*
X0139877Y0038892D01*
X0139868Y0038946D01*
X0139862Y0039001D01*
X0139860Y0039056D01*
X0139860Y0040344D01*
X0139862Y0040399D01*
X0139868Y0040454D01*
X0139877Y0040508D01*
X0139890Y0040561D01*
X0139907Y0040614D01*
X0139927Y0040665D01*
X0139950Y0040715D01*
X0139977Y0040763D01*
X0140008Y0040809D01*
X0140041Y0040853D01*
X0140077Y0040894D01*
X0140116Y0040933D01*
X0140157Y0040969D01*
X0140201Y0041002D01*
X0140247Y0041033D01*
X0140295Y0041060D01*
X0140345Y0041083D01*
X0140396Y0041103D01*
X0140449Y0041120D01*
X0140502Y0041133D01*
X0140556Y0041142D01*
X0140611Y0041148D01*
X0140666Y0041150D01*
X0140721Y0041148D01*
X0140776Y0041142D01*
X0140830Y0041133D01*
X0140883Y0041120D01*
X0140936Y0041103D01*
X0140987Y0041083D01*
X0141037Y0041060D01*
X0141085Y0041033D01*
X0141131Y0041002D01*
X0141175Y0040969D01*
X0141216Y0040933D01*
X0141255Y0040894D01*
X0141291Y0040853D01*
X0141324Y0040809D01*
X0141355Y0040763D01*
X0141382Y0040715D01*
X0141405Y0040665D01*
X0141425Y0040614D01*
X0141442Y0040561D01*
X0141455Y0040508D01*
X0141464Y0040454D01*
X0141470Y0040399D01*
X0141472Y0040344D01*
X0137928Y0039538D02*
X0137983Y0039540D01*
X0138038Y0039546D01*
X0138092Y0039555D01*
X0138145Y0039568D01*
X0138198Y0039585D01*
X0138249Y0039605D01*
X0138299Y0039628D01*
X0138347Y0039655D01*
X0138393Y0039686D01*
X0138437Y0039719D01*
X0138478Y0039755D01*
X0138517Y0039794D01*
X0138553Y0039835D01*
X0138586Y0039879D01*
X0138617Y0039925D01*
X0138644Y0039973D01*
X0138667Y0040023D01*
X0138687Y0040074D01*
X0138704Y0040127D01*
X0138717Y0040180D01*
X0138726Y0040234D01*
X0138732Y0040289D01*
X0138734Y0040344D01*
X0138732Y0040399D01*
X0138726Y0040454D01*
X0138717Y0040508D01*
X0138704Y0040561D01*
X0138687Y0040614D01*
X0138667Y0040665D01*
X0138644Y0040715D01*
X0138617Y0040763D01*
X0138586Y0040809D01*
X0138553Y0040853D01*
X0138517Y0040894D01*
X0138478Y0040933D01*
X0138437Y0040969D01*
X0138393Y0041002D01*
X0138347Y0041033D01*
X0138299Y0041060D01*
X0138249Y0041083D01*
X0138198Y0041103D01*
X0138145Y0041120D01*
X0138092Y0041133D01*
X0138038Y0041142D01*
X0137983Y0041148D01*
X0137928Y0041150D01*
X0137123Y0041150D01*
X0137123Y0038250D01*
X0137123Y0039539D02*
X0137928Y0039539D01*
X0134175Y0038250D02*
X0132564Y0038250D01*
X0133934Y0039861D01*
X0133450Y0041150D02*
X0133391Y0041148D01*
X0133333Y0041143D01*
X0133275Y0041133D01*
X0133218Y0041121D01*
X0133162Y0041104D01*
X0133107Y0041085D01*
X0133053Y0041061D01*
X0133001Y0041035D01*
X0132951Y0041005D01*
X0132902Y0040972D01*
X0132856Y0040936D01*
X0132812Y0040897D01*
X0132771Y0040856D01*
X0132732Y0040812D01*
X0132696Y0040766D01*
X0132664Y0040717D01*
X0132634Y0040667D01*
X0132607Y0040615D01*
X0132584Y0040561D01*
X0132564Y0040506D01*
X0133934Y0039861D02*
X0133971Y0039898D01*
X0134005Y0039938D01*
X0134037Y0039980D01*
X0134065Y0040025D01*
X0134091Y0040071D01*
X0134113Y0040118D01*
X0134132Y0040167D01*
X0134148Y0040217D01*
X0134160Y0040268D01*
X0134169Y0040320D01*
X0134174Y0040372D01*
X0134176Y0040425D01*
X0134175Y0040425D02*
X0134173Y0040477D01*
X0134168Y0040528D01*
X0134158Y0040579D01*
X0134146Y0040629D01*
X0134129Y0040678D01*
X0134109Y0040726D01*
X0134086Y0040772D01*
X0134060Y0040817D01*
X0134030Y0040859D01*
X0133998Y0040900D01*
X0133963Y0040938D01*
X0133925Y0040973D01*
X0133884Y0041005D01*
X0133842Y0041035D01*
X0133797Y0041061D01*
X0133751Y0041084D01*
X0133703Y0041104D01*
X0133654Y0041121D01*
X0133604Y0041133D01*
X0133553Y0041143D01*
X0133502Y0041148D01*
X0133450Y0041150D01*
X0130651Y0041150D02*
X0129684Y0041150D01*
X0130651Y0041150D02*
X0130700Y0041148D01*
X0130749Y0041142D01*
X0130798Y0041133D01*
X0130845Y0041120D01*
X0130892Y0041103D01*
X0130937Y0041083D01*
X0130980Y0041060D01*
X0131022Y0041033D01*
X0131061Y0041003D01*
X0131098Y0040970D01*
X0131132Y0040934D01*
X0131163Y0040896D01*
X0131192Y0040856D01*
X0131217Y0040814D01*
X0131239Y0040769D01*
X0131257Y0040724D01*
X0131272Y0040677D01*
X0131283Y0040629D01*
X0131291Y0040580D01*
X0131295Y0040531D01*
X0131295Y0040481D01*
X0131291Y0040432D01*
X0131283Y0040383D01*
X0131272Y0040335D01*
X0131257Y0040288D01*
X0131239Y0040243D01*
X0131217Y0040198D01*
X0131192Y0040156D01*
X0131163Y0040116D01*
X0131132Y0040078D01*
X0131098Y0040042D01*
X0131061Y0040009D01*
X0131022Y0039979D01*
X0130980Y0039952D01*
X0130937Y0039929D01*
X0130892Y0039909D01*
X0130845Y0039892D01*
X0130798Y0039879D01*
X0130749Y0039870D01*
X0130700Y0039864D01*
X0130651Y0039862D01*
X0130651Y0039861D02*
X0130006Y0039861D01*
X0130490Y0039862D02*
X0130545Y0039860D01*
X0130600Y0039854D01*
X0130654Y0039845D01*
X0130707Y0039832D01*
X0130760Y0039815D01*
X0130811Y0039795D01*
X0130861Y0039772D01*
X0130909Y0039745D01*
X0130955Y0039714D01*
X0130999Y0039681D01*
X0131040Y0039645D01*
X0131079Y0039606D01*
X0131115Y0039565D01*
X0131148Y0039521D01*
X0131179Y0039475D01*
X0131206Y0039427D01*
X0131229Y0039377D01*
X0131249Y0039326D01*
X0131266Y0039273D01*
X0131279Y0039220D01*
X0131288Y0039166D01*
X0131294Y0039111D01*
X0131296Y0039056D01*
X0131294Y0039001D01*
X0131288Y0038946D01*
X0131279Y0038892D01*
X0131266Y0038839D01*
X0131249Y0038786D01*
X0131229Y0038735D01*
X0131206Y0038685D01*
X0131179Y0038637D01*
X0131148Y0038591D01*
X0131115Y0038547D01*
X0131079Y0038506D01*
X0131040Y0038467D01*
X0130999Y0038431D01*
X0130955Y0038398D01*
X0130909Y0038367D01*
X0130861Y0038340D01*
X0130811Y0038317D01*
X0130760Y0038297D01*
X0130707Y0038280D01*
X0130654Y0038267D01*
X0130600Y0038258D01*
X0130545Y0038252D01*
X0130490Y0038250D01*
X0129684Y0038250D01*
X0127752Y0039539D02*
X0126947Y0039539D01*
X0127752Y0039538D02*
X0127807Y0039540D01*
X0127862Y0039546D01*
X0127916Y0039555D01*
X0127969Y0039568D01*
X0128022Y0039585D01*
X0128073Y0039605D01*
X0128123Y0039628D01*
X0128171Y0039655D01*
X0128217Y0039686D01*
X0128261Y0039719D01*
X0128302Y0039755D01*
X0128341Y0039794D01*
X0128377Y0039835D01*
X0128410Y0039879D01*
X0128441Y0039925D01*
X0128468Y0039973D01*
X0128491Y0040023D01*
X0128511Y0040074D01*
X0128528Y0040127D01*
X0128541Y0040180D01*
X0128550Y0040234D01*
X0128556Y0040289D01*
X0128558Y0040344D01*
X0128556Y0040399D01*
X0128550Y0040454D01*
X0128541Y0040508D01*
X0128528Y0040561D01*
X0128511Y0040614D01*
X0128491Y0040665D01*
X0128468Y0040715D01*
X0128441Y0040763D01*
X0128410Y0040809D01*
X0128377Y0040853D01*
X0128341Y0040894D01*
X0128302Y0040933D01*
X0128261Y0040969D01*
X0128217Y0041002D01*
X0128171Y0041033D01*
X0128123Y0041060D01*
X0128073Y0041083D01*
X0128022Y0041103D01*
X0127969Y0041120D01*
X0127916Y0041133D01*
X0127862Y0041142D01*
X0127807Y0041148D01*
X0127752Y0041150D01*
X0126947Y0041150D01*
X0126947Y0038250D01*
X0125309Y0039458D02*
X0124423Y0039942D01*
X0124745Y0041150D02*
X0124810Y0041148D01*
X0124874Y0041143D01*
X0124939Y0041134D01*
X0125002Y0041122D01*
X0125065Y0041107D01*
X0125127Y0041088D01*
X0125188Y0041066D01*
X0125247Y0041041D01*
X0125306Y0041012D01*
X0125362Y0040980D01*
X0125417Y0040946D01*
X0125470Y0040908D01*
X0124422Y0039942D02*
X0124382Y0039968D01*
X0124343Y0039997D01*
X0124306Y0040029D01*
X0124272Y0040064D01*
X0124241Y0040101D01*
X0124212Y0040140D01*
X0124186Y0040181D01*
X0124164Y0040224D01*
X0124145Y0040269D01*
X0124129Y0040315D01*
X0124116Y0040361D01*
X0124107Y0040409D01*
X0124102Y0040457D01*
X0124100Y0040506D01*
X0124101Y0040506D02*
X0124103Y0040554D01*
X0124108Y0040602D01*
X0124117Y0040649D01*
X0124130Y0040696D01*
X0124146Y0040741D01*
X0124165Y0040785D01*
X0124187Y0040828D01*
X0124213Y0040869D01*
X0124242Y0040908D01*
X0124273Y0040944D01*
X0124307Y0040978D01*
X0124343Y0041010D01*
X0124382Y0041038D01*
X0124423Y0041064D01*
X0124466Y0041086D01*
X0124510Y0041105D01*
X0124555Y0041121D01*
X0124602Y0041134D01*
X0124649Y0041143D01*
X0124697Y0041148D01*
X0124745Y0041150D01*
X0124021Y0038653D02*
X0124072Y0038603D01*
X0124127Y0038556D01*
X0124183Y0038513D01*
X0124242Y0038472D01*
X0124303Y0038434D01*
X0124366Y0038400D01*
X0124431Y0038369D01*
X0124497Y0038341D01*
X0124564Y0038317D01*
X0124633Y0038297D01*
X0124703Y0038280D01*
X0124773Y0038267D01*
X0124844Y0038258D01*
X0124915Y0038252D01*
X0124987Y0038250D01*
X0125035Y0038252D01*
X0125083Y0038257D01*
X0125130Y0038266D01*
X0125177Y0038279D01*
X0125222Y0038295D01*
X0125266Y0038314D01*
X0125309Y0038336D01*
X0125350Y0038362D01*
X0125389Y0038391D01*
X0125425Y0038422D01*
X0125459Y0038456D01*
X0125490Y0038492D01*
X0125519Y0038531D01*
X0125545Y0038572D01*
X0125567Y0038615D01*
X0125586Y0038659D01*
X0125602Y0038704D01*
X0125615Y0038751D01*
X0125624Y0038798D01*
X0125629Y0038846D01*
X0125631Y0038894D01*
X0125632Y0038894D02*
X0125630Y0038943D01*
X0125625Y0038991D01*
X0125616Y0039039D01*
X0125603Y0039085D01*
X0125587Y0039131D01*
X0125568Y0039176D01*
X0125546Y0039219D01*
X0125520Y0039260D01*
X0125491Y0039299D01*
X0125460Y0039336D01*
X0125426Y0039371D01*
X0125389Y0039403D01*
X0125350Y0039432D01*
X0125310Y0039458D01*
X0123011Y0038250D02*
X0121722Y0038250D01*
X0121722Y0041150D01*
X0123011Y0041150D01*
X0122689Y0039861D02*
X0121722Y0039861D01*
X0139395Y0035950D02*
X0139395Y0033050D01*
X0139395Y0034339D02*
X0140201Y0034339D01*
X0140362Y0034339D02*
X0141006Y0033050D01*
X0142224Y0033533D02*
X0142224Y0034339D01*
X0142224Y0034017D02*
X0143513Y0034017D01*
X0143513Y0034339D01*
X0143512Y0034339D02*
X0143510Y0034388D01*
X0143504Y0034437D01*
X0143495Y0034486D01*
X0143482Y0034533D01*
X0143465Y0034580D01*
X0143445Y0034625D01*
X0143422Y0034668D01*
X0143395Y0034710D01*
X0143365Y0034749D01*
X0143332Y0034786D01*
X0143296Y0034820D01*
X0143258Y0034851D01*
X0143218Y0034880D01*
X0143176Y0034905D01*
X0143131Y0034927D01*
X0143086Y0034945D01*
X0143039Y0034960D01*
X0142991Y0034971D01*
X0142942Y0034979D01*
X0142893Y0034983D01*
X0142843Y0034983D01*
X0142794Y0034979D01*
X0142745Y0034971D01*
X0142697Y0034960D01*
X0142650Y0034945D01*
X0142605Y0034927D01*
X0142560Y0034905D01*
X0142518Y0034880D01*
X0142478Y0034851D01*
X0142440Y0034820D01*
X0142404Y0034786D01*
X0142371Y0034749D01*
X0142341Y0034710D01*
X0142314Y0034668D01*
X0142291Y0034625D01*
X0142271Y0034580D01*
X0142254Y0034533D01*
X0142241Y0034486D01*
X0142232Y0034437D01*
X0142226Y0034388D01*
X0142224Y0034339D01*
X0142224Y0033533D02*
X0142226Y0033491D01*
X0142231Y0033449D01*
X0142240Y0033408D01*
X0142253Y0033368D01*
X0142269Y0033329D01*
X0142289Y0033292D01*
X0142311Y0033256D01*
X0142337Y0033223D01*
X0142365Y0033191D01*
X0142397Y0033163D01*
X0142430Y0033137D01*
X0142466Y0033115D01*
X0142503Y0033095D01*
X0142542Y0033079D01*
X0142582Y0033066D01*
X0142623Y0033057D01*
X0142665Y0033052D01*
X0142707Y0033050D01*
X0143513Y0033050D01*
X0145268Y0033050D02*
X0145913Y0034983D01*
X0144624Y0034983D02*
X0145268Y0033050D01*
X0146916Y0033050D02*
X0147077Y0033050D01*
X0147077Y0033211D01*
X0146916Y0033211D01*
X0146916Y0033050D01*
X0148207Y0033050D02*
X0149818Y0033050D01*
X0150948Y0033050D02*
X0151109Y0033050D01*
X0151109Y0033211D01*
X0150948Y0033211D01*
X0150948Y0033050D01*
X0152239Y0033050D02*
X0153850Y0033050D01*
X0153044Y0033050D02*
X0153044Y0035950D01*
X0152239Y0035306D01*
X0149576Y0034661D02*
X0148207Y0033050D01*
X0148207Y0035306D02*
X0148227Y0035361D01*
X0148250Y0035415D01*
X0148277Y0035467D01*
X0148307Y0035517D01*
X0148339Y0035566D01*
X0148375Y0035612D01*
X0148414Y0035656D01*
X0148455Y0035697D01*
X0148499Y0035736D01*
X0148545Y0035772D01*
X0148594Y0035805D01*
X0148644Y0035835D01*
X0148696Y0035861D01*
X0148750Y0035885D01*
X0148805Y0035904D01*
X0148861Y0035921D01*
X0148918Y0035933D01*
X0148976Y0035943D01*
X0149034Y0035948D01*
X0149093Y0035950D01*
X0149145Y0035948D01*
X0149196Y0035943D01*
X0149247Y0035933D01*
X0149297Y0035921D01*
X0149346Y0035904D01*
X0149394Y0035884D01*
X0149440Y0035861D01*
X0149485Y0035835D01*
X0149527Y0035805D01*
X0149568Y0035773D01*
X0149606Y0035738D01*
X0149641Y0035700D01*
X0149673Y0035659D01*
X0149703Y0035617D01*
X0149729Y0035572D01*
X0149752Y0035526D01*
X0149772Y0035478D01*
X0149789Y0035429D01*
X0149801Y0035379D01*
X0149811Y0035328D01*
X0149816Y0035277D01*
X0149818Y0035225D01*
X0149816Y0035172D01*
X0149811Y0035120D01*
X0149802Y0035068D01*
X0149790Y0035017D01*
X0149774Y0034967D01*
X0149755Y0034918D01*
X0149733Y0034871D01*
X0149707Y0034825D01*
X0149679Y0034780D01*
X0149647Y0034738D01*
X0149613Y0034698D01*
X0149576Y0034661D01*
X0140201Y0034338D02*
X0140256Y0034340D01*
X0140311Y0034346D01*
X0140365Y0034355D01*
X0140418Y0034368D01*
X0140471Y0034385D01*
X0140522Y0034405D01*
X0140572Y0034428D01*
X0140620Y0034455D01*
X0140666Y0034486D01*
X0140710Y0034519D01*
X0140751Y0034555D01*
X0140790Y0034594D01*
X0140826Y0034635D01*
X0140859Y0034679D01*
X0140890Y0034725D01*
X0140917Y0034773D01*
X0140940Y0034823D01*
X0140960Y0034874D01*
X0140977Y0034927D01*
X0140990Y0034980D01*
X0140999Y0035034D01*
X0141005Y0035089D01*
X0141007Y0035144D01*
X0141005Y0035199D01*
X0140999Y0035254D01*
X0140990Y0035308D01*
X0140977Y0035361D01*
X0140960Y0035414D01*
X0140940Y0035465D01*
X0140917Y0035515D01*
X0140890Y0035563D01*
X0140859Y0035609D01*
X0140826Y0035653D01*
X0140790Y0035694D01*
X0140751Y0035733D01*
X0140710Y0035769D01*
X0140666Y0035802D01*
X0140620Y0035833D01*
X0140572Y0035860D01*
X0140522Y0035883D01*
X0140471Y0035903D01*
X0140418Y0035920D01*
X0140365Y0035933D01*
X0140311Y0035942D01*
X0140256Y0035948D01*
X0140201Y0035950D01*
X0139395Y0035950D01*
X0164666Y0038250D02*
X0164666Y0040183D01*
X0164746Y0040989D02*
X0164585Y0040989D01*
X0164585Y0041150D01*
X0164746Y0041150D01*
X0164746Y0040989D01*
X0165845Y0039539D02*
X0165845Y0038733D01*
X0165846Y0038733D02*
X0165848Y0038691D01*
X0165853Y0038649D01*
X0165862Y0038608D01*
X0165875Y0038568D01*
X0165891Y0038529D01*
X0165911Y0038492D01*
X0165933Y0038456D01*
X0165959Y0038423D01*
X0165987Y0038391D01*
X0166019Y0038363D01*
X0166052Y0038337D01*
X0166088Y0038315D01*
X0166125Y0038295D01*
X0166164Y0038279D01*
X0166204Y0038266D01*
X0166245Y0038257D01*
X0166287Y0038252D01*
X0166329Y0038250D01*
X0167134Y0038250D01*
X0167134Y0039217D02*
X0165845Y0039217D01*
X0165846Y0039539D02*
X0165848Y0039588D01*
X0165854Y0039637D01*
X0165863Y0039686D01*
X0165876Y0039733D01*
X0165893Y0039780D01*
X0165913Y0039825D01*
X0165936Y0039868D01*
X0165963Y0039910D01*
X0165993Y0039949D01*
X0166026Y0039986D01*
X0166062Y0040020D01*
X0166100Y0040051D01*
X0166140Y0040080D01*
X0166182Y0040105D01*
X0166227Y0040127D01*
X0166272Y0040145D01*
X0166319Y0040160D01*
X0166367Y0040171D01*
X0166416Y0040179D01*
X0166465Y0040183D01*
X0166515Y0040183D01*
X0166564Y0040179D01*
X0166613Y0040171D01*
X0166661Y0040160D01*
X0166708Y0040145D01*
X0166753Y0040127D01*
X0166798Y0040105D01*
X0166840Y0040080D01*
X0166880Y0040051D01*
X0166918Y0040020D01*
X0166954Y0039986D01*
X0166987Y0039949D01*
X0167017Y0039910D01*
X0167044Y0039868D01*
X0167067Y0039825D01*
X0167087Y0039780D01*
X0167104Y0039733D01*
X0167117Y0039686D01*
X0167126Y0039637D01*
X0167132Y0039588D01*
X0167134Y0039539D01*
X0167134Y0039217D01*
X0168374Y0038733D02*
X0168374Y0041150D01*
X0169861Y0039700D02*
X0169861Y0038733D01*
X0169863Y0038691D01*
X0169868Y0038649D01*
X0169877Y0038608D01*
X0169890Y0038568D01*
X0169906Y0038529D01*
X0169926Y0038492D01*
X0169948Y0038456D01*
X0169974Y0038423D01*
X0170002Y0038391D01*
X0170034Y0038363D01*
X0170067Y0038337D01*
X0170103Y0038315D01*
X0170140Y0038295D01*
X0170179Y0038279D01*
X0170219Y0038266D01*
X0170260Y0038257D01*
X0170302Y0038252D01*
X0170344Y0038250D01*
X0171150Y0038250D01*
X0171150Y0041150D01*
X0171150Y0040183D02*
X0170344Y0040183D01*
X0170302Y0040181D01*
X0170260Y0040176D01*
X0170219Y0040167D01*
X0170179Y0040154D01*
X0170140Y0040138D01*
X0170103Y0040118D01*
X0170067Y0040096D01*
X0170034Y0040070D01*
X0170002Y0040042D01*
X0169974Y0040010D01*
X0169948Y0039977D01*
X0169926Y0039942D01*
X0169906Y0039904D01*
X0169890Y0039865D01*
X0169877Y0039825D01*
X0169868Y0039784D01*
X0169863Y0039742D01*
X0169861Y0039700D01*
X0168857Y0038250D02*
X0168815Y0038252D01*
X0168773Y0038257D01*
X0168732Y0038266D01*
X0168692Y0038279D01*
X0168653Y0038295D01*
X0168616Y0038315D01*
X0168580Y0038337D01*
X0168547Y0038363D01*
X0168515Y0038391D01*
X0168487Y0038423D01*
X0168461Y0038456D01*
X0168439Y0038492D01*
X0168419Y0038529D01*
X0168403Y0038568D01*
X0168390Y0038608D01*
X0168381Y0038649D01*
X0168376Y0038691D01*
X0168374Y0038733D01*
X0193950Y0088950D02*
X0193950Y0091850D01*
X0194756Y0091850D01*
X0194811Y0091848D01*
X0194866Y0091842D01*
X0194920Y0091833D01*
X0194973Y0091820D01*
X0195026Y0091803D01*
X0195077Y0091783D01*
X0195127Y0091760D01*
X0195175Y0091733D01*
X0195221Y0091702D01*
X0195265Y0091669D01*
X0195306Y0091633D01*
X0195345Y0091594D01*
X0195381Y0091553D01*
X0195414Y0091509D01*
X0195445Y0091463D01*
X0195472Y0091415D01*
X0195495Y0091365D01*
X0195515Y0091314D01*
X0195532Y0091261D01*
X0195545Y0091208D01*
X0195554Y0091154D01*
X0195560Y0091099D01*
X0195562Y0091044D01*
X0195560Y0090989D01*
X0195554Y0090934D01*
X0195545Y0090880D01*
X0195532Y0090827D01*
X0195515Y0090774D01*
X0195495Y0090723D01*
X0195472Y0090673D01*
X0195445Y0090625D01*
X0195414Y0090579D01*
X0195381Y0090535D01*
X0195345Y0090494D01*
X0195306Y0090455D01*
X0195265Y0090419D01*
X0195221Y0090386D01*
X0195175Y0090355D01*
X0195127Y0090328D01*
X0195077Y0090305D01*
X0195026Y0090285D01*
X0194973Y0090268D01*
X0194920Y0090255D01*
X0194866Y0090246D01*
X0194811Y0090240D01*
X0194756Y0090238D01*
X0194756Y0090239D02*
X0193950Y0090239D01*
X0194917Y0090239D02*
X0195561Y0088950D01*
X0196810Y0088950D02*
X0198421Y0088950D01*
X0197615Y0088950D02*
X0197615Y0091850D01*
X0196810Y0091206D01*
X0198693Y0095299D02*
X0197233Y0095980D01*
X0197188Y0096003D01*
X0197145Y0096030D01*
X0197104Y0096060D01*
X0197066Y0096093D01*
X0197030Y0096129D01*
X0196998Y0096168D01*
X0196968Y0096209D01*
X0196942Y0096252D01*
X0196919Y0096297D01*
X0196900Y0096344D01*
X0196884Y0096392D01*
X0196873Y0096441D01*
X0196865Y0096491D01*
X0196861Y0096542D01*
X0196862Y0096592D01*
X0196866Y0096642D01*
X0196874Y0096692D01*
X0196886Y0096742D01*
X0196902Y0096790D01*
X0196921Y0096836D01*
X0197193Y0097420D01*
X0198251Y0098163D02*
X0198007Y0099165D01*
X0200636Y0097940D01*
X0200295Y0097210D02*
X0200976Y0098670D01*
X0199822Y0096194D02*
X0199549Y0095610D01*
X0199549Y0095611D02*
X0199526Y0095566D01*
X0199499Y0095523D01*
X0199469Y0095482D01*
X0199436Y0095444D01*
X0199400Y0095408D01*
X0199361Y0095376D01*
X0199320Y0095346D01*
X0199277Y0095320D01*
X0199232Y0095297D01*
X0199185Y0095278D01*
X0199137Y0095262D01*
X0199088Y0095251D01*
X0199038Y0095243D01*
X0198987Y0095239D01*
X0198937Y0095240D01*
X0198887Y0095244D01*
X0198837Y0095252D01*
X0198788Y0095264D01*
X0198739Y0095280D01*
X0198693Y0095299D01*
X0191201Y0100439D02*
X0190234Y0100439D01*
X0191201Y0100439D02*
X0191199Y0100369D01*
X0191193Y0100300D01*
X0191184Y0100230D01*
X0191171Y0100162D01*
X0191154Y0100094D01*
X0191134Y0100027D01*
X0191109Y0099962D01*
X0191082Y0099898D01*
X0191051Y0099835D01*
X0191016Y0099774D01*
X0190979Y0099716D01*
X0190938Y0099659D01*
X0190894Y0099605D01*
X0190848Y0099553D01*
X0190798Y0099503D01*
X0190746Y0099457D01*
X0190692Y0099413D01*
X0190635Y0099372D01*
X0190577Y0099335D01*
X0190516Y0099300D01*
X0190453Y0099269D01*
X0190389Y0099242D01*
X0190324Y0099217D01*
X0190257Y0099197D01*
X0190189Y0099180D01*
X0190121Y0099167D01*
X0190051Y0099158D01*
X0189982Y0099152D01*
X0189912Y0099150D01*
X0188321Y0099150D02*
X0186710Y0099150D01*
X0187516Y0099150D02*
X0187516Y0102050D01*
X0186710Y0101406D01*
X0183830Y0100600D02*
X0183832Y0100510D01*
X0183837Y0100419D01*
X0183845Y0100330D01*
X0183857Y0100240D01*
X0183873Y0100151D01*
X0183891Y0100063D01*
X0183913Y0099975D01*
X0183938Y0099888D01*
X0183967Y0099803D01*
X0183999Y0099718D01*
X0184034Y0099635D01*
X0184072Y0099553D01*
X0183991Y0099794D02*
X0185280Y0101406D01*
X0185200Y0101647D02*
X0185183Y0101690D01*
X0185163Y0101732D01*
X0185140Y0101772D01*
X0185114Y0101810D01*
X0185085Y0101846D01*
X0185053Y0101880D01*
X0185019Y0101911D01*
X0184982Y0101939D01*
X0184944Y0101964D01*
X0184903Y0101987D01*
X0184861Y0102006D01*
X0184818Y0102022D01*
X0184773Y0102034D01*
X0184728Y0102043D01*
X0184682Y0102048D01*
X0184636Y0102050D01*
X0184590Y0102048D01*
X0184544Y0102043D01*
X0184499Y0102034D01*
X0184454Y0102022D01*
X0184411Y0102006D01*
X0184369Y0101987D01*
X0184328Y0101964D01*
X0184290Y0101939D01*
X0184253Y0101911D01*
X0184219Y0101880D01*
X0184187Y0101846D01*
X0184158Y0101810D01*
X0184132Y0101772D01*
X0184109Y0101732D01*
X0184089Y0101690D01*
X0184072Y0101647D01*
X0185199Y0101647D02*
X0185237Y0101565D01*
X0185272Y0101482D01*
X0185304Y0101397D01*
X0185333Y0101312D01*
X0185358Y0101225D01*
X0185380Y0101137D01*
X0185398Y0101049D01*
X0185414Y0100960D01*
X0185426Y0100870D01*
X0185434Y0100781D01*
X0185439Y0100690D01*
X0185441Y0100600D01*
X0183830Y0100600D02*
X0183832Y0100690D01*
X0183837Y0100781D01*
X0183845Y0100870D01*
X0183857Y0100960D01*
X0183873Y0101049D01*
X0183891Y0101137D01*
X0183913Y0101225D01*
X0183938Y0101312D01*
X0183967Y0101397D01*
X0183999Y0101482D01*
X0184034Y0101565D01*
X0184072Y0101647D01*
X0185441Y0100600D02*
X0185439Y0100510D01*
X0185434Y0100419D01*
X0185426Y0100330D01*
X0185414Y0100240D01*
X0185398Y0100151D01*
X0185380Y0100063D01*
X0185358Y0099975D01*
X0185333Y0099888D01*
X0185304Y0099803D01*
X0185272Y0099718D01*
X0185237Y0099635D01*
X0185199Y0099553D01*
X0185200Y0099553D02*
X0185183Y0099510D01*
X0185163Y0099468D01*
X0185140Y0099428D01*
X0185114Y0099390D01*
X0185085Y0099354D01*
X0185053Y0099320D01*
X0185019Y0099289D01*
X0184982Y0099261D01*
X0184944Y0099236D01*
X0184903Y0099213D01*
X0184861Y0099194D01*
X0184818Y0099178D01*
X0184773Y0099166D01*
X0184728Y0099157D01*
X0184682Y0099152D01*
X0184636Y0099150D01*
X0184590Y0099152D01*
X0184544Y0099157D01*
X0184499Y0099166D01*
X0184454Y0099178D01*
X0184411Y0099194D01*
X0184369Y0099213D01*
X0184328Y0099236D01*
X0184290Y0099261D01*
X0184253Y0099289D01*
X0184219Y0099320D01*
X0184187Y0099354D01*
X0184158Y0099390D01*
X0184132Y0099428D01*
X0184109Y0099468D01*
X0184089Y0099510D01*
X0184072Y0099553D01*
X0182561Y0099150D02*
X0180950Y0099150D01*
X0182319Y0100761D01*
X0181836Y0102050D02*
X0181777Y0102048D01*
X0181719Y0102043D01*
X0181661Y0102033D01*
X0181604Y0102021D01*
X0181548Y0102004D01*
X0181493Y0101985D01*
X0181439Y0101961D01*
X0181387Y0101935D01*
X0181337Y0101905D01*
X0181288Y0101872D01*
X0181242Y0101836D01*
X0181198Y0101797D01*
X0181157Y0101756D01*
X0181118Y0101712D01*
X0181082Y0101666D01*
X0181050Y0101617D01*
X0181020Y0101567D01*
X0180993Y0101515D01*
X0180970Y0101461D01*
X0180950Y0101406D01*
X0182319Y0100761D02*
X0182356Y0100798D01*
X0182390Y0100838D01*
X0182422Y0100880D01*
X0182450Y0100925D01*
X0182476Y0100971D01*
X0182498Y0101018D01*
X0182517Y0101067D01*
X0182533Y0101117D01*
X0182545Y0101168D01*
X0182554Y0101220D01*
X0182559Y0101272D01*
X0182561Y0101325D01*
X0182559Y0101377D01*
X0182554Y0101428D01*
X0182544Y0101479D01*
X0182532Y0101529D01*
X0182515Y0101578D01*
X0182495Y0101626D01*
X0182472Y0101672D01*
X0182446Y0101717D01*
X0182416Y0101759D01*
X0182384Y0101800D01*
X0182349Y0101838D01*
X0182311Y0101873D01*
X0182270Y0101905D01*
X0182228Y0101935D01*
X0182183Y0101961D01*
X0182137Y0101984D01*
X0182089Y0102004D01*
X0182040Y0102021D01*
X0181990Y0102033D01*
X0181939Y0102043D01*
X0181888Y0102048D01*
X0181836Y0102050D01*
X0181342Y0103950D02*
X0181342Y0105400D01*
X0181341Y0105400D02*
X0181339Y0105442D01*
X0181334Y0105484D01*
X0181325Y0105525D01*
X0181312Y0105565D01*
X0181296Y0105604D01*
X0181276Y0105642D01*
X0181254Y0105677D01*
X0181228Y0105710D01*
X0181200Y0105742D01*
X0181168Y0105770D01*
X0181135Y0105796D01*
X0181100Y0105818D01*
X0181062Y0105838D01*
X0181023Y0105854D01*
X0180983Y0105867D01*
X0180942Y0105876D01*
X0180900Y0105881D01*
X0180858Y0105883D01*
X0180053Y0105883D01*
X0180053Y0103950D01*
X0178654Y0103950D02*
X0178654Y0105400D01*
X0178653Y0105400D02*
X0178651Y0105442D01*
X0178646Y0105484D01*
X0178637Y0105525D01*
X0178624Y0105565D01*
X0178608Y0105604D01*
X0178588Y0105642D01*
X0178566Y0105677D01*
X0178540Y0105710D01*
X0178512Y0105742D01*
X0178480Y0105770D01*
X0178447Y0105796D01*
X0178412Y0105818D01*
X0178374Y0105838D01*
X0178335Y0105854D01*
X0178295Y0105867D01*
X0178254Y0105876D01*
X0178212Y0105881D01*
X0178170Y0105883D01*
X0177365Y0105883D01*
X0177365Y0106850D02*
X0177365Y0103950D01*
X0176192Y0103950D02*
X0175548Y0103950D01*
X0175506Y0103952D01*
X0175464Y0103957D01*
X0175423Y0103966D01*
X0175383Y0103979D01*
X0175344Y0103995D01*
X0175307Y0104015D01*
X0175271Y0104037D01*
X0175238Y0104063D01*
X0175206Y0104091D01*
X0175178Y0104123D01*
X0175152Y0104156D01*
X0175130Y0104192D01*
X0175110Y0104229D01*
X0175094Y0104268D01*
X0175081Y0104308D01*
X0175072Y0104349D01*
X0175067Y0104391D01*
X0175065Y0104433D01*
X0175064Y0104433D02*
X0175064Y0105400D01*
X0175065Y0105400D02*
X0175067Y0105442D01*
X0175072Y0105484D01*
X0175081Y0105525D01*
X0175094Y0105565D01*
X0175110Y0105604D01*
X0175130Y0105642D01*
X0175152Y0105677D01*
X0175178Y0105710D01*
X0175206Y0105742D01*
X0175238Y0105770D01*
X0175271Y0105796D01*
X0175307Y0105818D01*
X0175344Y0105838D01*
X0175383Y0105854D01*
X0175423Y0105867D01*
X0175464Y0105876D01*
X0175506Y0105881D01*
X0175548Y0105883D01*
X0176192Y0105883D01*
X0173854Y0105239D02*
X0173854Y0104917D01*
X0172565Y0104917D01*
X0172565Y0105239D02*
X0172565Y0104433D01*
X0172567Y0104391D01*
X0172572Y0104349D01*
X0172581Y0104308D01*
X0172594Y0104268D01*
X0172610Y0104229D01*
X0172630Y0104192D01*
X0172652Y0104156D01*
X0172678Y0104123D01*
X0172706Y0104091D01*
X0172738Y0104063D01*
X0172771Y0104037D01*
X0172807Y0104015D01*
X0172844Y0103995D01*
X0172883Y0103979D01*
X0172923Y0103966D01*
X0172964Y0103957D01*
X0173006Y0103952D01*
X0173048Y0103950D01*
X0173854Y0103950D01*
X0173853Y0105239D02*
X0173851Y0105288D01*
X0173845Y0105337D01*
X0173836Y0105386D01*
X0173823Y0105433D01*
X0173806Y0105480D01*
X0173786Y0105525D01*
X0173763Y0105568D01*
X0173736Y0105610D01*
X0173706Y0105649D01*
X0173673Y0105686D01*
X0173637Y0105720D01*
X0173599Y0105751D01*
X0173559Y0105780D01*
X0173517Y0105805D01*
X0173472Y0105827D01*
X0173427Y0105845D01*
X0173380Y0105860D01*
X0173332Y0105871D01*
X0173283Y0105879D01*
X0173234Y0105883D01*
X0173184Y0105883D01*
X0173135Y0105879D01*
X0173086Y0105871D01*
X0173038Y0105860D01*
X0172991Y0105845D01*
X0172946Y0105827D01*
X0172901Y0105805D01*
X0172859Y0105780D01*
X0172819Y0105751D01*
X0172781Y0105720D01*
X0172745Y0105686D01*
X0172712Y0105649D01*
X0172682Y0105610D01*
X0172655Y0105568D01*
X0172632Y0105525D01*
X0172612Y0105480D01*
X0172595Y0105433D01*
X0172582Y0105386D01*
X0172573Y0105337D01*
X0172567Y0105288D01*
X0172565Y0105239D01*
X0171459Y0105883D02*
X0170493Y0105883D01*
X0169561Y0105883D02*
X0169561Y0103950D01*
X0168569Y0103950D02*
X0168527Y0103952D01*
X0168485Y0103957D01*
X0168444Y0103966D01*
X0168404Y0103979D01*
X0168365Y0103995D01*
X0168328Y0104015D01*
X0168292Y0104037D01*
X0168259Y0104063D01*
X0168227Y0104091D01*
X0168199Y0104123D01*
X0168173Y0104156D01*
X0168151Y0104192D01*
X0168131Y0104229D01*
X0168115Y0104268D01*
X0168102Y0104308D01*
X0168093Y0104349D01*
X0168088Y0104391D01*
X0168086Y0104433D01*
X0168085Y0104433D02*
X0168085Y0106850D01*
X0169481Y0106850D02*
X0169642Y0106850D01*
X0169642Y0106689D01*
X0169481Y0106689D01*
X0169481Y0106850D01*
X0170815Y0106850D02*
X0170815Y0104433D01*
X0170817Y0104391D01*
X0170822Y0104349D01*
X0170831Y0104308D01*
X0170844Y0104268D01*
X0170860Y0104229D01*
X0170880Y0104192D01*
X0170902Y0104156D01*
X0170928Y0104123D01*
X0170956Y0104091D01*
X0170988Y0104063D01*
X0171021Y0104037D01*
X0171057Y0104015D01*
X0171094Y0103995D01*
X0171133Y0103979D01*
X0171173Y0103966D01*
X0171214Y0103957D01*
X0171256Y0103952D01*
X0171298Y0103950D01*
X0171459Y0103950D01*
X0166846Y0104594D02*
X0166846Y0105239D01*
X0166845Y0105239D02*
X0166843Y0105288D01*
X0166837Y0105337D01*
X0166828Y0105386D01*
X0166815Y0105433D01*
X0166798Y0105480D01*
X0166778Y0105525D01*
X0166755Y0105568D01*
X0166728Y0105610D01*
X0166698Y0105649D01*
X0166665Y0105686D01*
X0166629Y0105720D01*
X0166591Y0105751D01*
X0166551Y0105780D01*
X0166509Y0105805D01*
X0166464Y0105827D01*
X0166419Y0105845D01*
X0166372Y0105860D01*
X0166324Y0105871D01*
X0166275Y0105879D01*
X0166226Y0105883D01*
X0166176Y0105883D01*
X0166127Y0105879D01*
X0166078Y0105871D01*
X0166030Y0105860D01*
X0165983Y0105845D01*
X0165938Y0105827D01*
X0165893Y0105805D01*
X0165851Y0105780D01*
X0165811Y0105751D01*
X0165773Y0105720D01*
X0165737Y0105686D01*
X0165704Y0105649D01*
X0165674Y0105610D01*
X0165647Y0105568D01*
X0165624Y0105525D01*
X0165604Y0105480D01*
X0165587Y0105433D01*
X0165574Y0105386D01*
X0165565Y0105337D01*
X0165559Y0105288D01*
X0165557Y0105239D01*
X0165557Y0104594D01*
X0165559Y0104545D01*
X0165565Y0104496D01*
X0165574Y0104447D01*
X0165587Y0104400D01*
X0165604Y0104353D01*
X0165624Y0104308D01*
X0165647Y0104265D01*
X0165674Y0104223D01*
X0165704Y0104184D01*
X0165737Y0104147D01*
X0165773Y0104113D01*
X0165811Y0104082D01*
X0165851Y0104053D01*
X0165893Y0104028D01*
X0165938Y0104006D01*
X0165983Y0103988D01*
X0166030Y0103973D01*
X0166078Y0103962D01*
X0166127Y0103954D01*
X0166176Y0103950D01*
X0166226Y0103950D01*
X0166275Y0103954D01*
X0166324Y0103962D01*
X0166372Y0103973D01*
X0166419Y0103988D01*
X0166464Y0104006D01*
X0166509Y0104028D01*
X0166551Y0104053D01*
X0166591Y0104082D01*
X0166629Y0104113D01*
X0166665Y0104147D01*
X0166698Y0104184D01*
X0166728Y0104223D01*
X0166755Y0104265D01*
X0166778Y0104308D01*
X0166798Y0104353D01*
X0166815Y0104400D01*
X0166828Y0104447D01*
X0166837Y0104496D01*
X0166843Y0104545D01*
X0166845Y0104594D01*
X0163656Y0105239D02*
X0162850Y0105239D01*
X0163656Y0105238D02*
X0163711Y0105240D01*
X0163766Y0105246D01*
X0163820Y0105255D01*
X0163873Y0105268D01*
X0163926Y0105285D01*
X0163977Y0105305D01*
X0164027Y0105328D01*
X0164075Y0105355D01*
X0164121Y0105386D01*
X0164165Y0105419D01*
X0164206Y0105455D01*
X0164245Y0105494D01*
X0164281Y0105535D01*
X0164314Y0105579D01*
X0164345Y0105625D01*
X0164372Y0105673D01*
X0164395Y0105723D01*
X0164415Y0105774D01*
X0164432Y0105827D01*
X0164445Y0105880D01*
X0164454Y0105934D01*
X0164460Y0105989D01*
X0164462Y0106044D01*
X0164460Y0106099D01*
X0164454Y0106154D01*
X0164445Y0106208D01*
X0164432Y0106261D01*
X0164415Y0106314D01*
X0164395Y0106365D01*
X0164372Y0106415D01*
X0164345Y0106463D01*
X0164314Y0106509D01*
X0164281Y0106553D01*
X0164245Y0106594D01*
X0164206Y0106633D01*
X0164165Y0106669D01*
X0164121Y0106702D01*
X0164075Y0106733D01*
X0164027Y0106760D01*
X0163977Y0106783D01*
X0163926Y0106803D01*
X0163873Y0106820D01*
X0163820Y0106833D01*
X0163766Y0106842D01*
X0163711Y0106848D01*
X0163656Y0106850D01*
X0162850Y0106850D01*
X0162850Y0103950D01*
X0182617Y0103950D02*
X0182617Y0105883D01*
X0182537Y0106689D02*
X0182698Y0106689D01*
X0182698Y0106850D01*
X0182537Y0106850D01*
X0182537Y0106689D01*
X0183930Y0106850D02*
X0183930Y0103950D01*
X0183930Y0104917D02*
X0185219Y0105883D01*
X0184494Y0105319D02*
X0185219Y0103950D01*
X0186840Y0103950D02*
X0187565Y0103950D01*
X0187565Y0105400D01*
X0187565Y0105078D02*
X0186840Y0105078D01*
X0187565Y0105400D02*
X0187563Y0105442D01*
X0187558Y0105484D01*
X0187549Y0105525D01*
X0187536Y0105565D01*
X0187520Y0105604D01*
X0187500Y0105642D01*
X0187478Y0105677D01*
X0187452Y0105710D01*
X0187424Y0105742D01*
X0187392Y0105770D01*
X0187359Y0105796D01*
X0187324Y0105818D01*
X0187286Y0105838D01*
X0187247Y0105854D01*
X0187207Y0105867D01*
X0187166Y0105876D01*
X0187124Y0105881D01*
X0187082Y0105883D01*
X0186438Y0105883D01*
X0186840Y0105078D02*
X0186793Y0105076D01*
X0186747Y0105070D01*
X0186702Y0105061D01*
X0186657Y0105047D01*
X0186613Y0105030D01*
X0186572Y0105010D01*
X0186532Y0104986D01*
X0186494Y0104959D01*
X0186458Y0104929D01*
X0186425Y0104896D01*
X0186395Y0104860D01*
X0186368Y0104822D01*
X0186344Y0104782D01*
X0186324Y0104741D01*
X0186307Y0104697D01*
X0186293Y0104652D01*
X0186284Y0104607D01*
X0186278Y0104561D01*
X0186276Y0104514D01*
X0186278Y0104467D01*
X0186284Y0104421D01*
X0186293Y0104376D01*
X0186307Y0104331D01*
X0186324Y0104287D01*
X0186344Y0104246D01*
X0186368Y0104206D01*
X0186395Y0104168D01*
X0186425Y0104132D01*
X0186458Y0104099D01*
X0186494Y0104069D01*
X0186532Y0104042D01*
X0186572Y0104018D01*
X0186613Y0103998D01*
X0186657Y0103981D01*
X0186702Y0103967D01*
X0186747Y0103958D01*
X0186793Y0103952D01*
X0186840Y0103950D01*
X0190594Y0103950D02*
X0190594Y0106850D01*
X0191399Y0106850D01*
X0191454Y0106848D01*
X0191509Y0106842D01*
X0191563Y0106833D01*
X0191616Y0106820D01*
X0191669Y0106803D01*
X0191720Y0106783D01*
X0191770Y0106760D01*
X0191818Y0106733D01*
X0191864Y0106702D01*
X0191908Y0106669D01*
X0191949Y0106633D01*
X0191988Y0106594D01*
X0192024Y0106553D01*
X0192057Y0106509D01*
X0192088Y0106463D01*
X0192115Y0106415D01*
X0192138Y0106365D01*
X0192158Y0106314D01*
X0192175Y0106261D01*
X0192188Y0106208D01*
X0192197Y0106154D01*
X0192203Y0106099D01*
X0192205Y0106044D01*
X0192203Y0105989D01*
X0192197Y0105934D01*
X0192188Y0105880D01*
X0192175Y0105827D01*
X0192158Y0105774D01*
X0192138Y0105723D01*
X0192115Y0105673D01*
X0192088Y0105625D01*
X0192057Y0105579D01*
X0192024Y0105535D01*
X0191988Y0105494D01*
X0191949Y0105455D01*
X0191908Y0105419D01*
X0191864Y0105386D01*
X0191818Y0105355D01*
X0191770Y0105328D01*
X0191720Y0105305D01*
X0191669Y0105285D01*
X0191616Y0105268D01*
X0191563Y0105255D01*
X0191509Y0105246D01*
X0191454Y0105240D01*
X0191399Y0105238D01*
X0191399Y0105239D02*
X0190594Y0105239D01*
X0193301Y0105239D02*
X0193301Y0104594D01*
X0193303Y0104545D01*
X0193309Y0104496D01*
X0193318Y0104447D01*
X0193331Y0104400D01*
X0193348Y0104353D01*
X0193368Y0104308D01*
X0193391Y0104265D01*
X0193418Y0104223D01*
X0193448Y0104184D01*
X0193481Y0104147D01*
X0193517Y0104113D01*
X0193555Y0104082D01*
X0193595Y0104053D01*
X0193637Y0104028D01*
X0193682Y0104006D01*
X0193727Y0103988D01*
X0193774Y0103973D01*
X0193822Y0103962D01*
X0193871Y0103954D01*
X0193920Y0103950D01*
X0193970Y0103950D01*
X0194019Y0103954D01*
X0194068Y0103962D01*
X0194116Y0103973D01*
X0194163Y0103988D01*
X0194208Y0104006D01*
X0194253Y0104028D01*
X0194295Y0104053D01*
X0194335Y0104082D01*
X0194373Y0104113D01*
X0194409Y0104147D01*
X0194442Y0104184D01*
X0194472Y0104223D01*
X0194499Y0104265D01*
X0194522Y0104308D01*
X0194542Y0104353D01*
X0194559Y0104400D01*
X0194572Y0104447D01*
X0194581Y0104496D01*
X0194587Y0104545D01*
X0194589Y0104594D01*
X0194590Y0104594D02*
X0194590Y0105239D01*
X0194589Y0105239D02*
X0194587Y0105288D01*
X0194581Y0105337D01*
X0194572Y0105386D01*
X0194559Y0105433D01*
X0194542Y0105480D01*
X0194522Y0105525D01*
X0194499Y0105568D01*
X0194472Y0105610D01*
X0194442Y0105649D01*
X0194409Y0105686D01*
X0194373Y0105720D01*
X0194335Y0105751D01*
X0194295Y0105780D01*
X0194253Y0105805D01*
X0194208Y0105827D01*
X0194163Y0105845D01*
X0194116Y0105860D01*
X0194068Y0105871D01*
X0194019Y0105879D01*
X0193970Y0105883D01*
X0193920Y0105883D01*
X0193871Y0105879D01*
X0193822Y0105871D01*
X0193774Y0105860D01*
X0193727Y0105845D01*
X0193682Y0105827D01*
X0193637Y0105805D01*
X0193595Y0105780D01*
X0193555Y0105751D01*
X0193517Y0105720D01*
X0193481Y0105686D01*
X0193448Y0105649D01*
X0193418Y0105610D01*
X0193391Y0105568D01*
X0193368Y0105525D01*
X0193348Y0105480D01*
X0193331Y0105433D01*
X0193318Y0105386D01*
X0193309Y0105337D01*
X0193303Y0105288D01*
X0193301Y0105239D01*
X0195701Y0105883D02*
X0196989Y0105883D01*
X0195701Y0103950D01*
X0196989Y0103950D01*
X0198197Y0103950D02*
X0198197Y0105883D01*
X0199002Y0105883D01*
X0199044Y0105881D01*
X0199086Y0105876D01*
X0199127Y0105867D01*
X0199167Y0105854D01*
X0199206Y0105838D01*
X0199244Y0105818D01*
X0199279Y0105796D01*
X0199312Y0105770D01*
X0199344Y0105742D01*
X0199372Y0105710D01*
X0199398Y0105677D01*
X0199420Y0105642D01*
X0199440Y0105604D01*
X0199456Y0105565D01*
X0199469Y0105525D01*
X0199478Y0105484D01*
X0199483Y0105442D01*
X0199485Y0105400D01*
X0199485Y0103950D01*
X0201336Y0103950D02*
X0202061Y0103950D01*
X0202061Y0105400D01*
X0202061Y0105078D02*
X0201336Y0105078D01*
X0202061Y0105400D02*
X0202059Y0105442D01*
X0202054Y0105484D01*
X0202045Y0105525D01*
X0202032Y0105565D01*
X0202016Y0105604D01*
X0201996Y0105642D01*
X0201974Y0105677D01*
X0201948Y0105710D01*
X0201920Y0105742D01*
X0201888Y0105770D01*
X0201855Y0105796D01*
X0201820Y0105818D01*
X0201782Y0105838D01*
X0201743Y0105854D01*
X0201703Y0105867D01*
X0201662Y0105876D01*
X0201620Y0105881D01*
X0201578Y0105883D01*
X0200934Y0105883D01*
X0201336Y0105078D02*
X0201289Y0105076D01*
X0201243Y0105070D01*
X0201198Y0105061D01*
X0201153Y0105047D01*
X0201109Y0105030D01*
X0201068Y0105010D01*
X0201028Y0104986D01*
X0200990Y0104959D01*
X0200954Y0104929D01*
X0200921Y0104896D01*
X0200891Y0104860D01*
X0200864Y0104822D01*
X0200840Y0104782D01*
X0200820Y0104741D01*
X0200803Y0104697D01*
X0200789Y0104652D01*
X0200780Y0104607D01*
X0200774Y0104561D01*
X0200772Y0104514D01*
X0200774Y0104467D01*
X0200780Y0104421D01*
X0200789Y0104376D01*
X0200803Y0104331D01*
X0200820Y0104287D01*
X0200840Y0104246D01*
X0200864Y0104206D01*
X0200891Y0104168D01*
X0200921Y0104132D01*
X0200954Y0104099D01*
X0200990Y0104069D01*
X0201028Y0104042D01*
X0201068Y0104018D01*
X0201109Y0103998D01*
X0201153Y0103981D01*
X0201198Y0103967D01*
X0201243Y0103958D01*
X0201289Y0103952D01*
X0201336Y0103950D01*
X0203477Y0103950D02*
X0203477Y0105883D01*
X0204282Y0105883D01*
X0204324Y0105881D01*
X0204366Y0105876D01*
X0204407Y0105867D01*
X0204447Y0105854D01*
X0204486Y0105838D01*
X0204524Y0105818D01*
X0204559Y0105796D01*
X0204592Y0105770D01*
X0204624Y0105742D01*
X0204652Y0105710D01*
X0204678Y0105677D01*
X0204700Y0105642D01*
X0204720Y0105604D01*
X0204736Y0105565D01*
X0204749Y0105525D01*
X0204758Y0105484D01*
X0204763Y0105442D01*
X0204765Y0105400D01*
X0204765Y0103950D01*
X0206471Y0105884D02*
X0206554Y0105881D01*
X0206637Y0105874D01*
X0206719Y0105863D01*
X0206801Y0105849D01*
X0206882Y0105831D01*
X0206963Y0105809D01*
X0207042Y0105784D01*
X0207120Y0105755D01*
X0207196Y0105723D01*
X0206471Y0105884D02*
X0206431Y0105883D01*
X0206391Y0105877D01*
X0206352Y0105869D01*
X0206314Y0105856D01*
X0206278Y0105840D01*
X0206243Y0105820D01*
X0206210Y0105797D01*
X0206180Y0105771D01*
X0206152Y0105743D01*
X0206127Y0105712D01*
X0206105Y0105678D01*
X0206086Y0105643D01*
X0206071Y0105606D01*
X0206060Y0105567D01*
X0206052Y0105528D01*
X0206048Y0105488D01*
X0206047Y0105449D01*
X0206051Y0105409D01*
X0206058Y0105369D01*
X0206069Y0105331D01*
X0206084Y0105294D01*
X0206102Y0105258D01*
X0206124Y0105224D01*
X0206148Y0105193D01*
X0206176Y0105164D01*
X0206206Y0105138D01*
X0206239Y0105115D01*
X0206273Y0105095D01*
X0206310Y0105078D01*
X0207116Y0104756D01*
X0207153Y0104739D01*
X0207187Y0104719D01*
X0207220Y0104696D01*
X0207250Y0104670D01*
X0207278Y0104641D01*
X0207302Y0104610D01*
X0207324Y0104576D01*
X0207342Y0104540D01*
X0207357Y0104503D01*
X0207368Y0104465D01*
X0207375Y0104425D01*
X0207379Y0104385D01*
X0207378Y0104346D01*
X0207374Y0104306D01*
X0207366Y0104267D01*
X0207355Y0104228D01*
X0207340Y0104191D01*
X0207321Y0104156D01*
X0207299Y0104122D01*
X0207274Y0104091D01*
X0207246Y0104063D01*
X0207216Y0104037D01*
X0207183Y0104014D01*
X0207148Y0103994D01*
X0207112Y0103978D01*
X0207074Y0103965D01*
X0207035Y0103957D01*
X0206995Y0103951D01*
X0206955Y0103950D01*
X0208698Y0103950D02*
X0208698Y0106850D01*
X0209987Y0105883D02*
X0208698Y0104917D01*
X0209262Y0105319D02*
X0209987Y0103950D01*
X0211608Y0103950D02*
X0212333Y0103950D01*
X0212333Y0105400D01*
X0212333Y0105078D02*
X0211608Y0105078D01*
X0212333Y0105400D02*
X0212331Y0105442D01*
X0212326Y0105484D01*
X0212317Y0105525D01*
X0212304Y0105565D01*
X0212288Y0105604D01*
X0212268Y0105642D01*
X0212246Y0105677D01*
X0212220Y0105710D01*
X0212192Y0105742D01*
X0212160Y0105770D01*
X0212127Y0105796D01*
X0212092Y0105818D01*
X0212054Y0105838D01*
X0212015Y0105854D01*
X0211975Y0105867D01*
X0211934Y0105876D01*
X0211892Y0105881D01*
X0211850Y0105883D01*
X0211206Y0105883D01*
X0211608Y0105078D02*
X0211561Y0105076D01*
X0211515Y0105070D01*
X0211470Y0105061D01*
X0211425Y0105047D01*
X0211381Y0105030D01*
X0211340Y0105010D01*
X0211300Y0104986D01*
X0211262Y0104959D01*
X0211226Y0104929D01*
X0211193Y0104896D01*
X0211163Y0104860D01*
X0211136Y0104822D01*
X0211112Y0104782D01*
X0211092Y0104741D01*
X0211075Y0104697D01*
X0211061Y0104652D01*
X0211052Y0104607D01*
X0211046Y0104561D01*
X0211044Y0104514D01*
X0211046Y0104467D01*
X0211052Y0104421D01*
X0211061Y0104376D01*
X0211075Y0104331D01*
X0211092Y0104287D01*
X0211112Y0104246D01*
X0211136Y0104206D01*
X0211163Y0104168D01*
X0211193Y0104132D01*
X0211226Y0104099D01*
X0211262Y0104069D01*
X0211300Y0104042D01*
X0211340Y0104018D01*
X0211381Y0103998D01*
X0211425Y0103981D01*
X0211470Y0103967D01*
X0211515Y0103958D01*
X0211561Y0103952D01*
X0211608Y0103950D01*
X0206955Y0103950D02*
X0206855Y0103954D01*
X0206754Y0103961D01*
X0206654Y0103971D01*
X0206555Y0103986D01*
X0206456Y0104004D01*
X0206358Y0104025D01*
X0206260Y0104050D01*
X0206164Y0104079D01*
X0206069Y0104111D01*
X0203960Y0106608D02*
X0204443Y0107172D01*
X0191201Y0101244D02*
X0191201Y0100439D01*
X0191202Y0101244D02*
X0191200Y0101299D01*
X0191194Y0101354D01*
X0191185Y0101408D01*
X0191172Y0101461D01*
X0191155Y0101514D01*
X0191135Y0101565D01*
X0191112Y0101615D01*
X0191085Y0101663D01*
X0191054Y0101709D01*
X0191021Y0101753D01*
X0190985Y0101794D01*
X0190946Y0101833D01*
X0190905Y0101869D01*
X0190861Y0101902D01*
X0190815Y0101933D01*
X0190767Y0101960D01*
X0190717Y0101983D01*
X0190666Y0102003D01*
X0190613Y0102020D01*
X0190560Y0102033D01*
X0190506Y0102042D01*
X0190451Y0102048D01*
X0190396Y0102050D01*
X0190341Y0102048D01*
X0190286Y0102042D01*
X0190232Y0102033D01*
X0190179Y0102020D01*
X0190126Y0102003D01*
X0190075Y0101983D01*
X0190025Y0101960D01*
X0189977Y0101933D01*
X0189931Y0101902D01*
X0189887Y0101869D01*
X0189846Y0101833D01*
X0189807Y0101794D01*
X0189771Y0101753D01*
X0189738Y0101709D01*
X0189707Y0101663D01*
X0189680Y0101615D01*
X0189657Y0101565D01*
X0189637Y0101514D01*
X0189620Y0101461D01*
X0189607Y0101408D01*
X0189598Y0101354D01*
X0189592Y0101299D01*
X0189590Y0101244D01*
X0189590Y0101083D01*
X0189592Y0101035D01*
X0189597Y0100987D01*
X0189606Y0100940D01*
X0189619Y0100893D01*
X0189635Y0100848D01*
X0189654Y0100804D01*
X0189676Y0100761D01*
X0189702Y0100720D01*
X0189730Y0100681D01*
X0189762Y0100645D01*
X0189796Y0100611D01*
X0189832Y0100580D01*
X0189871Y0100551D01*
X0189912Y0100525D01*
X0189955Y0100503D01*
X0189999Y0100484D01*
X0190044Y0100468D01*
X0190091Y0100455D01*
X0190138Y0100446D01*
X0190186Y0100441D01*
X0190234Y0100439D01*
D13*
X0194599Y0087702D02*
X0198001Y0087702D01*
X0198001Y0084898D02*
X0194599Y0084898D01*
X0206686Y0084402D02*
X0207895Y0081080D01*
X0212426Y0078967D01*
X0215749Y0080176D01*
X0217862Y0084708D01*
X0216653Y0088030D01*
X0219975Y0089239D01*
X0222088Y0093771D01*
X0220879Y0097093D01*
X0224201Y0098302D01*
X0226314Y0102834D01*
X0225105Y0106156D01*
X0220573Y0108269D01*
X0217251Y0107060D01*
X0215138Y0102529D01*
X0216347Y0099206D01*
X0220879Y0097093D01*
X0216347Y0099206D02*
X0213025Y0097997D01*
X0210912Y0093465D01*
X0212121Y0090143D01*
X0216653Y0088030D01*
X0212121Y0090143D02*
X0208799Y0088934D01*
X0206686Y0084402D01*
X0165602Y0069201D02*
X0165602Y0065799D01*
X0162798Y0065799D02*
X0162798Y0069201D01*
X0158800Y0056300D02*
X0153800Y0056300D01*
X0151300Y0053800D01*
X0151300Y0048800D01*
X0153800Y0046300D01*
X0158800Y0046300D01*
X0161300Y0048800D01*
X0161300Y0053800D01*
X0158800Y0056300D01*
X0151300Y0053800D02*
X0151300Y0048800D01*
X0148800Y0046300D01*
X0143800Y0046300D01*
X0141300Y0048800D01*
X0141300Y0053800D01*
X0143800Y0056300D01*
X0148800Y0056300D01*
X0151300Y0053800D01*
X0141300Y0053800D02*
X0141300Y0048800D01*
X0138800Y0046300D01*
X0133800Y0046300D01*
X0131300Y0048800D01*
X0131300Y0053800D01*
X0133800Y0056300D01*
X0138800Y0056300D01*
X0141300Y0053800D01*
X0133800Y0035237D02*
X0128800Y0035237D01*
X0126300Y0032737D01*
X0126300Y0027737D01*
X0123800Y0025237D01*
X0118800Y0025237D01*
X0116300Y0027737D01*
X0116300Y0032737D01*
X0118800Y0035237D01*
X0123800Y0035237D01*
X0126300Y0032737D01*
X0126300Y0027737D01*
X0128800Y0025237D01*
X0133800Y0025237D01*
X0136300Y0027737D01*
X0136300Y0032737D01*
X0133800Y0035237D01*
X0156300Y0032737D02*
X0156300Y0027737D01*
X0158800Y0025237D01*
X0163800Y0025237D01*
X0166300Y0027737D01*
X0168800Y0025237D01*
X0173800Y0025237D01*
X0176300Y0027737D01*
X0178800Y0025237D01*
X0183800Y0025237D01*
X0186300Y0027737D01*
X0188800Y0025237D01*
X0193800Y0025237D01*
X0196300Y0027737D01*
X0198800Y0025237D01*
X0203800Y0025237D01*
X0206300Y0027737D01*
X0208800Y0025237D01*
X0213800Y0025237D01*
X0216300Y0027737D01*
X0216300Y0032737D01*
X0213800Y0035237D01*
X0208800Y0035237D01*
X0206300Y0032737D01*
X0206300Y0027737D01*
X0206300Y0032737D01*
X0203800Y0035237D01*
X0198800Y0035237D01*
X0196300Y0032737D01*
X0196300Y0027737D01*
X0196300Y0032737D01*
X0193800Y0035237D01*
X0188800Y0035237D01*
X0186300Y0032737D01*
X0186300Y0027737D01*
X0186300Y0032737D01*
X0183800Y0035237D01*
X0178800Y0035237D01*
X0176300Y0032737D01*
X0176300Y0027737D01*
X0176300Y0032737D01*
X0173800Y0035237D01*
X0168800Y0035237D01*
X0166300Y0032737D01*
X0166300Y0027737D01*
X0166300Y0032737D01*
X0163800Y0035237D01*
X0158800Y0035237D01*
X0156300Y0032737D01*
X0096300Y0058800D02*
X0093800Y0056300D01*
X0088800Y0056300D01*
X0086300Y0058800D01*
X0086300Y0063800D01*
X0088800Y0066300D01*
X0086300Y0068800D01*
X0086300Y0073800D01*
X0088800Y0076300D01*
X0093800Y0076300D01*
X0096300Y0073800D01*
X0096300Y0068800D01*
X0093800Y0066300D01*
X0096300Y0063800D01*
X0096300Y0058800D01*
X0093800Y0066300D02*
X0088800Y0066300D01*
X0074000Y0065418D02*
X0074000Y0097418D01*
X0073998Y0097494D01*
X0073992Y0097570D01*
X0073983Y0097645D01*
X0073969Y0097720D01*
X0073952Y0097794D01*
X0073931Y0097867D01*
X0073907Y0097939D01*
X0073878Y0098010D01*
X0073847Y0098079D01*
X0073812Y0098146D01*
X0073773Y0098211D01*
X0073731Y0098275D01*
X0073686Y0098336D01*
X0073638Y0098395D01*
X0073587Y0098451D01*
X0073533Y0098505D01*
X0073477Y0098556D01*
X0073418Y0098604D01*
X0073357Y0098649D01*
X0073293Y0098691D01*
X0073228Y0098730D01*
X0073161Y0098765D01*
X0073092Y0098796D01*
X0073021Y0098825D01*
X0072949Y0098849D01*
X0072876Y0098870D01*
X0072802Y0098887D01*
X0072727Y0098901D01*
X0072652Y0098910D01*
X0072576Y0098916D01*
X0072500Y0098918D01*
X0068300Y0098918D01*
X0064300Y0098918D01*
X0060100Y0098918D01*
X0060024Y0098916D01*
X0059948Y0098910D01*
X0059873Y0098901D01*
X0059798Y0098887D01*
X0059724Y0098870D01*
X0059651Y0098849D01*
X0059579Y0098825D01*
X0059508Y0098796D01*
X0059439Y0098765D01*
X0059372Y0098730D01*
X0059307Y0098691D01*
X0059243Y0098649D01*
X0059182Y0098604D01*
X0059123Y0098556D01*
X0059067Y0098505D01*
X0059013Y0098451D01*
X0058962Y0098395D01*
X0058914Y0098336D01*
X0058869Y0098275D01*
X0058827Y0098211D01*
X0058788Y0098146D01*
X0058753Y0098079D01*
X0058722Y0098010D01*
X0058693Y0097939D01*
X0058669Y0097867D01*
X0058648Y0097794D01*
X0058631Y0097720D01*
X0058617Y0097645D01*
X0058608Y0097570D01*
X0058602Y0097494D01*
X0058600Y0097418D01*
X0058600Y0065418D01*
X0058602Y0065342D01*
X0058608Y0065266D01*
X0058617Y0065191D01*
X0058631Y0065116D01*
X0058648Y0065042D01*
X0058669Y0064969D01*
X0058693Y0064897D01*
X0058722Y0064826D01*
X0058753Y0064757D01*
X0058788Y0064690D01*
X0058827Y0064625D01*
X0058869Y0064561D01*
X0058914Y0064500D01*
X0058962Y0064441D01*
X0059013Y0064385D01*
X0059067Y0064331D01*
X0059123Y0064280D01*
X0059182Y0064232D01*
X0059243Y0064187D01*
X0059307Y0064145D01*
X0059372Y0064106D01*
X0059439Y0064071D01*
X0059508Y0064040D01*
X0059579Y0064011D01*
X0059651Y0063987D01*
X0059724Y0063966D01*
X0059798Y0063949D01*
X0059873Y0063935D01*
X0059948Y0063926D01*
X0060024Y0063920D01*
X0060100Y0063918D01*
X0072500Y0063918D01*
X0072576Y0063920D01*
X0072652Y0063926D01*
X0072727Y0063935D01*
X0072802Y0063949D01*
X0072876Y0063966D01*
X0072949Y0063987D01*
X0073021Y0064011D01*
X0073092Y0064040D01*
X0073161Y0064071D01*
X0073228Y0064106D01*
X0073293Y0064145D01*
X0073357Y0064187D01*
X0073418Y0064232D01*
X0073477Y0064280D01*
X0073533Y0064331D01*
X0073587Y0064385D01*
X0073638Y0064441D01*
X0073686Y0064500D01*
X0073731Y0064561D01*
X0073773Y0064625D01*
X0073812Y0064690D01*
X0073847Y0064757D01*
X0073878Y0064826D01*
X0073907Y0064897D01*
X0073931Y0064969D01*
X0073952Y0065042D01*
X0073969Y0065116D01*
X0073983Y0065191D01*
X0073992Y0065266D01*
X0073998Y0065342D01*
X0074000Y0065418D01*
X0088800Y0086300D02*
X0086300Y0088800D01*
X0086300Y0093800D01*
X0088800Y0096300D01*
X0086300Y0098800D01*
X0086300Y0103800D01*
X0088800Y0106300D01*
X0093800Y0106300D01*
X0096300Y0103800D01*
X0096300Y0098800D01*
X0093800Y0096300D01*
X0096300Y0093800D01*
X0096300Y0088800D01*
X0093800Y0086300D01*
X0088800Y0086300D01*
X0088800Y0096300D02*
X0093800Y0096300D01*
X0068300Y0098918D02*
X0068298Y0098830D01*
X0068292Y0098741D01*
X0068282Y0098653D01*
X0068269Y0098566D01*
X0068251Y0098479D01*
X0068230Y0098393D01*
X0068205Y0098308D01*
X0068176Y0098225D01*
X0068143Y0098142D01*
X0068107Y0098062D01*
X0068068Y0097983D01*
X0068025Y0097905D01*
X0067978Y0097830D01*
X0067928Y0097757D01*
X0067875Y0097686D01*
X0067819Y0097617D01*
X0067760Y0097551D01*
X0067698Y0097488D01*
X0067634Y0097428D01*
X0067567Y0097370D01*
X0067497Y0097316D01*
X0067425Y0097264D01*
X0067351Y0097216D01*
X0067274Y0097171D01*
X0067196Y0097130D01*
X0067116Y0097092D01*
X0067035Y0097058D01*
X0066952Y0097027D01*
X0066867Y0097000D01*
X0066782Y0096977D01*
X0066696Y0096958D01*
X0066608Y0096942D01*
X0066521Y0096930D01*
X0066433Y0096922D01*
X0066344Y0096918D01*
X0066256Y0096918D01*
X0066167Y0096922D01*
X0066079Y0096930D01*
X0065992Y0096942D01*
X0065904Y0096958D01*
X0065818Y0096977D01*
X0065733Y0097000D01*
X0065648Y0097027D01*
X0065565Y0097058D01*
X0065484Y0097092D01*
X0065404Y0097130D01*
X0065326Y0097171D01*
X0065249Y0097216D01*
X0065175Y0097264D01*
X0065103Y0097316D01*
X0065033Y0097370D01*
X0064966Y0097428D01*
X0064902Y0097488D01*
X0064840Y0097551D01*
X0064781Y0097617D01*
X0064725Y0097686D01*
X0064672Y0097757D01*
X0064622Y0097830D01*
X0064575Y0097905D01*
X0064532Y0097983D01*
X0064493Y0098062D01*
X0064457Y0098142D01*
X0064424Y0098225D01*
X0064395Y0098308D01*
X0064370Y0098393D01*
X0064349Y0098479D01*
X0064331Y0098566D01*
X0064318Y0098653D01*
X0064308Y0098741D01*
X0064302Y0098830D01*
X0064300Y0098918D01*
X0068800Y0125631D02*
X0073800Y0125631D01*
X0076300Y0128131D01*
X0076300Y0133131D01*
X0073800Y0135631D01*
X0068800Y0135631D01*
X0066300Y0133131D01*
X0066300Y0128131D01*
X0068800Y0125631D01*
X0076300Y0128131D02*
X0078800Y0125631D01*
X0083800Y0125631D01*
X0086300Y0128131D01*
X0086300Y0133131D01*
X0083800Y0135631D01*
X0078800Y0135631D01*
X0076300Y0133131D01*
X0076300Y0128131D01*
X0166300Y0128131D02*
X0168800Y0125631D01*
X0173800Y0125631D01*
X0176300Y0128131D01*
X0178800Y0125631D01*
X0183800Y0125631D01*
X0186300Y0128131D01*
X0188800Y0125631D01*
X0193800Y0125631D01*
X0196300Y0128131D01*
X0198800Y0125631D01*
X0203800Y0125631D01*
X0206300Y0128131D01*
X0208800Y0125631D01*
X0213800Y0125631D01*
X0216300Y0128131D01*
X0216300Y0133131D01*
X0213800Y0135631D01*
X0208800Y0135631D01*
X0206300Y0133131D01*
X0206300Y0128131D01*
X0206300Y0133131D01*
X0203800Y0135631D01*
X0198800Y0135631D01*
X0196300Y0133131D01*
X0196300Y0128131D01*
X0196300Y0133131D01*
X0193800Y0135631D01*
X0188800Y0135631D01*
X0186300Y0133131D01*
X0186300Y0128131D01*
X0186300Y0133131D01*
X0183800Y0135631D01*
X0178800Y0135631D01*
X0176300Y0133131D01*
X0176300Y0128131D01*
X0176300Y0133131D01*
X0173800Y0135631D01*
X0168800Y0135631D01*
X0166300Y0133131D01*
X0166300Y0128131D01*
X0247387Y0046386D02*
X0249521Y0039986D01*
X0251654Y0046386D01*
X0253952Y0042475D02*
X0258218Y0042475D01*
X0256085Y0044608D02*
X0256085Y0040341D01*
X0086300Y0032737D02*
X0086300Y0027737D01*
X0083800Y0025237D01*
X0078800Y0025237D01*
X0076300Y0027737D01*
X0076300Y0032737D01*
X0078800Y0035237D01*
X0083800Y0035237D01*
X0086300Y0032737D01*
X0076300Y0032737D02*
X0076300Y0027737D01*
X0073800Y0025237D01*
X0068800Y0025237D01*
X0066300Y0027737D01*
X0066300Y0032737D01*
X0068800Y0035237D01*
X0073800Y0035237D01*
X0076300Y0032737D01*
X0047982Y0040900D02*
X0043715Y0040900D01*
X0041418Y0044811D02*
X0039285Y0038411D01*
X0037151Y0044811D01*
D14*
G36*
X0203678Y0094329D02*
X0203096Y0093080D01*
X0200242Y0094411D01*
X0200824Y0095660D01*
X0203678Y0094329D01*
G37*
G36*
X0205758Y0098789D02*
X0205176Y0097540D01*
X0202322Y0098871D01*
X0202904Y0100120D01*
X0205758Y0098789D01*
G37*
D15*
X0091200Y0116439D03*
X0091200Y0121361D03*
D16*
X0060000Y0098918D02*
X0060000Y0063918D01*
D17*
X0056350Y0066418D03*
X0056350Y0071418D03*
X0056350Y0076418D03*
X0056350Y0081418D03*
X0056450Y0086418D03*
X0056350Y0091418D03*
X0056350Y0096418D03*
X0076250Y0096418D03*
X0076250Y0091418D03*
X0076250Y0086418D03*
X0076250Y0081418D03*
X0076250Y0076418D03*
X0076250Y0071418D03*
X0076250Y0066418D03*
D18*
G36*
X0213602Y0085038D02*
X0212757Y0083227D01*
X0210946Y0084072D01*
X0211791Y0085883D01*
X0213602Y0085038D01*
G37*
G36*
X0217828Y0094101D02*
X0216983Y0092290D01*
X0215172Y0093135D01*
X0216017Y0094946D01*
X0217828Y0094101D01*
G37*
G36*
X0222054Y0103164D02*
X0221209Y0101353D01*
X0219398Y0102198D01*
X0220243Y0104009D01*
X0222054Y0103164D01*
G37*
D19*
X0198800Y0086300D03*
X0193800Y0086300D03*
D20*
X0164200Y0070000D03*
X0164200Y0065000D03*
D21*
X0156497Y0069174D02*
X0156497Y0127442D01*
X0101379Y0127442D01*
X0101379Y0069174D01*
X0156497Y0069174D01*
X0156497Y0127442D01*
X0101379Y0127442D01*
X0101379Y0069174D01*
X0156497Y0069174D01*
D22*
X0156300Y0051300D03*
X0146300Y0051300D03*
X0136300Y0051300D03*
X0131300Y0030237D03*
X0121300Y0030237D03*
X0081300Y0030237D03*
X0071300Y0030237D03*
X0091300Y0061300D03*
X0091300Y0071300D03*
X0091300Y0091300D03*
X0091300Y0101300D03*
X0081300Y0130631D03*
X0071300Y0130631D03*
X0171300Y0130631D03*
X0181300Y0130631D03*
X0191300Y0130631D03*
X0201300Y0130631D03*
X0211300Y0130631D03*
X0211300Y0030237D03*
X0201300Y0030237D03*
X0191300Y0030237D03*
X0181300Y0030237D03*
X0171300Y0030237D03*
X0161300Y0030237D03*
D23*
X0188061Y0056447D02*
X0203929Y0040579D01*
X0210054Y0046703D01*
X0216178Y0052828D01*
X0222303Y0058952D01*
X0206435Y0074820D01*
X0201424Y0074820D01*
X0197805Y0071201D01*
X0191680Y0065077D01*
X0188061Y0061458D01*
X0188061Y0056447D01*
X0209497Y0048095D02*
X0209758Y0048235D01*
X0210015Y0048382D01*
X0210268Y0048535D01*
X0210518Y0048693D01*
X0210764Y0048858D01*
X0211005Y0049029D01*
X0211243Y0049206D01*
X0211476Y0049388D01*
X0211704Y0049576D01*
X0211928Y0049769D01*
X0212147Y0049968D01*
X0212362Y0050172D01*
X0212571Y0050381D01*
X0212775Y0050596D01*
X0212974Y0050815D01*
X0213167Y0051039D01*
X0213355Y0051267D01*
X0213537Y0051500D01*
X0213714Y0051738D01*
X0213885Y0051979D01*
X0214050Y0052225D01*
X0214208Y0052475D01*
X0214361Y0052728D01*
X0214508Y0052985D01*
X0214648Y0053246D01*
X0209497Y0048095D02*
X0209231Y0047963D01*
X0208963Y0047838D01*
X0208691Y0047719D01*
X0208416Y0047607D01*
X0208139Y0047501D01*
X0207859Y0047403D01*
X0207577Y0047311D01*
X0207293Y0047226D01*
X0207007Y0047148D01*
X0206719Y0047077D01*
X0206430Y0047013D01*
X0206139Y0046956D01*
X0205846Y0046906D01*
X0205553Y0046864D01*
X0205258Y0046828D01*
X0204963Y0046800D01*
X0204667Y0046779D01*
X0204371Y0046765D01*
X0204075Y0046759D01*
X0203778Y0046759D01*
X0203482Y0046767D01*
X0203185Y0046782D01*
X0202890Y0046804D01*
X0202595Y0046834D01*
X0202300Y0046870D01*
X0202007Y0046914D01*
X0201715Y0046965D01*
X0201424Y0047023D01*
X0201135Y0047088D01*
X0200847Y0047160D01*
X0200561Y0047240D01*
X0200277Y0047326D01*
X0199996Y0047419D01*
X0199717Y0047518D01*
X0199440Y0047625D01*
X0199166Y0047738D01*
X0198894Y0047858D01*
X0198626Y0047984D01*
X0198361Y0048117D01*
X0198099Y0048257D01*
X0197841Y0048403D01*
X0197586Y0048555D01*
X0197336Y0048713D01*
X0197089Y0048877D01*
X0196846Y0049047D01*
X0196607Y0049223D01*
X0196373Y0049405D01*
X0196143Y0049592D01*
X0195918Y0049785D01*
X0195697Y0049984D01*
X0195482Y0050187D01*
X0195271Y0050396D01*
X0195066Y0050610D01*
X0194866Y0050829D01*
X0194671Y0051053D01*
X0194482Y0051281D01*
X0194299Y0051514D01*
X0194121Y0051752D01*
X0193949Y0051993D01*
X0193783Y0052239D01*
X0193623Y0052489D01*
X0193469Y0052742D01*
X0193322Y0052999D01*
X0193180Y0053260D01*
X0193045Y0053524D01*
X0192917Y0053792D01*
X0192795Y0054062D01*
X0192680Y0054335D01*
X0192571Y0054611D01*
X0192469Y0054890D01*
X0192374Y0055170D01*
X0192286Y0055454D01*
X0192205Y0055739D01*
X0192131Y0056026D01*
X0192063Y0056315D01*
X0192003Y0056605D01*
X0191950Y0056897D01*
X0191904Y0057190D01*
X0191865Y0057484D01*
X0191834Y0057779D01*
X0191809Y0058074D01*
X0191792Y0058370D01*
X0191782Y0058667D01*
X0191779Y0058963D01*
X0191783Y0059260D01*
X0191795Y0059556D01*
X0191814Y0059852D01*
X0191840Y0060148D01*
X0191873Y0060442D01*
X0191914Y0060736D01*
X0191961Y0061029D01*
X0192016Y0061320D01*
X0192078Y0061610D01*
X0192147Y0061899D01*
X0192222Y0062185D01*
X0192305Y0062470D01*
X0192395Y0062753D01*
X0192491Y0063033D01*
X0192595Y0063311D01*
X0192705Y0063587D01*
X0192822Y0063859D01*
X0192945Y0064129D01*
X0193075Y0064395D01*
X0193211Y0064659D01*
X0198361Y0069809D02*
X0198627Y0069941D01*
X0198895Y0070066D01*
X0199167Y0070185D01*
X0199442Y0070297D01*
X0199719Y0070403D01*
X0199999Y0070501D01*
X0200281Y0070593D01*
X0200565Y0070678D01*
X0200851Y0070756D01*
X0201139Y0070827D01*
X0201428Y0070891D01*
X0201719Y0070948D01*
X0202012Y0070998D01*
X0202305Y0071040D01*
X0202600Y0071076D01*
X0202895Y0071104D01*
X0203191Y0071125D01*
X0203487Y0071139D01*
X0203783Y0071145D01*
X0204080Y0071145D01*
X0204376Y0071137D01*
X0204673Y0071122D01*
X0204968Y0071100D01*
X0205263Y0071070D01*
X0205558Y0071034D01*
X0205851Y0070990D01*
X0206143Y0070939D01*
X0206434Y0070881D01*
X0206723Y0070816D01*
X0207011Y0070744D01*
X0207297Y0070664D01*
X0207581Y0070578D01*
X0207862Y0070485D01*
X0208141Y0070386D01*
X0208418Y0070279D01*
X0208692Y0070166D01*
X0208964Y0070046D01*
X0209232Y0069920D01*
X0209497Y0069787D01*
X0209759Y0069647D01*
X0210017Y0069501D01*
X0210272Y0069349D01*
X0210522Y0069191D01*
X0210769Y0069027D01*
X0211012Y0068857D01*
X0211251Y0068681D01*
X0211485Y0068499D01*
X0211715Y0068312D01*
X0211940Y0068119D01*
X0212161Y0067920D01*
X0212376Y0067717D01*
X0212587Y0067508D01*
X0212792Y0067294D01*
X0212992Y0067075D01*
X0213187Y0066851D01*
X0213376Y0066623D01*
X0213559Y0066390D01*
X0213737Y0066152D01*
X0213909Y0065911D01*
X0214075Y0065665D01*
X0214235Y0065415D01*
X0214389Y0065162D01*
X0214536Y0064905D01*
X0214678Y0064644D01*
X0214813Y0064380D01*
X0214941Y0064112D01*
X0215063Y0063842D01*
X0215178Y0063569D01*
X0215287Y0063293D01*
X0215389Y0063014D01*
X0215484Y0062734D01*
X0215572Y0062450D01*
X0215653Y0062165D01*
X0215727Y0061878D01*
X0215795Y0061589D01*
X0215855Y0061299D01*
X0215908Y0061007D01*
X0215954Y0060714D01*
X0215993Y0060420D01*
X0216024Y0060125D01*
X0216049Y0059830D01*
X0216066Y0059534D01*
X0216076Y0059237D01*
X0216079Y0058941D01*
X0216075Y0058644D01*
X0216063Y0058348D01*
X0216044Y0058052D01*
X0216018Y0057756D01*
X0215985Y0057462D01*
X0215944Y0057168D01*
X0215897Y0056875D01*
X0215842Y0056584D01*
X0215780Y0056294D01*
X0215711Y0056005D01*
X0215636Y0055719D01*
X0215553Y0055434D01*
X0215463Y0055151D01*
X0215367Y0054871D01*
X0215263Y0054593D01*
X0215153Y0054317D01*
X0215036Y0054045D01*
X0214913Y0053775D01*
X0214783Y0053509D01*
X0214647Y0053245D01*
X0198362Y0069810D02*
X0198101Y0069670D01*
X0197844Y0069523D01*
X0197591Y0069370D01*
X0197341Y0069212D01*
X0197095Y0069047D01*
X0196854Y0068876D01*
X0196616Y0068699D01*
X0196383Y0068517D01*
X0196155Y0068329D01*
X0195931Y0068136D01*
X0195712Y0067937D01*
X0195497Y0067733D01*
X0195288Y0067524D01*
X0195084Y0067309D01*
X0194885Y0067090D01*
X0194692Y0066866D01*
X0194504Y0066638D01*
X0194322Y0066405D01*
X0194145Y0066167D01*
X0193974Y0065926D01*
X0193809Y0065680D01*
X0193651Y0065430D01*
X0193498Y0065177D01*
X0193351Y0064920D01*
X0193211Y0064659D01*
M02*
