G75*
%MOIN*%
%OFA0B0*%
%FSLAX25Y25*%
%IPPOS*%
%LPD*%
%AMOC8*
5,1,8,0,0,1.08239X$1,22.5*
%
%ADD10R,0.04737X0.05131*%
%ADD11R,0.10643X0.14580*%
%ADD12R,0.09461X0.07887*%
%ADD13R,0.04737X0.02769*%
%ADD14R,0.05918X0.06706*%
%ADD15C,0.06800*%
%ADD16R,0.13595X0.10643*%
%ADD17R,0.08000X0.08000*%
%ADD18OC8,0.08000*%
%ADD19OC8,0.06000*%
%ADD20C,0.03975*%
%ADD21C,0.04172*%
%ADD22C,0.16548*%
%ADD23C,0.04737*%
%ADD24C,0.05328*%
%ADD25C,0.17398*%
D10*
X0059471Y0045204D03*
X0066471Y0045204D03*
X0066471Y0051896D03*
X0059471Y0051896D03*
X0046318Y0064550D03*
X0039625Y0064550D03*
X0095971Y0062704D03*
X0095971Y0069396D03*
D11*
X0120971Y0078845D03*
X0120971Y0053255D03*
D12*
X0147971Y0055511D03*
X0147971Y0075589D03*
D13*
X0113727Y0088550D03*
X0113727Y0093550D03*
X0088216Y0093550D03*
X0088216Y0088550D03*
D14*
X0086231Y0082050D03*
X0093712Y0082050D03*
D15*
X0023971Y0081050D02*
X0017971Y0081050D01*
X0017971Y0091050D02*
X0023971Y0091050D01*
X0023971Y0101050D02*
X0017971Y0101050D01*
X0017971Y0071050D02*
X0023971Y0071050D01*
X0023971Y0061050D02*
X0017971Y0061050D01*
X0017971Y0051050D02*
X0023971Y0051050D01*
X0023971Y0041050D02*
X0017971Y0041050D01*
X0017971Y0031050D02*
X0023971Y0031050D01*
X0069471Y0033550D02*
X0075471Y0033550D01*
X0075471Y0023550D02*
X0069471Y0023550D01*
D16*
X0058971Y0069239D03*
X0058971Y0092861D03*
D17*
X0060971Y0116050D03*
D18*
X0070971Y0116050D03*
X0080971Y0116050D03*
X0080971Y0106050D03*
X0070971Y0106050D03*
X0060971Y0106050D03*
D19*
X0119971Y0091050D03*
X0129971Y0091050D03*
X0124971Y0098550D03*
D20*
X0010971Y0021050D03*
X0010971Y0041050D03*
X0040971Y0046050D03*
X0045971Y0051050D03*
X0051471Y0056550D03*
X0059471Y0056550D03*
X0066471Y0056550D03*
X0077971Y0050550D03*
X0075971Y0046050D03*
X0110471Y0031550D03*
X0115471Y0031550D03*
X0120971Y0031550D03*
X0125971Y0031050D03*
X0131471Y0031050D03*
X0128971Y0036050D03*
X0123471Y0036050D03*
X0118471Y0036050D03*
X0113471Y0036050D03*
X0115971Y0041050D03*
X0120971Y0041050D03*
X0125971Y0041050D03*
X0091471Y0069396D03*
X0077971Y0080550D03*
X0071471Y0076550D03*
X0059471Y0078050D03*
X0072971Y0087550D03*
X0079471Y0089050D03*
X0085971Y0096050D03*
X0091971Y0097550D03*
X0078971Y0099706D03*
X0065971Y0101050D03*
X0045471Y0096050D03*
X0040971Y0083050D03*
X0010971Y0081050D03*
X0010971Y0061050D03*
X0069971Y0068550D03*
X0010971Y0101050D03*
X0142471Y0084550D03*
X0151471Y0084050D03*
X0155971Y0073050D03*
X0175471Y0072050D03*
D21*
X0086971Y0075050D03*
X0066471Y0093050D03*
X0036471Y0064550D03*
X0059471Y0040550D03*
X0066471Y0040550D03*
D22*
X0185971Y0041050D03*
X0185971Y0066050D03*
X0185971Y0091050D03*
D23*
X0164971Y0089550D03*
D24*
X0126471Y0082050D03*
X0121471Y0084550D03*
X0126971Y0076550D03*
X0108971Y0093550D03*
D25*
X0038452Y0113412D03*
X0038452Y0018924D03*
X0195932Y0018924D03*
X0195932Y0113412D03*
M02*
