G75*
%MOIN*%
%OFA0B0*%
%FSLAX25Y25*%
%IPPOS*%
%LPD*%
%AMOC8*
5,1,8,0,0,1.08239X$1,22.5*
%
%ADD10C,0.00000*%
%ADD11C,0.01200*%
%ADD12C,0.00200*%
%ADD13C,0.00800*%
%ADD14C,0.00400*%
%ADD15C,0.00500*%
%ADD16C,0.00300*%
%ADD17C,0.00100*%
%ADD18R,0.03740X0.01969*%
%ADD19C,0.01000*%
%ADD20R,0.05315X0.00984*%
%ADD21R,0.08268X0.01181*%
%ADD22R,0.05201X0.01500*%
%ADD23C,0.00600*%
%ADD24R,0.02559X0.05512*%
%ADD25R,0.01600X0.03400*%
%ADD26R,0.04331X0.02264*%
D10*
X0001050Y0014987D02*
X0001050Y0107113D01*
D11*
X0088471Y0111050D02*
X0088471Y0103050D01*
X0098971Y0103050D01*
X0108971Y0103050D01*
X0118471Y0103050D01*
X0118471Y0111050D01*
X0118471Y0119050D01*
X0088471Y0119050D01*
X0088471Y0111050D01*
D12*
X0090839Y0114761D02*
X0090839Y0115739D01*
X0090841Y0115787D01*
X0090847Y0115835D01*
X0090856Y0115882D01*
X0090869Y0115928D01*
X0090886Y0115973D01*
X0090906Y0116016D01*
X0090929Y0116058D01*
X0090956Y0116098D01*
X0090985Y0116136D01*
X0091018Y0116171D01*
X0091053Y0116204D01*
X0091091Y0116233D01*
X0091131Y0116260D01*
X0091173Y0116283D01*
X0091216Y0116303D01*
X0091261Y0116320D01*
X0091307Y0116333D01*
X0091354Y0116342D01*
X0091402Y0116348D01*
X0091450Y0116350D01*
X0091498Y0116348D01*
X0091546Y0116342D01*
X0091593Y0116333D01*
X0091639Y0116320D01*
X0091684Y0116303D01*
X0091727Y0116283D01*
X0091769Y0116260D01*
X0091809Y0116233D01*
X0091847Y0116204D01*
X0091882Y0116171D01*
X0091915Y0116136D01*
X0091944Y0116098D01*
X0091971Y0116058D01*
X0091994Y0116016D01*
X0092014Y0115973D01*
X0092031Y0115928D01*
X0092044Y0115882D01*
X0092053Y0115835D01*
X0092059Y0115787D01*
X0092061Y0115739D01*
X0092061Y0114761D01*
X0092059Y0114713D01*
X0092053Y0114665D01*
X0092044Y0114618D01*
X0092031Y0114572D01*
X0092014Y0114527D01*
X0091994Y0114484D01*
X0091971Y0114442D01*
X0091944Y0114402D01*
X0091915Y0114364D01*
X0091882Y0114329D01*
X0091847Y0114296D01*
X0091809Y0114267D01*
X0091769Y0114240D01*
X0091727Y0114217D01*
X0091684Y0114197D01*
X0091639Y0114180D01*
X0091593Y0114167D01*
X0091546Y0114158D01*
X0091498Y0114152D01*
X0091450Y0114150D01*
X0091402Y0114152D01*
X0091354Y0114158D01*
X0091307Y0114167D01*
X0091261Y0114180D01*
X0091216Y0114197D01*
X0091173Y0114217D01*
X0091131Y0114240D01*
X0091091Y0114267D01*
X0091053Y0114296D01*
X0091018Y0114329D01*
X0090985Y0114364D01*
X0090956Y0114402D01*
X0090929Y0114442D01*
X0090906Y0114484D01*
X0090886Y0114527D01*
X0090869Y0114572D01*
X0090856Y0114618D01*
X0090847Y0114665D01*
X0090841Y0114713D01*
X0090839Y0114761D01*
X0093172Y0115067D02*
X0093844Y0115433D01*
X0093599Y0116350D02*
X0093540Y0116348D01*
X0093481Y0116342D01*
X0093423Y0116333D01*
X0093366Y0116320D01*
X0093309Y0116303D01*
X0093254Y0116282D01*
X0093200Y0116259D01*
X0093147Y0116231D01*
X0093097Y0116200D01*
X0093049Y0116167D01*
X0093844Y0115433D02*
X0093880Y0115456D01*
X0093914Y0115483D01*
X0093946Y0115512D01*
X0093975Y0115544D01*
X0094001Y0115578D01*
X0094024Y0115614D01*
X0094043Y0115653D01*
X0094060Y0115692D01*
X0094072Y0115733D01*
X0094082Y0115775D01*
X0094087Y0115818D01*
X0094089Y0115861D01*
X0094088Y0115861D02*
X0094086Y0115904D01*
X0094081Y0115946D01*
X0094071Y0115988D01*
X0094059Y0116028D01*
X0094042Y0116068D01*
X0094022Y0116106D01*
X0094000Y0116141D01*
X0093974Y0116175D01*
X0093945Y0116207D01*
X0093913Y0116236D01*
X0093879Y0116262D01*
X0093844Y0116284D01*
X0093806Y0116304D01*
X0093766Y0116321D01*
X0093726Y0116333D01*
X0093684Y0116343D01*
X0093642Y0116348D01*
X0093599Y0116350D01*
X0094149Y0114456D02*
X0094104Y0114412D01*
X0094056Y0114372D01*
X0094006Y0114335D01*
X0093953Y0114301D01*
X0093898Y0114270D01*
X0093842Y0114242D01*
X0093784Y0114218D01*
X0093725Y0114197D01*
X0093665Y0114180D01*
X0093603Y0114167D01*
X0093541Y0114158D01*
X0093479Y0114152D01*
X0093416Y0114150D01*
X0093373Y0114152D01*
X0093331Y0114157D01*
X0093289Y0114167D01*
X0093249Y0114179D01*
X0093209Y0114196D01*
X0093172Y0114216D01*
X0093136Y0114238D01*
X0093102Y0114264D01*
X0093070Y0114293D01*
X0093041Y0114325D01*
X0093015Y0114359D01*
X0092993Y0114394D01*
X0092973Y0114432D01*
X0092956Y0114472D01*
X0092944Y0114512D01*
X0092934Y0114554D01*
X0092929Y0114596D01*
X0092927Y0114639D01*
X0092929Y0114682D01*
X0092934Y0114725D01*
X0092944Y0114767D01*
X0092956Y0114808D01*
X0092973Y0114847D01*
X0092992Y0114886D01*
X0093015Y0114922D01*
X0093041Y0114956D01*
X0093070Y0114988D01*
X0093102Y0115017D01*
X0093136Y0115044D01*
X0093172Y0115067D01*
X0094950Y0114150D02*
X0095439Y0114150D01*
X0095194Y0114150D02*
X0095194Y0116350D01*
X0094950Y0116350D02*
X0095439Y0116350D01*
X0096405Y0116350D02*
X0096405Y0114150D01*
X0097138Y0115128D02*
X0096405Y0116350D01*
X0097138Y0115128D02*
X0097871Y0116350D01*
X0097871Y0114150D01*
X0101657Y0114150D02*
X0102390Y0115494D01*
X0102879Y0115006D02*
X0101657Y0116350D01*
X0102879Y0116350D02*
X0102879Y0114150D01*
X0103812Y0114150D02*
X0104301Y0114150D01*
X0104344Y0114152D01*
X0104386Y0114157D01*
X0104428Y0114167D01*
X0104468Y0114179D01*
X0104508Y0114196D01*
X0104546Y0114216D01*
X0104581Y0114238D01*
X0104615Y0114264D01*
X0104647Y0114293D01*
X0104676Y0114325D01*
X0104702Y0114359D01*
X0104724Y0114395D01*
X0104744Y0114432D01*
X0104761Y0114472D01*
X0104773Y0114512D01*
X0104783Y0114554D01*
X0104788Y0114596D01*
X0104790Y0114639D01*
X0104790Y0115861D01*
X0104788Y0115904D01*
X0104783Y0115946D01*
X0104773Y0115988D01*
X0104761Y0116028D01*
X0104744Y0116068D01*
X0104724Y0116106D01*
X0104702Y0116141D01*
X0104676Y0116175D01*
X0104647Y0116207D01*
X0104615Y0116236D01*
X0104581Y0116262D01*
X0104546Y0116284D01*
X0104508Y0116304D01*
X0104468Y0116321D01*
X0104428Y0116333D01*
X0104386Y0116343D01*
X0104344Y0116348D01*
X0104301Y0116350D01*
X0103812Y0116350D01*
X0105894Y0115067D02*
X0106566Y0115433D01*
X0106321Y0116350D02*
X0106262Y0116348D01*
X0106203Y0116342D01*
X0106145Y0116333D01*
X0106088Y0116320D01*
X0106031Y0116303D01*
X0105976Y0116282D01*
X0105922Y0116259D01*
X0105869Y0116231D01*
X0105819Y0116200D01*
X0105771Y0116167D01*
X0106566Y0115433D02*
X0106602Y0115456D01*
X0106636Y0115483D01*
X0106668Y0115512D01*
X0106697Y0115544D01*
X0106723Y0115578D01*
X0106746Y0115614D01*
X0106765Y0115653D01*
X0106782Y0115692D01*
X0106794Y0115733D01*
X0106804Y0115775D01*
X0106809Y0115818D01*
X0106811Y0115861D01*
X0106810Y0115861D02*
X0106808Y0115904D01*
X0106803Y0115946D01*
X0106793Y0115988D01*
X0106781Y0116028D01*
X0106764Y0116068D01*
X0106744Y0116106D01*
X0106722Y0116141D01*
X0106696Y0116175D01*
X0106667Y0116207D01*
X0106635Y0116236D01*
X0106601Y0116262D01*
X0106566Y0116284D01*
X0106528Y0116304D01*
X0106488Y0116321D01*
X0106448Y0116333D01*
X0106406Y0116343D01*
X0106364Y0116348D01*
X0106321Y0116350D01*
X0106871Y0114456D02*
X0106826Y0114412D01*
X0106778Y0114372D01*
X0106728Y0114335D01*
X0106675Y0114301D01*
X0106620Y0114270D01*
X0106564Y0114242D01*
X0106506Y0114218D01*
X0106447Y0114197D01*
X0106387Y0114180D01*
X0106325Y0114167D01*
X0106263Y0114158D01*
X0106201Y0114152D01*
X0106138Y0114150D01*
X0106095Y0114152D01*
X0106053Y0114157D01*
X0106011Y0114167D01*
X0105971Y0114179D01*
X0105931Y0114196D01*
X0105894Y0114216D01*
X0105858Y0114238D01*
X0105824Y0114264D01*
X0105792Y0114293D01*
X0105763Y0114325D01*
X0105737Y0114359D01*
X0105715Y0114394D01*
X0105695Y0114432D01*
X0105678Y0114472D01*
X0105666Y0114512D01*
X0105656Y0114554D01*
X0105651Y0114596D01*
X0105649Y0114639D01*
X0105651Y0114682D01*
X0105656Y0114725D01*
X0105666Y0114767D01*
X0105678Y0114808D01*
X0105695Y0114847D01*
X0105714Y0114886D01*
X0105737Y0114922D01*
X0105763Y0114956D01*
X0105792Y0114988D01*
X0105824Y0115017D01*
X0105858Y0115044D01*
X0105894Y0115067D01*
X0111131Y0116350D02*
X0112354Y0116350D01*
X0111743Y0116350D02*
X0111743Y0114150D01*
X0113320Y0115067D02*
X0113992Y0115433D01*
X0113748Y0116350D02*
X0113689Y0116348D01*
X0113630Y0116342D01*
X0113572Y0116333D01*
X0113515Y0116320D01*
X0113458Y0116303D01*
X0113403Y0116282D01*
X0113349Y0116259D01*
X0113296Y0116231D01*
X0113246Y0116200D01*
X0113198Y0116167D01*
X0113992Y0115433D02*
X0114028Y0115456D01*
X0114062Y0115483D01*
X0114094Y0115512D01*
X0114123Y0115544D01*
X0114149Y0115578D01*
X0114172Y0115614D01*
X0114191Y0115653D01*
X0114208Y0115692D01*
X0114220Y0115733D01*
X0114230Y0115775D01*
X0114235Y0115818D01*
X0114237Y0115861D01*
X0114235Y0115904D01*
X0114230Y0115946D01*
X0114220Y0115988D01*
X0114208Y0116028D01*
X0114191Y0116068D01*
X0114171Y0116106D01*
X0114149Y0116141D01*
X0114123Y0116175D01*
X0114094Y0116207D01*
X0114062Y0116236D01*
X0114028Y0116262D01*
X0113993Y0116284D01*
X0113955Y0116304D01*
X0113915Y0116321D01*
X0113875Y0116333D01*
X0113833Y0116343D01*
X0113791Y0116348D01*
X0113748Y0116350D01*
X0114297Y0114456D02*
X0114252Y0114412D01*
X0114204Y0114372D01*
X0114154Y0114335D01*
X0114101Y0114301D01*
X0114046Y0114270D01*
X0113990Y0114242D01*
X0113932Y0114218D01*
X0113873Y0114197D01*
X0113813Y0114180D01*
X0113751Y0114167D01*
X0113689Y0114158D01*
X0113627Y0114152D01*
X0113564Y0114150D01*
X0113521Y0114152D01*
X0113479Y0114157D01*
X0113437Y0114167D01*
X0113397Y0114179D01*
X0113357Y0114196D01*
X0113320Y0114216D01*
X0113284Y0114238D01*
X0113250Y0114264D01*
X0113218Y0114293D01*
X0113189Y0114325D01*
X0113163Y0114359D01*
X0113141Y0114394D01*
X0113121Y0114432D01*
X0113104Y0114472D01*
X0113092Y0114512D01*
X0113082Y0114554D01*
X0113077Y0114596D01*
X0113075Y0114639D01*
X0113077Y0114682D01*
X0113082Y0114725D01*
X0113092Y0114767D01*
X0113104Y0114808D01*
X0113121Y0114847D01*
X0113140Y0114886D01*
X0113163Y0114922D01*
X0113189Y0114956D01*
X0113218Y0114988D01*
X0113250Y0115017D01*
X0113284Y0115044D01*
X0113320Y0115067D01*
X0115149Y0114150D02*
X0115638Y0115128D01*
X0115760Y0115128D02*
X0116371Y0115128D01*
X0115760Y0115128D02*
X0115712Y0115130D01*
X0115664Y0115136D01*
X0115617Y0115145D01*
X0115571Y0115158D01*
X0115526Y0115175D01*
X0115483Y0115195D01*
X0115441Y0115218D01*
X0115401Y0115245D01*
X0115363Y0115274D01*
X0115328Y0115307D01*
X0115295Y0115342D01*
X0115266Y0115380D01*
X0115239Y0115420D01*
X0115216Y0115462D01*
X0115196Y0115505D01*
X0115179Y0115550D01*
X0115166Y0115596D01*
X0115157Y0115643D01*
X0115151Y0115691D01*
X0115149Y0115739D01*
X0115151Y0115787D01*
X0115157Y0115835D01*
X0115166Y0115882D01*
X0115179Y0115928D01*
X0115196Y0115973D01*
X0115216Y0116016D01*
X0115239Y0116058D01*
X0115266Y0116098D01*
X0115295Y0116136D01*
X0115328Y0116171D01*
X0115363Y0116204D01*
X0115401Y0116233D01*
X0115441Y0116260D01*
X0115483Y0116283D01*
X0115526Y0116303D01*
X0115571Y0116320D01*
X0115617Y0116333D01*
X0115664Y0116342D01*
X0115712Y0116348D01*
X0115760Y0116350D01*
X0116371Y0116350D01*
X0116371Y0114150D01*
X0116383Y0108350D02*
X0115649Y0108350D01*
X0116383Y0108350D02*
X0116426Y0108348D01*
X0116468Y0108343D01*
X0116510Y0108333D01*
X0116550Y0108321D01*
X0116590Y0108304D01*
X0116628Y0108284D01*
X0116663Y0108262D01*
X0116697Y0108236D01*
X0116729Y0108207D01*
X0116758Y0108175D01*
X0116784Y0108141D01*
X0116806Y0108106D01*
X0116826Y0108068D01*
X0116843Y0108028D01*
X0116855Y0107988D01*
X0116865Y0107946D01*
X0116870Y0107904D01*
X0116872Y0107861D01*
X0116871Y0107861D02*
X0116871Y0106639D01*
X0116872Y0106639D02*
X0116870Y0106596D01*
X0116865Y0106554D01*
X0116855Y0106512D01*
X0116843Y0106472D01*
X0116826Y0106432D01*
X0116806Y0106395D01*
X0116784Y0106359D01*
X0116758Y0106325D01*
X0116729Y0106293D01*
X0116697Y0106264D01*
X0116663Y0106238D01*
X0116628Y0106216D01*
X0116590Y0106196D01*
X0116550Y0106179D01*
X0116510Y0106167D01*
X0116468Y0106157D01*
X0116426Y0106152D01*
X0116383Y0106150D01*
X0115649Y0106150D01*
X0115649Y0107372D01*
X0116016Y0107372D01*
X0114568Y0108350D02*
X0114568Y0106150D01*
X0113345Y0106150D02*
X0113345Y0108350D01*
X0112264Y0108350D02*
X0111652Y0108350D01*
X0111604Y0108348D01*
X0111556Y0108342D01*
X0111509Y0108333D01*
X0111463Y0108320D01*
X0111418Y0108303D01*
X0111375Y0108283D01*
X0111333Y0108260D01*
X0111293Y0108233D01*
X0111255Y0108204D01*
X0111220Y0108171D01*
X0111187Y0108136D01*
X0111158Y0108098D01*
X0111131Y0108058D01*
X0111108Y0108016D01*
X0111088Y0107973D01*
X0111071Y0107928D01*
X0111058Y0107882D01*
X0111049Y0107835D01*
X0111043Y0107787D01*
X0111041Y0107739D01*
X0111041Y0106761D01*
X0111043Y0106713D01*
X0111049Y0106665D01*
X0111058Y0106618D01*
X0111071Y0106572D01*
X0111088Y0106527D01*
X0111108Y0106484D01*
X0111131Y0106442D01*
X0111158Y0106402D01*
X0111187Y0106364D01*
X0111220Y0106329D01*
X0111255Y0106296D01*
X0111293Y0106267D01*
X0111333Y0106240D01*
X0111375Y0106217D01*
X0111418Y0106197D01*
X0111463Y0106180D01*
X0111509Y0106167D01*
X0111556Y0106158D01*
X0111604Y0106152D01*
X0111652Y0106150D01*
X0112264Y0106150D01*
X0112264Y0108350D01*
X0114568Y0108350D02*
X0113345Y0106150D01*
X0107871Y0106150D02*
X0107871Y0108350D01*
X0107138Y0107128D01*
X0106405Y0108350D01*
X0106405Y0106150D01*
X0105373Y0106761D02*
X0105373Y0107739D01*
X0105371Y0107787D01*
X0105365Y0107835D01*
X0105356Y0107882D01*
X0105343Y0107928D01*
X0105326Y0107973D01*
X0105306Y0108016D01*
X0105283Y0108058D01*
X0105256Y0108098D01*
X0105227Y0108136D01*
X0105194Y0108171D01*
X0105159Y0108204D01*
X0105121Y0108233D01*
X0105081Y0108260D01*
X0105039Y0108283D01*
X0104996Y0108303D01*
X0104951Y0108320D01*
X0104905Y0108333D01*
X0104858Y0108342D01*
X0104810Y0108348D01*
X0104762Y0108350D01*
X0104714Y0108348D01*
X0104666Y0108342D01*
X0104619Y0108333D01*
X0104573Y0108320D01*
X0104528Y0108303D01*
X0104485Y0108283D01*
X0104443Y0108260D01*
X0104403Y0108233D01*
X0104365Y0108204D01*
X0104330Y0108171D01*
X0104297Y0108136D01*
X0104268Y0108098D01*
X0104241Y0108058D01*
X0104218Y0108016D01*
X0104198Y0107973D01*
X0104181Y0107928D01*
X0104168Y0107882D01*
X0104159Y0107835D01*
X0104153Y0107787D01*
X0104151Y0107739D01*
X0104151Y0106761D01*
X0104153Y0106713D01*
X0104159Y0106665D01*
X0104168Y0106618D01*
X0104181Y0106572D01*
X0104198Y0106527D01*
X0104218Y0106484D01*
X0104241Y0106442D01*
X0104268Y0106402D01*
X0104297Y0106364D01*
X0104330Y0106329D01*
X0104365Y0106296D01*
X0104403Y0106267D01*
X0104443Y0106240D01*
X0104485Y0106217D01*
X0104528Y0106197D01*
X0104573Y0106180D01*
X0104619Y0106167D01*
X0104666Y0106158D01*
X0104714Y0106152D01*
X0104762Y0106150D01*
X0104810Y0106152D01*
X0104858Y0106158D01*
X0104905Y0106167D01*
X0104951Y0106180D01*
X0104996Y0106197D01*
X0105039Y0106217D01*
X0105081Y0106240D01*
X0105121Y0106267D01*
X0105159Y0106296D01*
X0105194Y0106329D01*
X0105227Y0106364D01*
X0105256Y0106402D01*
X0105283Y0106442D01*
X0105306Y0106484D01*
X0105326Y0106527D01*
X0105343Y0106572D01*
X0105356Y0106618D01*
X0105365Y0106665D01*
X0105371Y0106713D01*
X0105373Y0106761D01*
X0102980Y0107433D02*
X0102308Y0107067D01*
X0102552Y0106150D02*
X0102615Y0106152D01*
X0102677Y0106158D01*
X0102739Y0106167D01*
X0102801Y0106180D01*
X0102861Y0106197D01*
X0102920Y0106218D01*
X0102978Y0106242D01*
X0103034Y0106270D01*
X0103089Y0106301D01*
X0103142Y0106335D01*
X0103192Y0106372D01*
X0103240Y0106412D01*
X0103285Y0106456D01*
X0102308Y0107067D02*
X0102272Y0107044D01*
X0102238Y0107017D01*
X0102206Y0106988D01*
X0102177Y0106956D01*
X0102151Y0106922D01*
X0102128Y0106886D01*
X0102109Y0106847D01*
X0102092Y0106808D01*
X0102080Y0106767D01*
X0102070Y0106725D01*
X0102065Y0106682D01*
X0102063Y0106639D01*
X0102065Y0106596D01*
X0102070Y0106554D01*
X0102080Y0106512D01*
X0102092Y0106472D01*
X0102109Y0106432D01*
X0102129Y0106394D01*
X0102151Y0106359D01*
X0102177Y0106325D01*
X0102206Y0106293D01*
X0102238Y0106264D01*
X0102272Y0106238D01*
X0102308Y0106216D01*
X0102345Y0106196D01*
X0102385Y0106179D01*
X0102425Y0106167D01*
X0102467Y0106157D01*
X0102509Y0106152D01*
X0102552Y0106150D01*
X0101263Y0106150D02*
X0100774Y0106150D01*
X0101018Y0106150D02*
X0101018Y0108350D01*
X0100774Y0108350D02*
X0101263Y0108350D01*
X0102980Y0107433D02*
X0103016Y0107456D01*
X0103050Y0107483D01*
X0103082Y0107512D01*
X0103111Y0107544D01*
X0103137Y0107578D01*
X0103160Y0107614D01*
X0103179Y0107653D01*
X0103196Y0107692D01*
X0103208Y0107733D01*
X0103218Y0107775D01*
X0103223Y0107818D01*
X0103225Y0107861D01*
X0103224Y0107861D02*
X0103222Y0107904D01*
X0103217Y0107946D01*
X0103207Y0107988D01*
X0103195Y0108028D01*
X0103178Y0108068D01*
X0103158Y0108106D01*
X0103136Y0108141D01*
X0103110Y0108175D01*
X0103081Y0108207D01*
X0103049Y0108236D01*
X0103015Y0108262D01*
X0102980Y0108284D01*
X0102942Y0108304D01*
X0102902Y0108321D01*
X0102862Y0108333D01*
X0102820Y0108343D01*
X0102778Y0108348D01*
X0102735Y0108350D01*
X0102676Y0108348D01*
X0102617Y0108342D01*
X0102559Y0108333D01*
X0102502Y0108320D01*
X0102445Y0108303D01*
X0102390Y0108282D01*
X0102336Y0108259D01*
X0102283Y0108231D01*
X0102233Y0108200D01*
X0102185Y0108167D01*
X0097371Y0107006D02*
X0095905Y0107006D01*
X0094945Y0107372D02*
X0094212Y0107372D01*
X0094169Y0107370D01*
X0094127Y0107365D01*
X0094085Y0107355D01*
X0094045Y0107343D01*
X0094005Y0107326D01*
X0093968Y0107306D01*
X0093932Y0107284D01*
X0093898Y0107258D01*
X0093866Y0107229D01*
X0093837Y0107197D01*
X0093811Y0107163D01*
X0093789Y0107128D01*
X0093769Y0107090D01*
X0093752Y0107050D01*
X0093740Y0107010D01*
X0093730Y0106968D01*
X0093725Y0106926D01*
X0093723Y0106883D01*
X0093723Y0106639D01*
X0093725Y0106596D01*
X0093730Y0106554D01*
X0093740Y0106512D01*
X0093752Y0106472D01*
X0093769Y0106432D01*
X0093789Y0106394D01*
X0093811Y0106359D01*
X0093837Y0106325D01*
X0093866Y0106293D01*
X0093898Y0106264D01*
X0093932Y0106238D01*
X0093968Y0106216D01*
X0094005Y0106196D01*
X0094045Y0106179D01*
X0094085Y0106167D01*
X0094127Y0106157D01*
X0094169Y0106152D01*
X0094212Y0106150D01*
X0094945Y0106150D01*
X0094945Y0107372D02*
X0094945Y0108350D01*
X0093723Y0108350D01*
X0092908Y0108350D02*
X0092174Y0106150D01*
X0091441Y0108350D01*
X0096638Y0107739D02*
X0096638Y0106272D01*
D13*
X0098971Y0103050D02*
X0098971Y0118550D01*
X0108971Y0118550D02*
X0108971Y0103050D01*
X0109180Y0095650D02*
X0109180Y0086450D01*
X0092763Y0086450D01*
X0092763Y0095650D01*
X0109180Y0095650D01*
X0107979Y0082585D02*
X0104436Y0079042D01*
X0104436Y0049515D01*
X0115066Y0049515D01*
X0126877Y0049515D01*
X0137507Y0049515D01*
X0137507Y0079042D01*
X0133964Y0082585D01*
X0126877Y0082585D01*
X0115066Y0082585D01*
X0107979Y0082585D01*
X0126483Y0080420D02*
X0126831Y0080282D01*
X0127175Y0080135D01*
X0127516Y0079980D01*
X0127853Y0079817D01*
X0128186Y0079645D01*
X0128515Y0079465D01*
X0128839Y0079278D01*
X0129159Y0079083D01*
X0129473Y0078879D01*
X0129783Y0078669D01*
X0130087Y0078451D01*
X0130386Y0078225D01*
X0130680Y0077992D01*
X0130968Y0077753D01*
X0131249Y0077506D01*
X0131525Y0077252D01*
X0131794Y0076992D01*
X0132058Y0076726D01*
X0132314Y0076453D01*
X0132564Y0076174D01*
X0132807Y0075889D01*
X0133043Y0075598D01*
X0133271Y0075301D01*
X0133493Y0074999D01*
X0133707Y0074692D01*
X0133913Y0074379D01*
X0134112Y0074062D01*
X0134303Y0073740D01*
X0134486Y0073413D01*
X0134662Y0073082D01*
X0134829Y0072747D01*
X0134987Y0072408D01*
X0135138Y0072065D01*
X0135280Y0071718D01*
X0135414Y0071369D01*
X0135539Y0071016D01*
X0135655Y0070660D01*
X0135763Y0070301D01*
X0135862Y0069940D01*
X0135953Y0069576D01*
X0136034Y0069211D01*
X0136106Y0068843D01*
X0136170Y0068474D01*
X0136224Y0068104D01*
X0136270Y0067732D01*
X0136306Y0067359D01*
X0136334Y0066986D01*
X0136352Y0066612D01*
X0136361Y0066237D01*
X0136361Y0065863D01*
X0136352Y0065488D01*
X0136334Y0065114D01*
X0136306Y0064741D01*
X0136270Y0064368D01*
X0136224Y0063996D01*
X0136170Y0063626D01*
X0136106Y0063257D01*
X0136034Y0062889D01*
X0135953Y0062524D01*
X0135862Y0062160D01*
X0135763Y0061799D01*
X0135655Y0061440D01*
X0135539Y0061084D01*
X0135414Y0060731D01*
X0135280Y0060382D01*
X0135138Y0060035D01*
X0134987Y0059692D01*
X0134829Y0059353D01*
X0134662Y0059018D01*
X0134486Y0058687D01*
X0134303Y0058360D01*
X0134112Y0058038D01*
X0133913Y0057721D01*
X0133707Y0057408D01*
X0133493Y0057101D01*
X0133271Y0056799D01*
X0133043Y0056502D01*
X0132807Y0056211D01*
X0132564Y0055926D01*
X0132314Y0055647D01*
X0132058Y0055374D01*
X0131794Y0055108D01*
X0131525Y0054848D01*
X0131249Y0054594D01*
X0130968Y0054347D01*
X0130680Y0054108D01*
X0130386Y0053875D01*
X0130087Y0053649D01*
X0129783Y0053431D01*
X0129473Y0053221D01*
X0129159Y0053017D01*
X0128839Y0052822D01*
X0128515Y0052635D01*
X0128186Y0052455D01*
X0127853Y0052283D01*
X0127516Y0052120D01*
X0127175Y0051965D01*
X0126831Y0051818D01*
X0126483Y0051680D01*
X0126130Y0051550D01*
X0125775Y0051428D01*
X0125416Y0051315D01*
X0125055Y0051211D01*
X0124692Y0051116D01*
X0124326Y0051029D01*
X0123958Y0050952D01*
X0123589Y0050883D01*
X0123218Y0050824D01*
X0122845Y0050774D01*
X0122472Y0050732D01*
X0122097Y0050700D01*
X0121722Y0050677D01*
X0121347Y0050664D01*
X0120971Y0050659D01*
X0120595Y0050664D01*
X0120220Y0050677D01*
X0119845Y0050700D01*
X0119470Y0050732D01*
X0119097Y0050774D01*
X0118724Y0050824D01*
X0118353Y0050883D01*
X0117984Y0050952D01*
X0117616Y0051029D01*
X0117250Y0051116D01*
X0116887Y0051211D01*
X0116526Y0051315D01*
X0116167Y0051428D01*
X0115812Y0051550D01*
X0115459Y0051680D01*
X0115459Y0080420D02*
X0115812Y0080550D01*
X0116167Y0080672D01*
X0116526Y0080785D01*
X0116887Y0080889D01*
X0117250Y0080984D01*
X0117616Y0081071D01*
X0117984Y0081148D01*
X0118353Y0081217D01*
X0118724Y0081276D01*
X0119097Y0081326D01*
X0119470Y0081368D01*
X0119845Y0081400D01*
X0120220Y0081423D01*
X0120595Y0081436D01*
X0120971Y0081441D01*
X0121347Y0081436D01*
X0121722Y0081423D01*
X0122097Y0081400D01*
X0122472Y0081368D01*
X0122845Y0081326D01*
X0123218Y0081276D01*
X0123589Y0081217D01*
X0123958Y0081148D01*
X0124326Y0081071D01*
X0124692Y0080984D01*
X0125055Y0080889D01*
X0125416Y0080785D01*
X0125775Y0080672D01*
X0126130Y0080550D01*
X0126483Y0080420D01*
X0115459Y0080420D02*
X0115111Y0080282D01*
X0114767Y0080135D01*
X0114426Y0079980D01*
X0114089Y0079817D01*
X0113756Y0079645D01*
X0113427Y0079465D01*
X0113103Y0079278D01*
X0112783Y0079083D01*
X0112469Y0078879D01*
X0112159Y0078669D01*
X0111855Y0078451D01*
X0111556Y0078225D01*
X0111262Y0077992D01*
X0110974Y0077753D01*
X0110693Y0077506D01*
X0110417Y0077252D01*
X0110148Y0076992D01*
X0109884Y0076726D01*
X0109628Y0076453D01*
X0109378Y0076174D01*
X0109135Y0075889D01*
X0108899Y0075598D01*
X0108671Y0075301D01*
X0108449Y0074999D01*
X0108235Y0074692D01*
X0108029Y0074379D01*
X0107830Y0074062D01*
X0107639Y0073740D01*
X0107456Y0073413D01*
X0107280Y0073082D01*
X0107113Y0072747D01*
X0106955Y0072408D01*
X0106804Y0072065D01*
X0106662Y0071718D01*
X0106528Y0071369D01*
X0106403Y0071016D01*
X0106287Y0070660D01*
X0106179Y0070301D01*
X0106080Y0069940D01*
X0105989Y0069576D01*
X0105908Y0069211D01*
X0105836Y0068843D01*
X0105772Y0068474D01*
X0105718Y0068104D01*
X0105672Y0067732D01*
X0105636Y0067359D01*
X0105608Y0066986D01*
X0105590Y0066612D01*
X0105581Y0066237D01*
X0105581Y0065863D01*
X0105590Y0065488D01*
X0105608Y0065114D01*
X0105636Y0064741D01*
X0105672Y0064368D01*
X0105718Y0063996D01*
X0105772Y0063626D01*
X0105836Y0063257D01*
X0105908Y0062889D01*
X0105989Y0062524D01*
X0106080Y0062160D01*
X0106179Y0061799D01*
X0106287Y0061440D01*
X0106403Y0061084D01*
X0106528Y0060731D01*
X0106662Y0060382D01*
X0106804Y0060035D01*
X0106955Y0059692D01*
X0107113Y0059353D01*
X0107280Y0059018D01*
X0107456Y0058687D01*
X0107639Y0058360D01*
X0107830Y0058038D01*
X0108029Y0057721D01*
X0108235Y0057408D01*
X0108449Y0057101D01*
X0108671Y0056799D01*
X0108899Y0056502D01*
X0109135Y0056211D01*
X0109378Y0055926D01*
X0109628Y0055647D01*
X0109884Y0055374D01*
X0110148Y0055108D01*
X0110417Y0054848D01*
X0110693Y0054594D01*
X0110974Y0054347D01*
X0111262Y0054108D01*
X0111556Y0053875D01*
X0111855Y0053649D01*
X0112159Y0053431D01*
X0112469Y0053221D01*
X0112783Y0053017D01*
X0113103Y0052822D01*
X0113427Y0052635D01*
X0113756Y0052455D01*
X0114089Y0052283D01*
X0114426Y0052120D01*
X0114767Y0051965D01*
X0115111Y0051818D01*
X0115459Y0051680D01*
X0073538Y0066483D02*
X0044405Y0066483D01*
X0044405Y0095617D01*
X0073538Y0095617D01*
X0073538Y0066483D01*
X0070684Y0081050D02*
X0070680Y0081332D01*
X0070669Y0081614D01*
X0070652Y0081896D01*
X0070627Y0082177D01*
X0070596Y0082458D01*
X0070558Y0082738D01*
X0070514Y0083016D01*
X0070463Y0083294D01*
X0070405Y0083570D01*
X0070340Y0083845D01*
X0070269Y0084118D01*
X0070191Y0084390D01*
X0070107Y0084659D01*
X0070016Y0084926D01*
X0069919Y0085191D01*
X0069815Y0085454D01*
X0069705Y0085714D01*
X0069589Y0085971D01*
X0069467Y0086226D01*
X0069339Y0086477D01*
X0069204Y0086726D01*
X0069064Y0086971D01*
X0068918Y0087212D01*
X0068766Y0087450D01*
X0068608Y0087684D01*
X0068445Y0087914D01*
X0068276Y0088141D01*
X0068102Y0088363D01*
X0067923Y0088581D01*
X0067738Y0088794D01*
X0067548Y0089003D01*
X0067354Y0089208D01*
X0067154Y0089407D01*
X0066950Y0089602D01*
X0066741Y0089792D01*
X0066527Y0089977D01*
X0066309Y0090156D01*
X0066087Y0090330D01*
X0065861Y0090499D01*
X0047258Y0081050D02*
X0047262Y0080768D01*
X0047273Y0080486D01*
X0047290Y0080204D01*
X0047315Y0079923D01*
X0047346Y0079642D01*
X0047384Y0079362D01*
X0047428Y0079084D01*
X0047479Y0078806D01*
X0047537Y0078530D01*
X0047602Y0078255D01*
X0047673Y0077982D01*
X0047751Y0077710D01*
X0047835Y0077441D01*
X0047926Y0077174D01*
X0048023Y0076909D01*
X0048127Y0076646D01*
X0048237Y0076386D01*
X0048353Y0076129D01*
X0048475Y0075874D01*
X0048603Y0075623D01*
X0048738Y0075374D01*
X0048878Y0075129D01*
X0049024Y0074888D01*
X0049176Y0074650D01*
X0049334Y0074416D01*
X0049497Y0074186D01*
X0049666Y0073959D01*
X0049840Y0073737D01*
X0050019Y0073519D01*
X0050204Y0073306D01*
X0050394Y0073097D01*
X0050588Y0072892D01*
X0050788Y0072693D01*
X0050992Y0072498D01*
X0051201Y0072308D01*
X0051415Y0072123D01*
X0051633Y0071944D01*
X0051855Y0071770D01*
X0052081Y0071601D01*
X0047258Y0081050D02*
X0047262Y0081332D01*
X0047273Y0081614D01*
X0047290Y0081896D01*
X0047315Y0082177D01*
X0047346Y0082458D01*
X0047384Y0082738D01*
X0047428Y0083016D01*
X0047479Y0083294D01*
X0047537Y0083570D01*
X0047602Y0083845D01*
X0047673Y0084118D01*
X0047751Y0084390D01*
X0047835Y0084659D01*
X0047926Y0084926D01*
X0048023Y0085191D01*
X0048127Y0085454D01*
X0048237Y0085714D01*
X0048353Y0085971D01*
X0048475Y0086226D01*
X0048603Y0086477D01*
X0048738Y0086726D01*
X0048878Y0086971D01*
X0049024Y0087212D01*
X0049176Y0087450D01*
X0049334Y0087684D01*
X0049497Y0087914D01*
X0049666Y0088141D01*
X0049840Y0088363D01*
X0050019Y0088581D01*
X0050204Y0088794D01*
X0050394Y0089003D01*
X0050588Y0089208D01*
X0050788Y0089407D01*
X0050992Y0089602D01*
X0051201Y0089792D01*
X0051415Y0089977D01*
X0051633Y0090156D01*
X0051855Y0090330D01*
X0052081Y0090499D01*
X0070684Y0081050D02*
X0070680Y0080768D01*
X0070669Y0080486D01*
X0070652Y0080204D01*
X0070627Y0079923D01*
X0070596Y0079642D01*
X0070558Y0079362D01*
X0070514Y0079084D01*
X0070463Y0078806D01*
X0070405Y0078530D01*
X0070340Y0078255D01*
X0070269Y0077982D01*
X0070191Y0077710D01*
X0070107Y0077441D01*
X0070016Y0077174D01*
X0069919Y0076909D01*
X0069815Y0076646D01*
X0069705Y0076386D01*
X0069589Y0076129D01*
X0069467Y0075874D01*
X0069339Y0075623D01*
X0069204Y0075374D01*
X0069064Y0075129D01*
X0068918Y0074888D01*
X0068766Y0074650D01*
X0068608Y0074416D01*
X0068445Y0074186D01*
X0068276Y0073959D01*
X0068102Y0073737D01*
X0067923Y0073519D01*
X0067738Y0073306D01*
X0067548Y0073097D01*
X0067354Y0072892D01*
X0067154Y0072693D01*
X0066950Y0072498D01*
X0066741Y0072308D01*
X0066527Y0072123D01*
X0066309Y0071944D01*
X0066087Y0071770D01*
X0065861Y0071601D01*
X0047258Y0081050D02*
X0047262Y0081337D01*
X0047272Y0081625D01*
X0047290Y0081912D01*
X0047314Y0082198D01*
X0047346Y0082484D01*
X0047385Y0082769D01*
X0047430Y0083052D01*
X0047483Y0083335D01*
X0047543Y0083616D01*
X0047609Y0083896D01*
X0047682Y0084174D01*
X0047762Y0084450D01*
X0047849Y0084724D01*
X0047943Y0084996D01*
X0048043Y0085265D01*
X0048150Y0085532D01*
X0048263Y0085797D01*
X0048383Y0086058D01*
X0048509Y0086316D01*
X0048641Y0086571D01*
X0048780Y0086823D01*
X0048924Y0087072D01*
X0049075Y0087316D01*
X0049232Y0087557D01*
X0049395Y0087794D01*
X0049563Y0088027D01*
X0049737Y0088256D01*
X0049917Y0088481D01*
X0050102Y0088701D01*
X0050292Y0088916D01*
X0050488Y0089127D01*
X0050689Y0089332D01*
X0050894Y0089533D01*
X0051105Y0089729D01*
X0051320Y0089919D01*
X0051540Y0090104D01*
X0051765Y0090284D01*
X0051994Y0090458D01*
X0052227Y0090626D01*
X0052464Y0090789D01*
X0052705Y0090946D01*
X0052949Y0091097D01*
X0053198Y0091241D01*
X0053450Y0091380D01*
X0053705Y0091512D01*
X0053963Y0091638D01*
X0054224Y0091758D01*
X0054489Y0091871D01*
X0054756Y0091978D01*
X0055025Y0092078D01*
X0055297Y0092172D01*
X0055571Y0092259D01*
X0055847Y0092339D01*
X0056125Y0092412D01*
X0056405Y0092478D01*
X0056686Y0092538D01*
X0056969Y0092591D01*
X0057252Y0092636D01*
X0057537Y0092675D01*
X0057823Y0092707D01*
X0058109Y0092731D01*
X0058396Y0092749D01*
X0058684Y0092759D01*
X0058971Y0092763D01*
X0059258Y0092759D01*
X0059546Y0092749D01*
X0059833Y0092731D01*
X0060119Y0092707D01*
X0060405Y0092675D01*
X0060690Y0092636D01*
X0060973Y0092591D01*
X0061256Y0092538D01*
X0061537Y0092478D01*
X0061817Y0092412D01*
X0062095Y0092339D01*
X0062371Y0092259D01*
X0062645Y0092172D01*
X0062917Y0092078D01*
X0063186Y0091978D01*
X0063453Y0091871D01*
X0063718Y0091758D01*
X0063979Y0091638D01*
X0064237Y0091512D01*
X0064492Y0091380D01*
X0064744Y0091241D01*
X0064993Y0091097D01*
X0065237Y0090946D01*
X0065478Y0090789D01*
X0065715Y0090626D01*
X0065948Y0090458D01*
X0066177Y0090284D01*
X0066402Y0090104D01*
X0066622Y0089919D01*
X0066837Y0089729D01*
X0067048Y0089533D01*
X0067253Y0089332D01*
X0067454Y0089127D01*
X0067650Y0088916D01*
X0067840Y0088701D01*
X0068025Y0088481D01*
X0068205Y0088256D01*
X0068379Y0088027D01*
X0068547Y0087794D01*
X0068710Y0087557D01*
X0068867Y0087316D01*
X0069018Y0087072D01*
X0069162Y0086823D01*
X0069301Y0086571D01*
X0069433Y0086316D01*
X0069559Y0086058D01*
X0069679Y0085797D01*
X0069792Y0085532D01*
X0069899Y0085265D01*
X0069999Y0084996D01*
X0070093Y0084724D01*
X0070180Y0084450D01*
X0070260Y0084174D01*
X0070333Y0083896D01*
X0070399Y0083616D01*
X0070459Y0083335D01*
X0070512Y0083052D01*
X0070557Y0082769D01*
X0070596Y0082484D01*
X0070628Y0082198D01*
X0070652Y0081912D01*
X0070670Y0081625D01*
X0070680Y0081337D01*
X0070684Y0081050D01*
X0070680Y0080763D01*
X0070670Y0080475D01*
X0070652Y0080188D01*
X0070628Y0079902D01*
X0070596Y0079616D01*
X0070557Y0079331D01*
X0070512Y0079048D01*
X0070459Y0078765D01*
X0070399Y0078484D01*
X0070333Y0078204D01*
X0070260Y0077926D01*
X0070180Y0077650D01*
X0070093Y0077376D01*
X0069999Y0077104D01*
X0069899Y0076835D01*
X0069792Y0076568D01*
X0069679Y0076303D01*
X0069559Y0076042D01*
X0069433Y0075784D01*
X0069301Y0075529D01*
X0069162Y0075277D01*
X0069018Y0075028D01*
X0068867Y0074784D01*
X0068710Y0074543D01*
X0068547Y0074306D01*
X0068379Y0074073D01*
X0068205Y0073844D01*
X0068025Y0073619D01*
X0067840Y0073399D01*
X0067650Y0073184D01*
X0067454Y0072973D01*
X0067253Y0072768D01*
X0067048Y0072567D01*
X0066837Y0072371D01*
X0066622Y0072181D01*
X0066402Y0071996D01*
X0066177Y0071816D01*
X0065948Y0071642D01*
X0065715Y0071474D01*
X0065478Y0071311D01*
X0065237Y0071154D01*
X0064993Y0071003D01*
X0064744Y0070859D01*
X0064492Y0070720D01*
X0064237Y0070588D01*
X0063979Y0070462D01*
X0063718Y0070342D01*
X0063453Y0070229D01*
X0063186Y0070122D01*
X0062917Y0070022D01*
X0062645Y0069928D01*
X0062371Y0069841D01*
X0062095Y0069761D01*
X0061817Y0069688D01*
X0061537Y0069622D01*
X0061256Y0069562D01*
X0060973Y0069509D01*
X0060690Y0069464D01*
X0060405Y0069425D01*
X0060119Y0069393D01*
X0059833Y0069369D01*
X0059546Y0069351D01*
X0059258Y0069341D01*
X0058971Y0069337D01*
X0058684Y0069341D01*
X0058396Y0069351D01*
X0058109Y0069369D01*
X0057823Y0069393D01*
X0057537Y0069425D01*
X0057252Y0069464D01*
X0056969Y0069509D01*
X0056686Y0069562D01*
X0056405Y0069622D01*
X0056125Y0069688D01*
X0055847Y0069761D01*
X0055571Y0069841D01*
X0055297Y0069928D01*
X0055025Y0070022D01*
X0054756Y0070122D01*
X0054489Y0070229D01*
X0054224Y0070342D01*
X0053963Y0070462D01*
X0053705Y0070588D01*
X0053450Y0070720D01*
X0053198Y0070859D01*
X0052949Y0071003D01*
X0052705Y0071154D01*
X0052464Y0071311D01*
X0052227Y0071474D01*
X0051994Y0071642D01*
X0051765Y0071816D01*
X0051540Y0071996D01*
X0051320Y0072181D01*
X0051105Y0072371D01*
X0050894Y0072567D01*
X0050689Y0072768D01*
X0050488Y0072973D01*
X0050292Y0073184D01*
X0050102Y0073399D01*
X0049917Y0073619D01*
X0049737Y0073844D01*
X0049563Y0074073D01*
X0049395Y0074306D01*
X0049232Y0074543D01*
X0049075Y0074784D01*
X0048924Y0075028D01*
X0048780Y0075277D01*
X0048641Y0075529D01*
X0048509Y0075784D01*
X0048383Y0076042D01*
X0048263Y0076303D01*
X0048150Y0076568D01*
X0048043Y0076835D01*
X0047943Y0077104D01*
X0047849Y0077376D01*
X0047762Y0077650D01*
X0047682Y0077926D01*
X0047609Y0078204D01*
X0047543Y0078484D01*
X0047483Y0078765D01*
X0047430Y0079048D01*
X0047385Y0079331D01*
X0047346Y0079616D01*
X0047314Y0079902D01*
X0047290Y0080188D01*
X0047272Y0080475D01*
X0047262Y0080763D01*
X0047258Y0081050D01*
X0088471Y0111050D02*
X0118471Y0111050D01*
D14*
X0094593Y0089656D02*
X0094595Y0089728D01*
X0094601Y0089800D01*
X0094611Y0089871D01*
X0094624Y0089942D01*
X0094642Y0090012D01*
X0094663Y0090081D01*
X0094688Y0090148D01*
X0094717Y0090214D01*
X0094749Y0090279D01*
X0094785Y0090341D01*
X0094824Y0090402D01*
X0094866Y0090460D01*
X0094912Y0090516D01*
X0094960Y0090569D01*
X0095012Y0090620D01*
X0095066Y0090668D01*
X0095122Y0090712D01*
X0095181Y0090754D01*
X0095242Y0090792D01*
X0095305Y0090827D01*
X0095370Y0090859D01*
X0095437Y0090886D01*
X0095504Y0090910D01*
X0095574Y0090931D01*
X0095644Y0090947D01*
X0095715Y0090960D01*
X0095786Y0090969D01*
X0095858Y0090974D01*
X0095930Y0090975D01*
X0096002Y0090972D01*
X0096074Y0090965D01*
X0096145Y0090954D01*
X0096216Y0090940D01*
X0096285Y0090921D01*
X0096354Y0090899D01*
X0096421Y0090873D01*
X0096487Y0090843D01*
X0096551Y0090810D01*
X0096613Y0090774D01*
X0096673Y0090734D01*
X0096730Y0090690D01*
X0096786Y0090644D01*
X0096838Y0090595D01*
X0096888Y0090543D01*
X0096935Y0090488D01*
X0096979Y0090431D01*
X0097020Y0090372D01*
X0097057Y0090310D01*
X0097091Y0090247D01*
X0097122Y0090181D01*
X0097149Y0090115D01*
X0097172Y0090046D01*
X0097191Y0089977D01*
X0097207Y0089907D01*
X0097219Y0089836D01*
X0097227Y0089764D01*
X0097231Y0089692D01*
X0097231Y0089620D01*
X0097227Y0089548D01*
X0097219Y0089476D01*
X0097207Y0089405D01*
X0097191Y0089335D01*
X0097172Y0089266D01*
X0097149Y0089197D01*
X0097122Y0089131D01*
X0097091Y0089065D01*
X0097057Y0089002D01*
X0097020Y0088940D01*
X0096979Y0088881D01*
X0096935Y0088824D01*
X0096888Y0088769D01*
X0096838Y0088717D01*
X0096786Y0088668D01*
X0096730Y0088622D01*
X0096673Y0088578D01*
X0096613Y0088538D01*
X0096551Y0088502D01*
X0096487Y0088469D01*
X0096421Y0088439D01*
X0096354Y0088413D01*
X0096285Y0088391D01*
X0096216Y0088372D01*
X0096145Y0088358D01*
X0096074Y0088347D01*
X0096002Y0088340D01*
X0095930Y0088337D01*
X0095858Y0088338D01*
X0095786Y0088343D01*
X0095715Y0088352D01*
X0095644Y0088365D01*
X0095574Y0088381D01*
X0095504Y0088402D01*
X0095437Y0088426D01*
X0095370Y0088453D01*
X0095305Y0088485D01*
X0095242Y0088520D01*
X0095181Y0088558D01*
X0095122Y0088600D01*
X0095066Y0088644D01*
X0095012Y0088692D01*
X0094960Y0088743D01*
X0094912Y0088796D01*
X0094866Y0088852D01*
X0094824Y0088910D01*
X0094785Y0088971D01*
X0094749Y0089033D01*
X0094717Y0089098D01*
X0094688Y0089164D01*
X0094663Y0089231D01*
X0094642Y0089300D01*
X0094624Y0089370D01*
X0094611Y0089441D01*
X0094601Y0089512D01*
X0094595Y0089584D01*
X0094593Y0089656D01*
X0094271Y0067452D02*
X0094271Y0064648D01*
X0097621Y0064648D02*
X0097621Y0067452D01*
X0068172Y0049952D02*
X0068172Y0047148D01*
X0064822Y0047148D02*
X0064822Y0049952D01*
X0061172Y0049952D02*
X0061172Y0047148D01*
X0057822Y0047148D02*
X0057822Y0049952D01*
X0199171Y0051350D02*
X0201727Y0049817D01*
X0199171Y0048283D01*
X0203771Y0048283D01*
X0204283Y0046339D02*
X0204283Y0044294D01*
X0202494Y0042544D02*
X0200449Y0042544D01*
X0200449Y0042545D02*
X0200379Y0042543D01*
X0200308Y0042537D01*
X0200239Y0042528D01*
X0200170Y0042514D01*
X0200101Y0042497D01*
X0200034Y0042476D01*
X0199968Y0042451D01*
X0199904Y0042423D01*
X0199841Y0042391D01*
X0199780Y0042356D01*
X0199721Y0042317D01*
X0199664Y0042276D01*
X0199610Y0042231D01*
X0199558Y0042183D01*
X0199509Y0042133D01*
X0199462Y0042079D01*
X0199419Y0042024D01*
X0199379Y0041966D01*
X0199342Y0041906D01*
X0199309Y0041844D01*
X0199279Y0041780D01*
X0199252Y0041715D01*
X0199229Y0041649D01*
X0199210Y0041581D01*
X0199195Y0041512D01*
X0199183Y0041443D01*
X0199175Y0041373D01*
X0199171Y0041302D01*
X0199171Y0041232D01*
X0199175Y0041161D01*
X0199183Y0041091D01*
X0199195Y0041022D01*
X0199210Y0040953D01*
X0199229Y0040885D01*
X0199252Y0040819D01*
X0199279Y0040754D01*
X0199309Y0040690D01*
X0199342Y0040628D01*
X0199379Y0040568D01*
X0199419Y0040510D01*
X0199462Y0040455D01*
X0199509Y0040401D01*
X0199558Y0040351D01*
X0199610Y0040303D01*
X0199664Y0040258D01*
X0199721Y0040217D01*
X0199780Y0040178D01*
X0199841Y0040143D01*
X0199904Y0040111D01*
X0199968Y0040083D01*
X0200034Y0040058D01*
X0200101Y0040037D01*
X0200170Y0040020D01*
X0200239Y0040006D01*
X0200308Y0039997D01*
X0200379Y0039991D01*
X0200449Y0039989D01*
X0202494Y0039989D01*
X0202564Y0039991D01*
X0202635Y0039997D01*
X0202704Y0040006D01*
X0202773Y0040020D01*
X0202842Y0040037D01*
X0202909Y0040058D01*
X0202975Y0040083D01*
X0203039Y0040111D01*
X0203102Y0040143D01*
X0203163Y0040178D01*
X0203222Y0040217D01*
X0203279Y0040258D01*
X0203333Y0040303D01*
X0203385Y0040351D01*
X0203434Y0040401D01*
X0203481Y0040455D01*
X0203524Y0040510D01*
X0203564Y0040568D01*
X0203601Y0040628D01*
X0203634Y0040690D01*
X0203664Y0040754D01*
X0203691Y0040819D01*
X0203714Y0040885D01*
X0203733Y0040953D01*
X0203748Y0041022D01*
X0203760Y0041091D01*
X0203768Y0041161D01*
X0203772Y0041232D01*
X0203772Y0041302D01*
X0203768Y0041373D01*
X0203760Y0041443D01*
X0203748Y0041512D01*
X0203733Y0041581D01*
X0203714Y0041649D01*
X0203691Y0041715D01*
X0203664Y0041780D01*
X0203634Y0041844D01*
X0203601Y0041906D01*
X0203564Y0041966D01*
X0203524Y0042024D01*
X0203481Y0042079D01*
X0203434Y0042133D01*
X0203385Y0042183D01*
X0203333Y0042231D01*
X0203279Y0042276D01*
X0203222Y0042317D01*
X0203163Y0042356D01*
X0203102Y0042391D01*
X0203039Y0042423D01*
X0202975Y0042451D01*
X0202909Y0042476D01*
X0202842Y0042497D01*
X0202773Y0042514D01*
X0202704Y0042528D01*
X0202635Y0042537D01*
X0202564Y0042543D01*
X0202494Y0042545D01*
X0202494Y0037894D02*
X0199171Y0037894D01*
X0199171Y0035339D02*
X0202494Y0035339D01*
X0202564Y0035341D01*
X0202635Y0035347D01*
X0202704Y0035356D01*
X0202773Y0035370D01*
X0202842Y0035387D01*
X0202909Y0035408D01*
X0202975Y0035433D01*
X0203039Y0035461D01*
X0203102Y0035493D01*
X0203163Y0035528D01*
X0203222Y0035567D01*
X0203279Y0035608D01*
X0203333Y0035653D01*
X0203385Y0035701D01*
X0203434Y0035751D01*
X0203481Y0035805D01*
X0203524Y0035860D01*
X0203564Y0035918D01*
X0203601Y0035978D01*
X0203634Y0036040D01*
X0203664Y0036104D01*
X0203691Y0036169D01*
X0203714Y0036235D01*
X0203733Y0036303D01*
X0203748Y0036372D01*
X0203760Y0036441D01*
X0203768Y0036511D01*
X0203772Y0036582D01*
X0203772Y0036652D01*
X0203768Y0036723D01*
X0203760Y0036793D01*
X0203748Y0036862D01*
X0203733Y0036931D01*
X0203714Y0036999D01*
X0203691Y0037065D01*
X0203664Y0037130D01*
X0203634Y0037194D01*
X0203601Y0037256D01*
X0203564Y0037316D01*
X0203524Y0037374D01*
X0203481Y0037429D01*
X0203434Y0037483D01*
X0203385Y0037533D01*
X0203333Y0037581D01*
X0203279Y0037626D01*
X0203222Y0037667D01*
X0203163Y0037706D01*
X0203102Y0037741D01*
X0203039Y0037773D01*
X0202975Y0037801D01*
X0202909Y0037826D01*
X0202842Y0037847D01*
X0202773Y0037864D01*
X0202704Y0037878D01*
X0202635Y0037887D01*
X0202564Y0037893D01*
X0202494Y0037895D01*
X0199171Y0033544D02*
X0199171Y0030989D01*
X0199171Y0032267D02*
X0203771Y0032267D01*
X0203771Y0051350D02*
X0199171Y0051350D01*
X0200449Y0060694D02*
X0202494Y0060694D01*
X0202563Y0060696D01*
X0202632Y0060701D01*
X0202701Y0060711D01*
X0202769Y0060724D01*
X0202836Y0060741D01*
X0202902Y0060761D01*
X0202967Y0060785D01*
X0203031Y0060812D01*
X0203093Y0060843D01*
X0203153Y0060877D01*
X0203211Y0060914D01*
X0203267Y0060955D01*
X0203321Y0060998D01*
X0203373Y0061044D01*
X0203422Y0061093D01*
X0203468Y0061145D01*
X0203511Y0061199D01*
X0203552Y0061255D01*
X0203589Y0061313D01*
X0203623Y0061373D01*
X0203654Y0061435D01*
X0203681Y0061499D01*
X0203705Y0061564D01*
X0203725Y0061630D01*
X0203742Y0061697D01*
X0203755Y0061765D01*
X0203765Y0061834D01*
X0203770Y0061903D01*
X0203772Y0061972D01*
X0203771Y0061972D02*
X0203771Y0063250D01*
X0199171Y0063250D01*
X0199171Y0061972D01*
X0199173Y0061903D01*
X0199178Y0061834D01*
X0199188Y0061765D01*
X0199201Y0061697D01*
X0199218Y0061630D01*
X0199238Y0061564D01*
X0199262Y0061499D01*
X0199289Y0061435D01*
X0199320Y0061373D01*
X0199354Y0061313D01*
X0199391Y0061255D01*
X0199432Y0061199D01*
X0199475Y0061145D01*
X0199521Y0061093D01*
X0199570Y0061044D01*
X0199622Y0060998D01*
X0199676Y0060955D01*
X0199732Y0060914D01*
X0199790Y0060877D01*
X0199850Y0060843D01*
X0199912Y0060812D01*
X0199976Y0060785D01*
X0200041Y0060761D01*
X0200107Y0060741D01*
X0200174Y0060724D01*
X0200242Y0060711D01*
X0200311Y0060701D01*
X0200380Y0060696D01*
X0200449Y0060694D01*
X0199171Y0065494D02*
X0203771Y0065494D01*
X0199171Y0068050D01*
X0203771Y0068050D01*
X0203771Y0070294D02*
X0201216Y0070294D01*
X0201216Y0071061D01*
X0200194Y0072850D02*
X0200132Y0072848D01*
X0200071Y0072843D01*
X0200010Y0072833D01*
X0199949Y0072820D01*
X0199890Y0072804D01*
X0199832Y0072784D01*
X0199775Y0072760D01*
X0199719Y0072733D01*
X0199665Y0072703D01*
X0199613Y0072669D01*
X0199564Y0072633D01*
X0199516Y0072593D01*
X0199471Y0072551D01*
X0199429Y0072506D01*
X0199390Y0072458D01*
X0199353Y0072409D01*
X0199319Y0072357D01*
X0199289Y0072303D01*
X0199262Y0072247D01*
X0199238Y0072190D01*
X0199218Y0072132D01*
X0199202Y0072073D01*
X0199189Y0072012D01*
X0199179Y0071951D01*
X0199174Y0071890D01*
X0199172Y0071828D01*
X0199171Y0071828D02*
X0199171Y0070294D01*
X0200194Y0072850D02*
X0202749Y0072850D01*
X0202811Y0072848D01*
X0202872Y0072843D01*
X0202933Y0072833D01*
X0202994Y0072820D01*
X0203053Y0072804D01*
X0203111Y0072784D01*
X0203168Y0072760D01*
X0203224Y0072733D01*
X0203278Y0072703D01*
X0203330Y0072669D01*
X0203379Y0072633D01*
X0203427Y0072593D01*
X0203472Y0072551D01*
X0203514Y0072506D01*
X0203554Y0072458D01*
X0203590Y0072409D01*
X0203624Y0072357D01*
X0203654Y0072303D01*
X0203681Y0072247D01*
X0203705Y0072190D01*
X0203725Y0072132D01*
X0203741Y0072073D01*
X0203754Y0072012D01*
X0203764Y0071951D01*
X0203769Y0071890D01*
X0203771Y0071828D01*
X0203771Y0070294D01*
X0199171Y0083483D02*
X0203771Y0085017D01*
X0199171Y0086550D01*
X0199171Y0089772D02*
X0202749Y0090794D01*
X0202749Y0088239D01*
X0201727Y0089006D02*
X0203771Y0089006D01*
X0203771Y0092739D02*
X0203771Y0095294D01*
X0201216Y0093122D01*
X0199172Y0093889D02*
X0199174Y0093963D01*
X0199179Y0094037D01*
X0199189Y0094111D01*
X0199202Y0094184D01*
X0199218Y0094257D01*
X0199239Y0094328D01*
X0199263Y0094398D01*
X0199290Y0094467D01*
X0199321Y0094535D01*
X0199355Y0094601D01*
X0199392Y0094665D01*
X0199433Y0094727D01*
X0199477Y0094788D01*
X0199523Y0094845D01*
X0199573Y0094901D01*
X0199625Y0094954D01*
X0199680Y0095004D01*
X0199737Y0095051D01*
X0199797Y0095095D01*
X0199859Y0095137D01*
X0199922Y0095175D01*
X0199988Y0095210D01*
X0200055Y0095241D01*
X0200124Y0095269D01*
X0200194Y0095294D01*
X0201215Y0093122D02*
X0201168Y0093075D01*
X0201118Y0093031D01*
X0201066Y0092989D01*
X0201012Y0092950D01*
X0200956Y0092915D01*
X0200898Y0092882D01*
X0200838Y0092852D01*
X0200777Y0092826D01*
X0200714Y0092803D01*
X0200650Y0092784D01*
X0200586Y0092768D01*
X0200520Y0092755D01*
X0200454Y0092746D01*
X0200388Y0092741D01*
X0200321Y0092739D01*
X0200254Y0092741D01*
X0200187Y0092747D01*
X0200121Y0092756D01*
X0200056Y0092770D01*
X0199991Y0092787D01*
X0199928Y0092808D01*
X0199866Y0092833D01*
X0199805Y0092861D01*
X0199746Y0092893D01*
X0199689Y0092928D01*
X0199634Y0092967D01*
X0199582Y0093008D01*
X0199532Y0093053D01*
X0199485Y0093100D01*
X0199440Y0093150D01*
X0199399Y0093202D01*
X0199360Y0093257D01*
X0199325Y0093314D01*
X0199293Y0093373D01*
X0199265Y0093434D01*
X0199240Y0093496D01*
X0199219Y0093559D01*
X0199202Y0093624D01*
X0199188Y0093689D01*
X0199179Y0093755D01*
X0199173Y0093822D01*
X0199171Y0093889D01*
X0201983Y0097283D02*
X0201983Y0100350D01*
X0203516Y0098817D02*
X0200449Y0098817D01*
D15*
X0180721Y0027400D02*
X0179027Y0027400D01*
X0178946Y0027398D01*
X0178866Y0027392D01*
X0178786Y0027383D01*
X0178706Y0027369D01*
X0178628Y0027352D01*
X0178550Y0027331D01*
X0178473Y0027307D01*
X0178397Y0027279D01*
X0178323Y0027247D01*
X0178251Y0027212D01*
X0178180Y0027173D01*
X0178111Y0027131D01*
X0178044Y0027086D01*
X0177980Y0027038D01*
X0177918Y0026986D01*
X0177858Y0026932D01*
X0177801Y0026875D01*
X0177747Y0026815D01*
X0177695Y0026753D01*
X0177647Y0026689D01*
X0177602Y0026622D01*
X0177560Y0026553D01*
X0177521Y0026482D01*
X0177486Y0026410D01*
X0177454Y0026336D01*
X0177426Y0026260D01*
X0177402Y0026183D01*
X0177381Y0026105D01*
X0177364Y0026027D01*
X0177350Y0025947D01*
X0177341Y0025867D01*
X0177335Y0025787D01*
X0177333Y0025706D01*
X0177335Y0025625D01*
X0177341Y0025545D01*
X0177350Y0025465D01*
X0177364Y0025385D01*
X0177381Y0025307D01*
X0177402Y0025229D01*
X0177426Y0025152D01*
X0177454Y0025076D01*
X0177486Y0025002D01*
X0177521Y0024930D01*
X0177560Y0024859D01*
X0177602Y0024790D01*
X0177647Y0024723D01*
X0177695Y0024659D01*
X0177747Y0024597D01*
X0177801Y0024537D01*
X0177858Y0024480D01*
X0177918Y0024426D01*
X0177980Y0024374D01*
X0178044Y0024326D01*
X0178111Y0024281D01*
X0178180Y0024239D01*
X0178251Y0024200D01*
X0178323Y0024165D01*
X0178397Y0024133D01*
X0178473Y0024105D01*
X0178550Y0024081D01*
X0178628Y0024060D01*
X0178706Y0024043D01*
X0178786Y0024029D01*
X0178866Y0024020D01*
X0178946Y0024014D01*
X0179027Y0024012D01*
X0179027Y0024011D02*
X0180721Y0024011D01*
X0180721Y0021300D02*
X0180721Y0027400D01*
X0174967Y0025367D02*
X0172933Y0025367D01*
X0172933Y0024689D01*
X0174967Y0025367D02*
X0174967Y0021300D01*
X0175721Y0017400D02*
X0173688Y0014011D01*
X0171655Y0017400D01*
X0171655Y0011300D01*
X0169175Y0011300D02*
X0168837Y0011300D01*
X0168837Y0011639D01*
X0169175Y0011639D01*
X0169175Y0011300D01*
X0164057Y0011300D02*
X0163379Y0011300D01*
X0163308Y0011302D01*
X0163237Y0011307D01*
X0163167Y0011317D01*
X0163097Y0011330D01*
X0163028Y0011346D01*
X0162960Y0011366D01*
X0162893Y0011390D01*
X0162827Y0011417D01*
X0162763Y0011448D01*
X0162701Y0011482D01*
X0162640Y0011519D01*
X0162582Y0011559D01*
X0162526Y0011602D01*
X0162472Y0011648D01*
X0162420Y0011697D01*
X0162371Y0011749D01*
X0162325Y0011803D01*
X0162282Y0011859D01*
X0162242Y0011917D01*
X0162205Y0011978D01*
X0162171Y0012040D01*
X0162140Y0012104D01*
X0162113Y0012170D01*
X0162089Y0012237D01*
X0162069Y0012305D01*
X0162053Y0012374D01*
X0162040Y0012444D01*
X0162030Y0012514D01*
X0162025Y0012585D01*
X0162023Y0012656D01*
X0162024Y0012656D02*
X0162024Y0017400D01*
X0159125Y0015367D02*
X0157769Y0015367D01*
X0157708Y0015365D01*
X0157646Y0015360D01*
X0157586Y0015350D01*
X0157526Y0015337D01*
X0157466Y0015321D01*
X0157408Y0015301D01*
X0157352Y0015277D01*
X0157296Y0015251D01*
X0157243Y0015220D01*
X0157191Y0015187D01*
X0157142Y0015151D01*
X0157095Y0015111D01*
X0157050Y0015069D01*
X0157008Y0015024D01*
X0156968Y0014977D01*
X0156932Y0014928D01*
X0156899Y0014876D01*
X0156868Y0014823D01*
X0156842Y0014767D01*
X0156818Y0014711D01*
X0156798Y0014653D01*
X0156782Y0014593D01*
X0156769Y0014533D01*
X0156759Y0014473D01*
X0156754Y0014411D01*
X0156752Y0014350D01*
X0156752Y0011300D01*
X0158277Y0011300D01*
X0158345Y0011302D01*
X0158412Y0011308D01*
X0158479Y0011317D01*
X0158546Y0011331D01*
X0158611Y0011348D01*
X0158676Y0011369D01*
X0158739Y0011394D01*
X0158800Y0011422D01*
X0158860Y0011453D01*
X0158918Y0011488D01*
X0158974Y0011527D01*
X0159028Y0011568D01*
X0159079Y0011612D01*
X0159128Y0011659D01*
X0159173Y0011709D01*
X0159216Y0011762D01*
X0159256Y0011817D01*
X0159293Y0011874D01*
X0159326Y0011933D01*
X0159356Y0011993D01*
X0159382Y0012056D01*
X0159405Y0012120D01*
X0159424Y0012184D01*
X0159439Y0012250D01*
X0159451Y0012317D01*
X0159459Y0012385D01*
X0159463Y0012452D01*
X0159463Y0012520D01*
X0159459Y0012587D01*
X0159451Y0012655D01*
X0159439Y0012722D01*
X0159424Y0012788D01*
X0159405Y0012852D01*
X0159382Y0012916D01*
X0159356Y0012979D01*
X0159326Y0013039D01*
X0159293Y0013098D01*
X0159256Y0013155D01*
X0159216Y0013210D01*
X0159173Y0013263D01*
X0159128Y0013313D01*
X0159079Y0013360D01*
X0159028Y0013404D01*
X0158974Y0013445D01*
X0158918Y0013484D01*
X0158860Y0013519D01*
X0158800Y0013550D01*
X0158739Y0013578D01*
X0158676Y0013603D01*
X0158611Y0013624D01*
X0158546Y0013641D01*
X0158479Y0013655D01*
X0158412Y0013664D01*
X0158345Y0013670D01*
X0158277Y0013672D01*
X0156752Y0013672D01*
X0153912Y0013333D02*
X0151201Y0015367D01*
X0152726Y0014181D02*
X0151201Y0011300D01*
X0148902Y0012317D02*
X0148902Y0015367D01*
X0146191Y0015367D02*
X0146191Y0011300D01*
X0147885Y0011300D01*
X0147946Y0011302D01*
X0148008Y0011307D01*
X0148068Y0011317D01*
X0148128Y0011330D01*
X0148188Y0011346D01*
X0148246Y0011366D01*
X0148302Y0011390D01*
X0148358Y0011416D01*
X0148411Y0011447D01*
X0148463Y0011480D01*
X0148512Y0011516D01*
X0148559Y0011556D01*
X0148604Y0011598D01*
X0148646Y0011643D01*
X0148686Y0011690D01*
X0148722Y0011739D01*
X0148755Y0011791D01*
X0148786Y0011844D01*
X0148812Y0011900D01*
X0148836Y0011956D01*
X0148856Y0012014D01*
X0148872Y0012074D01*
X0148885Y0012134D01*
X0148895Y0012194D01*
X0148900Y0012256D01*
X0148902Y0012317D01*
X0143412Y0011300D02*
X0141718Y0011300D01*
X0141657Y0011302D01*
X0141595Y0011307D01*
X0141535Y0011317D01*
X0141475Y0011330D01*
X0141415Y0011346D01*
X0141357Y0011366D01*
X0141301Y0011390D01*
X0141245Y0011416D01*
X0141192Y0011447D01*
X0141140Y0011480D01*
X0141091Y0011516D01*
X0141044Y0011556D01*
X0140999Y0011598D01*
X0140957Y0011643D01*
X0140917Y0011690D01*
X0140881Y0011739D01*
X0140848Y0011791D01*
X0140817Y0011844D01*
X0140791Y0011900D01*
X0140767Y0011956D01*
X0140747Y0012014D01*
X0140731Y0012074D01*
X0140718Y0012134D01*
X0140708Y0012194D01*
X0140703Y0012256D01*
X0140701Y0012317D01*
X0140701Y0014350D01*
X0140703Y0014411D01*
X0140708Y0014473D01*
X0140718Y0014533D01*
X0140731Y0014593D01*
X0140747Y0014653D01*
X0140767Y0014711D01*
X0140791Y0014767D01*
X0140817Y0014823D01*
X0140848Y0014876D01*
X0140881Y0014928D01*
X0140917Y0014977D01*
X0140957Y0015024D01*
X0140999Y0015069D01*
X0141044Y0015111D01*
X0141091Y0015151D01*
X0141140Y0015187D01*
X0141192Y0015220D01*
X0141245Y0015251D01*
X0141301Y0015277D01*
X0141357Y0015301D01*
X0141415Y0015321D01*
X0141475Y0015337D01*
X0141535Y0015350D01*
X0141595Y0015360D01*
X0141657Y0015365D01*
X0141718Y0015367D01*
X0143412Y0015367D01*
X0143412Y0017400D02*
X0143412Y0011300D01*
X0138367Y0012656D02*
X0138367Y0014011D01*
X0138365Y0014083D01*
X0138359Y0014155D01*
X0138350Y0014227D01*
X0138336Y0014298D01*
X0138319Y0014368D01*
X0138298Y0014437D01*
X0138274Y0014505D01*
X0138246Y0014571D01*
X0138214Y0014636D01*
X0138179Y0014699D01*
X0138141Y0014761D01*
X0138099Y0014820D01*
X0138055Y0014876D01*
X0138007Y0014931D01*
X0137957Y0014983D01*
X0137904Y0015031D01*
X0137848Y0015078D01*
X0137790Y0015121D01*
X0137730Y0015161D01*
X0137668Y0015197D01*
X0137604Y0015230D01*
X0137538Y0015260D01*
X0137471Y0015287D01*
X0137402Y0015309D01*
X0137333Y0015328D01*
X0137262Y0015344D01*
X0137191Y0015355D01*
X0137119Y0015363D01*
X0137047Y0015367D01*
X0136975Y0015367D01*
X0136903Y0015363D01*
X0136831Y0015355D01*
X0136760Y0015344D01*
X0136689Y0015328D01*
X0136620Y0015309D01*
X0136551Y0015287D01*
X0136484Y0015260D01*
X0136418Y0015230D01*
X0136354Y0015197D01*
X0136292Y0015161D01*
X0136232Y0015121D01*
X0136174Y0015078D01*
X0136118Y0015031D01*
X0136065Y0014983D01*
X0136015Y0014931D01*
X0135967Y0014876D01*
X0135923Y0014820D01*
X0135881Y0014761D01*
X0135843Y0014699D01*
X0135808Y0014636D01*
X0135776Y0014571D01*
X0135748Y0014505D01*
X0135724Y0014437D01*
X0135703Y0014368D01*
X0135686Y0014298D01*
X0135672Y0014227D01*
X0135663Y0014155D01*
X0135657Y0014083D01*
X0135655Y0014011D01*
X0135656Y0014011D02*
X0135656Y0012656D01*
X0135655Y0012656D02*
X0135657Y0012584D01*
X0135663Y0012512D01*
X0135672Y0012440D01*
X0135686Y0012369D01*
X0135703Y0012299D01*
X0135724Y0012230D01*
X0135748Y0012162D01*
X0135776Y0012096D01*
X0135808Y0012031D01*
X0135843Y0011968D01*
X0135881Y0011906D01*
X0135923Y0011847D01*
X0135967Y0011791D01*
X0136015Y0011736D01*
X0136065Y0011684D01*
X0136118Y0011636D01*
X0136174Y0011589D01*
X0136232Y0011546D01*
X0136292Y0011506D01*
X0136354Y0011470D01*
X0136418Y0011437D01*
X0136484Y0011407D01*
X0136551Y0011380D01*
X0136620Y0011358D01*
X0136689Y0011339D01*
X0136760Y0011323D01*
X0136831Y0011312D01*
X0136903Y0011304D01*
X0136975Y0011300D01*
X0137047Y0011300D01*
X0137119Y0011304D01*
X0137191Y0011312D01*
X0137262Y0011323D01*
X0137333Y0011339D01*
X0137402Y0011358D01*
X0137471Y0011380D01*
X0137538Y0011407D01*
X0137604Y0011437D01*
X0137668Y0011470D01*
X0137730Y0011506D01*
X0137790Y0011546D01*
X0137848Y0011589D01*
X0137904Y0011636D01*
X0137957Y0011684D01*
X0138007Y0011736D01*
X0138055Y0011791D01*
X0138099Y0011847D01*
X0138141Y0011906D01*
X0138179Y0011968D01*
X0138214Y0012031D01*
X0138246Y0012096D01*
X0138274Y0012162D01*
X0138298Y0012230D01*
X0138319Y0012299D01*
X0138336Y0012369D01*
X0138350Y0012440D01*
X0138359Y0012512D01*
X0138365Y0012584D01*
X0138367Y0012656D01*
X0133387Y0015367D02*
X0132371Y0011300D01*
X0131354Y0014011D01*
X0130337Y0011300D01*
X0129321Y0015367D01*
X0126544Y0013672D02*
X0124849Y0012994D01*
X0124849Y0012995D02*
X0124795Y0012972D01*
X0124744Y0012945D01*
X0124694Y0012915D01*
X0124647Y0012881D01*
X0124601Y0012845D01*
X0124559Y0012806D01*
X0124519Y0012764D01*
X0124481Y0012719D01*
X0124447Y0012672D01*
X0124416Y0012623D01*
X0124389Y0012572D01*
X0124364Y0012519D01*
X0124344Y0012465D01*
X0124327Y0012409D01*
X0124313Y0012353D01*
X0124304Y0012296D01*
X0124298Y0012238D01*
X0124296Y0012180D01*
X0124298Y0012122D01*
X0124304Y0012064D01*
X0124313Y0012007D01*
X0124326Y0011950D01*
X0124343Y0011895D01*
X0124364Y0011840D01*
X0124388Y0011787D01*
X0124416Y0011736D01*
X0124447Y0011687D01*
X0124481Y0011640D01*
X0124518Y0011595D01*
X0124558Y0011553D01*
X0124600Y0011514D01*
X0124645Y0011477D01*
X0124693Y0011444D01*
X0124743Y0011414D01*
X0124794Y0011387D01*
X0124847Y0011363D01*
X0124902Y0011344D01*
X0124957Y0011327D01*
X0125014Y0011315D01*
X0125072Y0011306D01*
X0125129Y0011301D01*
X0125188Y0011300D01*
X0124680Y0015028D02*
X0124791Y0015076D01*
X0124904Y0015120D01*
X0125018Y0015161D01*
X0125133Y0015198D01*
X0125249Y0015232D01*
X0125366Y0015262D01*
X0125484Y0015288D01*
X0125603Y0015311D01*
X0125723Y0015329D01*
X0125843Y0015344D01*
X0125963Y0015356D01*
X0126084Y0015363D01*
X0126205Y0015367D01*
X0126204Y0015367D02*
X0126263Y0015366D01*
X0126320Y0015361D01*
X0126378Y0015352D01*
X0126435Y0015340D01*
X0126490Y0015323D01*
X0126545Y0015304D01*
X0126598Y0015280D01*
X0126649Y0015253D01*
X0126699Y0015223D01*
X0126747Y0015190D01*
X0126792Y0015153D01*
X0126834Y0015114D01*
X0126874Y0015072D01*
X0126911Y0015027D01*
X0126945Y0014980D01*
X0126976Y0014931D01*
X0127004Y0014880D01*
X0127028Y0014827D01*
X0127049Y0014772D01*
X0127066Y0014717D01*
X0127079Y0014660D01*
X0127088Y0014603D01*
X0127094Y0014545D01*
X0127096Y0014487D01*
X0127094Y0014429D01*
X0127088Y0014371D01*
X0127079Y0014314D01*
X0127065Y0014258D01*
X0127048Y0014202D01*
X0127028Y0014148D01*
X0127003Y0014095D01*
X0126976Y0014044D01*
X0126945Y0013995D01*
X0126911Y0013948D01*
X0126873Y0013903D01*
X0126833Y0013861D01*
X0126791Y0013822D01*
X0126745Y0013786D01*
X0126698Y0013752D01*
X0126648Y0013722D01*
X0126597Y0013695D01*
X0126543Y0013672D01*
X0127052Y0011639D02*
X0126914Y0011592D01*
X0126774Y0011547D01*
X0126633Y0011507D01*
X0126492Y0011470D01*
X0126349Y0011436D01*
X0126206Y0011406D01*
X0126062Y0011380D01*
X0125917Y0011358D01*
X0125772Y0011339D01*
X0125627Y0011324D01*
X0125481Y0011312D01*
X0125334Y0011305D01*
X0125188Y0011301D01*
X0121722Y0011300D02*
X0121722Y0017400D01*
X0119011Y0015367D02*
X0121722Y0013333D01*
X0120536Y0014181D02*
X0119011Y0011300D01*
X0116917Y0011300D02*
X0116917Y0015367D01*
X0116748Y0017061D02*
X0117087Y0017061D01*
X0117087Y0017400D01*
X0116748Y0017400D01*
X0116748Y0017061D01*
X0116522Y0021300D02*
X0115506Y0024011D01*
X0114489Y0021300D01*
X0113472Y0025367D01*
X0110892Y0025367D02*
X0109536Y0025367D01*
X0109475Y0025365D01*
X0109413Y0025360D01*
X0109353Y0025350D01*
X0109293Y0025337D01*
X0109233Y0025321D01*
X0109175Y0025301D01*
X0109119Y0025277D01*
X0109063Y0025251D01*
X0109010Y0025220D01*
X0108958Y0025187D01*
X0108909Y0025151D01*
X0108862Y0025111D01*
X0108817Y0025069D01*
X0108775Y0025024D01*
X0108735Y0024977D01*
X0108699Y0024928D01*
X0108666Y0024876D01*
X0108635Y0024823D01*
X0108609Y0024767D01*
X0108585Y0024711D01*
X0108565Y0024653D01*
X0108549Y0024593D01*
X0108536Y0024533D01*
X0108526Y0024473D01*
X0108521Y0024411D01*
X0108519Y0024350D01*
X0108519Y0021300D01*
X0110044Y0021300D01*
X0110112Y0021302D01*
X0110179Y0021308D01*
X0110246Y0021317D01*
X0110313Y0021331D01*
X0110378Y0021348D01*
X0110443Y0021369D01*
X0110506Y0021394D01*
X0110567Y0021422D01*
X0110627Y0021453D01*
X0110685Y0021488D01*
X0110741Y0021527D01*
X0110795Y0021568D01*
X0110846Y0021612D01*
X0110895Y0021659D01*
X0110940Y0021709D01*
X0110983Y0021762D01*
X0111023Y0021817D01*
X0111060Y0021874D01*
X0111093Y0021933D01*
X0111123Y0021993D01*
X0111149Y0022056D01*
X0111172Y0022120D01*
X0111191Y0022184D01*
X0111206Y0022250D01*
X0111218Y0022317D01*
X0111226Y0022385D01*
X0111230Y0022452D01*
X0111230Y0022520D01*
X0111226Y0022587D01*
X0111218Y0022655D01*
X0111206Y0022722D01*
X0111191Y0022788D01*
X0111172Y0022852D01*
X0111149Y0022916D01*
X0111123Y0022979D01*
X0111093Y0023039D01*
X0111060Y0023098D01*
X0111023Y0023155D01*
X0110983Y0023210D01*
X0110940Y0023263D01*
X0110895Y0023313D01*
X0110846Y0023360D01*
X0110795Y0023404D01*
X0110741Y0023445D01*
X0110685Y0023484D01*
X0110627Y0023519D01*
X0110567Y0023550D01*
X0110506Y0023578D01*
X0110443Y0023603D01*
X0110378Y0023624D01*
X0110313Y0023641D01*
X0110246Y0023655D01*
X0110179Y0023664D01*
X0110112Y0023670D01*
X0110044Y0023672D01*
X0108519Y0023672D01*
X0116522Y0021300D02*
X0117539Y0025367D01*
X0119808Y0024011D02*
X0119808Y0022656D01*
X0119807Y0022656D02*
X0119809Y0022584D01*
X0119815Y0022512D01*
X0119824Y0022440D01*
X0119838Y0022369D01*
X0119855Y0022299D01*
X0119876Y0022230D01*
X0119900Y0022162D01*
X0119928Y0022096D01*
X0119960Y0022031D01*
X0119995Y0021968D01*
X0120033Y0021906D01*
X0120075Y0021847D01*
X0120119Y0021791D01*
X0120167Y0021736D01*
X0120217Y0021684D01*
X0120270Y0021636D01*
X0120326Y0021589D01*
X0120384Y0021546D01*
X0120444Y0021506D01*
X0120506Y0021470D01*
X0120570Y0021437D01*
X0120636Y0021407D01*
X0120703Y0021380D01*
X0120772Y0021358D01*
X0120841Y0021339D01*
X0120912Y0021323D01*
X0120983Y0021312D01*
X0121055Y0021304D01*
X0121127Y0021300D01*
X0121199Y0021300D01*
X0121271Y0021304D01*
X0121343Y0021312D01*
X0121414Y0021323D01*
X0121485Y0021339D01*
X0121554Y0021358D01*
X0121623Y0021380D01*
X0121690Y0021407D01*
X0121756Y0021437D01*
X0121820Y0021470D01*
X0121882Y0021506D01*
X0121942Y0021546D01*
X0122000Y0021589D01*
X0122056Y0021636D01*
X0122109Y0021684D01*
X0122159Y0021736D01*
X0122207Y0021791D01*
X0122251Y0021847D01*
X0122293Y0021906D01*
X0122331Y0021968D01*
X0122366Y0022031D01*
X0122398Y0022096D01*
X0122426Y0022162D01*
X0122450Y0022230D01*
X0122471Y0022299D01*
X0122488Y0022369D01*
X0122502Y0022440D01*
X0122511Y0022512D01*
X0122517Y0022584D01*
X0122519Y0022656D01*
X0122519Y0024011D01*
X0122517Y0024083D01*
X0122511Y0024155D01*
X0122502Y0024227D01*
X0122488Y0024298D01*
X0122471Y0024368D01*
X0122450Y0024437D01*
X0122426Y0024505D01*
X0122398Y0024571D01*
X0122366Y0024636D01*
X0122331Y0024699D01*
X0122293Y0024761D01*
X0122251Y0024820D01*
X0122207Y0024876D01*
X0122159Y0024931D01*
X0122109Y0024983D01*
X0122056Y0025031D01*
X0122000Y0025078D01*
X0121942Y0025121D01*
X0121882Y0025161D01*
X0121820Y0025197D01*
X0121756Y0025230D01*
X0121690Y0025260D01*
X0121623Y0025287D01*
X0121554Y0025309D01*
X0121485Y0025328D01*
X0121414Y0025344D01*
X0121343Y0025355D01*
X0121271Y0025363D01*
X0121199Y0025367D01*
X0121127Y0025367D01*
X0121055Y0025363D01*
X0120983Y0025355D01*
X0120912Y0025344D01*
X0120841Y0025328D01*
X0120772Y0025309D01*
X0120703Y0025287D01*
X0120636Y0025260D01*
X0120570Y0025230D01*
X0120506Y0025197D01*
X0120444Y0025161D01*
X0120384Y0025121D01*
X0120326Y0025078D01*
X0120270Y0025031D01*
X0120217Y0024983D01*
X0120167Y0024931D01*
X0120119Y0024876D01*
X0120075Y0024820D01*
X0120033Y0024761D01*
X0119995Y0024699D01*
X0119960Y0024636D01*
X0119928Y0024571D01*
X0119900Y0024505D01*
X0119876Y0024437D01*
X0119855Y0024368D01*
X0119838Y0024298D01*
X0119824Y0024227D01*
X0119815Y0024155D01*
X0119809Y0024083D01*
X0119807Y0024011D01*
X0125178Y0024350D02*
X0125178Y0021300D01*
X0127211Y0021300D02*
X0127211Y0025367D01*
X0126194Y0025367D02*
X0129244Y0025367D01*
X0129244Y0021300D01*
X0131903Y0022656D02*
X0131903Y0024011D01*
X0131905Y0024083D01*
X0131911Y0024155D01*
X0131920Y0024227D01*
X0131934Y0024298D01*
X0131951Y0024368D01*
X0131972Y0024437D01*
X0131996Y0024505D01*
X0132024Y0024571D01*
X0132056Y0024636D01*
X0132091Y0024699D01*
X0132129Y0024761D01*
X0132171Y0024820D01*
X0132215Y0024876D01*
X0132263Y0024931D01*
X0132313Y0024983D01*
X0132366Y0025031D01*
X0132422Y0025078D01*
X0132480Y0025121D01*
X0132540Y0025161D01*
X0132602Y0025197D01*
X0132666Y0025230D01*
X0132732Y0025260D01*
X0132799Y0025287D01*
X0132868Y0025309D01*
X0132937Y0025328D01*
X0133008Y0025344D01*
X0133079Y0025355D01*
X0133151Y0025363D01*
X0133223Y0025367D01*
X0133295Y0025367D01*
X0133367Y0025363D01*
X0133439Y0025355D01*
X0133510Y0025344D01*
X0133581Y0025328D01*
X0133650Y0025309D01*
X0133719Y0025287D01*
X0133786Y0025260D01*
X0133852Y0025230D01*
X0133916Y0025197D01*
X0133978Y0025161D01*
X0134038Y0025121D01*
X0134096Y0025078D01*
X0134152Y0025031D01*
X0134205Y0024983D01*
X0134255Y0024931D01*
X0134303Y0024876D01*
X0134347Y0024820D01*
X0134389Y0024761D01*
X0134427Y0024699D01*
X0134462Y0024636D01*
X0134494Y0024571D01*
X0134522Y0024505D01*
X0134546Y0024437D01*
X0134567Y0024368D01*
X0134584Y0024298D01*
X0134598Y0024227D01*
X0134607Y0024155D01*
X0134613Y0024083D01*
X0134615Y0024011D01*
X0134614Y0024011D02*
X0134614Y0022656D01*
X0134615Y0022656D02*
X0134613Y0022584D01*
X0134607Y0022512D01*
X0134598Y0022440D01*
X0134584Y0022369D01*
X0134567Y0022299D01*
X0134546Y0022230D01*
X0134522Y0022162D01*
X0134494Y0022096D01*
X0134462Y0022031D01*
X0134427Y0021968D01*
X0134389Y0021906D01*
X0134347Y0021847D01*
X0134303Y0021791D01*
X0134255Y0021736D01*
X0134205Y0021684D01*
X0134152Y0021636D01*
X0134096Y0021589D01*
X0134038Y0021546D01*
X0133978Y0021506D01*
X0133916Y0021470D01*
X0133852Y0021437D01*
X0133786Y0021407D01*
X0133719Y0021380D01*
X0133650Y0021358D01*
X0133581Y0021339D01*
X0133510Y0021323D01*
X0133439Y0021312D01*
X0133367Y0021304D01*
X0133295Y0021300D01*
X0133223Y0021300D01*
X0133151Y0021304D01*
X0133079Y0021312D01*
X0133008Y0021323D01*
X0132937Y0021339D01*
X0132868Y0021358D01*
X0132799Y0021380D01*
X0132732Y0021407D01*
X0132666Y0021437D01*
X0132602Y0021470D01*
X0132540Y0021506D01*
X0132480Y0021546D01*
X0132422Y0021589D01*
X0132366Y0021636D01*
X0132313Y0021684D01*
X0132263Y0021736D01*
X0132215Y0021791D01*
X0132171Y0021847D01*
X0132129Y0021906D01*
X0132091Y0021968D01*
X0132056Y0022031D01*
X0132024Y0022096D01*
X0131996Y0022162D01*
X0131972Y0022230D01*
X0131951Y0022299D01*
X0131934Y0022369D01*
X0131920Y0022440D01*
X0131911Y0022512D01*
X0131905Y0022584D01*
X0131903Y0022656D01*
X0136629Y0021300D02*
X0136690Y0021302D01*
X0136752Y0021307D01*
X0136812Y0021317D01*
X0136872Y0021330D01*
X0136932Y0021346D01*
X0136990Y0021366D01*
X0137046Y0021390D01*
X0137102Y0021416D01*
X0137155Y0021447D01*
X0137207Y0021480D01*
X0137256Y0021516D01*
X0137303Y0021556D01*
X0137348Y0021598D01*
X0137390Y0021643D01*
X0137430Y0021690D01*
X0137466Y0021739D01*
X0137499Y0021791D01*
X0137530Y0021844D01*
X0137556Y0021900D01*
X0137580Y0021956D01*
X0137600Y0022014D01*
X0137616Y0022074D01*
X0137629Y0022134D01*
X0137639Y0022194D01*
X0137644Y0022256D01*
X0137646Y0022317D01*
X0137645Y0022317D02*
X0137645Y0027400D01*
X0141087Y0025367D02*
X0142781Y0025367D01*
X0142781Y0019267D01*
X0142781Y0021300D02*
X0141087Y0021300D01*
X0141026Y0021302D01*
X0140964Y0021307D01*
X0140904Y0021317D01*
X0140844Y0021330D01*
X0140784Y0021346D01*
X0140726Y0021366D01*
X0140670Y0021390D01*
X0140614Y0021416D01*
X0140561Y0021447D01*
X0140509Y0021480D01*
X0140460Y0021516D01*
X0140413Y0021556D01*
X0140368Y0021598D01*
X0140326Y0021643D01*
X0140286Y0021690D01*
X0140250Y0021739D01*
X0140217Y0021791D01*
X0140186Y0021844D01*
X0140160Y0021900D01*
X0140136Y0021956D01*
X0140116Y0022014D01*
X0140100Y0022074D01*
X0140087Y0022134D01*
X0140077Y0022194D01*
X0140072Y0022256D01*
X0140070Y0022317D01*
X0140070Y0024350D01*
X0140072Y0024411D01*
X0140077Y0024473D01*
X0140087Y0024533D01*
X0140100Y0024593D01*
X0140116Y0024653D01*
X0140136Y0024711D01*
X0140160Y0024767D01*
X0140186Y0024823D01*
X0140217Y0024876D01*
X0140250Y0024928D01*
X0140286Y0024977D01*
X0140326Y0025024D01*
X0140368Y0025069D01*
X0140413Y0025111D01*
X0140460Y0025151D01*
X0140509Y0025187D01*
X0140561Y0025220D01*
X0140614Y0025251D01*
X0140670Y0025277D01*
X0140726Y0025301D01*
X0140784Y0025321D01*
X0140844Y0025337D01*
X0140904Y0025350D01*
X0140964Y0025360D01*
X0141026Y0025365D01*
X0141087Y0025367D01*
X0145169Y0025367D02*
X0147202Y0019267D01*
X0147880Y0019267D01*
X0146525Y0021300D02*
X0147880Y0025367D01*
X0150268Y0025367D02*
X0151963Y0025367D01*
X0152024Y0025365D01*
X0152086Y0025360D01*
X0152146Y0025350D01*
X0152206Y0025337D01*
X0152266Y0025321D01*
X0152324Y0025301D01*
X0152380Y0025277D01*
X0152436Y0025251D01*
X0152489Y0025220D01*
X0152541Y0025187D01*
X0152590Y0025151D01*
X0152637Y0025111D01*
X0152682Y0025069D01*
X0152724Y0025024D01*
X0152764Y0024977D01*
X0152800Y0024928D01*
X0152833Y0024876D01*
X0152864Y0024823D01*
X0152890Y0024767D01*
X0152914Y0024711D01*
X0152934Y0024653D01*
X0152950Y0024593D01*
X0152963Y0024533D01*
X0152973Y0024473D01*
X0152978Y0024411D01*
X0152980Y0024350D01*
X0152980Y0022317D01*
X0152978Y0022256D01*
X0152973Y0022194D01*
X0152963Y0022134D01*
X0152950Y0022074D01*
X0152934Y0022014D01*
X0152914Y0021956D01*
X0152890Y0021900D01*
X0152864Y0021844D01*
X0152833Y0021791D01*
X0152800Y0021739D01*
X0152764Y0021690D01*
X0152724Y0021643D01*
X0152682Y0021598D01*
X0152637Y0021556D01*
X0152590Y0021516D01*
X0152541Y0021480D01*
X0152489Y0021447D01*
X0152436Y0021416D01*
X0152380Y0021390D01*
X0152324Y0021366D01*
X0152266Y0021346D01*
X0152206Y0021330D01*
X0152146Y0021317D01*
X0152086Y0021307D01*
X0152024Y0021302D01*
X0151963Y0021300D01*
X0150268Y0021300D01*
X0150268Y0027400D01*
X0158657Y0024350D02*
X0158657Y0021300D01*
X0160182Y0021300D01*
X0160250Y0021302D01*
X0160317Y0021308D01*
X0160384Y0021317D01*
X0160451Y0021331D01*
X0160516Y0021348D01*
X0160581Y0021369D01*
X0160644Y0021394D01*
X0160705Y0021422D01*
X0160765Y0021453D01*
X0160823Y0021488D01*
X0160879Y0021527D01*
X0160933Y0021568D01*
X0160984Y0021612D01*
X0161033Y0021659D01*
X0161078Y0021709D01*
X0161121Y0021762D01*
X0161161Y0021817D01*
X0161198Y0021874D01*
X0161231Y0021933D01*
X0161261Y0021993D01*
X0161287Y0022056D01*
X0161310Y0022120D01*
X0161329Y0022184D01*
X0161344Y0022250D01*
X0161356Y0022317D01*
X0161364Y0022385D01*
X0161368Y0022452D01*
X0161368Y0022520D01*
X0161364Y0022587D01*
X0161356Y0022655D01*
X0161344Y0022722D01*
X0161329Y0022788D01*
X0161310Y0022852D01*
X0161287Y0022916D01*
X0161261Y0022979D01*
X0161231Y0023039D01*
X0161198Y0023098D01*
X0161161Y0023155D01*
X0161121Y0023210D01*
X0161078Y0023263D01*
X0161033Y0023313D01*
X0160984Y0023360D01*
X0160933Y0023404D01*
X0160879Y0023445D01*
X0160823Y0023484D01*
X0160765Y0023519D01*
X0160705Y0023550D01*
X0160644Y0023578D01*
X0160581Y0023603D01*
X0160516Y0023624D01*
X0160451Y0023641D01*
X0160384Y0023655D01*
X0160317Y0023664D01*
X0160250Y0023670D01*
X0160182Y0023672D01*
X0158657Y0023672D01*
X0158657Y0024350D02*
X0158659Y0024411D01*
X0158664Y0024473D01*
X0158674Y0024533D01*
X0158687Y0024593D01*
X0158703Y0024653D01*
X0158723Y0024711D01*
X0158747Y0024767D01*
X0158773Y0024823D01*
X0158804Y0024876D01*
X0158837Y0024928D01*
X0158873Y0024977D01*
X0158913Y0025024D01*
X0158955Y0025069D01*
X0159000Y0025111D01*
X0159047Y0025151D01*
X0159096Y0025187D01*
X0159148Y0025220D01*
X0159201Y0025251D01*
X0159257Y0025277D01*
X0159313Y0025301D01*
X0159371Y0025321D01*
X0159431Y0025337D01*
X0159491Y0025350D01*
X0159551Y0025360D01*
X0159613Y0025365D01*
X0159674Y0025367D01*
X0161029Y0025367D01*
X0163450Y0025367D02*
X0164805Y0025367D01*
X0164866Y0025365D01*
X0164928Y0025360D01*
X0164988Y0025350D01*
X0165048Y0025337D01*
X0165108Y0025321D01*
X0165166Y0025301D01*
X0165222Y0025277D01*
X0165278Y0025251D01*
X0165331Y0025220D01*
X0165383Y0025187D01*
X0165432Y0025151D01*
X0165479Y0025111D01*
X0165524Y0025069D01*
X0165566Y0025024D01*
X0165606Y0024977D01*
X0165642Y0024928D01*
X0165675Y0024876D01*
X0165706Y0024823D01*
X0165732Y0024767D01*
X0165756Y0024711D01*
X0165776Y0024653D01*
X0165792Y0024593D01*
X0165805Y0024533D01*
X0165815Y0024473D01*
X0165820Y0024411D01*
X0165822Y0024350D01*
X0165822Y0022317D01*
X0165820Y0022256D01*
X0165815Y0022194D01*
X0165805Y0022134D01*
X0165792Y0022074D01*
X0165776Y0022014D01*
X0165756Y0021956D01*
X0165732Y0021900D01*
X0165706Y0021844D01*
X0165675Y0021791D01*
X0165642Y0021739D01*
X0165606Y0021690D01*
X0165566Y0021643D01*
X0165524Y0021598D01*
X0165479Y0021556D01*
X0165432Y0021516D01*
X0165383Y0021480D01*
X0165331Y0021447D01*
X0165278Y0021416D01*
X0165222Y0021390D01*
X0165166Y0021366D01*
X0165108Y0021346D01*
X0165048Y0021330D01*
X0164988Y0021317D01*
X0164928Y0021307D01*
X0164866Y0021302D01*
X0164805Y0021300D01*
X0163450Y0021300D01*
X0168412Y0021300D02*
X0168412Y0024350D01*
X0168412Y0023672D02*
X0169937Y0023672D01*
X0168411Y0024350D02*
X0168413Y0024411D01*
X0168418Y0024473D01*
X0168428Y0024533D01*
X0168441Y0024593D01*
X0168457Y0024653D01*
X0168477Y0024711D01*
X0168501Y0024767D01*
X0168527Y0024823D01*
X0168558Y0024876D01*
X0168591Y0024928D01*
X0168627Y0024977D01*
X0168667Y0025024D01*
X0168709Y0025069D01*
X0168754Y0025111D01*
X0168801Y0025151D01*
X0168850Y0025187D01*
X0168902Y0025220D01*
X0168955Y0025251D01*
X0169011Y0025277D01*
X0169067Y0025301D01*
X0169125Y0025321D01*
X0169185Y0025337D01*
X0169245Y0025350D01*
X0169305Y0025360D01*
X0169367Y0025365D01*
X0169428Y0025367D01*
X0170784Y0025367D01*
X0169937Y0023672D02*
X0170005Y0023670D01*
X0170072Y0023664D01*
X0170139Y0023655D01*
X0170206Y0023641D01*
X0170271Y0023624D01*
X0170336Y0023603D01*
X0170399Y0023578D01*
X0170460Y0023550D01*
X0170520Y0023519D01*
X0170578Y0023484D01*
X0170634Y0023445D01*
X0170688Y0023404D01*
X0170739Y0023360D01*
X0170788Y0023313D01*
X0170833Y0023263D01*
X0170876Y0023210D01*
X0170916Y0023155D01*
X0170953Y0023098D01*
X0170986Y0023039D01*
X0171016Y0022979D01*
X0171042Y0022916D01*
X0171065Y0022852D01*
X0171084Y0022788D01*
X0171099Y0022722D01*
X0171111Y0022655D01*
X0171119Y0022587D01*
X0171123Y0022520D01*
X0171123Y0022452D01*
X0171119Y0022385D01*
X0171111Y0022317D01*
X0171099Y0022250D01*
X0171084Y0022184D01*
X0171065Y0022120D01*
X0171042Y0022056D01*
X0171016Y0021993D01*
X0170986Y0021933D01*
X0170953Y0021874D01*
X0170916Y0021817D01*
X0170876Y0021762D01*
X0170833Y0021709D01*
X0170788Y0021659D01*
X0170739Y0021612D01*
X0170688Y0021568D01*
X0170634Y0021527D01*
X0170578Y0021488D01*
X0170520Y0021453D01*
X0170460Y0021422D01*
X0170399Y0021394D01*
X0170336Y0021369D01*
X0170271Y0021348D01*
X0170206Y0021331D01*
X0170139Y0021317D01*
X0170072Y0021308D01*
X0170005Y0021302D01*
X0169937Y0021300D01*
X0168412Y0021300D01*
X0175721Y0017400D02*
X0175721Y0011300D01*
X0153912Y0011300D02*
X0153912Y0017400D01*
X0126194Y0025367D02*
X0126133Y0025365D01*
X0126071Y0025360D01*
X0126011Y0025350D01*
X0125951Y0025337D01*
X0125891Y0025321D01*
X0125833Y0025301D01*
X0125777Y0025277D01*
X0125721Y0025251D01*
X0125668Y0025220D01*
X0125616Y0025187D01*
X0125567Y0025151D01*
X0125520Y0025111D01*
X0125475Y0025069D01*
X0125433Y0025024D01*
X0125393Y0024977D01*
X0125357Y0024928D01*
X0125324Y0024876D01*
X0125293Y0024823D01*
X0125267Y0024767D01*
X0125243Y0024711D01*
X0125223Y0024653D01*
X0125207Y0024593D01*
X0125194Y0024533D01*
X0125184Y0024473D01*
X0125179Y0024411D01*
X0125177Y0024350D01*
X0083471Y0101050D02*
X0078471Y0101050D01*
X0075971Y0103550D01*
X0073471Y0101050D01*
X0068471Y0101050D01*
X0065971Y0103550D01*
X0063471Y0101050D01*
X0058471Y0101050D01*
X0055971Y0103550D01*
X0055971Y0108550D01*
X0058471Y0111050D01*
X0055971Y0113550D01*
X0055971Y0118550D01*
X0058471Y0121050D01*
X0063471Y0121050D01*
X0065971Y0118550D01*
X0068471Y0121050D01*
X0073471Y0121050D01*
X0075971Y0118550D01*
X0078471Y0121050D01*
X0083471Y0121050D01*
X0085971Y0118550D01*
X0085971Y0113550D01*
X0083471Y0111050D01*
X0085971Y0108550D01*
X0085971Y0103550D01*
X0083471Y0101050D01*
X0075971Y0106050D02*
X0075971Y0116050D01*
X0065971Y0116050D02*
X0065971Y0106050D01*
X0063471Y0122550D02*
X0058471Y0122550D01*
D16*
X0031321Y0104900D02*
X0028421Y0103933D01*
X0031321Y0102967D01*
X0031321Y0101859D02*
X0031321Y0100248D01*
X0030033Y0100248D01*
X0030033Y0101214D01*
X0030032Y0101214D02*
X0030030Y0101262D01*
X0030025Y0101310D01*
X0030016Y0101357D01*
X0030003Y0101404D01*
X0029987Y0101449D01*
X0029968Y0101493D01*
X0029946Y0101536D01*
X0029920Y0101577D01*
X0029891Y0101616D01*
X0029860Y0101652D01*
X0029826Y0101686D01*
X0029790Y0101717D01*
X0029751Y0101746D01*
X0029710Y0101772D01*
X0029667Y0101794D01*
X0029623Y0101813D01*
X0029578Y0101829D01*
X0029531Y0101842D01*
X0029484Y0101851D01*
X0029436Y0101856D01*
X0029388Y0101858D01*
X0029388Y0101859D02*
X0029066Y0101859D01*
X0029066Y0101858D02*
X0029015Y0101856D01*
X0028965Y0101850D01*
X0028916Y0101840D01*
X0028867Y0101826D01*
X0028820Y0101809D01*
X0028774Y0101788D01*
X0028730Y0101763D01*
X0028687Y0101735D01*
X0028648Y0101704D01*
X0028611Y0101669D01*
X0028576Y0101632D01*
X0028545Y0101593D01*
X0028517Y0101550D01*
X0028492Y0101506D01*
X0028471Y0101460D01*
X0028454Y0101413D01*
X0028440Y0101364D01*
X0028430Y0101315D01*
X0028424Y0101265D01*
X0028422Y0101214D01*
X0028421Y0101214D02*
X0028421Y0100248D01*
X0029549Y0098948D02*
X0029549Y0097015D01*
X0028583Y0097981D02*
X0030516Y0097981D01*
X0031016Y0094900D02*
X0029727Y0094900D01*
X0029672Y0094898D01*
X0029617Y0094892D01*
X0029563Y0094883D01*
X0029510Y0094870D01*
X0029457Y0094853D01*
X0029406Y0094833D01*
X0029356Y0094810D01*
X0029308Y0094783D01*
X0029262Y0094752D01*
X0029218Y0094719D01*
X0029177Y0094683D01*
X0029138Y0094644D01*
X0029102Y0094603D01*
X0029069Y0094559D01*
X0029038Y0094513D01*
X0029011Y0094465D01*
X0028988Y0094415D01*
X0028968Y0094364D01*
X0028951Y0094311D01*
X0028938Y0094258D01*
X0028929Y0094204D01*
X0028923Y0094149D01*
X0028921Y0094094D01*
X0028921Y0093289D01*
X0031821Y0093289D01*
X0031821Y0094094D01*
X0031822Y0094094D02*
X0031820Y0094149D01*
X0031814Y0094204D01*
X0031805Y0094258D01*
X0031792Y0094311D01*
X0031775Y0094364D01*
X0031755Y0094415D01*
X0031732Y0094465D01*
X0031705Y0094513D01*
X0031674Y0094559D01*
X0031641Y0094603D01*
X0031605Y0094644D01*
X0031566Y0094683D01*
X0031525Y0094719D01*
X0031481Y0094752D01*
X0031435Y0094783D01*
X0031387Y0094810D01*
X0031337Y0094833D01*
X0031286Y0094853D01*
X0031233Y0094870D01*
X0031180Y0094883D01*
X0031126Y0094892D01*
X0031071Y0094898D01*
X0031016Y0094900D01*
X0031822Y0091261D02*
X0031820Y0091316D01*
X0031814Y0091371D01*
X0031805Y0091425D01*
X0031792Y0091478D01*
X0031775Y0091531D01*
X0031755Y0091582D01*
X0031732Y0091632D01*
X0031705Y0091680D01*
X0031674Y0091726D01*
X0031641Y0091770D01*
X0031605Y0091811D01*
X0031566Y0091850D01*
X0031525Y0091886D01*
X0031481Y0091919D01*
X0031435Y0091950D01*
X0031387Y0091977D01*
X0031337Y0092000D01*
X0031286Y0092020D01*
X0031233Y0092037D01*
X0031180Y0092050D01*
X0031126Y0092059D01*
X0031071Y0092065D01*
X0031016Y0092067D01*
X0030961Y0092065D01*
X0030906Y0092059D01*
X0030852Y0092050D01*
X0030799Y0092037D01*
X0030746Y0092020D01*
X0030695Y0092000D01*
X0030645Y0091977D01*
X0030597Y0091950D01*
X0030551Y0091919D01*
X0030507Y0091886D01*
X0030466Y0091850D01*
X0030427Y0091811D01*
X0030391Y0091770D01*
X0030358Y0091726D01*
X0030327Y0091680D01*
X0030300Y0091632D01*
X0030277Y0091582D01*
X0030257Y0091531D01*
X0030240Y0091478D01*
X0030227Y0091425D01*
X0030218Y0091371D01*
X0030212Y0091316D01*
X0030210Y0091261D01*
X0030210Y0090455D01*
X0028921Y0090455D02*
X0031821Y0090455D01*
X0031821Y0091261D01*
X0030130Y0088818D02*
X0030613Y0087932D01*
X0031821Y0088254D02*
X0031819Y0088319D01*
X0031814Y0088383D01*
X0031805Y0088448D01*
X0031793Y0088511D01*
X0031778Y0088574D01*
X0031759Y0088636D01*
X0031737Y0088697D01*
X0031712Y0088756D01*
X0031683Y0088815D01*
X0031651Y0088871D01*
X0031617Y0088926D01*
X0031579Y0088979D01*
X0030613Y0087931D02*
X0030639Y0087891D01*
X0030668Y0087852D01*
X0030700Y0087815D01*
X0030735Y0087781D01*
X0030772Y0087750D01*
X0030811Y0087721D01*
X0030852Y0087695D01*
X0030895Y0087673D01*
X0030940Y0087654D01*
X0030986Y0087638D01*
X0031032Y0087625D01*
X0031080Y0087616D01*
X0031128Y0087611D01*
X0031177Y0087609D01*
X0031177Y0087610D02*
X0031225Y0087612D01*
X0031273Y0087617D01*
X0031320Y0087626D01*
X0031367Y0087639D01*
X0031412Y0087655D01*
X0031456Y0087674D01*
X0031499Y0087696D01*
X0031540Y0087722D01*
X0031579Y0087751D01*
X0031615Y0087782D01*
X0031649Y0087816D01*
X0031681Y0087852D01*
X0031709Y0087891D01*
X0031735Y0087932D01*
X0031757Y0087975D01*
X0031776Y0088019D01*
X0031792Y0088064D01*
X0031805Y0088111D01*
X0031814Y0088158D01*
X0031819Y0088206D01*
X0031821Y0088254D01*
X0029325Y0087530D02*
X0029275Y0087581D01*
X0029228Y0087636D01*
X0029185Y0087692D01*
X0029144Y0087751D01*
X0029106Y0087812D01*
X0029072Y0087875D01*
X0029041Y0087940D01*
X0029013Y0088006D01*
X0028989Y0088073D01*
X0028969Y0088142D01*
X0028952Y0088212D01*
X0028939Y0088282D01*
X0028930Y0088353D01*
X0028924Y0088424D01*
X0028922Y0088496D01*
X0028924Y0088544D01*
X0028929Y0088592D01*
X0028938Y0088639D01*
X0028951Y0088686D01*
X0028967Y0088731D01*
X0028986Y0088775D01*
X0029008Y0088818D01*
X0029034Y0088859D01*
X0029063Y0088898D01*
X0029094Y0088934D01*
X0029128Y0088968D01*
X0029164Y0088999D01*
X0029203Y0089028D01*
X0029244Y0089054D01*
X0029287Y0089076D01*
X0029331Y0089095D01*
X0029376Y0089111D01*
X0029423Y0089124D01*
X0029470Y0089133D01*
X0029518Y0089138D01*
X0029566Y0089140D01*
X0029566Y0089141D02*
X0029615Y0089139D01*
X0029663Y0089134D01*
X0029711Y0089125D01*
X0029757Y0089112D01*
X0029803Y0089096D01*
X0029848Y0089077D01*
X0029891Y0089055D01*
X0029932Y0089029D01*
X0029971Y0089000D01*
X0030008Y0088969D01*
X0030043Y0088935D01*
X0030075Y0088898D01*
X0030104Y0088859D01*
X0030130Y0088819D01*
X0029727Y0085400D02*
X0031016Y0085400D01*
X0031071Y0085398D01*
X0031126Y0085392D01*
X0031180Y0085383D01*
X0031233Y0085370D01*
X0031286Y0085353D01*
X0031337Y0085333D01*
X0031387Y0085310D01*
X0031435Y0085283D01*
X0031481Y0085252D01*
X0031525Y0085219D01*
X0031566Y0085183D01*
X0031605Y0085144D01*
X0031641Y0085103D01*
X0031674Y0085059D01*
X0031705Y0085013D01*
X0031732Y0084965D01*
X0031755Y0084915D01*
X0031775Y0084864D01*
X0031792Y0084811D01*
X0031805Y0084758D01*
X0031814Y0084704D01*
X0031820Y0084649D01*
X0031822Y0084594D01*
X0031821Y0084594D02*
X0031821Y0083789D01*
X0028921Y0083789D01*
X0028921Y0084594D01*
X0028923Y0084649D01*
X0028929Y0084704D01*
X0028938Y0084758D01*
X0028951Y0084811D01*
X0028968Y0084864D01*
X0028988Y0084915D01*
X0029011Y0084965D01*
X0029038Y0085013D01*
X0029069Y0085059D01*
X0029102Y0085103D01*
X0029138Y0085144D01*
X0029177Y0085183D01*
X0029218Y0085219D01*
X0029262Y0085252D01*
X0029308Y0085283D01*
X0029356Y0085310D01*
X0029406Y0085333D01*
X0029457Y0085353D01*
X0029510Y0085370D01*
X0029563Y0085383D01*
X0029617Y0085392D01*
X0029672Y0085398D01*
X0029727Y0085400D01*
X0028921Y0082328D02*
X0031821Y0082328D01*
X0031821Y0080717D02*
X0028921Y0082328D01*
X0028921Y0080717D02*
X0031821Y0080717D01*
X0031821Y0079256D02*
X0031821Y0078289D01*
X0031819Y0078241D01*
X0031814Y0078193D01*
X0031805Y0078146D01*
X0031792Y0078099D01*
X0031776Y0078054D01*
X0031757Y0078010D01*
X0031735Y0077967D01*
X0031709Y0077926D01*
X0031680Y0077887D01*
X0031649Y0077851D01*
X0031615Y0077817D01*
X0031579Y0077786D01*
X0031540Y0077757D01*
X0031499Y0077731D01*
X0031456Y0077709D01*
X0031412Y0077690D01*
X0031367Y0077674D01*
X0031320Y0077661D01*
X0031273Y0077652D01*
X0031225Y0077647D01*
X0031177Y0077645D01*
X0029566Y0077645D01*
X0029518Y0077647D01*
X0029470Y0077652D01*
X0029423Y0077661D01*
X0029376Y0077674D01*
X0029331Y0077690D01*
X0029287Y0077709D01*
X0029244Y0077731D01*
X0029203Y0077757D01*
X0029164Y0077786D01*
X0029128Y0077817D01*
X0029094Y0077851D01*
X0029063Y0077887D01*
X0029034Y0077926D01*
X0029008Y0077967D01*
X0028986Y0078010D01*
X0028967Y0078054D01*
X0028951Y0078099D01*
X0028938Y0078146D01*
X0028929Y0078193D01*
X0028924Y0078241D01*
X0028922Y0078289D01*
X0028921Y0078289D02*
X0028921Y0079256D01*
X0030533Y0079256D01*
X0030533Y0078773D01*
X0031016Y0074900D02*
X0029727Y0074900D01*
X0029672Y0074898D01*
X0029617Y0074892D01*
X0029563Y0074883D01*
X0029510Y0074870D01*
X0029457Y0074853D01*
X0029406Y0074833D01*
X0029356Y0074810D01*
X0029308Y0074783D01*
X0029262Y0074752D01*
X0029218Y0074719D01*
X0029177Y0074683D01*
X0029138Y0074644D01*
X0029102Y0074603D01*
X0029069Y0074559D01*
X0029038Y0074513D01*
X0029011Y0074465D01*
X0028988Y0074415D01*
X0028968Y0074364D01*
X0028951Y0074311D01*
X0028938Y0074258D01*
X0028929Y0074204D01*
X0028923Y0074149D01*
X0028921Y0074094D01*
X0028921Y0073289D01*
X0031821Y0073289D01*
X0031821Y0074094D01*
X0031822Y0074094D02*
X0031820Y0074149D01*
X0031814Y0074204D01*
X0031805Y0074258D01*
X0031792Y0074311D01*
X0031775Y0074364D01*
X0031755Y0074415D01*
X0031732Y0074465D01*
X0031705Y0074513D01*
X0031674Y0074559D01*
X0031641Y0074603D01*
X0031605Y0074644D01*
X0031566Y0074683D01*
X0031525Y0074719D01*
X0031481Y0074752D01*
X0031435Y0074783D01*
X0031387Y0074810D01*
X0031337Y0074833D01*
X0031286Y0074853D01*
X0031233Y0074870D01*
X0031180Y0074883D01*
X0031126Y0074892D01*
X0031071Y0074898D01*
X0031016Y0074900D01*
X0031821Y0072088D02*
X0031821Y0070799D01*
X0028921Y0070799D01*
X0028921Y0072088D01*
X0030533Y0071766D02*
X0030533Y0070799D01*
X0028921Y0069592D02*
X0028921Y0068303D01*
X0031821Y0068303D01*
X0031016Y0065900D02*
X0029727Y0065900D01*
X0029672Y0065898D01*
X0029617Y0065892D01*
X0029563Y0065883D01*
X0029510Y0065870D01*
X0029457Y0065853D01*
X0029406Y0065833D01*
X0029356Y0065810D01*
X0029308Y0065783D01*
X0029262Y0065752D01*
X0029218Y0065719D01*
X0029177Y0065683D01*
X0029138Y0065644D01*
X0029102Y0065603D01*
X0029069Y0065559D01*
X0029038Y0065513D01*
X0029011Y0065465D01*
X0028988Y0065415D01*
X0028968Y0065364D01*
X0028951Y0065311D01*
X0028938Y0065258D01*
X0028929Y0065204D01*
X0028923Y0065149D01*
X0028921Y0065094D01*
X0028921Y0064289D01*
X0031821Y0064289D01*
X0031821Y0065094D01*
X0031822Y0065094D02*
X0031820Y0065149D01*
X0031814Y0065204D01*
X0031805Y0065258D01*
X0031792Y0065311D01*
X0031775Y0065364D01*
X0031755Y0065415D01*
X0031732Y0065465D01*
X0031705Y0065513D01*
X0031674Y0065559D01*
X0031641Y0065603D01*
X0031605Y0065644D01*
X0031566Y0065683D01*
X0031525Y0065719D01*
X0031481Y0065752D01*
X0031435Y0065783D01*
X0031387Y0065810D01*
X0031337Y0065833D01*
X0031286Y0065853D01*
X0031233Y0065870D01*
X0031180Y0065883D01*
X0031126Y0065892D01*
X0031071Y0065898D01*
X0031016Y0065900D01*
X0031821Y0062828D02*
X0028921Y0062828D01*
X0031821Y0061217D01*
X0028921Y0061217D01*
X0028921Y0059756D02*
X0028921Y0058789D01*
X0028922Y0058789D02*
X0028924Y0058741D01*
X0028929Y0058693D01*
X0028938Y0058646D01*
X0028951Y0058599D01*
X0028967Y0058554D01*
X0028986Y0058510D01*
X0029008Y0058467D01*
X0029034Y0058426D01*
X0029063Y0058387D01*
X0029094Y0058351D01*
X0029128Y0058317D01*
X0029164Y0058286D01*
X0029203Y0058257D01*
X0029244Y0058231D01*
X0029287Y0058209D01*
X0029331Y0058190D01*
X0029376Y0058174D01*
X0029423Y0058161D01*
X0029470Y0058152D01*
X0029518Y0058147D01*
X0029566Y0058145D01*
X0031177Y0058145D01*
X0031225Y0058147D01*
X0031273Y0058152D01*
X0031320Y0058161D01*
X0031367Y0058174D01*
X0031412Y0058190D01*
X0031456Y0058209D01*
X0031499Y0058231D01*
X0031540Y0058257D01*
X0031579Y0058286D01*
X0031615Y0058317D01*
X0031649Y0058351D01*
X0031680Y0058387D01*
X0031709Y0058426D01*
X0031735Y0058467D01*
X0031757Y0058510D01*
X0031776Y0058554D01*
X0031792Y0058599D01*
X0031805Y0058646D01*
X0031814Y0058693D01*
X0031819Y0058741D01*
X0031821Y0058789D01*
X0031821Y0059756D01*
X0030533Y0059756D02*
X0030533Y0059273D01*
X0030533Y0059756D02*
X0028921Y0059756D01*
X0029727Y0055400D02*
X0031016Y0055400D01*
X0031071Y0055398D01*
X0031126Y0055392D01*
X0031180Y0055383D01*
X0031233Y0055370D01*
X0031286Y0055353D01*
X0031337Y0055333D01*
X0031387Y0055310D01*
X0031435Y0055283D01*
X0031481Y0055252D01*
X0031525Y0055219D01*
X0031566Y0055183D01*
X0031605Y0055144D01*
X0031641Y0055103D01*
X0031674Y0055059D01*
X0031705Y0055013D01*
X0031732Y0054965D01*
X0031755Y0054915D01*
X0031775Y0054864D01*
X0031792Y0054811D01*
X0031805Y0054758D01*
X0031814Y0054704D01*
X0031820Y0054649D01*
X0031822Y0054594D01*
X0031821Y0054594D02*
X0031821Y0053789D01*
X0028921Y0053789D01*
X0028921Y0054594D01*
X0028923Y0054649D01*
X0028929Y0054704D01*
X0028938Y0054758D01*
X0028951Y0054811D01*
X0028968Y0054864D01*
X0028988Y0054915D01*
X0029011Y0054965D01*
X0029038Y0055013D01*
X0029069Y0055059D01*
X0029102Y0055103D01*
X0029138Y0055144D01*
X0029177Y0055183D01*
X0029218Y0055219D01*
X0029262Y0055252D01*
X0029308Y0055283D01*
X0029356Y0055310D01*
X0029406Y0055333D01*
X0029457Y0055353D01*
X0029510Y0055370D01*
X0029563Y0055383D01*
X0029617Y0055392D01*
X0029672Y0055398D01*
X0029727Y0055400D01*
X0028921Y0052588D02*
X0028921Y0051299D01*
X0031821Y0051299D01*
X0031821Y0052588D01*
X0030533Y0052266D02*
X0030533Y0051299D01*
X0028921Y0050092D02*
X0028921Y0048803D01*
X0031821Y0048803D01*
X0031821Y0043900D02*
X0028921Y0043900D01*
X0031821Y0042289D01*
X0028921Y0042289D01*
X0029727Y0040924D02*
X0031016Y0040924D01*
X0031071Y0040922D01*
X0031126Y0040916D01*
X0031180Y0040907D01*
X0031233Y0040894D01*
X0031286Y0040877D01*
X0031337Y0040857D01*
X0031387Y0040834D01*
X0031435Y0040807D01*
X0031481Y0040776D01*
X0031525Y0040743D01*
X0031566Y0040707D01*
X0031605Y0040668D01*
X0031641Y0040627D01*
X0031674Y0040583D01*
X0031705Y0040537D01*
X0031732Y0040489D01*
X0031755Y0040439D01*
X0031775Y0040388D01*
X0031792Y0040335D01*
X0031805Y0040282D01*
X0031814Y0040228D01*
X0031820Y0040173D01*
X0031822Y0040118D01*
X0031820Y0040063D01*
X0031814Y0040008D01*
X0031805Y0039954D01*
X0031792Y0039901D01*
X0031775Y0039848D01*
X0031755Y0039797D01*
X0031732Y0039747D01*
X0031705Y0039699D01*
X0031674Y0039653D01*
X0031641Y0039609D01*
X0031605Y0039568D01*
X0031566Y0039529D01*
X0031525Y0039493D01*
X0031481Y0039460D01*
X0031435Y0039429D01*
X0031387Y0039402D01*
X0031337Y0039379D01*
X0031286Y0039359D01*
X0031233Y0039342D01*
X0031180Y0039329D01*
X0031126Y0039320D01*
X0031071Y0039314D01*
X0031016Y0039312D01*
X0031016Y0039313D02*
X0029727Y0039313D01*
X0029727Y0039312D02*
X0029672Y0039314D01*
X0029617Y0039320D01*
X0029563Y0039329D01*
X0029510Y0039342D01*
X0029457Y0039359D01*
X0029406Y0039379D01*
X0029356Y0039402D01*
X0029308Y0039429D01*
X0029262Y0039460D01*
X0029218Y0039493D01*
X0029177Y0039529D01*
X0029138Y0039568D01*
X0029102Y0039609D01*
X0029069Y0039653D01*
X0029038Y0039699D01*
X0029011Y0039747D01*
X0028988Y0039797D01*
X0028968Y0039848D01*
X0028951Y0039901D01*
X0028938Y0039954D01*
X0028929Y0040008D01*
X0028923Y0040063D01*
X0028921Y0040118D01*
X0028923Y0040173D01*
X0028929Y0040228D01*
X0028938Y0040282D01*
X0028951Y0040335D01*
X0028968Y0040388D01*
X0028988Y0040439D01*
X0029011Y0040489D01*
X0029038Y0040537D01*
X0029069Y0040583D01*
X0029102Y0040627D01*
X0029138Y0040668D01*
X0029177Y0040707D01*
X0029218Y0040743D01*
X0029262Y0040776D01*
X0029308Y0040807D01*
X0029356Y0040834D01*
X0029406Y0040857D01*
X0029457Y0040877D01*
X0029510Y0040894D01*
X0029563Y0040907D01*
X0029617Y0040916D01*
X0029672Y0040922D01*
X0029727Y0040924D01*
X0029727Y0035400D02*
X0031016Y0035400D01*
X0031071Y0035398D01*
X0031126Y0035392D01*
X0031180Y0035383D01*
X0031233Y0035370D01*
X0031286Y0035353D01*
X0031337Y0035333D01*
X0031387Y0035310D01*
X0031435Y0035283D01*
X0031481Y0035252D01*
X0031525Y0035219D01*
X0031566Y0035183D01*
X0031605Y0035144D01*
X0031641Y0035103D01*
X0031674Y0035059D01*
X0031705Y0035013D01*
X0031732Y0034965D01*
X0031755Y0034915D01*
X0031775Y0034864D01*
X0031792Y0034811D01*
X0031805Y0034758D01*
X0031814Y0034704D01*
X0031820Y0034649D01*
X0031822Y0034594D01*
X0031821Y0034594D02*
X0031821Y0033789D01*
X0028921Y0033789D01*
X0028921Y0034594D01*
X0028923Y0034649D01*
X0028929Y0034704D01*
X0028938Y0034758D01*
X0028951Y0034811D01*
X0028968Y0034864D01*
X0028988Y0034915D01*
X0029011Y0034965D01*
X0029038Y0035013D01*
X0029069Y0035059D01*
X0029102Y0035103D01*
X0029138Y0035144D01*
X0029177Y0035183D01*
X0029218Y0035219D01*
X0029262Y0035252D01*
X0029308Y0035283D01*
X0029356Y0035310D01*
X0029406Y0035333D01*
X0029457Y0035353D01*
X0029510Y0035370D01*
X0029563Y0035383D01*
X0029617Y0035392D01*
X0029672Y0035398D01*
X0029727Y0035400D01*
X0028921Y0032328D02*
X0031821Y0032328D01*
X0031821Y0030717D02*
X0028921Y0032328D01*
X0028921Y0030717D02*
X0031821Y0030717D01*
X0031821Y0029256D02*
X0031821Y0028289D01*
X0031819Y0028241D01*
X0031814Y0028193D01*
X0031805Y0028146D01*
X0031792Y0028099D01*
X0031776Y0028054D01*
X0031757Y0028010D01*
X0031735Y0027967D01*
X0031709Y0027926D01*
X0031680Y0027887D01*
X0031649Y0027851D01*
X0031615Y0027817D01*
X0031579Y0027786D01*
X0031540Y0027757D01*
X0031499Y0027731D01*
X0031456Y0027709D01*
X0031412Y0027690D01*
X0031367Y0027674D01*
X0031320Y0027661D01*
X0031273Y0027652D01*
X0031225Y0027647D01*
X0031177Y0027645D01*
X0029566Y0027645D01*
X0029518Y0027647D01*
X0029470Y0027652D01*
X0029423Y0027661D01*
X0029376Y0027674D01*
X0029331Y0027690D01*
X0029287Y0027709D01*
X0029244Y0027731D01*
X0029203Y0027757D01*
X0029164Y0027786D01*
X0029128Y0027817D01*
X0029094Y0027851D01*
X0029063Y0027887D01*
X0029034Y0027926D01*
X0029008Y0027967D01*
X0028986Y0028010D01*
X0028967Y0028054D01*
X0028951Y0028099D01*
X0028938Y0028146D01*
X0028929Y0028193D01*
X0028924Y0028241D01*
X0028922Y0028289D01*
X0028921Y0028289D02*
X0028921Y0029256D01*
X0030533Y0029256D01*
X0030533Y0028773D01*
X0055270Y0025100D02*
X0056559Y0025100D01*
X0056559Y0022200D01*
X0055270Y0022200D01*
X0055593Y0023811D02*
X0056559Y0023811D01*
X0057766Y0023811D02*
X0059055Y0023811D01*
X0059055Y0025100D02*
X0057766Y0025100D01*
X0059055Y0025100D02*
X0059055Y0022200D01*
X0060265Y0022200D02*
X0061232Y0025100D01*
X0062199Y0022200D01*
X0061957Y0022925D02*
X0060507Y0022925D01*
X0063533Y0023408D02*
X0064419Y0023892D01*
X0064096Y0025100D02*
X0064031Y0025098D01*
X0063967Y0025093D01*
X0063902Y0025084D01*
X0063839Y0025072D01*
X0063776Y0025057D01*
X0063714Y0025038D01*
X0063653Y0025016D01*
X0063594Y0024991D01*
X0063535Y0024962D01*
X0063479Y0024930D01*
X0063424Y0024896D01*
X0063371Y0024858D01*
X0064419Y0023892D02*
X0064459Y0023918D01*
X0064498Y0023947D01*
X0064535Y0023979D01*
X0064569Y0024014D01*
X0064600Y0024051D01*
X0064629Y0024090D01*
X0064655Y0024131D01*
X0064677Y0024174D01*
X0064696Y0024219D01*
X0064712Y0024265D01*
X0064725Y0024311D01*
X0064734Y0024359D01*
X0064739Y0024407D01*
X0064741Y0024456D01*
X0064740Y0024456D02*
X0064738Y0024504D01*
X0064733Y0024552D01*
X0064724Y0024599D01*
X0064711Y0024646D01*
X0064695Y0024691D01*
X0064676Y0024735D01*
X0064654Y0024778D01*
X0064628Y0024819D01*
X0064599Y0024858D01*
X0064568Y0024894D01*
X0064534Y0024928D01*
X0064498Y0024959D01*
X0064459Y0024988D01*
X0064418Y0025014D01*
X0064375Y0025036D01*
X0064331Y0025055D01*
X0064286Y0025071D01*
X0064239Y0025084D01*
X0064192Y0025093D01*
X0064144Y0025098D01*
X0064096Y0025100D01*
X0064821Y0022603D02*
X0064770Y0022553D01*
X0064715Y0022506D01*
X0064659Y0022463D01*
X0064600Y0022422D01*
X0064539Y0022384D01*
X0064476Y0022350D01*
X0064411Y0022319D01*
X0064345Y0022291D01*
X0064278Y0022267D01*
X0064209Y0022247D01*
X0064139Y0022230D01*
X0064069Y0022217D01*
X0063998Y0022208D01*
X0063927Y0022202D01*
X0063855Y0022200D01*
X0063807Y0022202D01*
X0063759Y0022207D01*
X0063712Y0022216D01*
X0063665Y0022229D01*
X0063620Y0022245D01*
X0063576Y0022264D01*
X0063533Y0022286D01*
X0063492Y0022312D01*
X0063453Y0022340D01*
X0063417Y0022372D01*
X0063383Y0022406D01*
X0063352Y0022442D01*
X0063323Y0022481D01*
X0063297Y0022522D01*
X0063275Y0022565D01*
X0063256Y0022609D01*
X0063240Y0022654D01*
X0063227Y0022701D01*
X0063218Y0022748D01*
X0063213Y0022796D01*
X0063211Y0022844D01*
X0063213Y0022892D01*
X0063218Y0022941D01*
X0063227Y0022988D01*
X0063240Y0023035D01*
X0063255Y0023081D01*
X0063275Y0023126D01*
X0063297Y0023168D01*
X0063323Y0023210D01*
X0063351Y0023249D01*
X0063383Y0023286D01*
X0063417Y0023320D01*
X0063453Y0023352D01*
X0063492Y0023381D01*
X0063533Y0023407D01*
X0063710Y0032200D02*
X0064677Y0032200D01*
X0064725Y0032202D01*
X0064773Y0032207D01*
X0064820Y0032216D01*
X0064867Y0032229D01*
X0064912Y0032245D01*
X0064956Y0032264D01*
X0064999Y0032286D01*
X0065040Y0032312D01*
X0065079Y0032341D01*
X0065115Y0032372D01*
X0065149Y0032406D01*
X0065180Y0032442D01*
X0065209Y0032481D01*
X0065235Y0032522D01*
X0065257Y0032565D01*
X0065276Y0032609D01*
X0065292Y0032654D01*
X0065305Y0032701D01*
X0065314Y0032748D01*
X0065319Y0032796D01*
X0065321Y0032844D01*
X0065321Y0034456D01*
X0065319Y0034504D01*
X0065314Y0034552D01*
X0065305Y0034599D01*
X0065292Y0034646D01*
X0065276Y0034691D01*
X0065257Y0034735D01*
X0065235Y0034778D01*
X0065209Y0034819D01*
X0065180Y0034858D01*
X0065149Y0034894D01*
X0065115Y0034928D01*
X0065079Y0034959D01*
X0065040Y0034988D01*
X0064999Y0035014D01*
X0064956Y0035036D01*
X0064912Y0035055D01*
X0064867Y0035071D01*
X0064820Y0035084D01*
X0064773Y0035093D01*
X0064725Y0035098D01*
X0064677Y0035100D01*
X0063710Y0035100D01*
X0063710Y0033811D02*
X0063710Y0032200D01*
X0062250Y0032200D02*
X0062250Y0035100D01*
X0060638Y0032200D01*
X0060638Y0035100D01*
X0059178Y0035100D02*
X0058372Y0035100D01*
X0059178Y0035100D02*
X0059178Y0032200D01*
X0058372Y0032200D01*
X0058317Y0032202D01*
X0058262Y0032208D01*
X0058208Y0032217D01*
X0058155Y0032230D01*
X0058102Y0032247D01*
X0058051Y0032267D01*
X0058001Y0032290D01*
X0057953Y0032317D01*
X0057907Y0032348D01*
X0057863Y0032381D01*
X0057822Y0032417D01*
X0057783Y0032456D01*
X0057747Y0032497D01*
X0057714Y0032541D01*
X0057683Y0032587D01*
X0057656Y0032635D01*
X0057633Y0032685D01*
X0057613Y0032736D01*
X0057596Y0032789D01*
X0057583Y0032842D01*
X0057574Y0032896D01*
X0057568Y0032951D01*
X0057566Y0033006D01*
X0057566Y0034294D01*
X0057568Y0034349D01*
X0057574Y0034404D01*
X0057583Y0034458D01*
X0057596Y0034511D01*
X0057613Y0034564D01*
X0057633Y0034615D01*
X0057656Y0034665D01*
X0057683Y0034713D01*
X0057714Y0034759D01*
X0057747Y0034803D01*
X0057783Y0034844D01*
X0057822Y0034883D01*
X0057863Y0034919D01*
X0057907Y0034952D01*
X0057953Y0034983D01*
X0058001Y0035010D01*
X0058051Y0035033D01*
X0058102Y0035053D01*
X0058155Y0035070D01*
X0058208Y0035083D01*
X0058262Y0035092D01*
X0058317Y0035098D01*
X0058372Y0035100D01*
X0063710Y0033811D02*
X0064194Y0033811D01*
X0070566Y0046380D02*
X0072177Y0046380D01*
X0072225Y0046382D01*
X0072273Y0046387D01*
X0072320Y0046396D01*
X0072367Y0046409D01*
X0072412Y0046425D01*
X0072456Y0046444D01*
X0072499Y0046466D01*
X0072540Y0046492D01*
X0072579Y0046521D01*
X0072615Y0046552D01*
X0072649Y0046586D01*
X0072680Y0046622D01*
X0072709Y0046661D01*
X0072735Y0046702D01*
X0072757Y0046745D01*
X0072776Y0046789D01*
X0072792Y0046834D01*
X0072805Y0046881D01*
X0072814Y0046928D01*
X0072819Y0046976D01*
X0072821Y0047024D01*
X0072821Y0047669D01*
X0072821Y0048789D02*
X0072821Y0050400D01*
X0071533Y0049756D02*
X0071533Y0048789D01*
X0072821Y0048789D01*
X0071532Y0049756D02*
X0071530Y0049804D01*
X0071525Y0049852D01*
X0071516Y0049899D01*
X0071503Y0049946D01*
X0071487Y0049991D01*
X0071468Y0050035D01*
X0071446Y0050078D01*
X0071420Y0050119D01*
X0071391Y0050158D01*
X0071360Y0050194D01*
X0071326Y0050228D01*
X0071290Y0050259D01*
X0071251Y0050288D01*
X0071210Y0050314D01*
X0071167Y0050336D01*
X0071123Y0050355D01*
X0071078Y0050371D01*
X0071031Y0050384D01*
X0070984Y0050393D01*
X0070936Y0050398D01*
X0070888Y0050400D01*
X0070566Y0050400D01*
X0070515Y0050398D01*
X0070465Y0050392D01*
X0070416Y0050382D01*
X0070367Y0050368D01*
X0070320Y0050351D01*
X0070274Y0050330D01*
X0070230Y0050305D01*
X0070187Y0050277D01*
X0070148Y0050246D01*
X0070111Y0050211D01*
X0070076Y0050174D01*
X0070045Y0050135D01*
X0070017Y0050092D01*
X0069992Y0050048D01*
X0069971Y0050002D01*
X0069954Y0049955D01*
X0069940Y0049906D01*
X0069930Y0049857D01*
X0069924Y0049807D01*
X0069922Y0049756D01*
X0069921Y0049756D02*
X0069921Y0048789D01*
X0069921Y0047669D02*
X0069921Y0047024D01*
X0069922Y0047024D02*
X0069924Y0046976D01*
X0069929Y0046928D01*
X0069938Y0046881D01*
X0069951Y0046834D01*
X0069967Y0046789D01*
X0069986Y0046745D01*
X0070008Y0046702D01*
X0070034Y0046661D01*
X0070063Y0046622D01*
X0070094Y0046586D01*
X0070128Y0046552D01*
X0070164Y0046521D01*
X0070203Y0046492D01*
X0070244Y0046466D01*
X0070287Y0046444D01*
X0070331Y0046425D01*
X0070376Y0046409D01*
X0070423Y0046396D01*
X0070470Y0046387D01*
X0070518Y0046382D01*
X0070566Y0046380D01*
X0055321Y0047024D02*
X0055321Y0047669D01*
X0055321Y0047024D02*
X0055319Y0046976D01*
X0055314Y0046928D01*
X0055305Y0046881D01*
X0055292Y0046834D01*
X0055276Y0046789D01*
X0055257Y0046745D01*
X0055235Y0046702D01*
X0055209Y0046661D01*
X0055180Y0046622D01*
X0055149Y0046586D01*
X0055115Y0046552D01*
X0055079Y0046521D01*
X0055040Y0046492D01*
X0054999Y0046466D01*
X0054956Y0046444D01*
X0054912Y0046425D01*
X0054867Y0046409D01*
X0054820Y0046396D01*
X0054773Y0046387D01*
X0054725Y0046382D01*
X0054677Y0046380D01*
X0053066Y0046380D01*
X0053018Y0046382D01*
X0052970Y0046387D01*
X0052923Y0046396D01*
X0052876Y0046409D01*
X0052831Y0046425D01*
X0052787Y0046444D01*
X0052744Y0046466D01*
X0052703Y0046492D01*
X0052664Y0046521D01*
X0052628Y0046552D01*
X0052594Y0046586D01*
X0052563Y0046622D01*
X0052534Y0046661D01*
X0052508Y0046702D01*
X0052486Y0046745D01*
X0052467Y0046789D01*
X0052451Y0046834D01*
X0052438Y0046881D01*
X0052429Y0046928D01*
X0052424Y0046976D01*
X0052422Y0047024D01*
X0052421Y0047024D02*
X0052421Y0047669D01*
X0052421Y0049594D02*
X0055321Y0050400D01*
X0055321Y0048789D01*
X0054999Y0048789D01*
X0045092Y0058500D02*
X0045092Y0061400D01*
X0044287Y0061400D01*
X0044232Y0061398D01*
X0044177Y0061392D01*
X0044123Y0061383D01*
X0044070Y0061370D01*
X0044017Y0061353D01*
X0043966Y0061333D01*
X0043916Y0061310D01*
X0043868Y0061283D01*
X0043822Y0061252D01*
X0043778Y0061219D01*
X0043737Y0061183D01*
X0043698Y0061144D01*
X0043662Y0061103D01*
X0043629Y0061059D01*
X0043598Y0061013D01*
X0043571Y0060965D01*
X0043548Y0060915D01*
X0043528Y0060864D01*
X0043511Y0060811D01*
X0043498Y0060758D01*
X0043489Y0060704D01*
X0043483Y0060649D01*
X0043481Y0060594D01*
X0043483Y0060539D01*
X0043489Y0060484D01*
X0043498Y0060430D01*
X0043511Y0060377D01*
X0043528Y0060324D01*
X0043548Y0060273D01*
X0043571Y0060223D01*
X0043598Y0060175D01*
X0043629Y0060129D01*
X0043662Y0060085D01*
X0043698Y0060044D01*
X0043737Y0060005D01*
X0043778Y0059969D01*
X0043822Y0059936D01*
X0043868Y0059905D01*
X0043916Y0059878D01*
X0043966Y0059855D01*
X0044017Y0059835D01*
X0044070Y0059818D01*
X0044123Y0059805D01*
X0044177Y0059796D01*
X0044232Y0059790D01*
X0044287Y0059788D01*
X0044287Y0059789D02*
X0045092Y0059789D01*
X0044126Y0059789D02*
X0043481Y0058500D01*
X0042233Y0058500D02*
X0041427Y0058500D01*
X0041372Y0058502D01*
X0041317Y0058508D01*
X0041263Y0058517D01*
X0041210Y0058530D01*
X0041157Y0058547D01*
X0041106Y0058567D01*
X0041056Y0058590D01*
X0041008Y0058617D01*
X0040962Y0058648D01*
X0040918Y0058681D01*
X0040877Y0058717D01*
X0040838Y0058756D01*
X0040802Y0058797D01*
X0040769Y0058841D01*
X0040738Y0058887D01*
X0040711Y0058935D01*
X0040688Y0058985D01*
X0040668Y0059036D01*
X0040651Y0059089D01*
X0040638Y0059142D01*
X0040629Y0059196D01*
X0040623Y0059251D01*
X0040621Y0059306D01*
X0040623Y0059361D01*
X0040629Y0059416D01*
X0040638Y0059470D01*
X0040651Y0059523D01*
X0040668Y0059576D01*
X0040688Y0059627D01*
X0040711Y0059677D01*
X0040738Y0059725D01*
X0040769Y0059771D01*
X0040802Y0059815D01*
X0040838Y0059856D01*
X0040877Y0059895D01*
X0040918Y0059931D01*
X0040962Y0059964D01*
X0041008Y0059995D01*
X0041056Y0060022D01*
X0041106Y0060045D01*
X0041157Y0060065D01*
X0041210Y0060082D01*
X0041263Y0060095D01*
X0041317Y0060104D01*
X0041372Y0060110D01*
X0041427Y0060112D01*
X0041266Y0060111D02*
X0041910Y0060111D01*
X0041266Y0060112D02*
X0041217Y0060114D01*
X0041168Y0060120D01*
X0041119Y0060129D01*
X0041072Y0060142D01*
X0041025Y0060159D01*
X0040980Y0060179D01*
X0040937Y0060202D01*
X0040895Y0060229D01*
X0040856Y0060259D01*
X0040819Y0060292D01*
X0040785Y0060328D01*
X0040754Y0060366D01*
X0040725Y0060406D01*
X0040700Y0060448D01*
X0040678Y0060493D01*
X0040660Y0060538D01*
X0040645Y0060585D01*
X0040634Y0060633D01*
X0040626Y0060682D01*
X0040622Y0060731D01*
X0040622Y0060781D01*
X0040626Y0060830D01*
X0040634Y0060879D01*
X0040645Y0060927D01*
X0040660Y0060974D01*
X0040678Y0061019D01*
X0040700Y0061064D01*
X0040725Y0061106D01*
X0040754Y0061146D01*
X0040785Y0061184D01*
X0040819Y0061220D01*
X0040856Y0061253D01*
X0040895Y0061283D01*
X0040937Y0061310D01*
X0040980Y0061333D01*
X0041025Y0061353D01*
X0041072Y0061370D01*
X0041119Y0061383D01*
X0041168Y0061392D01*
X0041217Y0061398D01*
X0041266Y0061400D01*
X0042233Y0061400D01*
X0075370Y0067920D02*
X0075370Y0069209D01*
X0075370Y0070314D02*
X0075370Y0071925D01*
X0075370Y0071120D02*
X0078270Y0071120D01*
X0077625Y0070314D01*
X0078270Y0067920D02*
X0075370Y0067920D01*
X0092851Y0073700D02*
X0094462Y0073700D01*
X0093092Y0075311D01*
X0093576Y0076600D02*
X0093635Y0076598D01*
X0093693Y0076593D01*
X0093751Y0076583D01*
X0093808Y0076571D01*
X0093864Y0076554D01*
X0093919Y0076535D01*
X0093973Y0076511D01*
X0094025Y0076485D01*
X0094075Y0076455D01*
X0094124Y0076422D01*
X0094170Y0076386D01*
X0094214Y0076347D01*
X0094255Y0076306D01*
X0094294Y0076262D01*
X0094330Y0076216D01*
X0094362Y0076167D01*
X0094392Y0076117D01*
X0094419Y0076065D01*
X0094442Y0076011D01*
X0094462Y0075956D01*
X0093092Y0075311D02*
X0093055Y0075348D01*
X0093021Y0075388D01*
X0092989Y0075430D01*
X0092961Y0075475D01*
X0092935Y0075521D01*
X0092913Y0075568D01*
X0092894Y0075617D01*
X0092878Y0075667D01*
X0092866Y0075718D01*
X0092857Y0075770D01*
X0092852Y0075822D01*
X0092850Y0075875D01*
X0092851Y0075875D02*
X0092853Y0075927D01*
X0092858Y0075978D01*
X0092868Y0076029D01*
X0092880Y0076079D01*
X0092897Y0076128D01*
X0092917Y0076176D01*
X0092940Y0076222D01*
X0092966Y0076267D01*
X0092996Y0076309D01*
X0093028Y0076350D01*
X0093063Y0076388D01*
X0093101Y0076423D01*
X0093142Y0076455D01*
X0093184Y0076485D01*
X0093229Y0076511D01*
X0093275Y0076534D01*
X0093323Y0076554D01*
X0093372Y0076571D01*
X0093422Y0076583D01*
X0093473Y0076593D01*
X0093524Y0076598D01*
X0093576Y0076600D01*
X0096516Y0076600D02*
X0097321Y0076600D01*
X0097321Y0073700D01*
X0097321Y0074989D02*
X0096516Y0074989D01*
X0096355Y0074989D02*
X0095710Y0073700D01*
X0096516Y0074988D02*
X0096461Y0074990D01*
X0096406Y0074996D01*
X0096352Y0075005D01*
X0096299Y0075018D01*
X0096246Y0075035D01*
X0096195Y0075055D01*
X0096145Y0075078D01*
X0096097Y0075105D01*
X0096051Y0075136D01*
X0096007Y0075169D01*
X0095966Y0075205D01*
X0095927Y0075244D01*
X0095891Y0075285D01*
X0095858Y0075329D01*
X0095827Y0075375D01*
X0095800Y0075423D01*
X0095777Y0075473D01*
X0095757Y0075524D01*
X0095740Y0075577D01*
X0095727Y0075630D01*
X0095718Y0075684D01*
X0095712Y0075739D01*
X0095710Y0075794D01*
X0095712Y0075849D01*
X0095718Y0075904D01*
X0095727Y0075958D01*
X0095740Y0076011D01*
X0095757Y0076064D01*
X0095777Y0076115D01*
X0095800Y0076165D01*
X0095827Y0076213D01*
X0095858Y0076259D01*
X0095891Y0076303D01*
X0095927Y0076344D01*
X0095966Y0076383D01*
X0096007Y0076419D01*
X0096051Y0076452D01*
X0096097Y0076483D01*
X0096145Y0076510D01*
X0096195Y0076533D01*
X0096246Y0076553D01*
X0096299Y0076570D01*
X0096352Y0076583D01*
X0096406Y0076592D01*
X0096461Y0076598D01*
X0096516Y0076600D01*
X0097033Y0058256D02*
X0097033Y0057611D01*
X0097033Y0058256D02*
X0097035Y0058305D01*
X0097041Y0058354D01*
X0097050Y0058403D01*
X0097063Y0058450D01*
X0097080Y0058497D01*
X0097100Y0058542D01*
X0097123Y0058585D01*
X0097150Y0058627D01*
X0097180Y0058666D01*
X0097213Y0058703D01*
X0097249Y0058737D01*
X0097287Y0058768D01*
X0097327Y0058797D01*
X0097369Y0058822D01*
X0097414Y0058844D01*
X0097459Y0058862D01*
X0097506Y0058877D01*
X0097554Y0058888D01*
X0097603Y0058896D01*
X0097652Y0058900D01*
X0097702Y0058900D01*
X0097751Y0058896D01*
X0097800Y0058888D01*
X0097848Y0058877D01*
X0097895Y0058862D01*
X0097940Y0058844D01*
X0097985Y0058822D01*
X0098027Y0058797D01*
X0098067Y0058768D01*
X0098105Y0058737D01*
X0098141Y0058703D01*
X0098174Y0058666D01*
X0098204Y0058627D01*
X0098231Y0058585D01*
X0098254Y0058542D01*
X0098274Y0058497D01*
X0098291Y0058450D01*
X0098304Y0058403D01*
X0098313Y0058354D01*
X0098319Y0058305D01*
X0098321Y0058256D01*
X0098321Y0057289D01*
X0098321Y0056169D02*
X0098321Y0055524D01*
X0098319Y0055476D01*
X0098314Y0055428D01*
X0098305Y0055381D01*
X0098292Y0055334D01*
X0098276Y0055289D01*
X0098257Y0055245D01*
X0098235Y0055202D01*
X0098209Y0055161D01*
X0098180Y0055122D01*
X0098149Y0055086D01*
X0098115Y0055052D01*
X0098079Y0055021D01*
X0098040Y0054992D01*
X0097999Y0054966D01*
X0097956Y0054944D01*
X0097912Y0054925D01*
X0097867Y0054909D01*
X0097820Y0054896D01*
X0097773Y0054887D01*
X0097725Y0054882D01*
X0097677Y0054880D01*
X0096066Y0054880D01*
X0096018Y0054882D01*
X0095970Y0054887D01*
X0095923Y0054896D01*
X0095876Y0054909D01*
X0095831Y0054925D01*
X0095787Y0054944D01*
X0095744Y0054966D01*
X0095703Y0054992D01*
X0095664Y0055021D01*
X0095628Y0055052D01*
X0095594Y0055086D01*
X0095563Y0055122D01*
X0095534Y0055161D01*
X0095508Y0055202D01*
X0095486Y0055245D01*
X0095467Y0055289D01*
X0095451Y0055334D01*
X0095438Y0055381D01*
X0095429Y0055428D01*
X0095424Y0055476D01*
X0095422Y0055524D01*
X0095421Y0055524D02*
X0095421Y0056169D01*
X0095421Y0057289D02*
X0095421Y0058094D01*
X0095423Y0058149D01*
X0095429Y0058204D01*
X0095438Y0058258D01*
X0095451Y0058311D01*
X0095468Y0058364D01*
X0095488Y0058415D01*
X0095511Y0058465D01*
X0095538Y0058513D01*
X0095569Y0058559D01*
X0095602Y0058603D01*
X0095638Y0058644D01*
X0095677Y0058683D01*
X0095718Y0058719D01*
X0095762Y0058752D01*
X0095808Y0058783D01*
X0095856Y0058810D01*
X0095906Y0058833D01*
X0095957Y0058853D01*
X0096010Y0058870D01*
X0096063Y0058883D01*
X0096117Y0058892D01*
X0096172Y0058898D01*
X0096227Y0058900D01*
X0096282Y0058898D01*
X0096337Y0058892D01*
X0096391Y0058883D01*
X0096444Y0058870D01*
X0096497Y0058853D01*
X0096548Y0058833D01*
X0096598Y0058810D01*
X0096646Y0058783D01*
X0096692Y0058752D01*
X0096736Y0058719D01*
X0096777Y0058683D01*
X0096816Y0058644D01*
X0096852Y0058603D01*
X0096885Y0058559D01*
X0096916Y0058513D01*
X0096943Y0058465D01*
X0096966Y0058415D01*
X0096986Y0058364D01*
X0097003Y0058311D01*
X0097016Y0058258D01*
X0097025Y0058204D01*
X0097031Y0058149D01*
X0097033Y0058094D01*
X0108658Y0046435D02*
X0109302Y0044179D01*
X0107691Y0044179D01*
X0108174Y0044824D02*
X0108174Y0043535D01*
X0110422Y0043535D02*
X0111067Y0043535D01*
X0111115Y0043537D01*
X0111163Y0043542D01*
X0111210Y0043551D01*
X0111257Y0043564D01*
X0111302Y0043580D01*
X0111346Y0043599D01*
X0111389Y0043621D01*
X0111430Y0043647D01*
X0111469Y0043676D01*
X0111505Y0043707D01*
X0111539Y0043741D01*
X0111570Y0043777D01*
X0111599Y0043816D01*
X0111625Y0043857D01*
X0111647Y0043900D01*
X0111666Y0043944D01*
X0111682Y0043989D01*
X0111695Y0044036D01*
X0111704Y0044083D01*
X0111709Y0044131D01*
X0111711Y0044179D01*
X0111711Y0045790D01*
X0111709Y0045838D01*
X0111704Y0045886D01*
X0111695Y0045933D01*
X0111682Y0045980D01*
X0111666Y0046025D01*
X0111647Y0046069D01*
X0111625Y0046112D01*
X0111599Y0046153D01*
X0111570Y0046192D01*
X0111539Y0046228D01*
X0111505Y0046262D01*
X0111469Y0046293D01*
X0111430Y0046322D01*
X0111389Y0046348D01*
X0111346Y0046370D01*
X0111302Y0046389D01*
X0111257Y0046405D01*
X0111210Y0046418D01*
X0111163Y0046427D01*
X0111115Y0046432D01*
X0111067Y0046434D01*
X0111067Y0046435D02*
X0110422Y0046435D01*
X0154275Y0061306D02*
X0154275Y0062112D01*
X0154277Y0062167D01*
X0154283Y0062222D01*
X0154292Y0062276D01*
X0154305Y0062329D01*
X0154322Y0062382D01*
X0154342Y0062433D01*
X0154365Y0062483D01*
X0154392Y0062531D01*
X0154423Y0062577D01*
X0154456Y0062621D01*
X0154492Y0062662D01*
X0154531Y0062701D01*
X0154572Y0062737D01*
X0154616Y0062770D01*
X0154662Y0062801D01*
X0154710Y0062828D01*
X0154760Y0062851D01*
X0154811Y0062871D01*
X0154864Y0062888D01*
X0154917Y0062901D01*
X0154971Y0062910D01*
X0155026Y0062916D01*
X0155081Y0062918D01*
X0155081Y0062917D02*
X0156369Y0062917D01*
X0156369Y0062918D02*
X0156424Y0062916D01*
X0156479Y0062910D01*
X0156533Y0062901D01*
X0156586Y0062888D01*
X0156639Y0062871D01*
X0156690Y0062851D01*
X0156740Y0062828D01*
X0156788Y0062801D01*
X0156834Y0062770D01*
X0156878Y0062737D01*
X0156919Y0062701D01*
X0156958Y0062662D01*
X0156994Y0062621D01*
X0157027Y0062577D01*
X0157058Y0062531D01*
X0157085Y0062483D01*
X0157108Y0062433D01*
X0157128Y0062382D01*
X0157145Y0062329D01*
X0157158Y0062276D01*
X0157167Y0062222D01*
X0157173Y0062167D01*
X0157175Y0062112D01*
X0157175Y0061306D01*
X0154275Y0061306D01*
X0154275Y0064282D02*
X0154275Y0065893D01*
X0154275Y0065088D02*
X0157175Y0065088D01*
X0156531Y0064282D01*
X0103493Y0098306D02*
X0103493Y0099594D01*
X0103491Y0099649D01*
X0103485Y0099704D01*
X0103476Y0099758D01*
X0103463Y0099811D01*
X0103446Y0099864D01*
X0103426Y0099915D01*
X0103403Y0099965D01*
X0103376Y0100013D01*
X0103345Y0100059D01*
X0103312Y0100103D01*
X0103276Y0100144D01*
X0103237Y0100183D01*
X0103196Y0100219D01*
X0103152Y0100252D01*
X0103106Y0100283D01*
X0103058Y0100310D01*
X0103008Y0100333D01*
X0102957Y0100353D01*
X0102904Y0100370D01*
X0102851Y0100383D01*
X0102797Y0100392D01*
X0102742Y0100398D01*
X0102687Y0100400D01*
X0102632Y0100398D01*
X0102577Y0100392D01*
X0102523Y0100383D01*
X0102470Y0100370D01*
X0102417Y0100353D01*
X0102366Y0100333D01*
X0102316Y0100310D01*
X0102268Y0100283D01*
X0102222Y0100252D01*
X0102178Y0100219D01*
X0102137Y0100183D01*
X0102098Y0100144D01*
X0102062Y0100103D01*
X0102029Y0100059D01*
X0101998Y0100013D01*
X0101971Y0099965D01*
X0101948Y0099915D01*
X0101928Y0099864D01*
X0101911Y0099811D01*
X0101898Y0099758D01*
X0101889Y0099704D01*
X0101883Y0099649D01*
X0101881Y0099594D01*
X0101881Y0098306D01*
X0101883Y0098251D01*
X0101889Y0098196D01*
X0101898Y0098142D01*
X0101911Y0098089D01*
X0101928Y0098036D01*
X0101948Y0097985D01*
X0101971Y0097935D01*
X0101998Y0097887D01*
X0102029Y0097841D01*
X0102062Y0097797D01*
X0102098Y0097756D01*
X0102137Y0097717D01*
X0102178Y0097681D01*
X0102222Y0097648D01*
X0102268Y0097617D01*
X0102316Y0097590D01*
X0102366Y0097567D01*
X0102417Y0097547D01*
X0102470Y0097530D01*
X0102523Y0097517D01*
X0102577Y0097508D01*
X0102632Y0097502D01*
X0102687Y0097500D01*
X0102742Y0097502D01*
X0102797Y0097508D01*
X0102851Y0097517D01*
X0102904Y0097530D01*
X0102957Y0097547D01*
X0103008Y0097567D01*
X0103058Y0097590D01*
X0103106Y0097617D01*
X0103152Y0097648D01*
X0103196Y0097681D01*
X0103237Y0097717D01*
X0103276Y0097756D01*
X0103312Y0097797D01*
X0103345Y0097841D01*
X0103376Y0097887D01*
X0103403Y0097935D01*
X0103426Y0097985D01*
X0103446Y0098036D01*
X0103463Y0098089D01*
X0103476Y0098142D01*
X0103485Y0098196D01*
X0103491Y0098251D01*
X0103493Y0098306D01*
X0100470Y0098628D02*
X0098859Y0100400D01*
X0097733Y0099756D02*
X0096927Y0100400D01*
X0096927Y0097500D01*
X0097733Y0097500D02*
X0096121Y0097500D01*
X0098859Y0097500D02*
X0099826Y0099272D01*
X0100470Y0100400D02*
X0100470Y0097500D01*
X0097321Y0011600D02*
X0096355Y0009989D01*
X0095388Y0011600D01*
X0095388Y0008700D01*
X0094023Y0009344D02*
X0094023Y0009989D01*
X0094021Y0010038D01*
X0094015Y0010087D01*
X0094006Y0010136D01*
X0093993Y0010183D01*
X0093976Y0010230D01*
X0093956Y0010275D01*
X0093933Y0010318D01*
X0093906Y0010360D01*
X0093876Y0010399D01*
X0093843Y0010436D01*
X0093807Y0010470D01*
X0093769Y0010501D01*
X0093729Y0010530D01*
X0093687Y0010555D01*
X0093642Y0010577D01*
X0093597Y0010595D01*
X0093550Y0010610D01*
X0093502Y0010621D01*
X0093453Y0010629D01*
X0093404Y0010633D01*
X0093354Y0010633D01*
X0093305Y0010629D01*
X0093256Y0010621D01*
X0093208Y0010610D01*
X0093161Y0010595D01*
X0093116Y0010577D01*
X0093071Y0010555D01*
X0093029Y0010530D01*
X0092989Y0010501D01*
X0092951Y0010470D01*
X0092915Y0010436D01*
X0092882Y0010399D01*
X0092852Y0010360D01*
X0092825Y0010318D01*
X0092802Y0010275D01*
X0092782Y0010230D01*
X0092765Y0010183D01*
X0092752Y0010136D01*
X0092743Y0010087D01*
X0092737Y0010038D01*
X0092735Y0009989D01*
X0092734Y0009989D02*
X0092734Y0009344D01*
X0092735Y0009344D02*
X0092737Y0009295D01*
X0092743Y0009246D01*
X0092752Y0009197D01*
X0092765Y0009150D01*
X0092782Y0009103D01*
X0092802Y0009058D01*
X0092825Y0009015D01*
X0092852Y0008973D01*
X0092882Y0008934D01*
X0092915Y0008897D01*
X0092951Y0008863D01*
X0092989Y0008832D01*
X0093029Y0008803D01*
X0093071Y0008778D01*
X0093116Y0008756D01*
X0093161Y0008738D01*
X0093208Y0008723D01*
X0093256Y0008712D01*
X0093305Y0008704D01*
X0093354Y0008700D01*
X0093404Y0008700D01*
X0093453Y0008704D01*
X0093502Y0008712D01*
X0093550Y0008723D01*
X0093597Y0008738D01*
X0093642Y0008756D01*
X0093687Y0008778D01*
X0093729Y0008803D01*
X0093769Y0008832D01*
X0093807Y0008863D01*
X0093843Y0008897D01*
X0093876Y0008934D01*
X0093906Y0008973D01*
X0093933Y0009015D01*
X0093956Y0009058D01*
X0093976Y0009103D01*
X0093993Y0009150D01*
X0094006Y0009197D01*
X0094015Y0009246D01*
X0094021Y0009295D01*
X0094023Y0009344D01*
X0091453Y0009183D02*
X0091453Y0011600D01*
X0091775Y0010633D02*
X0090809Y0010633D01*
X0089703Y0009989D02*
X0089703Y0009344D01*
X0089701Y0009295D01*
X0089695Y0009246D01*
X0089686Y0009197D01*
X0089673Y0009150D01*
X0089656Y0009103D01*
X0089636Y0009058D01*
X0089613Y0009015D01*
X0089586Y0008973D01*
X0089556Y0008934D01*
X0089523Y0008897D01*
X0089487Y0008863D01*
X0089449Y0008832D01*
X0089409Y0008803D01*
X0089367Y0008778D01*
X0089322Y0008756D01*
X0089277Y0008738D01*
X0089230Y0008723D01*
X0089182Y0008712D01*
X0089133Y0008704D01*
X0089084Y0008700D01*
X0089034Y0008700D01*
X0088985Y0008704D01*
X0088936Y0008712D01*
X0088888Y0008723D01*
X0088841Y0008738D01*
X0088796Y0008756D01*
X0088751Y0008778D01*
X0088709Y0008803D01*
X0088669Y0008832D01*
X0088631Y0008863D01*
X0088595Y0008897D01*
X0088562Y0008934D01*
X0088532Y0008973D01*
X0088505Y0009015D01*
X0088482Y0009058D01*
X0088462Y0009103D01*
X0088445Y0009150D01*
X0088432Y0009197D01*
X0088423Y0009246D01*
X0088417Y0009295D01*
X0088415Y0009344D01*
X0088414Y0009344D02*
X0088414Y0009989D01*
X0088415Y0009989D02*
X0088417Y0010038D01*
X0088423Y0010087D01*
X0088432Y0010136D01*
X0088445Y0010183D01*
X0088462Y0010230D01*
X0088482Y0010275D01*
X0088505Y0010318D01*
X0088532Y0010360D01*
X0088562Y0010399D01*
X0088595Y0010436D01*
X0088631Y0010470D01*
X0088669Y0010501D01*
X0088709Y0010530D01*
X0088751Y0010555D01*
X0088796Y0010577D01*
X0088841Y0010595D01*
X0088888Y0010610D01*
X0088936Y0010621D01*
X0088985Y0010629D01*
X0089034Y0010633D01*
X0089084Y0010633D01*
X0089133Y0010629D01*
X0089182Y0010621D01*
X0089230Y0010610D01*
X0089277Y0010595D01*
X0089322Y0010577D01*
X0089367Y0010555D01*
X0089409Y0010530D01*
X0089449Y0010501D01*
X0089487Y0010470D01*
X0089523Y0010436D01*
X0089556Y0010399D01*
X0089586Y0010360D01*
X0089613Y0010318D01*
X0089636Y0010275D01*
X0089656Y0010230D01*
X0089673Y0010183D01*
X0089686Y0010136D01*
X0089695Y0010087D01*
X0089701Y0010038D01*
X0089703Y0009989D01*
X0090970Y0008700D02*
X0091012Y0008702D01*
X0091054Y0008707D01*
X0091095Y0008716D01*
X0091135Y0008729D01*
X0091174Y0008745D01*
X0091212Y0008765D01*
X0091247Y0008787D01*
X0091280Y0008813D01*
X0091312Y0008841D01*
X0091340Y0008873D01*
X0091366Y0008906D01*
X0091388Y0008942D01*
X0091408Y0008979D01*
X0091424Y0009018D01*
X0091437Y0009058D01*
X0091446Y0009099D01*
X0091451Y0009141D01*
X0091453Y0009183D01*
X0090970Y0008700D02*
X0090809Y0008700D01*
X0087093Y0008700D02*
X0087093Y0010633D01*
X0086127Y0010633D01*
X0086127Y0010311D01*
X0083634Y0010956D02*
X0083634Y0009344D01*
X0083633Y0009344D02*
X0083631Y0009296D01*
X0083626Y0009248D01*
X0083617Y0009201D01*
X0083604Y0009154D01*
X0083588Y0009109D01*
X0083569Y0009065D01*
X0083547Y0009022D01*
X0083521Y0008981D01*
X0083492Y0008942D01*
X0083461Y0008906D01*
X0083427Y0008872D01*
X0083391Y0008841D01*
X0083352Y0008812D01*
X0083311Y0008786D01*
X0083268Y0008764D01*
X0083224Y0008745D01*
X0083179Y0008729D01*
X0083132Y0008716D01*
X0083085Y0008707D01*
X0083037Y0008702D01*
X0082989Y0008700D01*
X0082345Y0008700D01*
X0081255Y0009344D02*
X0081255Y0009989D01*
X0081253Y0010038D01*
X0081247Y0010087D01*
X0081238Y0010136D01*
X0081225Y0010183D01*
X0081208Y0010230D01*
X0081188Y0010275D01*
X0081165Y0010318D01*
X0081138Y0010360D01*
X0081108Y0010399D01*
X0081075Y0010436D01*
X0081039Y0010470D01*
X0081001Y0010501D01*
X0080961Y0010530D01*
X0080919Y0010555D01*
X0080874Y0010577D01*
X0080829Y0010595D01*
X0080782Y0010610D01*
X0080734Y0010621D01*
X0080685Y0010629D01*
X0080636Y0010633D01*
X0080586Y0010633D01*
X0080537Y0010629D01*
X0080488Y0010621D01*
X0080440Y0010610D01*
X0080393Y0010595D01*
X0080348Y0010577D01*
X0080303Y0010555D01*
X0080261Y0010530D01*
X0080221Y0010501D01*
X0080183Y0010470D01*
X0080147Y0010436D01*
X0080114Y0010399D01*
X0080084Y0010360D01*
X0080057Y0010318D01*
X0080034Y0010275D01*
X0080014Y0010230D01*
X0079997Y0010183D01*
X0079984Y0010136D01*
X0079975Y0010087D01*
X0079969Y0010038D01*
X0079967Y0009989D01*
X0079966Y0009989D02*
X0079966Y0009344D01*
X0079967Y0009344D02*
X0079969Y0009295D01*
X0079975Y0009246D01*
X0079984Y0009197D01*
X0079997Y0009150D01*
X0080014Y0009103D01*
X0080034Y0009058D01*
X0080057Y0009015D01*
X0080084Y0008973D01*
X0080114Y0008934D01*
X0080147Y0008897D01*
X0080183Y0008863D01*
X0080221Y0008832D01*
X0080261Y0008803D01*
X0080303Y0008778D01*
X0080348Y0008756D01*
X0080393Y0008738D01*
X0080440Y0008723D01*
X0080488Y0008712D01*
X0080537Y0008704D01*
X0080586Y0008700D01*
X0080636Y0008700D01*
X0080685Y0008704D01*
X0080734Y0008712D01*
X0080782Y0008723D01*
X0080829Y0008738D01*
X0080874Y0008756D01*
X0080919Y0008778D01*
X0080961Y0008803D01*
X0081001Y0008832D01*
X0081039Y0008863D01*
X0081075Y0008897D01*
X0081108Y0008934D01*
X0081138Y0008973D01*
X0081165Y0009015D01*
X0081188Y0009058D01*
X0081208Y0009103D01*
X0081225Y0009150D01*
X0081238Y0009197D01*
X0081247Y0009246D01*
X0081253Y0009295D01*
X0081255Y0009344D01*
X0082989Y0011600D02*
X0083037Y0011598D01*
X0083085Y0011593D01*
X0083132Y0011584D01*
X0083179Y0011571D01*
X0083224Y0011555D01*
X0083268Y0011536D01*
X0083311Y0011514D01*
X0083352Y0011488D01*
X0083391Y0011459D01*
X0083427Y0011428D01*
X0083461Y0011394D01*
X0083492Y0011358D01*
X0083521Y0011319D01*
X0083547Y0011278D01*
X0083569Y0011235D01*
X0083588Y0011191D01*
X0083604Y0011146D01*
X0083617Y0011099D01*
X0083626Y0011052D01*
X0083631Y0011004D01*
X0083633Y0010956D01*
X0082989Y0011600D02*
X0082345Y0011600D01*
X0078663Y0010633D02*
X0078663Y0008700D01*
X0077374Y0008700D02*
X0077374Y0010150D01*
X0077375Y0010150D02*
X0077377Y0010192D01*
X0077382Y0010234D01*
X0077391Y0010275D01*
X0077404Y0010315D01*
X0077420Y0010354D01*
X0077440Y0010392D01*
X0077462Y0010427D01*
X0077488Y0010460D01*
X0077516Y0010492D01*
X0077548Y0010520D01*
X0077581Y0010546D01*
X0077617Y0010568D01*
X0077654Y0010588D01*
X0077693Y0010604D01*
X0077733Y0010617D01*
X0077774Y0010626D01*
X0077816Y0010631D01*
X0077858Y0010633D01*
X0078663Y0010633D01*
X0076320Y0010633D02*
X0075353Y0010633D01*
X0075997Y0011600D02*
X0075997Y0009183D01*
X0075995Y0009141D01*
X0075990Y0009099D01*
X0075981Y0009058D01*
X0075968Y0009018D01*
X0075952Y0008979D01*
X0075932Y0008942D01*
X0075910Y0008906D01*
X0075884Y0008873D01*
X0075856Y0008841D01*
X0075824Y0008813D01*
X0075791Y0008787D01*
X0075756Y0008765D01*
X0075718Y0008745D01*
X0075679Y0008729D01*
X0075639Y0008716D01*
X0075598Y0008707D01*
X0075556Y0008702D01*
X0075514Y0008700D01*
X0075353Y0008700D01*
X0074133Y0008700D02*
X0074133Y0010633D01*
X0073167Y0010633D01*
X0073167Y0010311D01*
X0072231Y0009989D02*
X0072231Y0009344D01*
X0072229Y0009295D01*
X0072223Y0009246D01*
X0072214Y0009197D01*
X0072201Y0009150D01*
X0072184Y0009103D01*
X0072164Y0009058D01*
X0072141Y0009015D01*
X0072114Y0008973D01*
X0072084Y0008934D01*
X0072051Y0008897D01*
X0072015Y0008863D01*
X0071977Y0008832D01*
X0071937Y0008803D01*
X0071895Y0008778D01*
X0071850Y0008756D01*
X0071805Y0008738D01*
X0071758Y0008723D01*
X0071710Y0008712D01*
X0071661Y0008704D01*
X0071612Y0008700D01*
X0071562Y0008700D01*
X0071513Y0008704D01*
X0071464Y0008712D01*
X0071416Y0008723D01*
X0071369Y0008738D01*
X0071324Y0008756D01*
X0071279Y0008778D01*
X0071237Y0008803D01*
X0071197Y0008832D01*
X0071159Y0008863D01*
X0071123Y0008897D01*
X0071090Y0008934D01*
X0071060Y0008973D01*
X0071033Y0009015D01*
X0071010Y0009058D01*
X0070990Y0009103D01*
X0070973Y0009150D01*
X0070960Y0009197D01*
X0070951Y0009246D01*
X0070945Y0009295D01*
X0070943Y0009344D01*
X0070943Y0009989D01*
X0070945Y0010038D01*
X0070951Y0010087D01*
X0070960Y0010136D01*
X0070973Y0010183D01*
X0070990Y0010230D01*
X0071010Y0010275D01*
X0071033Y0010318D01*
X0071060Y0010360D01*
X0071090Y0010399D01*
X0071123Y0010436D01*
X0071159Y0010470D01*
X0071197Y0010501D01*
X0071237Y0010530D01*
X0071279Y0010555D01*
X0071324Y0010577D01*
X0071369Y0010595D01*
X0071416Y0010610D01*
X0071464Y0010621D01*
X0071513Y0010629D01*
X0071562Y0010633D01*
X0071612Y0010633D01*
X0071661Y0010629D01*
X0071710Y0010621D01*
X0071758Y0010610D01*
X0071805Y0010595D01*
X0071850Y0010577D01*
X0071895Y0010555D01*
X0071937Y0010530D01*
X0071977Y0010501D01*
X0072015Y0010470D01*
X0072051Y0010436D01*
X0072084Y0010399D01*
X0072114Y0010360D01*
X0072141Y0010318D01*
X0072164Y0010275D01*
X0072184Y0010230D01*
X0072201Y0010183D01*
X0072214Y0010136D01*
X0072223Y0010087D01*
X0072229Y0010038D01*
X0072231Y0009989D01*
X0069703Y0009183D02*
X0069703Y0011600D01*
X0068167Y0011600D02*
X0068167Y0009183D01*
X0068166Y0009183D02*
X0068164Y0009141D01*
X0068159Y0009099D01*
X0068150Y0009058D01*
X0068137Y0009018D01*
X0068121Y0008979D01*
X0068101Y0008942D01*
X0068079Y0008906D01*
X0068053Y0008873D01*
X0068025Y0008841D01*
X0067993Y0008813D01*
X0067960Y0008787D01*
X0067925Y0008765D01*
X0067887Y0008745D01*
X0067848Y0008729D01*
X0067808Y0008716D01*
X0067767Y0008707D01*
X0067725Y0008702D01*
X0067683Y0008700D01*
X0066663Y0009183D02*
X0066663Y0009989D01*
X0066663Y0009667D02*
X0065375Y0009667D01*
X0065375Y0009989D01*
X0065377Y0010038D01*
X0065383Y0010087D01*
X0065392Y0010136D01*
X0065405Y0010183D01*
X0065422Y0010230D01*
X0065442Y0010275D01*
X0065465Y0010318D01*
X0065492Y0010360D01*
X0065522Y0010399D01*
X0065555Y0010436D01*
X0065591Y0010470D01*
X0065629Y0010501D01*
X0065669Y0010530D01*
X0065711Y0010555D01*
X0065756Y0010577D01*
X0065801Y0010595D01*
X0065848Y0010610D01*
X0065896Y0010621D01*
X0065945Y0010629D01*
X0065994Y0010633D01*
X0066044Y0010633D01*
X0066093Y0010629D01*
X0066142Y0010621D01*
X0066190Y0010610D01*
X0066237Y0010595D01*
X0066282Y0010577D01*
X0066327Y0010555D01*
X0066369Y0010530D01*
X0066409Y0010501D01*
X0066447Y0010470D01*
X0066483Y0010436D01*
X0066516Y0010399D01*
X0066546Y0010360D01*
X0066573Y0010318D01*
X0066596Y0010275D01*
X0066616Y0010230D01*
X0066633Y0010183D01*
X0066646Y0010136D01*
X0066655Y0010087D01*
X0066661Y0010038D01*
X0066663Y0009989D01*
X0066663Y0009183D02*
X0066661Y0009141D01*
X0066656Y0009099D01*
X0066647Y0009058D01*
X0066634Y0009018D01*
X0066618Y0008979D01*
X0066598Y0008942D01*
X0066576Y0008906D01*
X0066550Y0008873D01*
X0066522Y0008841D01*
X0066490Y0008813D01*
X0066457Y0008787D01*
X0066422Y0008765D01*
X0066384Y0008745D01*
X0066345Y0008729D01*
X0066305Y0008716D01*
X0066264Y0008707D01*
X0066222Y0008702D01*
X0066180Y0008700D01*
X0065375Y0008700D01*
X0064053Y0008700D02*
X0064053Y0010633D01*
X0063087Y0010633D01*
X0063087Y0010311D01*
X0060468Y0009989D02*
X0059663Y0009989D01*
X0059502Y0009989D02*
X0058857Y0008700D01*
X0057639Y0009183D02*
X0057639Y0009989D01*
X0057639Y0009667D02*
X0056351Y0009667D01*
X0056351Y0009989D01*
X0056353Y0010038D01*
X0056359Y0010087D01*
X0056368Y0010136D01*
X0056381Y0010183D01*
X0056398Y0010230D01*
X0056418Y0010275D01*
X0056441Y0010318D01*
X0056468Y0010360D01*
X0056498Y0010399D01*
X0056531Y0010436D01*
X0056567Y0010470D01*
X0056605Y0010501D01*
X0056645Y0010530D01*
X0056687Y0010555D01*
X0056732Y0010577D01*
X0056777Y0010595D01*
X0056824Y0010610D01*
X0056872Y0010621D01*
X0056921Y0010629D01*
X0056970Y0010633D01*
X0057020Y0010633D01*
X0057069Y0010629D01*
X0057118Y0010621D01*
X0057166Y0010610D01*
X0057213Y0010595D01*
X0057258Y0010577D01*
X0057303Y0010555D01*
X0057345Y0010530D01*
X0057385Y0010501D01*
X0057423Y0010470D01*
X0057459Y0010436D01*
X0057492Y0010399D01*
X0057522Y0010360D01*
X0057549Y0010318D01*
X0057572Y0010275D01*
X0057592Y0010230D01*
X0057609Y0010183D01*
X0057622Y0010136D01*
X0057631Y0010087D01*
X0057637Y0010038D01*
X0057639Y0009989D01*
X0057639Y0009183D02*
X0057637Y0009141D01*
X0057632Y0009099D01*
X0057623Y0009058D01*
X0057610Y0009018D01*
X0057594Y0008979D01*
X0057574Y0008942D01*
X0057552Y0008906D01*
X0057526Y0008873D01*
X0057498Y0008841D01*
X0057466Y0008813D01*
X0057433Y0008787D01*
X0057398Y0008765D01*
X0057360Y0008745D01*
X0057321Y0008729D01*
X0057281Y0008716D01*
X0057240Y0008707D01*
X0057198Y0008702D01*
X0057156Y0008700D01*
X0056351Y0008700D01*
X0054595Y0008700D02*
X0053951Y0010633D01*
X0055239Y0010633D02*
X0054595Y0008700D01*
X0052948Y0008700D02*
X0052787Y0008700D01*
X0052787Y0008861D01*
X0052948Y0008861D01*
X0052948Y0008700D01*
X0051657Y0008700D02*
X0050046Y0008700D01*
X0050851Y0008700D02*
X0050851Y0011600D01*
X0051657Y0010956D01*
X0046013Y0010150D02*
X0046015Y0010060D01*
X0046020Y0009969D01*
X0046028Y0009880D01*
X0046040Y0009790D01*
X0046056Y0009701D01*
X0046074Y0009613D01*
X0046096Y0009525D01*
X0046121Y0009438D01*
X0046150Y0009353D01*
X0046182Y0009268D01*
X0046217Y0009185D01*
X0046255Y0009103D01*
X0046819Y0008700D02*
X0046865Y0008702D01*
X0046911Y0008707D01*
X0046956Y0008716D01*
X0047001Y0008728D01*
X0047044Y0008744D01*
X0047086Y0008763D01*
X0047127Y0008786D01*
X0047165Y0008811D01*
X0047202Y0008839D01*
X0047236Y0008870D01*
X0047268Y0008904D01*
X0047297Y0008940D01*
X0047323Y0008978D01*
X0047346Y0009018D01*
X0047366Y0009060D01*
X0047383Y0009103D01*
X0047464Y0009344D02*
X0046175Y0010956D01*
X0046255Y0011197D02*
X0046272Y0011240D01*
X0046292Y0011282D01*
X0046315Y0011322D01*
X0046341Y0011360D01*
X0046370Y0011396D01*
X0046402Y0011430D01*
X0046436Y0011461D01*
X0046473Y0011489D01*
X0046511Y0011514D01*
X0046552Y0011537D01*
X0046594Y0011556D01*
X0046637Y0011572D01*
X0046682Y0011584D01*
X0046727Y0011593D01*
X0046773Y0011598D01*
X0046819Y0011600D01*
X0046865Y0011598D01*
X0046911Y0011593D01*
X0046956Y0011584D01*
X0047001Y0011572D01*
X0047044Y0011556D01*
X0047086Y0011537D01*
X0047127Y0011514D01*
X0047165Y0011489D01*
X0047202Y0011461D01*
X0047236Y0011430D01*
X0047268Y0011396D01*
X0047297Y0011360D01*
X0047323Y0011322D01*
X0047346Y0011282D01*
X0047366Y0011240D01*
X0047383Y0011197D01*
X0046255Y0011197D02*
X0046217Y0011115D01*
X0046182Y0011032D01*
X0046150Y0010947D01*
X0046121Y0010862D01*
X0046096Y0010775D01*
X0046074Y0010687D01*
X0046056Y0010599D01*
X0046040Y0010510D01*
X0046028Y0010420D01*
X0046020Y0010331D01*
X0046015Y0010240D01*
X0046013Y0010150D01*
X0047625Y0010150D02*
X0047623Y0010240D01*
X0047618Y0010331D01*
X0047610Y0010420D01*
X0047598Y0010510D01*
X0047582Y0010599D01*
X0047564Y0010687D01*
X0047542Y0010775D01*
X0047517Y0010862D01*
X0047488Y0010947D01*
X0047456Y0011032D01*
X0047421Y0011115D01*
X0047383Y0011197D01*
X0046255Y0009103D02*
X0046272Y0009060D01*
X0046292Y0009018D01*
X0046315Y0008978D01*
X0046341Y0008940D01*
X0046370Y0008904D01*
X0046402Y0008870D01*
X0046436Y0008839D01*
X0046473Y0008811D01*
X0046511Y0008786D01*
X0046552Y0008763D01*
X0046594Y0008744D01*
X0046637Y0008728D01*
X0046682Y0008716D01*
X0046727Y0008707D01*
X0046773Y0008702D01*
X0046819Y0008700D01*
X0048755Y0008700D02*
X0048916Y0008700D01*
X0048916Y0008861D01*
X0048755Y0008861D01*
X0048755Y0008700D01*
X0047383Y0009103D02*
X0047421Y0009185D01*
X0047456Y0009268D01*
X0047488Y0009353D01*
X0047517Y0009438D01*
X0047542Y0009525D01*
X0047564Y0009613D01*
X0047582Y0009701D01*
X0047598Y0009790D01*
X0047610Y0009880D01*
X0047618Y0009969D01*
X0047623Y0010060D01*
X0047625Y0010150D01*
X0059663Y0009988D02*
X0059608Y0009990D01*
X0059553Y0009996D01*
X0059499Y0010005D01*
X0059446Y0010018D01*
X0059393Y0010035D01*
X0059342Y0010055D01*
X0059292Y0010078D01*
X0059244Y0010105D01*
X0059198Y0010136D01*
X0059154Y0010169D01*
X0059113Y0010205D01*
X0059074Y0010244D01*
X0059038Y0010285D01*
X0059005Y0010329D01*
X0058974Y0010375D01*
X0058947Y0010423D01*
X0058924Y0010473D01*
X0058904Y0010524D01*
X0058887Y0010577D01*
X0058874Y0010630D01*
X0058865Y0010684D01*
X0058859Y0010739D01*
X0058857Y0010794D01*
X0058859Y0010849D01*
X0058865Y0010904D01*
X0058874Y0010958D01*
X0058887Y0011011D01*
X0058904Y0011064D01*
X0058924Y0011115D01*
X0058947Y0011165D01*
X0058974Y0011213D01*
X0059005Y0011259D01*
X0059038Y0011303D01*
X0059074Y0011344D01*
X0059113Y0011383D01*
X0059154Y0011419D01*
X0059198Y0011452D01*
X0059244Y0011483D01*
X0059292Y0011510D01*
X0059342Y0011533D01*
X0059393Y0011553D01*
X0059446Y0011570D01*
X0059499Y0011583D01*
X0059553Y0011592D01*
X0059608Y0011598D01*
X0059663Y0011600D01*
X0060468Y0011600D01*
X0060468Y0008700D01*
X0069219Y0008700D02*
X0069261Y0008702D01*
X0069303Y0008707D01*
X0069344Y0008716D01*
X0069384Y0008729D01*
X0069423Y0008745D01*
X0069461Y0008765D01*
X0069496Y0008787D01*
X0069529Y0008813D01*
X0069561Y0008841D01*
X0069589Y0008873D01*
X0069615Y0008906D01*
X0069637Y0008942D01*
X0069657Y0008979D01*
X0069673Y0009018D01*
X0069686Y0009058D01*
X0069695Y0009099D01*
X0069700Y0009141D01*
X0069702Y0009183D01*
X0097321Y0008700D02*
X0097321Y0011600D01*
X0138172Y0008078D02*
X0138174Y0008022D01*
X0138180Y0007966D01*
X0138189Y0007911D01*
X0138202Y0007856D01*
X0138219Y0007803D01*
X0138240Y0007751D01*
X0138264Y0007700D01*
X0138292Y0007651D01*
X0138322Y0007604D01*
X0138356Y0007559D01*
X0138393Y0007517D01*
X0138433Y0007477D01*
X0138475Y0007440D01*
X0138520Y0007406D01*
X0138567Y0007376D01*
X0138616Y0007348D01*
X0138667Y0007324D01*
X0138719Y0007303D01*
X0138772Y0007286D01*
X0138827Y0007273D01*
X0138882Y0007264D01*
X0138938Y0007258D01*
X0138994Y0007256D01*
X0139050Y0007258D01*
X0139106Y0007264D01*
X0139161Y0007273D01*
X0139216Y0007286D01*
X0139269Y0007303D01*
X0139321Y0007324D01*
X0139372Y0007348D01*
X0139421Y0007376D01*
X0139468Y0007406D01*
X0139513Y0007440D01*
X0139555Y0007477D01*
X0139595Y0007517D01*
X0139632Y0007559D01*
X0139666Y0007604D01*
X0139696Y0007651D01*
X0139724Y0007700D01*
X0139748Y0007751D01*
X0139769Y0007803D01*
X0139786Y0007856D01*
X0139799Y0007911D01*
X0139808Y0007966D01*
X0139814Y0008022D01*
X0139816Y0008078D01*
X0139814Y0008134D01*
X0139808Y0008190D01*
X0139799Y0008245D01*
X0139786Y0008300D01*
X0139769Y0008353D01*
X0139748Y0008405D01*
X0139724Y0008456D01*
X0139696Y0008505D01*
X0139666Y0008552D01*
X0139632Y0008597D01*
X0139595Y0008639D01*
X0139555Y0008679D01*
X0139513Y0008716D01*
X0139468Y0008750D01*
X0139421Y0008780D01*
X0139372Y0008808D01*
X0139321Y0008832D01*
X0139269Y0008853D01*
X0139216Y0008870D01*
X0139161Y0008883D01*
X0139106Y0008892D01*
X0139050Y0008898D01*
X0138994Y0008900D01*
X0138938Y0008898D01*
X0138882Y0008892D01*
X0138827Y0008883D01*
X0138772Y0008870D01*
X0138719Y0008853D01*
X0138667Y0008832D01*
X0138616Y0008808D01*
X0138567Y0008780D01*
X0138520Y0008750D01*
X0138475Y0008716D01*
X0138433Y0008679D01*
X0138393Y0008639D01*
X0138356Y0008597D01*
X0138322Y0008552D01*
X0138292Y0008505D01*
X0138264Y0008456D01*
X0138240Y0008405D01*
X0138219Y0008353D01*
X0138202Y0008300D01*
X0138189Y0008245D01*
X0138180Y0008190D01*
X0138174Y0008134D01*
X0138172Y0008078D01*
X0137966Y0006228D02*
X0137968Y0006165D01*
X0137974Y0006102D01*
X0137984Y0006039D01*
X0137997Y0005977D01*
X0138014Y0005916D01*
X0138035Y0005857D01*
X0138060Y0005798D01*
X0138088Y0005742D01*
X0138120Y0005687D01*
X0138155Y0005634D01*
X0138193Y0005584D01*
X0138234Y0005535D01*
X0138278Y0005490D01*
X0138325Y0005447D01*
X0138374Y0005408D01*
X0138426Y0005371D01*
X0138480Y0005338D01*
X0138536Y0005308D01*
X0138593Y0005281D01*
X0138652Y0005258D01*
X0138713Y0005239D01*
X0138774Y0005224D01*
X0138836Y0005212D01*
X0138899Y0005204D01*
X0138962Y0005200D01*
X0139026Y0005200D01*
X0139089Y0005204D01*
X0139152Y0005212D01*
X0139214Y0005224D01*
X0139275Y0005239D01*
X0139336Y0005258D01*
X0139395Y0005281D01*
X0139452Y0005308D01*
X0139508Y0005338D01*
X0139562Y0005371D01*
X0139614Y0005408D01*
X0139663Y0005447D01*
X0139710Y0005490D01*
X0139754Y0005535D01*
X0139795Y0005584D01*
X0139833Y0005634D01*
X0139868Y0005687D01*
X0139900Y0005742D01*
X0139928Y0005798D01*
X0139953Y0005857D01*
X0139974Y0005916D01*
X0139991Y0005977D01*
X0140004Y0006039D01*
X0140014Y0006102D01*
X0140020Y0006165D01*
X0140022Y0006228D01*
X0140020Y0006291D01*
X0140014Y0006354D01*
X0140004Y0006417D01*
X0139991Y0006479D01*
X0139974Y0006540D01*
X0139953Y0006599D01*
X0139928Y0006658D01*
X0139900Y0006714D01*
X0139868Y0006769D01*
X0139833Y0006822D01*
X0139795Y0006872D01*
X0139754Y0006921D01*
X0139710Y0006966D01*
X0139663Y0007009D01*
X0139614Y0007048D01*
X0139562Y0007085D01*
X0139508Y0007118D01*
X0139452Y0007148D01*
X0139395Y0007175D01*
X0139336Y0007198D01*
X0139275Y0007217D01*
X0139214Y0007232D01*
X0139152Y0007244D01*
X0139089Y0007252D01*
X0139026Y0007256D01*
X0138962Y0007256D01*
X0138899Y0007252D01*
X0138836Y0007244D01*
X0138774Y0007232D01*
X0138713Y0007217D01*
X0138652Y0007198D01*
X0138593Y0007175D01*
X0138536Y0007148D01*
X0138480Y0007118D01*
X0138426Y0007085D01*
X0138374Y0007048D01*
X0138325Y0007009D01*
X0138278Y0006966D01*
X0138234Y0006921D01*
X0138193Y0006872D01*
X0138155Y0006822D01*
X0138120Y0006769D01*
X0138088Y0006714D01*
X0138060Y0006658D01*
X0138035Y0006599D01*
X0138014Y0006540D01*
X0137997Y0006479D01*
X0137984Y0006417D01*
X0137974Y0006354D01*
X0137968Y0006291D01*
X0137966Y0006228D01*
X0141566Y0005200D02*
X0143622Y0005200D01*
X0142594Y0005200D02*
X0142594Y0008900D01*
X0143622Y0008078D01*
X0147221Y0007050D02*
X0147219Y0006944D01*
X0147214Y0006837D01*
X0147204Y0006731D01*
X0147191Y0006626D01*
X0147175Y0006521D01*
X0147154Y0006416D01*
X0147131Y0006313D01*
X0147103Y0006210D01*
X0147072Y0006108D01*
X0147037Y0006008D01*
X0146999Y0005908D01*
X0146958Y0005810D01*
X0146913Y0005714D01*
X0147016Y0006022D02*
X0145372Y0008078D01*
X0145474Y0008386D02*
X0145493Y0008435D01*
X0145515Y0008482D01*
X0145540Y0008528D01*
X0145569Y0008572D01*
X0145600Y0008614D01*
X0145634Y0008654D01*
X0145671Y0008692D01*
X0145710Y0008726D01*
X0145752Y0008758D01*
X0145795Y0008787D01*
X0145841Y0008813D01*
X0145888Y0008836D01*
X0145937Y0008855D01*
X0145987Y0008871D01*
X0146038Y0008884D01*
X0146089Y0008893D01*
X0146142Y0008898D01*
X0146194Y0008900D01*
X0146246Y0008898D01*
X0146299Y0008893D01*
X0146350Y0008884D01*
X0146401Y0008871D01*
X0146451Y0008855D01*
X0146500Y0008836D01*
X0146547Y0008813D01*
X0146593Y0008787D01*
X0146636Y0008758D01*
X0146678Y0008726D01*
X0146717Y0008692D01*
X0146754Y0008654D01*
X0146788Y0008614D01*
X0146820Y0008572D01*
X0146848Y0008528D01*
X0146873Y0008482D01*
X0146895Y0008435D01*
X0146914Y0008386D01*
X0145474Y0008386D02*
X0145429Y0008290D01*
X0145388Y0008192D01*
X0145350Y0008092D01*
X0145315Y0007992D01*
X0145284Y0007890D01*
X0145256Y0007787D01*
X0145233Y0007684D01*
X0145212Y0007579D01*
X0145196Y0007474D01*
X0145183Y0007369D01*
X0145173Y0007263D01*
X0145168Y0007156D01*
X0145166Y0007050D01*
X0147221Y0007050D02*
X0147219Y0007156D01*
X0147214Y0007263D01*
X0147204Y0007369D01*
X0147191Y0007474D01*
X0147175Y0007579D01*
X0147154Y0007684D01*
X0147131Y0007787D01*
X0147103Y0007890D01*
X0147072Y0007992D01*
X0147037Y0008092D01*
X0146999Y0008192D01*
X0146958Y0008290D01*
X0146913Y0008386D01*
X0145166Y0007050D02*
X0145168Y0006944D01*
X0145173Y0006837D01*
X0145183Y0006731D01*
X0145196Y0006626D01*
X0145212Y0006521D01*
X0145233Y0006416D01*
X0145256Y0006313D01*
X0145284Y0006210D01*
X0145315Y0006108D01*
X0145350Y0006008D01*
X0145388Y0005908D01*
X0145429Y0005810D01*
X0145474Y0005714D01*
X0145493Y0005665D01*
X0145515Y0005618D01*
X0145540Y0005572D01*
X0145569Y0005528D01*
X0145600Y0005486D01*
X0145634Y0005446D01*
X0145671Y0005408D01*
X0145710Y0005374D01*
X0145752Y0005342D01*
X0145795Y0005313D01*
X0145841Y0005287D01*
X0145888Y0005264D01*
X0145937Y0005245D01*
X0145987Y0005229D01*
X0146038Y0005216D01*
X0146089Y0005207D01*
X0146142Y0005202D01*
X0146194Y0005200D01*
X0146246Y0005202D01*
X0146299Y0005207D01*
X0146350Y0005216D01*
X0146401Y0005229D01*
X0146451Y0005245D01*
X0146500Y0005264D01*
X0146547Y0005287D01*
X0146593Y0005313D01*
X0146636Y0005342D01*
X0146678Y0005374D01*
X0146717Y0005408D01*
X0146754Y0005446D01*
X0146788Y0005486D01*
X0146820Y0005528D01*
X0146848Y0005572D01*
X0146873Y0005618D01*
X0146895Y0005665D01*
X0146914Y0005714D01*
X0148766Y0005200D02*
X0150821Y0005200D01*
X0149074Y0007256D01*
X0149691Y0008900D02*
X0149759Y0008898D01*
X0149827Y0008892D01*
X0149894Y0008883D01*
X0149960Y0008869D01*
X0150026Y0008852D01*
X0150091Y0008831D01*
X0150154Y0008806D01*
X0150216Y0008778D01*
X0150276Y0008746D01*
X0150334Y0008711D01*
X0150390Y0008673D01*
X0150444Y0008631D01*
X0150495Y0008587D01*
X0150543Y0008539D01*
X0150589Y0008489D01*
X0150632Y0008437D01*
X0150672Y0008382D01*
X0150709Y0008325D01*
X0150742Y0008266D01*
X0150772Y0008205D01*
X0150798Y0008142D01*
X0150821Y0008078D01*
X0149073Y0007255D02*
X0149030Y0007299D01*
X0148989Y0007346D01*
X0148952Y0007395D01*
X0148917Y0007446D01*
X0148886Y0007500D01*
X0148858Y0007555D01*
X0148834Y0007612D01*
X0148813Y0007670D01*
X0148796Y0007730D01*
X0148782Y0007790D01*
X0148773Y0007851D01*
X0148767Y0007913D01*
X0148765Y0007975D01*
X0148766Y0007975D02*
X0148768Y0008033D01*
X0148773Y0008091D01*
X0148782Y0008148D01*
X0148795Y0008205D01*
X0148811Y0008261D01*
X0148831Y0008316D01*
X0148854Y0008369D01*
X0148880Y0008421D01*
X0148910Y0008471D01*
X0148943Y0008519D01*
X0148978Y0008565D01*
X0149017Y0008608D01*
X0149058Y0008649D01*
X0149101Y0008688D01*
X0149147Y0008723D01*
X0149195Y0008756D01*
X0149245Y0008786D01*
X0149297Y0008812D01*
X0149350Y0008835D01*
X0149405Y0008855D01*
X0149461Y0008871D01*
X0149518Y0008884D01*
X0149575Y0008893D01*
X0149633Y0008898D01*
X0149691Y0008900D01*
D17*
X0195932Y0001050D02*
X0014830Y0001050D01*
X0014495Y0001056D01*
X0014161Y0001070D01*
X0013827Y0001092D01*
X0013493Y0001123D01*
X0013160Y0001161D01*
X0012829Y0001207D01*
X0012498Y0001261D01*
X0012169Y0001324D01*
X0011842Y0001394D01*
X0011516Y0001472D01*
X0011192Y0001558D01*
X0010871Y0001651D01*
X0010552Y0001753D01*
X0010235Y0001862D01*
X0009921Y0001979D01*
X0009610Y0002103D01*
X0009303Y0002235D01*
X0008998Y0002374D01*
X0008697Y0002520D01*
X0008399Y0002674D01*
X0008106Y0002835D01*
X0007816Y0003003D01*
X0007530Y0003178D01*
X0007249Y0003360D01*
X0006972Y0003548D01*
X0006700Y0003743D01*
X0006433Y0003945D01*
X0006170Y0004153D01*
X0005913Y0004367D01*
X0005661Y0004588D01*
X0005414Y0004814D01*
X0005173Y0005046D01*
X0004937Y0005285D01*
X0004708Y0005528D01*
X0004484Y0005778D01*
X0004267Y0006032D01*
X0004055Y0006292D01*
X0003850Y0006557D01*
X0003652Y0006826D01*
X0003460Y0007101D01*
X0003274Y0007380D01*
X0003096Y0007663D01*
X0002924Y0007951D01*
X0002759Y0008242D01*
X0002602Y0008538D01*
X0002452Y0008837D01*
X0002309Y0009140D01*
X0002173Y0009446D01*
X0002045Y0009755D01*
X0001924Y0010068D01*
X0001811Y0010383D01*
X0001705Y0010701D01*
X0001607Y0011021D01*
X0001517Y0011343D01*
X0001435Y0011668D01*
X0001361Y0011995D01*
X0001294Y0012323D01*
X0001236Y0012653D01*
X0001185Y0012984D01*
X0001143Y0013316D01*
X0001108Y0013649D01*
X0001082Y0013983D01*
X0001064Y0014317D01*
X0001053Y0014652D01*
X0001051Y0014987D01*
X0001050Y0107113D02*
X0001050Y0117349D01*
X0001054Y0117682D01*
X0001066Y0118015D01*
X0001086Y0118347D01*
X0001114Y0118679D01*
X0001150Y0119010D01*
X0001195Y0119340D01*
X0001247Y0119669D01*
X0001307Y0119997D01*
X0001375Y0120323D01*
X0001450Y0120647D01*
X0001534Y0120969D01*
X0001625Y0121289D01*
X0001724Y0121607D01*
X0001831Y0121923D01*
X0001945Y0122235D01*
X0002067Y0122545D01*
X0002197Y0122852D01*
X0002333Y0123156D01*
X0002477Y0123456D01*
X0002628Y0123753D01*
X0002787Y0124046D01*
X0002952Y0124335D01*
X0003124Y0124620D01*
X0003303Y0124901D01*
X0003489Y0125177D01*
X0003682Y0125449D01*
X0003881Y0125716D01*
X0004086Y0125978D01*
X0004298Y0126235D01*
X0004516Y0126487D01*
X0004739Y0126733D01*
X0004969Y0126974D01*
X0005205Y0127210D01*
X0005446Y0127440D01*
X0005692Y0127663D01*
X0005944Y0127881D01*
X0006201Y0128093D01*
X0006463Y0128298D01*
X0006730Y0128497D01*
X0007002Y0128690D01*
X0007278Y0128876D01*
X0007559Y0129055D01*
X0007844Y0129227D01*
X0008133Y0129392D01*
X0008426Y0129551D01*
X0008723Y0129702D01*
X0009023Y0129846D01*
X0009327Y0129982D01*
X0009634Y0130112D01*
X0009944Y0130234D01*
X0010256Y0130348D01*
X0010572Y0130455D01*
X0010890Y0130554D01*
X0011210Y0130645D01*
X0011532Y0130729D01*
X0011856Y0130804D01*
X0012182Y0130872D01*
X0012510Y0130932D01*
X0012839Y0130984D01*
X0013169Y0131029D01*
X0013500Y0131065D01*
X0013832Y0131093D01*
X0014164Y0131113D01*
X0014497Y0131125D01*
X0014830Y0131129D01*
X0195932Y0131129D01*
X0196265Y0131125D01*
X0196598Y0131113D01*
X0196930Y0131093D01*
X0197262Y0131065D01*
X0197593Y0131029D01*
X0197923Y0130984D01*
X0198252Y0130932D01*
X0198580Y0130872D01*
X0198906Y0130804D01*
X0199230Y0130729D01*
X0199552Y0130645D01*
X0199872Y0130554D01*
X0200190Y0130455D01*
X0200506Y0130348D01*
X0200818Y0130234D01*
X0201128Y0130112D01*
X0201435Y0129982D01*
X0201739Y0129846D01*
X0202039Y0129702D01*
X0202336Y0129551D01*
X0202629Y0129392D01*
X0202918Y0129227D01*
X0203203Y0129055D01*
X0203484Y0128876D01*
X0203760Y0128690D01*
X0204032Y0128497D01*
X0204299Y0128298D01*
X0204561Y0128093D01*
X0204818Y0127881D01*
X0205070Y0127663D01*
X0205316Y0127440D01*
X0205557Y0127210D01*
X0205793Y0126974D01*
X0206023Y0126733D01*
X0206246Y0126487D01*
X0206464Y0126235D01*
X0206676Y0125978D01*
X0206881Y0125716D01*
X0207080Y0125449D01*
X0207273Y0125177D01*
X0207459Y0124901D01*
X0207638Y0124620D01*
X0207810Y0124335D01*
X0207975Y0124046D01*
X0208134Y0123753D01*
X0208285Y0123456D01*
X0208429Y0123156D01*
X0208565Y0122852D01*
X0208695Y0122545D01*
X0208817Y0122235D01*
X0208931Y0121923D01*
X0209038Y0121607D01*
X0209137Y0121289D01*
X0209228Y0120969D01*
X0209312Y0120647D01*
X0209387Y0120323D01*
X0209455Y0119997D01*
X0209515Y0119669D01*
X0209567Y0119340D01*
X0209612Y0119010D01*
X0209648Y0118679D01*
X0209676Y0118347D01*
X0209696Y0118015D01*
X0209708Y0117682D01*
X0209712Y0117349D01*
X0209712Y0014987D01*
X0209711Y0014987D02*
X0209709Y0014652D01*
X0209698Y0014317D01*
X0209680Y0013983D01*
X0209654Y0013649D01*
X0209619Y0013316D01*
X0209577Y0012984D01*
X0209526Y0012653D01*
X0209468Y0012323D01*
X0209401Y0011995D01*
X0209327Y0011668D01*
X0209245Y0011343D01*
X0209155Y0011021D01*
X0209057Y0010701D01*
X0208951Y0010383D01*
X0208838Y0010068D01*
X0208717Y0009755D01*
X0208589Y0009446D01*
X0208453Y0009140D01*
X0208310Y0008837D01*
X0208160Y0008538D01*
X0208003Y0008242D01*
X0207838Y0007951D01*
X0207666Y0007663D01*
X0207488Y0007380D01*
X0207302Y0007101D01*
X0207110Y0006826D01*
X0206912Y0006557D01*
X0206707Y0006292D01*
X0206495Y0006032D01*
X0206278Y0005778D01*
X0206054Y0005528D01*
X0205825Y0005285D01*
X0205589Y0005046D01*
X0205348Y0004814D01*
X0205101Y0004588D01*
X0204849Y0004367D01*
X0204592Y0004153D01*
X0204329Y0003945D01*
X0204062Y0003743D01*
X0203790Y0003548D01*
X0203513Y0003360D01*
X0203232Y0003178D01*
X0202946Y0003003D01*
X0202656Y0002835D01*
X0202363Y0002674D01*
X0202065Y0002520D01*
X0201764Y0002374D01*
X0201459Y0002235D01*
X0201152Y0002103D01*
X0200841Y0001979D01*
X0200527Y0001862D01*
X0200210Y0001753D01*
X0199891Y0001651D01*
X0199570Y0001558D01*
X0199246Y0001472D01*
X0198920Y0001394D01*
X0198593Y0001324D01*
X0198264Y0001261D01*
X0197933Y0001207D01*
X0197602Y0001161D01*
X0197269Y0001123D01*
X0196935Y0001092D01*
X0196601Y0001070D01*
X0196267Y0001056D01*
X0195932Y0001050D01*
D18*
X0095951Y0063766D03*
X0095951Y0068366D03*
X0066492Y0050834D03*
X0059492Y0050834D03*
X0059492Y0046234D03*
X0066492Y0046234D03*
D19*
X0143641Y0056101D02*
X0152302Y0056101D01*
X0152302Y0074999D01*
X0143641Y0074999D01*
X0143641Y0056101D01*
X0147971Y0060826D02*
X0145216Y0065747D01*
X0150727Y0065747D01*
X0147971Y0060826D01*
D20*
X0147873Y0055215D03*
X0147873Y0075885D03*
D21*
X0147971Y0060629D03*
D22*
X0112036Y0088550D03*
X0112036Y0093550D03*
X0089907Y0093550D03*
X0089907Y0088550D03*
D23*
X0088357Y0084550D02*
X0091586Y0084550D01*
X0091586Y0079550D02*
X0088357Y0079550D01*
X0044672Y0065952D02*
X0041271Y0065952D01*
X0041271Y0063148D02*
X0044672Y0063148D01*
D24*
X0087092Y0082056D03*
X0092892Y0082056D03*
D25*
X0045471Y0064550D03*
X0040471Y0064550D03*
D26*
G36*
X0050759Y0069776D02*
X0047698Y0072837D01*
X0049299Y0074438D01*
X0052360Y0071377D01*
X0050759Y0069776D01*
G37*
G36*
X0070245Y0072837D02*
X0067184Y0069776D01*
X0065583Y0071377D01*
X0068644Y0074438D01*
X0070245Y0072837D01*
G37*
G36*
X0067184Y0092324D02*
X0070245Y0089263D01*
X0068644Y0087662D01*
X0065583Y0090723D01*
X0067184Y0092324D01*
G37*
G36*
X0047698Y0089263D02*
X0050759Y0092324D01*
X0052360Y0090723D01*
X0049299Y0087662D01*
X0047698Y0089263D01*
G37*
M02*
