G75*
%MOIN*%
%OFA0B0*%
%FSLAX25Y25*%
%IPPOS*%
%LPD*%
%AMOC8*
5,1,8,0,0,1.08239X$1,22.5*
%
%ADD10R,0.03937X0.04331*%
%ADD11R,0.09843X0.13780*%
%ADD12R,0.08661X0.07087*%
%ADD13R,0.03937X0.01969*%
%ADD14R,0.05118X0.05906*%
%ADD15C,0.06000*%
%ADD16R,0.12795X0.09843*%
%ADD17R,0.07200X0.07200*%
%ADD18OC8,0.07200*%
%ADD19OC8,0.05200*%
%ADD20C,0.03175*%
%ADD21C,0.01000*%
%ADD22C,0.02400*%
%ADD23C,0.03372*%
%ADD24C,0.02000*%
%ADD25C,0.01200*%
%ADD26C,0.15748*%
%ADD27C,0.03200*%
%ADD28C,0.03937*%
%ADD29C,0.04528*%
%ADD30C,0.01600*%
%ADD31C,0.16598*%
D10*
X0059471Y0045204D03*
X0066471Y0045204D03*
X0066471Y0051896D03*
X0059471Y0051896D03*
X0046318Y0064550D03*
X0039625Y0064550D03*
X0095971Y0062704D03*
X0095971Y0069396D03*
D11*
X0120971Y0078845D03*
X0120971Y0053255D03*
D12*
X0147971Y0055511D03*
X0147971Y0075589D03*
D13*
X0113727Y0088550D03*
X0113727Y0093550D03*
X0088216Y0093550D03*
X0088216Y0088550D03*
D14*
X0086231Y0082050D03*
X0093712Y0082050D03*
D15*
X0023971Y0081050D02*
X0017971Y0081050D01*
X0017971Y0091050D02*
X0023971Y0091050D01*
X0023971Y0101050D02*
X0017971Y0101050D01*
X0017971Y0071050D02*
X0023971Y0071050D01*
X0023971Y0061050D02*
X0017971Y0061050D01*
X0017971Y0051050D02*
X0023971Y0051050D01*
X0023971Y0041050D02*
X0017971Y0041050D01*
X0017971Y0031050D02*
X0023971Y0031050D01*
X0069471Y0033550D02*
X0075471Y0033550D01*
X0075471Y0023550D02*
X0069471Y0023550D01*
D16*
X0058971Y0069239D03*
X0058971Y0092861D03*
D17*
X0060971Y0116050D03*
D18*
X0070971Y0116050D03*
X0080971Y0116050D03*
X0080971Y0106050D03*
X0070971Y0106050D03*
X0060971Y0106050D03*
D19*
X0119971Y0091050D03*
X0129971Y0091050D03*
X0124971Y0098550D03*
D20*
X0142471Y0084550D03*
X0151471Y0084050D03*
X0155971Y0073050D03*
X0175471Y0072050D03*
X0125971Y0041050D03*
X0120971Y0041050D03*
X0115971Y0041050D03*
X0113471Y0036050D03*
X0118471Y0036050D03*
X0123471Y0036050D03*
X0128971Y0036050D03*
X0131471Y0031050D03*
X0125971Y0031050D03*
X0120971Y0031550D03*
X0115471Y0031550D03*
X0110471Y0031550D03*
X0075971Y0046050D03*
X0077971Y0050550D03*
X0066471Y0056550D03*
X0059471Y0056550D03*
X0051471Y0056550D03*
X0045971Y0051050D03*
X0040971Y0046050D03*
X0010971Y0041050D03*
X0010971Y0061050D03*
X0010971Y0081050D03*
X0040971Y0083050D03*
X0059471Y0078050D03*
X0071471Y0076550D03*
X0077971Y0080550D03*
X0072971Y0087550D03*
X0079471Y0089050D03*
X0085971Y0096050D03*
X0091971Y0097550D03*
X0078971Y0099706D03*
X0065971Y0101050D03*
X0045471Y0096050D03*
X0010971Y0101050D03*
X0069971Y0068550D03*
X0091471Y0069396D03*
X0010971Y0021050D03*
D21*
X0036471Y0064550D02*
X0035971Y0065050D01*
X0035971Y0086550D01*
X0045471Y0096050D01*
X0049971Y0099050D02*
X0049971Y0092050D01*
X0040971Y0083050D01*
X0049971Y0099050D02*
X0056971Y0106050D01*
X0060971Y0106050D01*
X0064471Y0111050D02*
X0060971Y0114550D01*
X0060971Y0116050D01*
X0064471Y0111050D02*
X0073971Y0111050D01*
X0075971Y0109050D01*
X0075971Y0089050D01*
X0077971Y0085050D01*
X0077971Y0080550D01*
X0072971Y0087550D02*
X0072971Y0094550D01*
X0065971Y0101050D01*
X0078971Y0099706D02*
X0078971Y0089550D01*
X0079471Y0089050D01*
X0120472Y0085550D02*
X0120472Y0079345D01*
X0121471Y0079345D01*
X0121471Y0085550D01*
X0120472Y0085550D01*
X0120472Y0084940D02*
X0121471Y0084940D01*
X0121471Y0083941D02*
X0120472Y0083941D01*
X0120472Y0082943D02*
X0121471Y0082943D01*
X0121471Y0081944D02*
X0120472Y0081944D01*
X0120472Y0080946D02*
X0121471Y0080946D01*
X0121471Y0079947D02*
X0120472Y0079947D01*
X0121472Y0079345D02*
X0127393Y0079345D01*
X0127393Y0085550D01*
X0129971Y0085550D01*
X0130243Y0085463D01*
X0130489Y0085318D01*
X0130696Y0085121D01*
X0130855Y0084884D01*
X0130956Y0084617D01*
X0130996Y0084334D01*
X0130971Y0084050D01*
X0130971Y0074550D01*
X0130937Y0074291D01*
X0130838Y0074050D01*
X0130679Y0073843D01*
X0130471Y0073684D01*
X0130230Y0073584D01*
X0129971Y0073550D01*
X0127393Y0073550D01*
X0127393Y0078345D01*
X0121472Y0078345D01*
X0121472Y0079345D01*
X0121472Y0078949D02*
X0130971Y0078949D01*
X0130971Y0079947D02*
X0127393Y0079947D01*
X0127393Y0080946D02*
X0130971Y0080946D01*
X0130971Y0081944D02*
X0127393Y0081944D01*
X0127393Y0082943D02*
X0130971Y0082943D01*
X0130971Y0083941D02*
X0127393Y0083941D01*
X0127393Y0084940D02*
X0130817Y0084940D01*
X0130971Y0077950D02*
X0127393Y0077950D01*
X0127393Y0076952D02*
X0130971Y0076952D01*
X0130971Y0075953D02*
X0127393Y0075953D01*
X0127393Y0074955D02*
X0130971Y0074955D01*
X0130766Y0073956D02*
X0127393Y0073956D01*
D22*
X0084471Y0044050D02*
X0077971Y0050550D01*
X0084471Y0044050D02*
X0084471Y0028550D01*
X0081471Y0025550D01*
X0079471Y0023550D01*
X0072471Y0023550D01*
X0081034Y0025113D02*
X0081471Y0025550D01*
X0054283Y0064550D02*
X0046318Y0064550D01*
X0039625Y0064550D02*
X0036471Y0064550D01*
X0035971Y0064550D01*
X0054283Y0064550D02*
X0054417Y0064552D01*
X0054551Y0064558D01*
X0054684Y0064567D01*
X0054818Y0064581D01*
X0054950Y0064598D01*
X0055083Y0064619D01*
X0055214Y0064643D01*
X0055345Y0064672D01*
X0055475Y0064704D01*
X0055604Y0064740D01*
X0055732Y0064779D01*
X0055859Y0064823D01*
X0055984Y0064869D01*
X0056108Y0064920D01*
X0056231Y0064974D01*
X0056352Y0065031D01*
X0056471Y0065092D01*
X0056589Y0065156D01*
X0056704Y0065224D01*
X0056818Y0065294D01*
X0056930Y0065368D01*
X0057039Y0065446D01*
X0057146Y0065526D01*
X0057251Y0065609D01*
X0057354Y0065695D01*
X0057454Y0065784D01*
X0057551Y0065876D01*
X0057646Y0065971D01*
X0057738Y0066068D01*
X0057827Y0066168D01*
X0057913Y0066271D01*
X0057996Y0066376D01*
X0058076Y0066483D01*
X0058154Y0066592D01*
X0058228Y0066704D01*
X0058298Y0066818D01*
X0058366Y0066933D01*
X0058430Y0067051D01*
X0058491Y0067170D01*
X0058548Y0067291D01*
X0058602Y0067414D01*
X0058653Y0067538D01*
X0058699Y0067663D01*
X0058743Y0067790D01*
X0058782Y0067918D01*
X0058818Y0068047D01*
X0058850Y0068177D01*
X0058879Y0068308D01*
X0058903Y0068439D01*
X0058924Y0068572D01*
X0058941Y0068704D01*
X0058955Y0068838D01*
X0058964Y0068971D01*
X0058970Y0069105D01*
X0058972Y0069239D01*
X0058971Y0069239D02*
X0054783Y0069239D01*
X0040971Y0083050D01*
D23*
X0066471Y0093050D03*
X0086971Y0075050D03*
X0036471Y0064550D03*
X0059471Y0040550D03*
X0066471Y0040550D03*
D24*
X0066471Y0045204D01*
X0059471Y0045204D02*
X0059471Y0040550D01*
X0086231Y0075050D02*
X0086231Y0082050D01*
X0088216Y0088550D02*
X0090971Y0088550D01*
X0093971Y0085550D01*
X0093971Y0082310D01*
X0093712Y0082050D01*
X0086971Y0075050D02*
X0086231Y0075050D01*
X0113727Y0088550D02*
X0117471Y0088550D01*
X0119971Y0091050D01*
X0113727Y0093550D02*
X0108971Y0093550D01*
X0066471Y0093050D02*
X0059160Y0093050D01*
X0058971Y0092861D01*
X0161471Y0093550D02*
X0161588Y0093548D01*
X0161705Y0093542D01*
X0161821Y0093532D01*
X0161938Y0093519D01*
X0162053Y0093501D01*
X0162168Y0093480D01*
X0162282Y0093455D01*
X0162396Y0093426D01*
X0162508Y0093393D01*
X0162619Y0093356D01*
X0162729Y0093316D01*
X0162837Y0093272D01*
X0162944Y0093225D01*
X0163050Y0093174D01*
X0163153Y0093119D01*
X0163255Y0093061D01*
X0163354Y0093000D01*
X0163452Y0092936D01*
X0163547Y0092868D01*
X0163640Y0092797D01*
X0163731Y0092723D01*
X0163819Y0092646D01*
X0163904Y0092566D01*
X0163987Y0092483D01*
X0164067Y0092398D01*
X0164144Y0092310D01*
X0164218Y0092219D01*
X0164289Y0092126D01*
X0164357Y0092031D01*
X0164421Y0091933D01*
X0164482Y0091834D01*
X0164540Y0091732D01*
X0164595Y0091629D01*
X0164646Y0091523D01*
X0164693Y0091416D01*
X0164737Y0091308D01*
X0164777Y0091198D01*
X0164814Y0091087D01*
X0164847Y0090975D01*
X0164876Y0090861D01*
X0164901Y0090747D01*
X0164922Y0090632D01*
X0164940Y0090517D01*
X0164953Y0090400D01*
X0164963Y0090284D01*
X0164969Y0090167D01*
X0164971Y0090050D01*
X0164971Y0089550D01*
D25*
X0010565Y0007637D02*
X0009423Y0008493D01*
X0008414Y0009501D01*
X0007559Y0010644D01*
X0006875Y0011896D01*
X0006377Y0013233D01*
X0006073Y0014627D01*
X0005971Y0016050D01*
X0005971Y0116050D01*
X0006073Y0117473D01*
X0006377Y0118867D01*
X0006875Y0120204D01*
X0007559Y0121456D01*
X0008414Y0122599D01*
X0009423Y0123607D01*
X0010565Y0124463D01*
X0011817Y0125146D01*
X0013154Y0125645D01*
X0014548Y0125948D01*
X0015971Y0126050D01*
X0080971Y0126050D01*
X0082395Y0125948D01*
X0083789Y0125645D01*
X0085126Y0125146D01*
X0086378Y0124463D01*
X0087520Y0123607D01*
X0088529Y0122599D01*
X0089384Y0121456D01*
X0090068Y0120204D01*
X0090566Y0118867D01*
X0090870Y0117473D01*
X0090971Y0116050D01*
X0090971Y0111050D01*
X0091047Y0110182D01*
X0091273Y0109340D01*
X0091641Y0108550D01*
X0092141Y0107836D01*
X0092758Y0107220D01*
X0093471Y0106720D01*
X0094261Y0106352D01*
X0095103Y0106126D01*
X0096840Y0105974D01*
X0097682Y0105748D01*
X0098471Y0105380D01*
X0099185Y0104880D01*
X0099802Y0104264D01*
X0100302Y0103550D01*
X0100670Y0102760D01*
X0100896Y0101918D01*
X0100971Y0101050D01*
X0100971Y0076050D01*
X0101047Y0075182D01*
X0101273Y0074340D01*
X0101641Y0073550D01*
X0102141Y0072836D01*
X0102758Y0072220D01*
X0103471Y0071720D01*
X0104261Y0071352D01*
X0105103Y0071126D01*
X0105971Y0071050D01*
X0114693Y0071050D01*
X0115387Y0070356D01*
X0126555Y0070356D01*
X0127250Y0071050D01*
X0130971Y0071050D01*
X0131840Y0070974D01*
X0132682Y0070748D01*
X0133471Y0070380D01*
X0134185Y0069880D01*
X0134802Y0069264D01*
X0135302Y0068550D01*
X0135670Y0067760D01*
X0135896Y0066918D01*
X0135971Y0066050D01*
X0135971Y0011050D01*
X0044577Y0011050D01*
X0044059Y0010532D02*
X0046844Y0013317D01*
X0048351Y0016955D01*
X0048351Y0020893D01*
X0046844Y0024531D01*
X0044059Y0027316D01*
X0040421Y0028823D01*
X0036483Y0028823D01*
X0032844Y0027316D01*
X0030060Y0024531D01*
X0028553Y0020893D01*
X0028553Y0016955D01*
X0030060Y0013317D01*
X0032844Y0010532D01*
X0036483Y0009025D01*
X0040421Y0009025D01*
X0044059Y0010532D01*
X0042417Y0009851D02*
X0135807Y0009851D01*
X0135896Y0010182D02*
X0135670Y0009340D01*
X0135302Y0008550D01*
X0134802Y0007836D01*
X0134185Y0007220D01*
X0133471Y0006720D01*
X0132682Y0006352D01*
X0131840Y0006126D01*
X0130971Y0006050D01*
X0015971Y0006050D01*
X0014548Y0006152D01*
X0013154Y0006455D01*
X0011817Y0006954D01*
X0010565Y0007637D01*
X0010900Y0007454D02*
X0134420Y0007454D01*
X0135350Y0008653D02*
X0009262Y0008653D01*
X0008152Y0009851D02*
X0034487Y0009851D01*
X0032326Y0011050D02*
X0007337Y0011050D01*
X0006744Y0012249D02*
X0031128Y0012249D01*
X0030006Y0013447D02*
X0006330Y0013447D01*
X0006072Y0014646D02*
X0029509Y0014646D01*
X0029013Y0015844D02*
X0005986Y0015844D01*
X0005971Y0017043D02*
X0028553Y0017043D01*
X0028553Y0018241D02*
X0005971Y0018241D01*
X0005971Y0019440D02*
X0028553Y0019440D01*
X0028553Y0020638D02*
X0005971Y0020638D01*
X0005971Y0021837D02*
X0028943Y0021837D01*
X0029440Y0023035D02*
X0005971Y0023035D01*
X0005971Y0024234D02*
X0029936Y0024234D01*
X0030960Y0025432D02*
X0005971Y0025432D01*
X0005971Y0026631D02*
X0016687Y0026631D01*
X0016894Y0026563D02*
X0016206Y0026787D01*
X0015561Y0027116D01*
X0014975Y0027541D01*
X0014463Y0028053D01*
X0014037Y0028639D01*
X0013709Y0029284D01*
X0013485Y0029973D01*
X0013377Y0030650D01*
X0020571Y0030650D01*
X0020571Y0031450D01*
X0013377Y0031450D01*
X0013485Y0032127D01*
X0013709Y0032816D01*
X0014037Y0033461D01*
X0014463Y0034047D01*
X0014975Y0034559D01*
X0015561Y0034984D01*
X0016206Y0035313D01*
X0016894Y0035537D01*
X0017609Y0035650D01*
X0020571Y0035650D01*
X0020571Y0031450D01*
X0021371Y0031450D01*
X0021371Y0035650D01*
X0024334Y0035650D01*
X0025049Y0035537D01*
X0025737Y0035313D01*
X0026382Y0034984D01*
X0026968Y0034559D01*
X0027480Y0034047D01*
X0027906Y0033461D01*
X0028234Y0032816D01*
X0028458Y0032127D01*
X0028565Y0031450D01*
X0021372Y0031450D01*
X0021372Y0030650D01*
X0028565Y0030650D01*
X0028458Y0029973D01*
X0028234Y0029284D01*
X0027906Y0028639D01*
X0027480Y0028053D01*
X0026968Y0027541D01*
X0026382Y0027116D01*
X0025737Y0026787D01*
X0025049Y0026563D01*
X0024334Y0026450D01*
X0021371Y0026450D01*
X0021371Y0030650D01*
X0020571Y0030650D01*
X0020571Y0026450D01*
X0017609Y0026450D01*
X0016894Y0026563D01*
X0020571Y0026631D02*
X0021371Y0026631D01*
X0021371Y0027829D02*
X0020571Y0027829D01*
X0020571Y0029028D02*
X0021371Y0029028D01*
X0021371Y0030226D02*
X0020571Y0030226D01*
X0020571Y0031425D02*
X0005971Y0031425D01*
X0005971Y0032623D02*
X0013646Y0032623D01*
X0014299Y0033822D02*
X0005971Y0033822D01*
X0005971Y0035020D02*
X0015631Y0035020D01*
X0017056Y0036450D02*
X0015366Y0037150D01*
X0014072Y0038444D01*
X0013371Y0040135D01*
X0013371Y0041965D01*
X0014072Y0043656D01*
X0015366Y0044950D01*
X0017056Y0045650D01*
X0024886Y0045650D01*
X0026577Y0044950D01*
X0027871Y0043656D01*
X0028571Y0041965D01*
X0028571Y0040135D01*
X0027871Y0038444D01*
X0026577Y0037150D01*
X0024886Y0036450D01*
X0017056Y0036450D01*
X0015099Y0037417D02*
X0005971Y0037417D01*
X0005971Y0036219D02*
X0065725Y0036219D01*
X0065537Y0035961D02*
X0065209Y0035316D01*
X0064985Y0034627D01*
X0064877Y0033950D01*
X0072071Y0033950D01*
X0072071Y0033150D01*
X0064877Y0033150D01*
X0064985Y0032473D01*
X0065209Y0031784D01*
X0065537Y0031139D01*
X0065963Y0030553D01*
X0066475Y0030041D01*
X0067061Y0029616D01*
X0067706Y0029287D01*
X0068394Y0029063D01*
X0069109Y0028950D01*
X0072071Y0028950D01*
X0072071Y0033150D01*
X0072871Y0033150D01*
X0072871Y0028950D01*
X0075834Y0028950D01*
X0076549Y0029063D01*
X0077237Y0029287D01*
X0077882Y0029616D01*
X0078468Y0030041D01*
X0078980Y0030553D01*
X0079406Y0031139D01*
X0079734Y0031784D01*
X0079958Y0032473D01*
X0080065Y0033150D01*
X0072872Y0033150D01*
X0072872Y0033950D01*
X0080065Y0033950D01*
X0079958Y0034627D01*
X0079734Y0035316D01*
X0079406Y0035961D01*
X0078980Y0036547D01*
X0078468Y0037059D01*
X0077882Y0037484D01*
X0077237Y0037813D01*
X0076549Y0038037D01*
X0075834Y0038150D01*
X0072871Y0038150D01*
X0072871Y0033950D01*
X0072071Y0033950D01*
X0072071Y0038150D01*
X0069109Y0038150D01*
X0068645Y0038076D01*
X0069257Y0038689D01*
X0069757Y0039896D01*
X0069757Y0041204D01*
X0069497Y0041832D01*
X0070040Y0042375D01*
X0070040Y0048032D01*
X0069522Y0048550D01*
X0069720Y0048749D01*
X0069931Y0049114D01*
X0070040Y0049520D01*
X0070040Y0051512D01*
X0066856Y0051512D01*
X0066856Y0052281D01*
X0066087Y0052281D01*
X0066087Y0055662D01*
X0064292Y0055662D01*
X0063885Y0055553D01*
X0063521Y0055342D01*
X0063223Y0055044D01*
X0063012Y0054679D01*
X0062971Y0054528D01*
X0062931Y0054679D01*
X0062720Y0055044D01*
X0062422Y0055342D01*
X0062058Y0055553D01*
X0061651Y0055662D01*
X0059856Y0055662D01*
X0059856Y0052281D01*
X0059087Y0052281D01*
X0059087Y0055662D01*
X0057292Y0055662D01*
X0056885Y0055553D01*
X0056521Y0055342D01*
X0056223Y0055044D01*
X0056012Y0054679D01*
X0055903Y0054272D01*
X0055903Y0052281D01*
X0059087Y0052281D01*
X0059087Y0051512D01*
X0055903Y0051512D01*
X0055903Y0049520D01*
X0056012Y0049114D01*
X0056223Y0048749D01*
X0056421Y0048550D01*
X0055903Y0048032D01*
X0055903Y0042375D01*
X0056446Y0041832D01*
X0056186Y0041204D01*
X0056186Y0039896D01*
X0056686Y0038689D01*
X0057610Y0037764D01*
X0058818Y0037264D01*
X0060125Y0037264D01*
X0061333Y0037764D01*
X0062257Y0038689D01*
X0062757Y0039896D01*
X0062757Y0041204D01*
X0062497Y0041832D01*
X0062971Y0042307D01*
X0063446Y0041832D01*
X0063186Y0041204D01*
X0063186Y0039896D01*
X0063686Y0038689D01*
X0064610Y0037764D01*
X0065818Y0037264D01*
X0066758Y0037264D01*
X0066475Y0037059D01*
X0065963Y0036547D01*
X0065537Y0035961D01*
X0065112Y0035020D02*
X0026312Y0035020D01*
X0027644Y0033822D02*
X0072071Y0033822D01*
X0072872Y0033822D02*
X0081671Y0033822D01*
X0081671Y0035020D02*
X0079831Y0035020D01*
X0079218Y0036219D02*
X0081671Y0036219D01*
X0081671Y0037417D02*
X0077975Y0037417D01*
X0081671Y0038616D02*
X0069184Y0038616D01*
X0069723Y0039814D02*
X0081671Y0039814D01*
X0081671Y0041013D02*
X0069757Y0041013D01*
X0069876Y0042211D02*
X0081671Y0042211D01*
X0081671Y0042890D02*
X0081671Y0029710D01*
X0079885Y0027924D01*
X0078744Y0026783D01*
X0078077Y0027450D01*
X0076386Y0028150D01*
X0068556Y0028150D01*
X0066866Y0027450D01*
X0065572Y0026156D01*
X0064871Y0024465D01*
X0064871Y0022635D01*
X0065572Y0020944D01*
X0066866Y0019650D01*
X0068556Y0018950D01*
X0076386Y0018950D01*
X0078077Y0019650D01*
X0079177Y0020750D01*
X0080028Y0020750D01*
X0081058Y0021176D01*
X0083845Y0023964D01*
X0086058Y0026176D01*
X0086845Y0026964D01*
X0087271Y0027993D01*
X0087271Y0044607D01*
X0086845Y0045636D01*
X0081061Y0051420D01*
X0080674Y0052356D01*
X0079777Y0053252D01*
X0078605Y0053737D01*
X0077337Y0053737D01*
X0076166Y0053252D01*
X0075269Y0052356D01*
X0074784Y0051184D01*
X0074784Y0049916D01*
X0075269Y0048744D01*
X0076166Y0047848D01*
X0077101Y0047460D01*
X0081671Y0042890D01*
X0081152Y0043410D02*
X0070040Y0043410D01*
X0070040Y0044608D02*
X0079953Y0044608D01*
X0078755Y0045807D02*
X0070040Y0045807D01*
X0070040Y0047005D02*
X0077556Y0047005D01*
X0075810Y0048204D02*
X0069868Y0048204D01*
X0070008Y0049402D02*
X0074997Y0049402D01*
X0074784Y0050601D02*
X0070040Y0050601D01*
X0070040Y0052281D02*
X0070040Y0054272D01*
X0069931Y0054679D01*
X0069720Y0055044D01*
X0069422Y0055342D01*
X0069058Y0055553D01*
X0068651Y0055662D01*
X0066856Y0055662D01*
X0066856Y0052281D01*
X0070040Y0052281D01*
X0070040Y0052998D02*
X0075912Y0052998D01*
X0075039Y0051799D02*
X0066856Y0051799D01*
X0066087Y0051799D02*
X0059856Y0051799D01*
X0059856Y0051512D02*
X0059856Y0052281D01*
X0063040Y0052281D01*
X0066087Y0052281D01*
X0066087Y0051512D01*
X0059856Y0051512D01*
X0059087Y0051799D02*
X0028571Y0051799D01*
X0028571Y0051965D02*
X0027871Y0053656D01*
X0026577Y0054950D01*
X0024886Y0055650D01*
X0017056Y0055650D01*
X0015366Y0054950D01*
X0014072Y0053656D01*
X0013371Y0051965D01*
X0013371Y0050135D01*
X0014072Y0048444D01*
X0015366Y0047150D01*
X0017056Y0046450D01*
X0024886Y0046450D01*
X0026577Y0047150D01*
X0027871Y0048444D01*
X0028571Y0050135D01*
X0028571Y0051965D01*
X0028144Y0052998D02*
X0055903Y0052998D01*
X0055903Y0054196D02*
X0027330Y0054196D01*
X0025502Y0055395D02*
X0056612Y0055395D01*
X0059087Y0055395D02*
X0059856Y0055395D01*
X0059856Y0054196D02*
X0059087Y0054196D01*
X0059087Y0052998D02*
X0059856Y0052998D01*
X0062331Y0055395D02*
X0063612Y0055395D01*
X0066087Y0055395D02*
X0066856Y0055395D01*
X0066856Y0054196D02*
X0066087Y0054196D01*
X0066087Y0052998D02*
X0066856Y0052998D01*
X0069331Y0055395D02*
X0114450Y0055395D01*
X0088471Y0055395D01*
X0088471Y0056593D02*
X0114450Y0056593D01*
X0025141Y0056593D01*
X0025049Y0056563D02*
X0025737Y0056787D01*
X0026382Y0057116D01*
X0026968Y0057541D01*
X0027480Y0058053D01*
X0027906Y0058639D01*
X0028234Y0059284D01*
X0028458Y0059973D01*
X0028565Y0060650D01*
X0021372Y0060650D01*
X0021372Y0061450D01*
X0028565Y0061450D01*
X0028458Y0062127D01*
X0028234Y0062816D01*
X0027906Y0063461D01*
X0027480Y0064047D01*
X0026968Y0064559D01*
X0026382Y0064984D01*
X0025737Y0065313D01*
X0025049Y0065537D01*
X0024334Y0065650D01*
X0021371Y0065650D01*
X0021371Y0061450D01*
X0020571Y0061450D01*
X0020571Y0060650D01*
X0013377Y0060650D01*
X0013485Y0059973D01*
X0013709Y0059284D01*
X0014037Y0058639D01*
X0014463Y0058053D01*
X0014975Y0057541D01*
X0015561Y0057116D01*
X0016206Y0056787D01*
X0016894Y0056563D01*
X0017609Y0056450D01*
X0020571Y0056450D01*
X0020571Y0060650D01*
X0021371Y0060650D01*
X0021371Y0056450D01*
X0024334Y0056450D01*
X0025049Y0056563D01*
X0027219Y0057792D02*
X0114450Y0057792D01*
X0088471Y0057792D01*
X0088471Y0058550D02*
X0088451Y0059340D01*
X0088585Y0060119D01*
X0088868Y0060857D01*
X0089290Y0061525D01*
X0089833Y0062098D01*
X0090479Y0062554D01*
X0091201Y0062876D01*
X0091971Y0063050D01*
X0095587Y0063050D01*
X0095587Y0062319D01*
X0096356Y0062319D01*
X0096356Y0063088D01*
X0099540Y0063088D01*
X0099540Y0065080D01*
X0099431Y0065486D01*
X0099220Y0065851D01*
X0099022Y0066050D01*
X0099540Y0066568D01*
X0099540Y0072225D01*
X0098603Y0073162D01*
X0093340Y0073162D01*
X0092775Y0072596D01*
X0089181Y0072596D01*
X0089153Y0072585D01*
X0089757Y0073189D01*
X0090257Y0074396D01*
X0090257Y0075704D01*
X0089757Y0076911D01*
X0089171Y0077497D01*
X0089453Y0077497D01*
X0089971Y0078016D01*
X0090490Y0077497D01*
X0096933Y0077497D01*
X0097871Y0078434D01*
X0097871Y0085665D01*
X0096933Y0086603D01*
X0096350Y0086603D01*
X0096176Y0087023D01*
X0095444Y0087754D01*
X0092444Y0090754D01*
X0091489Y0091150D01*
X0090932Y0091150D01*
X0091167Y0091285D01*
X0091464Y0091583D01*
X0091675Y0091948D01*
X0091784Y0092355D01*
X0091784Y0093550D01*
X0091784Y0094745D01*
X0091675Y0095152D01*
X0091464Y0095517D01*
X0091167Y0095815D01*
X0090802Y0096025D01*
X0090395Y0096134D01*
X0088216Y0096134D01*
X0088216Y0093550D01*
X0091784Y0093550D01*
X0088216Y0093550D01*
X0088216Y0093550D01*
X0088216Y0093550D01*
X0088216Y0096134D01*
X0086036Y0096134D01*
X0085630Y0096025D01*
X0085265Y0095815D01*
X0084967Y0095517D01*
X0084756Y0095152D01*
X0084647Y0094745D01*
X0084647Y0093550D01*
X0088215Y0093550D01*
X0084647Y0093550D01*
X0084647Y0092355D01*
X0084756Y0091948D01*
X0084967Y0091583D01*
X0085265Y0091285D01*
X0085563Y0091113D01*
X0084647Y0090197D01*
X0084647Y0086903D01*
X0084947Y0086603D01*
X0083010Y0086603D01*
X0082072Y0085665D01*
X0082072Y0078434D01*
X0083010Y0077497D01*
X0083631Y0077497D01*
X0083631Y0074533D01*
X0083686Y0074402D01*
X0083686Y0074396D01*
X0084186Y0073189D01*
X0085110Y0072264D01*
X0086318Y0071764D01*
X0087625Y0071764D01*
X0087685Y0071789D01*
X0087296Y0071400D01*
X0081288Y0066250D01*
X0066969Y0066250D01*
X0066969Y0074823D01*
X0066032Y0075760D01*
X0052221Y0075760D01*
X0044436Y0083545D01*
X0050841Y0089950D01*
X0050974Y0090083D01*
X0050974Y0087277D01*
X0051911Y0086340D01*
X0066032Y0086340D01*
X0066969Y0087277D01*
X0066969Y0089764D01*
X0067125Y0089764D01*
X0068333Y0090264D01*
X0069257Y0091189D01*
X0069757Y0092396D01*
X0069757Y0093704D01*
X0069257Y0094911D01*
X0068333Y0095836D01*
X0067125Y0096336D01*
X0066969Y0096336D01*
X0066969Y0097258D01*
X0070871Y0093634D01*
X0070871Y0089958D01*
X0070269Y0089356D01*
X0069784Y0088184D01*
X0069784Y0086916D01*
X0070269Y0085744D01*
X0071166Y0084848D01*
X0072337Y0084363D01*
X0073605Y0084363D01*
X0074777Y0084848D01*
X0075409Y0085480D01*
X0075871Y0084554D01*
X0075871Y0082958D01*
X0075269Y0082356D01*
X0074784Y0081184D01*
X0074784Y0079916D01*
X0075269Y0078744D01*
X0076166Y0077848D01*
X0077337Y0077363D01*
X0078605Y0077363D01*
X0079777Y0077848D01*
X0080674Y0078744D01*
X0081159Y0079916D01*
X0081159Y0081184D01*
X0080674Y0082356D01*
X0080071Y0082958D01*
X0080071Y0084709D01*
X0080239Y0085211D01*
X0080071Y0085546D01*
X0080071Y0085863D01*
X0080105Y0085863D01*
X0081277Y0086348D01*
X0082174Y0087244D01*
X0082659Y0088416D01*
X0082659Y0089684D01*
X0082174Y0090856D01*
X0081277Y0091752D01*
X0081071Y0091837D01*
X0081071Y0097298D01*
X0081674Y0097900D01*
X0082159Y0099072D01*
X0082159Y0100340D01*
X0081948Y0100850D01*
X0083125Y0100850D01*
X0086171Y0103896D01*
X0086171Y0105469D01*
X0081553Y0105469D01*
X0081553Y0106631D01*
X0086171Y0106631D01*
X0086171Y0108204D01*
X0083325Y0111050D01*
X0086171Y0113896D01*
X0086171Y0118204D01*
X0083125Y0121250D01*
X0078818Y0121250D01*
X0075971Y0118404D01*
X0073125Y0121250D01*
X0068818Y0121250D01*
X0066171Y0118604D01*
X0066171Y0120313D01*
X0065234Y0121250D01*
X0056709Y0121250D01*
X0055771Y0120313D01*
X0055771Y0111787D01*
X0056709Y0110850D01*
X0058418Y0110850D01*
X0055771Y0108204D01*
X0055771Y0107820D01*
X0054871Y0106920D01*
X0049102Y0101150D01*
X0047871Y0099920D01*
X0047871Y0098158D01*
X0047277Y0098752D01*
X0046105Y0099237D01*
X0044837Y0099237D01*
X0043666Y0098752D01*
X0042769Y0097856D01*
X0042284Y0096684D01*
X0042284Y0095832D01*
X0033871Y0087420D01*
X0033871Y0066597D01*
X0033686Y0066411D01*
X0033186Y0065204D01*
X0033186Y0065141D01*
X0033171Y0065107D01*
X0033171Y0063993D01*
X0033186Y0063959D01*
X0033186Y0063896D01*
X0033686Y0062689D01*
X0034610Y0061764D01*
X0035818Y0061264D01*
X0036514Y0061264D01*
X0036994Y0060785D01*
X0042256Y0060785D01*
X0042971Y0061500D01*
X0043687Y0060785D01*
X0048949Y0060785D01*
X0049886Y0061722D01*
X0049886Y0061750D01*
X0055772Y0061750D01*
X0058108Y0062718D01*
X0060967Y0062718D01*
X0063348Y0060337D01*
X0064524Y0059850D01*
X0082349Y0059850D01*
X0082861Y0059811D01*
X0082981Y0059850D01*
X0083108Y0059850D01*
X0083583Y0060047D01*
X0084071Y0060206D01*
X0084167Y0060289D01*
X0084284Y0060337D01*
X0084647Y0060700D01*
X0091059Y0066196D01*
X0092775Y0066196D01*
X0092921Y0066050D01*
X0092723Y0065851D01*
X0092512Y0065486D01*
X0092403Y0065080D01*
X0092403Y0063088D01*
X0095587Y0063088D01*
X0095587Y0062319D01*
X0095587Y0058938D01*
X0093792Y0058938D01*
X0093385Y0059047D01*
X0093021Y0059258D01*
X0092723Y0059556D01*
X0092512Y0059921D01*
X0092403Y0060328D01*
X0092403Y0062319D01*
X0095587Y0062319D01*
X0096356Y0062319D01*
X0099540Y0062319D01*
X0099540Y0060328D01*
X0099431Y0059921D01*
X0099220Y0059556D01*
X0098922Y0059258D01*
X0098558Y0059047D01*
X0098151Y0058938D01*
X0096356Y0058938D01*
X0096356Y0062319D01*
X0096356Y0063050D01*
X0107471Y0063050D01*
X0107805Y0063088D01*
X0108122Y0063199D01*
X0108407Y0063377D01*
X0108644Y0063615D01*
X0108823Y0063899D01*
X0108934Y0064216D01*
X0109009Y0064884D01*
X0109120Y0065201D01*
X0109299Y0065485D01*
X0109536Y0065723D01*
X0109821Y0065901D01*
X0110138Y0066012D01*
X0110471Y0066050D01*
X0130971Y0066050D01*
X0131840Y0066126D01*
X0132682Y0066352D01*
X0133471Y0066720D01*
X0134185Y0067220D01*
X0134802Y0067836D01*
X0135302Y0068550D01*
X0135670Y0069340D01*
X0135896Y0070182D01*
X0135971Y0071050D01*
X0135971Y0077550D01*
X0136022Y0077995D01*
X0136170Y0078418D01*
X0136408Y0078797D01*
X0136725Y0079114D01*
X0137104Y0079352D01*
X0137526Y0079500D01*
X0137971Y0079550D01*
X0138478Y0079551D01*
X0138971Y0079664D01*
X0139427Y0079884D01*
X0139822Y0080199D01*
X0140138Y0080595D01*
X0140358Y0081051D01*
X0140471Y0081544D01*
X0140471Y0082050D01*
X0140471Y0086550D01*
X0140627Y0087126D01*
X0140891Y0087660D01*
X0141255Y0088132D01*
X0141704Y0088525D01*
X0142221Y0088822D01*
X0142785Y0089013D01*
X0143377Y0089090D01*
X0143971Y0089050D01*
X0149971Y0089050D01*
X0150626Y0089036D01*
X0151269Y0088909D01*
X0151880Y0088673D01*
X0152440Y0088333D01*
X0152933Y0087902D01*
X0153344Y0087392D01*
X0153660Y0086817D01*
X0153871Y0086197D01*
X0153971Y0085550D01*
X0153971Y0080550D01*
X0154533Y0079414D01*
X0155266Y0078379D01*
X0156151Y0077472D01*
X0157167Y0076715D01*
X0158290Y0076125D01*
X0159490Y0075719D01*
X0160740Y0075505D01*
X0162007Y0075490D01*
X0163261Y0075673D01*
X0164471Y0076050D01*
X0190971Y0076050D01*
X0191840Y0075974D01*
X0192682Y0075748D01*
X0193471Y0075380D01*
X0194185Y0074880D01*
X0194802Y0074264D01*
X0195302Y0073550D01*
X0195670Y0072760D01*
X0195896Y0071918D01*
X0195971Y0071050D01*
X0195971Y0061050D01*
X0195896Y0060182D01*
X0195670Y0059340D01*
X0195302Y0058550D01*
X0194802Y0057836D01*
X0194185Y0057220D01*
X0193471Y0056720D01*
X0192682Y0056352D01*
X0191840Y0056126D01*
X0190971Y0056050D01*
X0170971Y0056050D01*
X0170103Y0056126D01*
X0169261Y0056352D01*
X0168471Y0056720D01*
X0167758Y0057220D01*
X0167141Y0057836D01*
X0166641Y0058550D01*
X0166273Y0059340D01*
X0166047Y0060182D01*
X0165896Y0061918D01*
X0165670Y0062760D01*
X0165302Y0063550D01*
X0164802Y0064264D01*
X0164185Y0064880D01*
X0163471Y0065380D01*
X0162682Y0065748D01*
X0161840Y0065974D01*
X0160971Y0066050D01*
X0140971Y0066050D01*
X0140103Y0065974D01*
X0139261Y0065748D01*
X0138471Y0065380D01*
X0137758Y0064880D01*
X0137141Y0064264D01*
X0136641Y0063550D01*
X0136273Y0062760D01*
X0136047Y0061918D01*
X0135971Y0061050D01*
X0135971Y0046050D01*
X0135896Y0045182D01*
X0135670Y0044340D01*
X0135302Y0043550D01*
X0134802Y0042836D01*
X0134185Y0042220D01*
X0133471Y0041720D01*
X0132682Y0041352D01*
X0131840Y0041126D01*
X0130971Y0041050D01*
X0093971Y0041050D01*
X0093016Y0041134D01*
X0092090Y0041382D01*
X0091221Y0041787D01*
X0090436Y0042337D01*
X0089758Y0043015D01*
X0089208Y0043800D01*
X0088803Y0044669D01*
X0088555Y0045595D01*
X0088471Y0046550D01*
X0088471Y0058550D01*
X0088460Y0058990D02*
X0093597Y0058990D01*
X0028085Y0058990D01*
X0028492Y0060189D02*
X0063706Y0060189D01*
X0062298Y0061387D02*
X0049552Y0061387D01*
X0043084Y0061387D02*
X0042859Y0061387D01*
X0035520Y0061387D02*
X0021372Y0061387D01*
X0020571Y0061387D02*
X0005971Y0061387D01*
X0005971Y0060189D02*
X0013451Y0060189D01*
X0013377Y0061450D02*
X0020571Y0061450D01*
X0020571Y0065650D01*
X0017609Y0065650D01*
X0016894Y0065537D01*
X0016206Y0065313D01*
X0015561Y0064984D01*
X0014975Y0064559D01*
X0014463Y0064047D01*
X0014037Y0063461D01*
X0013709Y0062816D01*
X0013485Y0062127D01*
X0013377Y0061450D01*
X0013634Y0062586D02*
X0005971Y0062586D01*
X0005971Y0063784D02*
X0014272Y0063784D01*
X0015559Y0064983D02*
X0005971Y0064983D01*
X0005971Y0066182D02*
X0033591Y0066182D01*
X0033871Y0067380D02*
X0026807Y0067380D01*
X0026577Y0067150D02*
X0027871Y0068444D01*
X0028571Y0070135D01*
X0028571Y0071965D01*
X0027871Y0073656D01*
X0026577Y0074950D01*
X0024886Y0075650D01*
X0017056Y0075650D01*
X0015366Y0074950D01*
X0014072Y0073656D01*
X0013371Y0071965D01*
X0013371Y0070135D01*
X0014072Y0068444D01*
X0015366Y0067150D01*
X0017056Y0066450D01*
X0024886Y0066450D01*
X0026577Y0067150D01*
X0027927Y0068579D02*
X0033871Y0068579D01*
X0033871Y0069777D02*
X0028423Y0069777D01*
X0028571Y0070976D02*
X0033871Y0070976D01*
X0033871Y0072174D02*
X0028485Y0072174D01*
X0027988Y0073373D02*
X0033871Y0073373D01*
X0033871Y0074571D02*
X0026956Y0074571D01*
X0025737Y0076787D02*
X0025049Y0076563D01*
X0024334Y0076450D01*
X0021371Y0076450D01*
X0021371Y0080650D01*
X0020571Y0080650D01*
X0013377Y0080650D01*
X0013485Y0079973D01*
X0013709Y0079284D01*
X0014037Y0078639D01*
X0014463Y0078053D01*
X0014975Y0077541D01*
X0015561Y0077116D01*
X0016206Y0076787D01*
X0016894Y0076563D01*
X0017609Y0076450D01*
X0020571Y0076450D01*
X0020571Y0080650D01*
X0020571Y0081450D01*
X0013377Y0081450D01*
X0013485Y0082127D01*
X0013709Y0082816D01*
X0014037Y0083461D01*
X0014463Y0084047D01*
X0014975Y0084559D01*
X0015561Y0084984D01*
X0016206Y0085313D01*
X0016894Y0085537D01*
X0017609Y0085650D01*
X0020571Y0085650D01*
X0020571Y0081450D01*
X0021371Y0081450D01*
X0021371Y0085650D01*
X0024334Y0085650D01*
X0025049Y0085537D01*
X0025737Y0085313D01*
X0026382Y0084984D01*
X0026968Y0084559D01*
X0027480Y0084047D01*
X0027906Y0083461D01*
X0028234Y0082816D01*
X0028458Y0082127D01*
X0028565Y0081450D01*
X0021372Y0081450D01*
X0021372Y0080650D01*
X0028565Y0080650D01*
X0028458Y0079973D01*
X0028234Y0079284D01*
X0027906Y0078639D01*
X0027480Y0078053D01*
X0026968Y0077541D01*
X0026382Y0077116D01*
X0025737Y0076787D01*
X0026093Y0076968D02*
X0033871Y0076968D01*
X0033871Y0075770D02*
X0005971Y0075770D01*
X0005971Y0076968D02*
X0015850Y0076968D01*
X0014380Y0078167D02*
X0005971Y0078167D01*
X0005971Y0079365D02*
X0013682Y0079365D01*
X0013391Y0080564D02*
X0005971Y0080564D01*
X0005971Y0081762D02*
X0013427Y0081762D01*
X0013782Y0082961D02*
X0005971Y0082961D01*
X0005971Y0084159D02*
X0014575Y0084159D01*
X0016343Y0085358D02*
X0005971Y0085358D01*
X0005971Y0086556D02*
X0016800Y0086556D01*
X0017056Y0086450D02*
X0015366Y0087150D01*
X0014072Y0088444D01*
X0013371Y0090135D01*
X0013371Y0091965D01*
X0014072Y0093656D01*
X0015366Y0094950D01*
X0017056Y0095650D01*
X0024886Y0095650D01*
X0026577Y0094950D01*
X0027871Y0093656D01*
X0028571Y0091965D01*
X0028571Y0090135D01*
X0027871Y0088444D01*
X0026577Y0087150D01*
X0024886Y0086450D01*
X0017056Y0086450D01*
X0014761Y0087755D02*
X0005971Y0087755D01*
X0005971Y0088953D02*
X0013861Y0088953D01*
X0013371Y0090152D02*
X0005971Y0090152D01*
X0005971Y0091350D02*
X0013371Y0091350D01*
X0013613Y0092549D02*
X0005971Y0092549D01*
X0005971Y0093747D02*
X0014163Y0093747D01*
X0015362Y0094946D02*
X0005971Y0094946D01*
X0005971Y0096144D02*
X0042284Y0096144D01*
X0042557Y0097343D02*
X0026770Y0097343D01*
X0026577Y0097150D02*
X0027871Y0098444D01*
X0028571Y0100135D01*
X0028571Y0101965D01*
X0027871Y0103656D01*
X0026577Y0104950D01*
X0024886Y0105650D01*
X0017056Y0105650D01*
X0015366Y0104950D01*
X0014072Y0103656D01*
X0013371Y0101965D01*
X0013371Y0100135D01*
X0014072Y0098444D01*
X0015366Y0097150D01*
X0017056Y0096450D01*
X0024886Y0096450D01*
X0026577Y0097150D01*
X0027911Y0098541D02*
X0043455Y0098541D01*
X0047488Y0098541D02*
X0047871Y0098541D01*
X0047871Y0099740D02*
X0028408Y0099740D01*
X0028571Y0100938D02*
X0048890Y0100938D01*
X0050089Y0102137D02*
X0028500Y0102137D01*
X0028004Y0103335D02*
X0051287Y0103335D01*
X0052486Y0104534D02*
X0042886Y0104534D01*
X0044059Y0105020D02*
X0046844Y0107805D01*
X0048351Y0111443D01*
X0048351Y0115381D01*
X0046844Y0119020D01*
X0044059Y0121804D01*
X0040421Y0123311D01*
X0036483Y0123311D01*
X0032844Y0121804D01*
X0030060Y0119020D01*
X0028553Y0115381D01*
X0028553Y0111443D01*
X0030060Y0107805D01*
X0032844Y0105020D01*
X0036483Y0103513D01*
X0040421Y0103513D01*
X0044059Y0105020D01*
X0044772Y0105732D02*
X0053684Y0105732D01*
X0054883Y0106931D02*
X0045970Y0106931D01*
X0046978Y0108129D02*
X0055771Y0108129D01*
X0056896Y0109328D02*
X0047475Y0109328D01*
X0047971Y0110526D02*
X0058094Y0110526D01*
X0055834Y0111725D02*
X0048351Y0111725D01*
X0048351Y0112923D02*
X0055771Y0112923D01*
X0055771Y0114122D02*
X0048351Y0114122D01*
X0048351Y0115320D02*
X0055771Y0115320D01*
X0055771Y0116519D02*
X0047880Y0116519D01*
X0047383Y0117718D02*
X0055771Y0117718D01*
X0055771Y0118916D02*
X0046887Y0118916D01*
X0045749Y0120115D02*
X0055771Y0120115D01*
X0066171Y0120115D02*
X0067682Y0120115D01*
X0066484Y0118916D02*
X0066171Y0118916D01*
X0074261Y0120115D02*
X0077682Y0120115D01*
X0076484Y0118916D02*
X0075459Y0118916D01*
X0084261Y0120115D02*
X0090101Y0120115D01*
X0090548Y0118916D02*
X0085459Y0118916D01*
X0086171Y0117718D02*
X0090817Y0117718D01*
X0090938Y0116519D02*
X0086171Y0116519D01*
X0086171Y0115320D02*
X0090971Y0115320D01*
X0090971Y0114122D02*
X0086171Y0114122D01*
X0085199Y0112923D02*
X0090971Y0112923D01*
X0090971Y0111725D02*
X0084000Y0111725D01*
X0083849Y0110526D02*
X0091017Y0110526D01*
X0091279Y0109328D02*
X0085047Y0109328D01*
X0086171Y0108129D02*
X0091936Y0108129D01*
X0093170Y0106931D02*
X0086171Y0106931D01*
X0086171Y0104534D02*
X0099532Y0104534D01*
X0100402Y0103335D02*
X0085611Y0103335D01*
X0084412Y0102137D02*
X0100837Y0102137D01*
X0100971Y0100938D02*
X0083214Y0100938D01*
X0082159Y0099740D02*
X0100971Y0099740D01*
X0100971Y0098541D02*
X0081939Y0098541D01*
X0081116Y0097343D02*
X0100971Y0097343D01*
X0100971Y0096144D02*
X0081071Y0096144D01*
X0081071Y0094946D02*
X0084701Y0094946D01*
X0084647Y0093747D02*
X0081071Y0093747D01*
X0081071Y0092549D02*
X0084647Y0092549D01*
X0085200Y0091350D02*
X0081679Y0091350D01*
X0082465Y0090152D02*
X0084647Y0090152D01*
X0084647Y0088953D02*
X0082659Y0088953D01*
X0082385Y0087755D02*
X0084647Y0087755D01*
X0082963Y0086556D02*
X0081485Y0086556D01*
X0082072Y0085358D02*
X0080166Y0085358D01*
X0080071Y0084159D02*
X0082072Y0084159D01*
X0082072Y0082961D02*
X0080071Y0082961D01*
X0080919Y0081762D02*
X0082072Y0081762D01*
X0082072Y0080564D02*
X0081159Y0080564D01*
X0080931Y0079365D02*
X0082072Y0079365D01*
X0082340Y0078167D02*
X0080096Y0078167D01*
X0083631Y0076968D02*
X0051013Y0076968D01*
X0049815Y0078167D02*
X0075847Y0078167D01*
X0075012Y0079365D02*
X0048616Y0079365D01*
X0047418Y0080564D02*
X0074784Y0080564D01*
X0075024Y0081762D02*
X0046219Y0081762D01*
X0045021Y0082961D02*
X0075871Y0082961D01*
X0075871Y0084159D02*
X0045051Y0084159D01*
X0046249Y0085358D02*
X0070656Y0085358D01*
X0069933Y0086556D02*
X0066248Y0086556D01*
X0066969Y0087755D02*
X0069784Y0087755D01*
X0070103Y0088953D02*
X0066969Y0088953D01*
X0068061Y0090152D02*
X0070871Y0090152D01*
X0070871Y0091350D02*
X0069324Y0091350D01*
X0069757Y0092549D02*
X0070871Y0092549D01*
X0070750Y0093747D02*
X0069739Y0093747D01*
X0069459Y0094946D02*
X0069223Y0094946D01*
X0068168Y0096144D02*
X0067587Y0096144D01*
X0081553Y0105732D02*
X0097716Y0105732D01*
X0100971Y0094946D02*
X0091730Y0094946D01*
X0091784Y0093747D02*
X0100971Y0093747D01*
X0100971Y0092549D02*
X0091784Y0092549D01*
X0091231Y0091350D02*
X0100971Y0091350D01*
X0100971Y0090152D02*
X0093047Y0090152D01*
X0094245Y0088953D02*
X0100971Y0088953D01*
X0100971Y0087755D02*
X0095444Y0087755D01*
X0096980Y0086556D02*
X0100971Y0086556D01*
X0100971Y0085358D02*
X0097871Y0085358D01*
X0097871Y0084159D02*
X0100971Y0084159D01*
X0100971Y0082961D02*
X0097871Y0082961D01*
X0097871Y0081762D02*
X0100971Y0081762D01*
X0100971Y0080564D02*
X0097871Y0080564D01*
X0097871Y0079365D02*
X0100971Y0079365D01*
X0100971Y0078167D02*
X0097603Y0078167D01*
X0100971Y0076968D02*
X0089700Y0076968D01*
X0090230Y0075770D02*
X0100996Y0075770D01*
X0101211Y0074571D02*
X0090257Y0074571D01*
X0089833Y0073373D02*
X0101766Y0073373D01*
X0102823Y0072174D02*
X0099540Y0072174D01*
X0099540Y0070976D02*
X0114767Y0070976D01*
X0109044Y0064983D02*
X0137904Y0064983D01*
X0136806Y0063784D02*
X0108751Y0063784D01*
X0114559Y0060762D02*
X0114450Y0060355D01*
X0114450Y0053855D01*
X0120371Y0053855D01*
X0120371Y0052655D01*
X0114450Y0052655D01*
X0114450Y0046154D01*
X0114559Y0045747D01*
X0114770Y0045383D01*
X0115068Y0045085D01*
X0115433Y0044874D01*
X0115840Y0044765D01*
X0120372Y0044765D01*
X0120372Y0052655D01*
X0121571Y0052655D01*
X0121571Y0044765D01*
X0126103Y0044765D01*
X0126510Y0044874D01*
X0126875Y0045085D01*
X0127173Y0045383D01*
X0127384Y0045747D01*
X0127493Y0046154D01*
X0127493Y0052655D01*
X0121572Y0052655D01*
X0121572Y0053855D01*
X0127493Y0053855D01*
X0127493Y0060355D01*
X0127384Y0060762D01*
X0127173Y0061127D01*
X0126875Y0061425D01*
X0126510Y0061635D01*
X0126103Y0061744D01*
X0121571Y0061744D01*
X0121571Y0053855D01*
X0120372Y0053855D01*
X0120372Y0061744D01*
X0115840Y0061744D01*
X0115433Y0061635D01*
X0115068Y0061425D01*
X0114770Y0061127D01*
X0114559Y0060762D01*
X0114450Y0060355D01*
X0114450Y0053855D01*
X0120371Y0053855D01*
X0120371Y0052655D01*
X0114450Y0052655D01*
X0114450Y0046154D01*
X0114559Y0045747D01*
X0114770Y0045383D01*
X0115068Y0045085D01*
X0115433Y0044874D01*
X0115840Y0044765D01*
X0120372Y0044765D01*
X0120372Y0052655D01*
X0121571Y0052655D01*
X0121571Y0044765D01*
X0126103Y0044765D01*
X0126510Y0044874D01*
X0126875Y0045085D01*
X0127173Y0045383D01*
X0127384Y0045747D01*
X0127493Y0046154D01*
X0127493Y0052655D01*
X0121572Y0052655D01*
X0121572Y0053855D01*
X0127493Y0053855D01*
X0127493Y0060355D01*
X0127384Y0060762D01*
X0127173Y0061127D01*
X0126875Y0061425D01*
X0126510Y0061635D01*
X0126103Y0061744D01*
X0121571Y0061744D01*
X0121571Y0053855D01*
X0120372Y0053855D01*
X0120372Y0061744D01*
X0115840Y0061744D01*
X0115433Y0061635D01*
X0115068Y0061425D01*
X0114770Y0061127D01*
X0114559Y0060762D01*
X0114450Y0060189D02*
X0099503Y0060189D01*
X0114450Y0060189D01*
X0114450Y0058990D02*
X0098346Y0058990D01*
X0114450Y0058990D01*
X0115030Y0061387D02*
X0099540Y0061387D01*
X0115030Y0061387D01*
X0120372Y0061387D02*
X0121571Y0061387D01*
X0120372Y0061387D01*
X0120372Y0060189D02*
X0121571Y0060189D01*
X0120372Y0060189D01*
X0120372Y0058990D02*
X0121571Y0058990D01*
X0120372Y0058990D01*
X0120372Y0057792D02*
X0121571Y0057792D01*
X0120372Y0057792D01*
X0120372Y0056593D02*
X0121571Y0056593D01*
X0120372Y0056593D01*
X0120372Y0055395D02*
X0121571Y0055395D01*
X0120372Y0055395D01*
X0120372Y0054196D02*
X0121571Y0054196D01*
X0120372Y0054196D01*
X0120371Y0052998D02*
X0080031Y0052998D01*
X0080904Y0051799D02*
X0114450Y0051799D01*
X0088471Y0051799D01*
X0088471Y0050601D02*
X0114450Y0050601D01*
X0081880Y0050601D01*
X0083079Y0049402D02*
X0114450Y0049402D01*
X0088471Y0049402D01*
X0088471Y0048204D02*
X0114450Y0048204D01*
X0084277Y0048204D01*
X0085476Y0047005D02*
X0114450Y0047005D01*
X0088471Y0047005D01*
X0088537Y0045807D02*
X0114543Y0045807D01*
X0086674Y0045807D01*
X0087271Y0044608D02*
X0135971Y0044608D01*
X0135742Y0044608D02*
X0088831Y0044608D01*
X0089482Y0043410D02*
X0135203Y0043410D01*
X0135971Y0043410D02*
X0087271Y0043410D01*
X0087271Y0042211D02*
X0135971Y0042211D01*
X0135971Y0041013D02*
X0087271Y0041013D01*
X0087271Y0039814D02*
X0135971Y0039814D01*
X0135971Y0038616D02*
X0087271Y0038616D01*
X0087271Y0037417D02*
X0135971Y0037417D01*
X0135971Y0036219D02*
X0087271Y0036219D01*
X0087271Y0035020D02*
X0135971Y0035020D01*
X0135971Y0033822D02*
X0087271Y0033822D01*
X0087271Y0032623D02*
X0135971Y0032623D01*
X0135971Y0031425D02*
X0087271Y0031425D01*
X0087271Y0030226D02*
X0135971Y0030226D01*
X0135971Y0029028D02*
X0087271Y0029028D01*
X0087204Y0027829D02*
X0135971Y0027829D01*
X0135971Y0026631D02*
X0086512Y0026631D01*
X0086058Y0026176D02*
X0086058Y0026176D01*
X0085313Y0025432D02*
X0135971Y0025432D01*
X0135971Y0024234D02*
X0084115Y0024234D01*
X0083845Y0023964D02*
X0083845Y0023964D01*
X0082916Y0023035D02*
X0135971Y0023035D01*
X0135971Y0021837D02*
X0081718Y0021837D01*
X0079065Y0020638D02*
X0135971Y0020638D01*
X0135971Y0019440D02*
X0077568Y0019440D01*
X0067375Y0019440D02*
X0048351Y0019440D01*
X0048351Y0020638D02*
X0065878Y0020638D01*
X0065202Y0021837D02*
X0047960Y0021837D01*
X0047464Y0023035D02*
X0064871Y0023035D01*
X0064871Y0024234D02*
X0046967Y0024234D01*
X0045943Y0025432D02*
X0065272Y0025432D01*
X0066047Y0026631D02*
X0044745Y0026631D01*
X0042821Y0027829D02*
X0067782Y0027829D01*
X0068619Y0029028D02*
X0028104Y0029028D01*
X0028498Y0030226D02*
X0066290Y0030226D01*
X0065392Y0031425D02*
X0021372Y0031425D01*
X0021371Y0032623D02*
X0020571Y0032623D01*
X0020571Y0033822D02*
X0021371Y0033822D01*
X0021371Y0035020D02*
X0020571Y0035020D01*
X0026844Y0037417D02*
X0058448Y0037417D01*
X0060495Y0037417D02*
X0065448Y0037417D01*
X0063759Y0038616D02*
X0062184Y0038616D01*
X0062723Y0039814D02*
X0063220Y0039814D01*
X0063186Y0041013D02*
X0062757Y0041013D01*
X0062876Y0042211D02*
X0063067Y0042211D01*
X0056186Y0041013D02*
X0028571Y0041013D01*
X0028469Y0042211D02*
X0056067Y0042211D01*
X0055903Y0043410D02*
X0027973Y0043410D01*
X0026919Y0044608D02*
X0055903Y0044608D01*
X0055903Y0045807D02*
X0005971Y0045807D01*
X0005971Y0047005D02*
X0015716Y0047005D01*
X0014312Y0048204D02*
X0005971Y0048204D01*
X0005971Y0049402D02*
X0013675Y0049402D01*
X0013371Y0050601D02*
X0005971Y0050601D01*
X0005971Y0051799D02*
X0013371Y0051799D01*
X0013799Y0052998D02*
X0005971Y0052998D01*
X0005971Y0054196D02*
X0014613Y0054196D01*
X0016441Y0055395D02*
X0005971Y0055395D01*
X0005971Y0056593D02*
X0016801Y0056593D01*
X0014724Y0057792D02*
X0005971Y0057792D01*
X0005971Y0058990D02*
X0013858Y0058990D01*
X0020571Y0058990D02*
X0021371Y0058990D01*
X0021371Y0057792D02*
X0020571Y0057792D01*
X0020571Y0056593D02*
X0021371Y0056593D01*
X0021371Y0060189D02*
X0020571Y0060189D01*
X0020571Y0062586D02*
X0021371Y0062586D01*
X0021371Y0063784D02*
X0020571Y0063784D01*
X0020571Y0064983D02*
X0021371Y0064983D01*
X0026384Y0064983D02*
X0033171Y0064983D01*
X0033232Y0063784D02*
X0027671Y0063784D01*
X0028309Y0062586D02*
X0033789Y0062586D01*
X0028571Y0050601D02*
X0055903Y0050601D01*
X0055935Y0049402D02*
X0028268Y0049402D01*
X0027631Y0048204D02*
X0056075Y0048204D01*
X0055903Y0047005D02*
X0026227Y0047005D01*
X0028439Y0039814D02*
X0056220Y0039814D01*
X0056759Y0038616D02*
X0027942Y0038616D01*
X0028297Y0032623D02*
X0064961Y0032623D01*
X0072071Y0032623D02*
X0072871Y0032623D01*
X0072871Y0031425D02*
X0072071Y0031425D01*
X0072071Y0030226D02*
X0072871Y0030226D01*
X0072871Y0029028D02*
X0072071Y0029028D01*
X0076324Y0029028D02*
X0080989Y0029028D01*
X0081671Y0030226D02*
X0078653Y0030226D01*
X0079551Y0031425D02*
X0081671Y0031425D01*
X0081671Y0032623D02*
X0079982Y0032623D01*
X0079885Y0027924D02*
X0079885Y0027924D01*
X0079791Y0027829D02*
X0077161Y0027829D01*
X0072871Y0035020D02*
X0072071Y0035020D01*
X0072071Y0036219D02*
X0072871Y0036219D01*
X0072871Y0037417D02*
X0072071Y0037417D01*
X0090615Y0042211D02*
X0134173Y0042211D01*
X0135950Y0045807D02*
X0127400Y0045807D01*
X0135971Y0045807D01*
X0135971Y0047005D02*
X0127493Y0047005D01*
X0135971Y0047005D01*
X0135971Y0048204D02*
X0127493Y0048204D01*
X0135971Y0048204D01*
X0135971Y0049402D02*
X0127493Y0049402D01*
X0135971Y0049402D01*
X0135971Y0050601D02*
X0127493Y0050601D01*
X0135971Y0050601D01*
X0135971Y0051799D02*
X0127493Y0051799D01*
X0135971Y0051799D01*
X0135971Y0052998D02*
X0121572Y0052998D01*
X0135971Y0052998D01*
X0135971Y0054196D02*
X0127493Y0054196D01*
X0135971Y0054196D01*
X0135971Y0055395D02*
X0127493Y0055395D01*
X0135971Y0055395D01*
X0135971Y0056593D02*
X0127493Y0056593D01*
X0135971Y0056593D01*
X0135971Y0057792D02*
X0127493Y0057792D01*
X0135971Y0057792D01*
X0135971Y0058990D02*
X0127493Y0058990D01*
X0135971Y0058990D01*
X0135971Y0060189D02*
X0127493Y0060189D01*
X0135971Y0060189D01*
X0135971Y0061387D02*
X0126912Y0061387D01*
X0136001Y0061387D01*
X0135971Y0062586D02*
X0096356Y0062586D01*
X0136226Y0062586D01*
X0135971Y0063784D02*
X0099540Y0063784D01*
X0099540Y0064983D02*
X0135971Y0064983D01*
X0135960Y0066182D02*
X0099153Y0066182D01*
X0099540Y0067380D02*
X0135772Y0067380D01*
X0135315Y0068579D02*
X0195971Y0068579D01*
X0195971Y0069777D02*
X0135787Y0069777D01*
X0135965Y0070976D02*
X0142449Y0070976D01*
X0142360Y0071064D02*
X0142658Y0070766D01*
X0143023Y0070555D01*
X0143430Y0070446D01*
X0147372Y0070446D01*
X0147372Y0074989D01*
X0148571Y0074989D01*
X0148571Y0070446D01*
X0152513Y0070446D01*
X0152920Y0070555D01*
X0153285Y0070766D01*
X0153583Y0071064D01*
X0153793Y0071428D01*
X0153902Y0071835D01*
X0153902Y0074989D01*
X0148572Y0074989D01*
X0148572Y0076189D01*
X0153902Y0076189D01*
X0153902Y0079343D01*
X0153793Y0079750D01*
X0153583Y0080115D01*
X0153285Y0080413D01*
X0152920Y0080624D01*
X0152513Y0080733D01*
X0148571Y0080733D01*
X0148571Y0076189D01*
X0147372Y0076189D01*
X0147372Y0080733D01*
X0143430Y0080733D01*
X0143023Y0080624D01*
X0142658Y0080413D01*
X0142360Y0080115D01*
X0142150Y0079750D01*
X0142041Y0079343D01*
X0142041Y0076189D01*
X0147371Y0076189D01*
X0147371Y0074989D01*
X0142041Y0074989D01*
X0142041Y0071835D01*
X0142150Y0071428D01*
X0142360Y0071064D01*
X0142041Y0072174D02*
X0135971Y0072174D01*
X0135971Y0073373D02*
X0142041Y0073373D01*
X0142041Y0074571D02*
X0135971Y0074571D01*
X0135971Y0075770D02*
X0147371Y0075770D01*
X0147372Y0076968D02*
X0148571Y0076968D01*
X0148572Y0075770D02*
X0159341Y0075770D01*
X0156827Y0076968D02*
X0153902Y0076968D01*
X0153902Y0078167D02*
X0155473Y0078167D01*
X0154567Y0079365D02*
X0153896Y0079365D01*
X0153971Y0080564D02*
X0153024Y0080564D01*
X0153971Y0081762D02*
X0140471Y0081762D01*
X0140471Y0082961D02*
X0153971Y0082961D01*
X0153971Y0084159D02*
X0140471Y0084159D01*
X0140471Y0085358D02*
X0153971Y0085358D01*
X0153749Y0086556D02*
X0140473Y0086556D01*
X0140964Y0087755D02*
X0153052Y0087755D01*
X0151047Y0088953D02*
X0142608Y0088953D01*
X0142919Y0080564D02*
X0140113Y0080564D01*
X0142047Y0079365D02*
X0137141Y0079365D01*
X0136082Y0078167D02*
X0142041Y0078167D01*
X0142041Y0076968D02*
X0135971Y0076968D01*
X0131822Y0070976D02*
X0127176Y0070976D01*
X0132047Y0066182D02*
X0195971Y0066182D01*
X0195971Y0067380D02*
X0134346Y0067380D01*
X0135282Y0068579D02*
X0099540Y0068579D01*
X0099540Y0069777D02*
X0134289Y0069777D01*
X0147372Y0070976D02*
X0148571Y0070976D01*
X0148571Y0072174D02*
X0147372Y0072174D01*
X0147372Y0073373D02*
X0148571Y0073373D01*
X0148571Y0074571D02*
X0147372Y0074571D01*
X0147372Y0078167D02*
X0148571Y0078167D01*
X0148571Y0079365D02*
X0147372Y0079365D01*
X0147372Y0080564D02*
X0148571Y0080564D01*
X0153902Y0074571D02*
X0194495Y0074571D01*
X0195384Y0073373D02*
X0153902Y0073373D01*
X0153902Y0072174D02*
X0195827Y0072174D01*
X0195971Y0070976D02*
X0153494Y0070976D01*
X0163571Y0075770D02*
X0192603Y0075770D01*
X0195971Y0064983D02*
X0164039Y0064983D01*
X0165137Y0063784D02*
X0195971Y0063784D01*
X0195971Y0062586D02*
X0165717Y0062586D01*
X0165942Y0061387D02*
X0195971Y0061387D01*
X0195896Y0060189D02*
X0166047Y0060189D01*
X0166436Y0058990D02*
X0195507Y0058990D01*
X0194758Y0057792D02*
X0167185Y0057792D01*
X0168743Y0056593D02*
X0193200Y0056593D01*
X0191840Y0050974D02*
X0190971Y0051050D01*
X0165971Y0051050D01*
X0165103Y0051126D01*
X0164261Y0051352D01*
X0163471Y0051720D01*
X0162758Y0052220D01*
X0162141Y0052836D01*
X0161641Y0053550D01*
X0161273Y0054340D01*
X0161047Y0055182D01*
X0160896Y0056918D01*
X0160670Y0057760D01*
X0160302Y0058550D01*
X0159802Y0059264D01*
X0159185Y0059880D01*
X0158471Y0060380D01*
X0157682Y0060748D01*
X0156840Y0060974D01*
X0155971Y0061050D01*
X0145971Y0061050D01*
X0145103Y0060974D01*
X0144261Y0060748D01*
X0144059Y0060654D01*
X0147372Y0060654D01*
X0147372Y0056111D01*
X0148571Y0056111D01*
X0148571Y0060654D01*
X0152513Y0060654D01*
X0152920Y0060545D01*
X0153285Y0060334D01*
X0153583Y0060036D01*
X0153793Y0059672D01*
X0153902Y0059265D01*
X0153902Y0056111D01*
X0148572Y0056111D01*
X0148572Y0054911D01*
X0153902Y0054911D01*
X0153902Y0051757D01*
X0153793Y0051350D01*
X0153583Y0050985D01*
X0153285Y0050687D01*
X0152920Y0050476D01*
X0152513Y0050367D01*
X0148571Y0050367D01*
X0148571Y0054911D01*
X0147372Y0054911D01*
X0147372Y0050367D01*
X0143430Y0050367D01*
X0143023Y0050476D01*
X0142658Y0050687D01*
X0142360Y0050985D01*
X0142150Y0051350D01*
X0142041Y0051757D01*
X0142041Y0054911D01*
X0147371Y0054911D01*
X0147371Y0056111D01*
X0142041Y0056111D01*
X0142041Y0059120D01*
X0141641Y0058550D01*
X0141273Y0057760D01*
X0141047Y0056918D01*
X0140971Y0056050D01*
X0140971Y0036050D01*
X0141047Y0035182D01*
X0141273Y0034340D01*
X0141641Y0033550D01*
X0142141Y0032836D01*
X0142758Y0032220D01*
X0143471Y0031720D01*
X0144261Y0031352D01*
X0145103Y0031126D01*
X0145971Y0031050D01*
X0190971Y0031050D01*
X0191840Y0031126D01*
X0192682Y0031352D01*
X0193471Y0031720D01*
X0194185Y0032220D01*
X0194802Y0032836D01*
X0195302Y0033550D01*
X0195670Y0034340D01*
X0195896Y0035182D01*
X0195971Y0036050D01*
X0195971Y0046050D01*
X0195896Y0046918D01*
X0195670Y0047760D01*
X0195302Y0048550D01*
X0194802Y0049264D01*
X0194185Y0049880D01*
X0193471Y0050380D01*
X0192682Y0050748D01*
X0191840Y0050974D01*
X0192998Y0050601D02*
X0153135Y0050601D01*
X0153902Y0051799D02*
X0163358Y0051799D01*
X0162028Y0052998D02*
X0153902Y0052998D01*
X0153902Y0054196D02*
X0161340Y0054196D01*
X0161029Y0055395D02*
X0148572Y0055395D01*
X0148571Y0056593D02*
X0147372Y0056593D01*
X0147371Y0055395D02*
X0140971Y0055395D01*
X0140971Y0054196D02*
X0142041Y0054196D01*
X0142041Y0052998D02*
X0140971Y0052998D01*
X0140971Y0051799D02*
X0142041Y0051799D01*
X0142808Y0050601D02*
X0140971Y0050601D01*
X0140971Y0049402D02*
X0194663Y0049402D01*
X0195463Y0048204D02*
X0140971Y0048204D01*
X0140971Y0047005D02*
X0195872Y0047005D01*
X0195971Y0045807D02*
X0140971Y0045807D01*
X0140971Y0044608D02*
X0195971Y0044608D01*
X0195971Y0043410D02*
X0140971Y0043410D01*
X0140971Y0042211D02*
X0195971Y0042211D01*
X0195971Y0041013D02*
X0140971Y0041013D01*
X0140971Y0039814D02*
X0195971Y0039814D01*
X0195971Y0038616D02*
X0140971Y0038616D01*
X0140971Y0037417D02*
X0195971Y0037417D01*
X0195971Y0036219D02*
X0140971Y0036219D01*
X0141091Y0035020D02*
X0195852Y0035020D01*
X0195428Y0033822D02*
X0141515Y0033822D01*
X0142354Y0032623D02*
X0194589Y0032623D01*
X0192838Y0031425D02*
X0144105Y0031425D01*
X0135971Y0018241D02*
X0048351Y0018241D01*
X0048351Y0017043D02*
X0135971Y0017043D01*
X0135971Y0015844D02*
X0047891Y0015844D01*
X0047394Y0014646D02*
X0135971Y0014646D01*
X0135971Y0013447D02*
X0046898Y0013447D01*
X0045776Y0012249D02*
X0135971Y0012249D01*
X0135971Y0011050D02*
X0135896Y0010182D01*
X0132325Y0006256D02*
X0014069Y0006256D01*
X0025256Y0026631D02*
X0032159Y0026631D01*
X0034083Y0027829D02*
X0027256Y0027829D01*
X0014687Y0027829D02*
X0005971Y0027829D01*
X0005971Y0029028D02*
X0013839Y0029028D01*
X0013445Y0030226D02*
X0005971Y0030226D01*
X0005971Y0038616D02*
X0014001Y0038616D01*
X0013504Y0039814D02*
X0005971Y0039814D01*
X0005971Y0041013D02*
X0013371Y0041013D01*
X0013474Y0042211D02*
X0005971Y0042211D01*
X0005971Y0043410D02*
X0013970Y0043410D01*
X0015024Y0044608D02*
X0005971Y0044608D01*
X0005971Y0067380D02*
X0015136Y0067380D01*
X0014016Y0068579D02*
X0005971Y0068579D01*
X0005971Y0069777D02*
X0013520Y0069777D01*
X0013371Y0070976D02*
X0005971Y0070976D01*
X0005971Y0072174D02*
X0013458Y0072174D01*
X0013955Y0073373D02*
X0005971Y0073373D01*
X0005971Y0074571D02*
X0014987Y0074571D01*
X0020571Y0076968D02*
X0021371Y0076968D01*
X0021371Y0078167D02*
X0020571Y0078167D01*
X0020571Y0079365D02*
X0021371Y0079365D01*
X0021371Y0080564D02*
X0020571Y0080564D01*
X0020571Y0081762D02*
X0021371Y0081762D01*
X0021371Y0082961D02*
X0020571Y0082961D01*
X0020571Y0084159D02*
X0021371Y0084159D01*
X0021371Y0085358D02*
X0020571Y0085358D01*
X0025143Y0086556D02*
X0033871Y0086556D01*
X0033871Y0085358D02*
X0025600Y0085358D01*
X0027368Y0084159D02*
X0033871Y0084159D01*
X0033871Y0082961D02*
X0028161Y0082961D01*
X0028516Y0081762D02*
X0033871Y0081762D01*
X0033871Y0080564D02*
X0028552Y0080564D01*
X0028261Y0079365D02*
X0033871Y0079365D01*
X0033871Y0078167D02*
X0027562Y0078167D01*
X0027182Y0087755D02*
X0034206Y0087755D01*
X0035405Y0088953D02*
X0028082Y0088953D01*
X0028571Y0090152D02*
X0036603Y0090152D01*
X0037802Y0091350D02*
X0028571Y0091350D01*
X0028330Y0092549D02*
X0039000Y0092549D01*
X0040199Y0093747D02*
X0027780Y0093747D01*
X0026581Y0094946D02*
X0041397Y0094946D01*
X0049845Y0088953D02*
X0050974Y0088953D01*
X0050974Y0087755D02*
X0048646Y0087755D01*
X0047448Y0086556D02*
X0051695Y0086556D01*
X0052212Y0075770D02*
X0083631Y0075770D01*
X0083631Y0074571D02*
X0066969Y0074571D01*
X0066969Y0073373D02*
X0084110Y0073373D01*
X0085328Y0072174D02*
X0066969Y0072174D01*
X0066969Y0070976D02*
X0086801Y0070976D01*
X0085403Y0069777D02*
X0066969Y0069777D01*
X0066969Y0068579D02*
X0084004Y0068579D01*
X0082606Y0067380D02*
X0066969Y0067380D01*
X0061099Y0062586D02*
X0057790Y0062586D01*
X0070040Y0054196D02*
X0114450Y0054196D01*
X0088471Y0054196D01*
X0088471Y0052998D02*
X0120371Y0052998D01*
X0120372Y0051799D02*
X0121571Y0051799D01*
X0120372Y0051799D01*
X0120372Y0050601D02*
X0121571Y0050601D01*
X0120372Y0050601D01*
X0120372Y0049402D02*
X0121571Y0049402D01*
X0120372Y0049402D01*
X0120372Y0048204D02*
X0121571Y0048204D01*
X0120372Y0048204D01*
X0120372Y0047005D02*
X0121571Y0047005D01*
X0120372Y0047005D01*
X0120372Y0045807D02*
X0121571Y0045807D01*
X0120372Y0045807D01*
X0141019Y0056593D02*
X0142041Y0056593D01*
X0142041Y0057792D02*
X0141288Y0057792D01*
X0141950Y0058990D02*
X0142041Y0058990D01*
X0147372Y0058990D02*
X0148571Y0058990D01*
X0148571Y0057792D02*
X0147372Y0057792D01*
X0147372Y0060189D02*
X0148571Y0060189D01*
X0153430Y0060189D02*
X0158745Y0060189D01*
X0159993Y0058990D02*
X0153902Y0058990D01*
X0153902Y0057792D02*
X0160655Y0057792D01*
X0160924Y0056593D02*
X0153902Y0056593D01*
X0148571Y0054196D02*
X0147372Y0054196D01*
X0147372Y0052998D02*
X0148571Y0052998D01*
X0148571Y0051799D02*
X0147372Y0051799D01*
X0147372Y0050601D02*
X0148571Y0050601D01*
X0099540Y0060328D02*
X0099540Y0062319D01*
X0096356Y0062319D01*
X0096356Y0058938D01*
X0098151Y0058938D01*
X0098558Y0059047D01*
X0098922Y0059258D01*
X0099220Y0059556D01*
X0099431Y0059921D01*
X0099540Y0060328D01*
X0096356Y0060189D02*
X0095587Y0060189D01*
X0096356Y0060189D01*
X0096356Y0061387D02*
X0095587Y0061387D01*
X0096356Y0061387D01*
X0095587Y0062319D02*
X0095587Y0058938D01*
X0093792Y0058938D01*
X0093385Y0059047D01*
X0093021Y0059258D01*
X0092723Y0059556D01*
X0092512Y0059921D01*
X0092403Y0060328D01*
X0092403Y0062319D01*
X0095587Y0062319D01*
X0095587Y0062586D02*
X0086847Y0062586D01*
X0085449Y0061387D02*
X0092403Y0061387D01*
X0089203Y0061387D01*
X0088612Y0060189D02*
X0092440Y0060189D01*
X0084018Y0060189D01*
X0088245Y0063784D02*
X0092403Y0063784D01*
X0092403Y0064983D02*
X0089644Y0064983D01*
X0091042Y0066182D02*
X0092790Y0066182D01*
X0090550Y0062586D02*
X0095587Y0062586D01*
X0095587Y0058990D02*
X0096356Y0058990D01*
X0095587Y0058990D01*
X0075470Y0085358D02*
X0075287Y0085358D01*
X0088215Y0093550D02*
X0088215Y0093550D01*
X0088216Y0093747D02*
X0088216Y0093747D01*
X0088216Y0094946D02*
X0088216Y0094946D01*
X0089462Y0121313D02*
X0044551Y0121313D01*
X0042352Y0122512D02*
X0088594Y0122512D01*
X0087383Y0123710D02*
X0009560Y0123710D01*
X0008349Y0122512D02*
X0034552Y0122512D01*
X0032353Y0121313D02*
X0007481Y0121313D01*
X0006842Y0120115D02*
X0031155Y0120115D01*
X0030017Y0118916D02*
X0006395Y0118916D01*
X0006126Y0117718D02*
X0029520Y0117718D01*
X0029024Y0116519D02*
X0006005Y0116519D01*
X0005971Y0115320D02*
X0028553Y0115320D01*
X0028553Y0114122D02*
X0005971Y0114122D01*
X0005971Y0112923D02*
X0028553Y0112923D01*
X0028553Y0111725D02*
X0005971Y0111725D01*
X0005971Y0110526D02*
X0028932Y0110526D01*
X0029429Y0109328D02*
X0005971Y0109328D01*
X0005971Y0108129D02*
X0029925Y0108129D01*
X0030934Y0106931D02*
X0005971Y0106931D01*
X0005971Y0105732D02*
X0032132Y0105732D01*
X0034018Y0104534D02*
X0026993Y0104534D01*
X0014950Y0104534D02*
X0005971Y0104534D01*
X0005971Y0103335D02*
X0013939Y0103335D01*
X0013443Y0102137D02*
X0005971Y0102137D01*
X0005971Y0100938D02*
X0013371Y0100938D01*
X0013535Y0099740D02*
X0005971Y0099740D01*
X0005971Y0098541D02*
X0014032Y0098541D01*
X0015173Y0097343D02*
X0005971Y0097343D01*
X0011382Y0124909D02*
X0085561Y0124909D01*
D26*
X0185971Y0091050D03*
X0185971Y0066050D03*
X0185971Y0041050D03*
D27*
X0095971Y0069396D02*
X0091471Y0069396D01*
X0089818Y0069396D01*
X0089471Y0069050D01*
X0082471Y0063050D01*
X0065160Y0063050D01*
X0058971Y0069239D01*
X0095625Y0069050D02*
X0095971Y0069396D01*
D28*
X0164971Y0089550D03*
D29*
X0126471Y0082050D03*
X0121471Y0084550D03*
X0126971Y0076550D03*
X0108971Y0093550D03*
D30*
X0113727Y0093550D02*
X0115971Y0093550D01*
X0118971Y0096550D01*
X0120471Y0096550D01*
X0123471Y0093550D01*
X0126471Y0093550D01*
X0129471Y0096550D01*
X0131471Y0096550D01*
X0134471Y0093550D01*
X0161471Y0093550D01*
X0078471Y0050550D02*
X0077971Y0050550D01*
D31*
X0038452Y0018924D03*
X0038452Y0113412D03*
X0195932Y0113412D03*
X0195932Y0018924D03*
M02*
