%
M48
M72
T01C0.01575
T02C0.01772
T03C0.01969
T04C0.02362
T05C0.03200
T06C0.04000
T07C0.04724
T08C0.09843
T09C0.12598
%
T01
X10971Y21050
X10971Y41050
X40971Y46050
X45971Y51050
X51471Y56550
X59471Y56550
X66471Y56550
X77971Y50550
X75971Y46050
X110471Y31550
X115471Y31550
X120971Y31550
X125971Y31050
X131471Y31050
X128971Y36050
X123471Y36050
X118471Y36050
X113471Y36050
X115971Y41050
X120971Y41050
X125971Y41050
X91471Y69396
X77971Y80550
X71471Y76550
X59471Y78050
X72971Y87550
X79471Y89050
X85971Y96050
X91971Y97550
X78971Y99706
X65971Y101050
X45471Y96050
X40971Y83050
X10971Y81050
X10971Y61050
X69971Y68550
X10971Y101050
X142471Y84550
X151471Y84050
X155971Y73050
X175471Y72050
T02
X86971Y75050
X66471Y93050
X36471Y64550
X59471Y40550
X66471Y40550
T03
X164971Y89550
T04
X126471Y82050
X121471Y84550
X126971Y76550
X108971Y93550
T05
X119971Y91050
X129971Y91050
X124971Y98550
T06
X72471Y33550
X72471Y23550
X20971Y31050
X20971Y41050
X20971Y51050
X20971Y61050
X20971Y71050
X20971Y81050
X20971Y91050
X20971Y101050
T07
X60971Y106050
X70971Y106050
X80971Y106050
X80971Y116050
X70971Y116050
X60971Y116050
T08
X185971Y91050
X185971Y66050
X185971Y41050
T09
X195932Y18924
X195932Y113412
X38452Y113412
X38452Y18924
M30
